<svg xmlns="http://www.w3.org/2000/svg" width="26" height="26" viewBox="0 0 26 26">
  <g id="Group_7388" data-name="Group 7388" transform="translate(-1635 -47)">
    <g id="menu" transform="translate(1444 52)">
      <g id="Group_5755" data-name="Group 5755" transform="translate(190)">
        <g id="Group_5754" data-name="Group 5754">
          <g id="Group_7299" data-name="Group 7299" transform="translate(0 -6)">
            <circle id="Ellipse_7" data-name="Ellipse 7" cx="3" cy="3" r="3" transform="translate(1 1)" fill="#fff"/>
            <circle id="Ellipse_43" data-name="Ellipse 43" cx="3" cy="3" r="3" transform="translate(1 11)" fill="#fff"/>
            <circle id="Ellipse_44" data-name="Ellipse 44" cx="3" cy="3" r="3" transform="translate(1 21)" fill="#fff"/>
          </g>
        </g>
      </g>
    </g>
    <g id="menu-2" data-name="menu" transform="translate(1454 52)">
      <g id="Group_5755-2" data-name="Group 5755" transform="translate(190)">
        <g id="Group_5754-2" data-name="Group 5754">
          <g id="Group_7299-2" data-name="Group 7299" transform="translate(0 -6)">
            <circle id="Ellipse_7-2" data-name="Ellipse 7" cx="3" cy="3" r="3" transform="translate(1 1)" fill="#fff"/>
            <circle id="Ellipse_43-2" data-name="Ellipse 43" cx="3" cy="3" r="3" transform="translate(1 11)" fill="#fff"/>
            <circle id="Ellipse_44-2" data-name="Ellipse 44" cx="3" cy="3" r="3" transform="translate(1 21)" fill="#fff"/>
          </g>
        </g>
      </g>
    </g>
    <g id="menu-3" data-name="menu" transform="translate(1464 52)">
      <g id="Group_5755-3" data-name="Group 5755" transform="translate(190)">
        <g id="Group_5754-3" data-name="Group 5754">
          <g id="Group_7299-3" data-name="Group 7299" transform="translate(0 -6)">
            <circle id="Ellipse_7-3" data-name="Ellipse 7" cx="3" cy="3" r="3" transform="translate(1 1)" fill="#fff"/>
            <circle id="Ellipse_43-3" data-name="Ellipse 43" cx="3" cy="3" r="3" transform="translate(1 11)" fill="#fff"/>
            <circle id="Ellipse_44-3" data-name="Ellipse 44" cx="3" cy="3" r="3" transform="translate(1 21)" fill="#fff"/>
          </g>
        </g>
      </g>
    </g>
  </g>
</svg>
