<svg id="Group_7421" data-name="Group 7421" xmlns="http://www.w3.org/2000/svg" width="54.421" height="54.421" viewBox="0 0 54.421 54.421">
  <circle id="Ellipse_45" data-name="Ellipse 45" cx="26.961" cy="26.961" r="26.961" transform="translate(0.25 0.25)" fill="none" stroke="#3f54d2" stroke-miterlimit="10" stroke-width="0.5"/>
  <g id="Group_7420" data-name="Group 7420">
    <path id="Path_3164" data-name="Path 3164" d="M29.145,36.84a9.8,9.8,0,0,1-2.67.372,10.463,10.463,0,0,1,0-20.915,10.513,10.513,0,0,1,7.762,17.2c1.472,1.157,3.09,2.432,4.6,3.629A16.544,16.544,0,0,0,42.388,26.8,16.118,16.118,0,0,0,26.475,10.387,16.081,16.081,0,0,0,10.606,26.8,15.866,15.866,0,0,0,29.14,42.9Z" fill="#527fe2"/>
    <path id="Path_3165" data-name="Path 3165" d="M30.7,32.592S44.149,43.1,44.5,43.574c-.235.2-8.942-.353-8.942-.353l-4.88,7.688Z" fill="#3f54d2"/>
  </g>
</svg>
