<svg xmlns="http://www.w3.org/2000/svg" width="25" height="20" viewBox="0 0 25 20"><g><g><path fill="#fff" d="M23.13 8.748l-.002-.002-7.371-7.335a1.41 1.41 0 0 0-1.99 2l4.948 4.925H2.08a1.41 1.41 0 1 0 0 2.821h16.636l-4.948 4.925a1.41 1.41 0 1 0 1.99 2l7.371-7.336.001-.001a1.412 1.412 0 0 0 0-1.997z"/><path fill="none" stroke="#7540ee" stroke-miterlimit="20" d="M23.13 8.748l-.002-.002-7.371-7.335a1.41 1.41 0 0 0-1.99 2l4.948 4.925v0H2.08a1.41 1.41 0 1 0 0 2.821h16.636v0l-4.948 4.925a1.41 1.41 0 1 0 1.99 2l7.371-7.336.001-.001a1.412 1.412 0 0 0 0-1.997z"/></g></g></svg>