<svg xmlns="http://www.w3.org/2000/svg" width="15.148" height="18.644" viewBox="0 0 15.148 18.644">
  <g id="delete" transform="translate(-48)">
    <path id="Path_3171" data-name="Path 3171" d="M61.692,2.331h-3.2V1.748A1.748,1.748,0,0,0,56.739,0H54.409a1.748,1.748,0,0,0-1.748,1.748v.583h-3.2A1.457,1.457,0,0,0,48,3.787V4.952a.583.583,0,0,0,.583.583H62.566a.583.583,0,0,0,.583-.583V3.787A1.457,1.457,0,0,0,61.692,2.331Zm-7.865-.583a.583.583,0,0,1,.583-.583h2.331a.583.583,0,0,1,.583.583v.583h-3.5Z" transform="translate(0)" fill="#17468f"/>
    <path id="Path_3172" data-name="Path 3172" d="M73.546,184a.182.182,0,0,0-.182.191l.481,10.088a1.746,1.746,0,0,0,1.746,1.665h8.848a1.746,1.746,0,0,0,1.746-1.665l.481-10.088a.182.182,0,0,0-.182-.191Zm8.8,1.457a.583.583,0,0,1,1.165,0v7.574a.583.583,0,0,1-1.165,0Zm-2.913,0a.583.583,0,0,1,1.165,0v7.574a.583.583,0,0,1-1.165,0Zm-2.913,0a.583.583,0,1,1,1.165,0v7.574a.583.583,0,1,1-1.165,0Z" transform="translate(-24.441 -177.3)" fill="#17468f"/>
  </g>
</svg>
