<svg xmlns="http://www.w3.org/2000/svg" width="25" height="25" viewBox="0 0 25 25"><g><g><path fill="#17468f" d="M0 12.5C0 5.596 5.596 0 12.5 0S25 5.596 25 12.5 19.404 25 12.5 25 0 19.404 0 12.5z"/></g><g><path fill="#fff" d="M18.088 9.533a1.344 1.344 0 0 0-.987-.416h-1.973v-.023c0-.298-.119-.583-.32-.773A1.088 1.088 0 0 0 14.034 8h-3.566a1.095 1.095 0 0 0-1.105 1.094v.023H7.402c-.392 0-.736.155-.986.416-.25.25-.416.606-.416.987v5.919c0 .392.154.737.416.986.25.25.606.416.986.416h9.7c.391 0 .736-.154.986-.416.25-.25.416-.606.416-.986v-5.92c0-.391-.155-.736-.416-.986z"/></g><g><path fill="#17468f" d="M13.868 15.108a2.323 2.323 0 0 1-1.616.665c-.63 0-1.2-.261-1.617-.665a2.272 2.272 0 0 1-.665-1.617c0-.63.261-1.2.665-1.616a2.272 2.272 0 0 1 1.617-.666c.63 0 1.2.262 1.616.666.416.416.666.986.666 1.616.012.63-.25 1.2-.666 1.617zm-1.616-4.553a2.93 2.93 0 0 0-2.068.856 2.93 2.93 0 0 0 0 4.136 2.93 2.93 0 0 0 4.136 0 2.93 2.93 0 0 0 0-4.136 2.93 2.93 0 0 0-2.068-.856z"/></g><g><path fill="#17468f" d="M15.9 11.126a.582.582 0 1 1 1.166 0 .582.582 0 0 1-1.165 0z"/></g></g></svg>