<svg xmlns="http://www.w3.org/2000/svg" width="13" height="13" viewBox="0 0 13 13"><g><g><path fill="#17468f" d="M7.008 6.44l4.833-4.834a.436.436 0 1 0-.616-.616L6.392 5.823 1.558.99a.436.436 0 1 0-.616.616l4.834 4.833-4.834 4.834a.436.436 0 1 0 .616.616l4.834-4.834 4.833 4.834a.434.434 0 0 0 .616 0 .436.436 0 0 0 0-.616z"/><path fill="none" stroke="#17468f" stroke-miterlimit="20" d="M7.008 6.44v0l4.833-4.834a.436.436 0 1 0-.616-.616L6.392 5.823v0L1.558.99a.436.436 0 1 0-.616.616l4.834 4.833v0L.942 11.273a.436.436 0 1 0 .616.616l4.834-4.834v0l4.833 4.834a.434.434 0 0 0 .616 0 .436.436 0 0 0 0-.616z"/></g></g></svg>