<svg xmlns="http://www.w3.org/2000/svg" width="37.223" height="45.904" viewBox="0 0 37.223 45.904">
  <g id="contact" transform="translate(-48.725 0.275)">
    <path id="Path_3132" data-name="Path 3132" d="M84.344,0H53.163a1.329,1.329,0,0,0-1.329,1.329V7.175H50.329a1.329,1.329,0,0,0,0,2.657h1.506v4.429H50.329a1.329,1.329,0,0,0,0,2.657h1.506v4.429H50.329a1.329,1.329,0,0,0,0,2.657h1.506v4.429H50.329a1.329,1.329,0,0,0,0,2.657h1.506v4.429H50.329a1.329,1.329,0,0,0,0,2.657h1.506v5.846a1.329,1.329,0,0,0,1.329,1.329H84.344a1.329,1.329,0,0,0,1.329-1.329V1.329A1.329,1.329,0,0,0,84.344,0ZM83.015,42.7H54.492V38.178H56a1.329,1.329,0,1,0,0-2.657H54.492V31.092H56a1.329,1.329,0,1,0,0-2.657H54.492V24.006H56a1.329,1.329,0,1,0,0-2.657H54.492V16.919H56a1.329,1.329,0,1,0,0-2.657H54.492V9.833H56a1.329,1.329,0,1,0,0-2.657H54.492V2.657H83.015Z" transform="translate(0)" fill="#6fb938" stroke="#fff" stroke-width="0.55"/>
    <path id="Path_3133" data-name="Path 3133" d="M177,153.166a1.087,1.087,0,0,0,1.087,1.087h11.6a1.087,1.087,0,0,0,1.087-1.087,8.421,8.421,0,0,0-3.571-7.086,5.147,5.147,0,1,0-6.632,0A8.422,8.422,0,0,0,177,153.166Z" transform="translate(-115.133 -122.95)" fill="#17468f" stroke="#fff" stroke-width="0.55"/>
  </g>
</svg>
