<svg xmlns="http://www.w3.org/2000/svg" width="20" height="20" viewBox="0 0 20 20">
  <g id="Custom_Reports" data-name="Custom Reports" transform="translate(1.186 0)">
    <path id="Path_3145" data-name="Path 3145" d="M16.408,0H3.592A3.6,3.6,0,0,0,0,3.592V16.408A3.6,3.6,0,0,0,3.592,20H16.408A3.6,3.6,0,0,0,20,16.408V3.592A3.6,3.6,0,0,0,16.408,0ZM16.9,15.608h-6.41a1.845,1.845,0,0,1-3.494,0H3.1a.588.588,0,0,1,0-1.176H7a1.845,1.845,0,0,1,3.494,0H16.9A.588.588,0,0,1,16.9,15.608Zm0-5.02h-1.39a1.845,1.845,0,0,1-3.494,0H3.1a.588.588,0,0,1,0-1.176h8.92a1.845,1.845,0,0,1,3.494,0H16.9A.588.588,0,0,1,16.9,10.588Zm0-5.02H7.982a1.845,1.845,0,0,1-3.494,0H3.1a.588.588,0,0,1,0-1.176h1.39a1.845,1.845,0,0,1,3.494,0H16.9A.588.588,0,0,1,16.9,5.569Z" transform="translate(-1.186 0)" fill="#fff"/>
    <path id="Path_3146" data-name="Path 3146" d="M207.659,367.435a.721.721,0,0,0,0,1.442A.721.721,0,0,0,207.659,367.435Z" transform="translate(-198.907 -353.166)" fill="#fff"/>
    <path id="Path_3147" data-name="Path 3147" d="M143.408,110.431a.721.721,0,0,0,0,1.442A.721.721,0,0,0,143.408,110.431Z" transform="translate(-137.151 -106.142)" fill="#fff"/>
    <path id="Path_3148" data-name="Path 3148" d="M336.16,238.933a.721.721,0,0,0,0,1.442A.721.721,0,0,0,336.16,238.933Z" transform="translate(-322.417 -229.654)" fill="#fff"/>
  </g>
</svg>
