<svg id="dashboard" xmlns="http://www.w3.org/2000/svg" width="20" height="20" viewBox="0 0 20 20">
  <path id="Path_3141" data-name="Path 3141" d="M7.623,0H1.442A1.444,1.444,0,0,0,0,1.442V5.15A1.444,1.444,0,0,0,1.442,6.593H7.623A1.444,1.444,0,0,0,9.065,5.15V1.442A1.444,1.444,0,0,0,7.623,0Zm0,0" fill="#fff"/>
  <path id="Path_3142" data-name="Path 3142" d="M7.623,213.332H1.442A1.444,1.444,0,0,0,0,214.774v8.653a1.444,1.444,0,0,0,1.442,1.442H7.623a1.444,1.444,0,0,0,1.442-1.442v-8.653A1.444,1.444,0,0,0,7.623,213.332Zm0,0" transform="translate(0 -204.869)" fill="#fff"/>
  <path id="Path_3143" data-name="Path 3143" d="M284.955,341.332h-6.181a1.444,1.444,0,0,0-1.442,1.442v3.708a1.444,1.444,0,0,0,1.442,1.442h6.181a1.444,1.444,0,0,0,1.442-1.442v-3.708A1.444,1.444,0,0,0,284.955,341.332Zm0,0" transform="translate(-266.397 -327.925)" fill="#fff"/>
  <path id="Path_3144" data-name="Path 3144" d="M284.955,0h-6.181a1.444,1.444,0,0,0-1.442,1.442v8.653a1.444,1.444,0,0,0,1.442,1.442h6.181a1.444,1.444,0,0,0,1.442-1.442V1.442A1.444,1.444,0,0,0,284.955,0Zm0,0" transform="translate(-266.397)" fill="#fff"/>
</svg>
