<svg xmlns="http://www.w3.org/2000/svg" width="43.283" height="37" viewBox="0 0 43.283 37">
  <g id="teeth_1_" data-name="teeth (1)" transform="translate(0 -36)">
    <g id="Group_7444" data-name="Group 7444" transform="translate(8.377 46.472)">
      <g id="Group_7443" data-name="Group 7443" transform="translate(0 0)">
        <path id="Path_3166" data-name="Path 3166" d="M97.4,156.234V156H96v.234c0,.4.01.8.031,1.2l1.395-.071C97.407,156.986,97.4,156.611,97.4,156.234Z" transform="translate(-96 -156)" fill="#6fb938"/>
      </g>
    </g>
    <g id="Group_7446" data-name="Group 7446" transform="translate(8.527 49.185)">
      <g id="Group_7445" data-name="Group 7445" transform="translate(0 0)">
        <path id="Path_3167" data-name="Path 3167" d="M99.1,187.088l-1.387.158a23.347,23.347,0,0,0,3.544,9.938l1.174-.755A21.96,21.96,0,0,1,99.1,187.088Z" transform="translate(-97.712 -187.088)" fill="#6fb938"/>
      </g>
    </g>
    <g id="Group_7448" data-name="Group 7448" transform="translate(16.769 39.639)">
      <g id="Group_7447" data-name="Group 7447" transform="translate(0 0)">
        <path id="Path_3168" data-name="Path 3168" d="M201.132,77.7a7.331,7.331,0,0,1-8.183,0l-.781,1.157a8.728,8.728,0,0,0,9.745,0Z" transform="translate(-192.168 -77.696)" fill="#6fb938"/>
      </g>
    </g>
    <g id="Group_7450" data-name="Group 7450" transform="translate(0 59.736)">
      <g id="Group_7449" data-name="Group 7449" transform="translate(0 0)">
        <path id="Path_3169" data-name="Path 3169" d="M6.283,308h-1.4A4.893,4.893,0,0,1,0,312.887v1.4a4.893,4.893,0,0,1,4.887,4.887h1.4a4.893,4.893,0,0,1,4.887-4.887v-1.4A4.893,4.893,0,0,1,6.283,308Z" transform="translate(0 -308)" fill="#17468f"/>
      </g>
    </g>
    <g id="Group_7452" data-name="Group 7452" transform="translate(5.585 36)">
      <g id="Group_7451" data-name="Group 7451" transform="translate(0 0)">
        <path id="Path_3170" data-name="Path 3170" d="M96.811,41.585H95.474A8.917,8.917,0,0,0,87.249,36a8.54,8.54,0,0,0-4.708,1.354,4.553,4.553,0,0,1-4.968,0A8.537,8.537,0,0,0,72.865,36,8.874,8.874,0,0,0,64,44.865v1.841a26,26,0,0,0,4.138,14.086,24.612,24.612,0,0,1,3.179,7.351l.76,3.04a2.4,2.4,0,0,0,4.7-.225l1.566-10.442a1.734,1.734,0,0,1,3.43,0l1.566,10.442a2.4,2.4,0,0,0,4.7.225l.76-3.04a24.6,24.6,0,0,1,3.18-7.351,26.253,26.253,0,0,0,3.435-8.109c0,.024,0,.048,0,.073h1.4a4.893,4.893,0,0,1,4.887-4.887v-1.4A4.893,4.893,0,0,1,96.811,41.585ZM90.8,60.036A26.006,26.006,0,0,0,87.443,67.8l-.761,3.04a1,1,0,0,1-1.963-.095L83.153,60.307a3.131,3.131,0,0,0-6.192,0L75.395,70.749a1,1,0,0,1-1.964.095l-.76-3.04a25.973,25.973,0,0,0-3.359-7.769A24.607,24.607,0,0,1,65.4,46.706V44.865A7.477,7.477,0,0,1,72.865,37.4a7.14,7.14,0,0,1,3.941,1.125,5.934,5.934,0,0,0,6.5,0A7.145,7.145,0,0,1,87.249,37.4a7.5,7.5,0,0,1,7.385,6.328l.029.454a4.884,4.884,0,0,1-4.134,2.293v1.4A4.88,4.88,0,0,1,94.5,49.924,24.8,24.8,0,0,1,90.8,60.036Zm5.311-10.147a6.314,6.314,0,0,0-2.719-2.719,6.314,6.314,0,0,0,2.719-2.719,6.314,6.314,0,0,0,2.719,2.719A6.314,6.314,0,0,0,96.113,49.889Z" transform="translate(-64 -36)" fill="#6fb938"/>
      </g>
    </g>
  </g>
</svg>
