<svg xmlns="http://www.w3.org/2000/svg" width="26" height="26" viewBox="0 0 26 26"><g><g><path fill="#6fb938" d="M0 13C0 5.82 5.82 0 13 0s13 5.82 13 13-5.82 13-13 13S0 20.18 0 13z"/></g><g><path fill="#fff" d="M10.852 17.568a.65.65 0 0 1-.461-.192l-3.998-3.998a.652.652 0 1 1 .923-.922l3.536 3.536 7.534-7.534a.652.652 0 1 1 .923.923l-7.995 7.995a.651.651 0 0 1-.462.192z"/><path fill="none" stroke="#fff" stroke-miterlimit="20" d="M10.852 17.568a.65.65 0 0 1-.461-.192l-3.998-3.998a.652.652 0 1 1 .923-.922l3.536 3.536v0l7.534-7.534a.652.652 0 1 1 .923.923l-7.995 7.995a.651.651 0 0 1-.462.192z"/></g></g></svg>