<svg xmlns="http://www.w3.org/2000/svg" width="26" height="26" viewBox="0 0 26 26"><g><g><path fill="#17468f" d="M0 13C0 5.82 5.82 0 13 0s13 5.82 13 13-5.82 13-13 13S0 20.18 0 13z"/></g><g><path fill="#fff" d="M13.825 13.36L17.784 9.4a.357.357 0 1 0-.505-.504l-3.958 3.958-3.959-3.958a.357.357 0 1 0-.504.504l3.958 3.959-3.958 3.958a.357.357 0 1 0 .504.505l3.959-3.959 3.958 3.959a.356.356 0 0 0 .505 0 .357.357 0 0 0 0-.505z"/><path fill="none" stroke="#fff" stroke-miterlimit="20" d="M13.825 13.36v0L17.784 9.4a.357.357 0 1 0-.505-.504l-3.958 3.958v0L9.362 8.897a.357.357 0 1 0-.504.504l3.958 3.959v0l-3.958 3.958a.357.357 0 1 0 .504.505l3.959-3.959v0l3.958 3.959a.356.356 0 0 0 .505 0 .357.357 0 0 0 0-.505z"/></g></g></svg>