<svg id="Group_7486" data-name="Group 7486" xmlns="http://www.w3.org/2000/svg" width="14.84" height="19.787" viewBox="0 0 14.84 19.787">
  <g id="share" transform="translate(0 0)">
    <path id="Path_2944" data-name="Path 2944" d="M83.113,172.228H81.258v1.237h1.237v11.13H70.128v-11.13h1.237v-1.237H69.509a.618.618,0,0,0-.618.618v12.367a.618.618,0,0,0,.618.618h13.6a.618.618,0,0,0,.618-.618V172.846A.618.618,0,0,0,83.113,172.228Z" transform="translate(-68.891 -166.045)" fill="#17468f"/>
    <path id="Path_2945" data-name="Path 2945" d="M163.58,2.367V11.13h1.237V2.367l2.654,2.655.874-.874L164.2,0l-4.147,4.147.874.874Z" transform="translate(-156.778 0)" fill="#17468f"/>
  </g>
</svg>
