<svg id="eye" xmlns="http://www.w3.org/2000/svg" width="29.773" height="20.3" viewBox="0 0 29.773 20.3">
  <g id="Group_5705" data-name="Group 5705" transform="translate(0 0)">
    <g id="Group_5704" data-name="Group 5704" transform="translate(0 0)">
      <path id="Path_1" data-name="Path 1" d="M174.727,170.667a4.06,4.06,0,1,0,4.06,4.06A4.063,4.063,0,0,0,174.727,170.667Z" transform="translate(-159.84 -164.577)" fill="#17468f"/>
      <path id="Path_2" data-name="Path 2" d="M14.887,74.667A16.006,16.006,0,0,0,0,84.817a15.992,15.992,0,0,0,29.773,0A16,16,0,0,0,14.887,74.667Zm0,16.917a6.767,6.767,0,1,1,6.767-6.767A6.769,6.769,0,0,1,14.887,91.584Z" transform="translate(0 -74.667)" fill="#17468f"/>
    </g>
  </g>
</svg>
