<svg xmlns="http://www.w3.org/2000/svg" width="29.355" height="18.751" viewBox="0 0 29.355 18.751">
  <g id="eye_1_" data-name="eye (1)" transform="translate(0.124 0.1)">
    <g id="Group_6858" data-name="Group 6858" transform="translate(0 0)">
      <g id="Group_6857" data-name="Group 6857" transform="translate(0)">
        <path id="Path_2950" data-name="Path 2950" d="M28.922,101.545c-.26-.356-6.456-8.71-14.368-8.71S.444,101.189.185,101.544a.96.96,0,0,0,0,1.133c.26.356,6.456,8.71,14.368,8.71s14.108-8.354,14.368-8.709A.959.959,0,0,0,28.922,101.545Zm-14.368,7.923c-5.829,0-10.877-5.545-12.371-7.357,1.492-1.814,6.53-7.356,12.371-7.356s10.876,5.544,12.371,7.357C25.432,103.926,20.394,109.467,14.553,109.467Z" transform="translate(0 -92.835)" fill="#15cdcb" stroke="#fff" stroke-width="0.2"/>
      </g>
    </g>
    <g id="Group_6860" data-name="Group 6860" transform="translate(8.796 3.518)">
      <g id="Group_6859" data-name="Group 6859" transform="translate(0 0)">
        <path id="Path_2951" data-name="Path 2951" d="M160.479,154.725a5.757,5.757,0,1,0,5.757,5.757A5.764,5.764,0,0,0,160.479,154.725Zm0,9.6a3.838,3.838,0,1,1,3.838-3.838A3.842,3.842,0,0,1,160.479,164.321Z" transform="translate(-154.722 -154.725)" fill="#15cdcb" stroke="#fff" stroke-width="0.2"/>
      </g>
    </g>
  </g>
</svg>
