<svg xmlns="http://www.w3.org/2000/svg" width="12.559" height="16.745" viewBox="0 0 12.559 16.745">
  <g id="file_1_" data-name="file (1)" transform="translate(-64)">
    <g id="Group_7487" data-name="Group 7487" transform="translate(64)">
      <path id="Path_3175" data-name="Path 3175" d="M76.532,4.4a.332.332,0,0,0-.076-.114L72.271.1a.361.361,0,0,0-.114-.076A.351.351,0,0,0,72.024,0H65.047A1.048,1.048,0,0,0,64,1.047V15.7a1.048,1.048,0,0,0,1.047,1.047H75.512A1.048,1.048,0,0,0,76.559,15.7V4.535A.352.352,0,0,0,76.532,4.4Zm-3.113,8.157H67.14a.349.349,0,0,1,0-.7h6.279a.349.349,0,0,1,0,.7Zm0-2.791H67.14a.349.349,0,0,1,0-.7h6.279a.349.349,0,0,1,0,.7Zm0-2.791H67.14a.349.349,0,1,1,0-.7h6.279a.349.349,0,1,1,0,.7Zm-.7-2.791a.349.349,0,0,1-.349-.349V1.191l3,3Z" transform="translate(-64)" fill="#17468f"/>
    </g>
  </g>
</svg>
