<svg xmlns="http://www.w3.org/2000/svg" width="50" height="50" viewBox="0 0 50 50"><g><g><path fill="#6fb938" d="M46.5 19.304l-4.176 7.224v8.185l-2.538 4.87 1.687 6.918h-3.115L36.6 40.105h-8.647l-4.188 3.506v1.847H21.32L17.21 41.1H8.238l-4.405-4.405V26.7l3.446-3.447v-3.677h5.897l6.388 2.263c2.253 2.774 4.492 4.722 4.68 4.884l.924.795.924-.795c.1-.086.775-.673 1.722-1.618l1.189 1.695h8.949l1.442-5.087 5.1-4.722H46.5zM25.166 3.832c4.166 0 7.555 3.39 7.555 7.555 0 2.334-1.431 5.326-4.14 8.653a41.29 41.29 0 0 1-3.421 3.69c-2.734-2.597-7.55-8.06-7.55-12.343 0-4.166 3.39-7.555 7.556-7.555zm18.217 10.326l-6.498 6.016-1.076 3.793h-5.335l-.682-.972c2.655-3.026 5.76-7.452 5.76-11.608C35.555 5.66 30.895 1 25.168 1c-5.728 0-10.388 4.66-10.388 10.387 0 2.161.84 4.395 2.02 6.468l-3.138-1.112H4.446v5.336L1 25.526v12.342l6.063 6.064h8.925l4.11 4.358h6.5v-3.357l2.385-1.996h5.459l1.756 6.396h8.881l-2.29-9.386 2.367-4.54v-8.12l4.175-7.224v-5.905z"/><path fill="none" stroke="#fff" stroke-miterlimit="20" d="M46.5 19.304l-4.176 7.224v8.185l-2.538 4.87 1.687 6.918h-3.115L36.6 40.105h-8.647l-4.188 3.506v1.847H21.32L17.21 41.1H8.238l-4.405-4.405V26.7l3.446-3.447v-3.677h5.897l6.388 2.263c2.253 2.774 4.492 4.722 4.68 4.884l.924.795.924-.795c.1-.086.775-.673 1.722-1.618l1.189 1.695h8.949l1.442-5.087 5.1-4.722H46.5zM25.166 3.832c4.166 0 7.555 3.39 7.555 7.555 0 2.334-1.431 5.326-4.14 8.653a41.29 41.29 0 0 1-3.421 3.69c-2.734-2.597-7.55-8.06-7.55-12.343 0-4.166 3.39-7.555 7.556-7.555zm18.217 10.326l-6.498 6.016-1.076 3.793h-5.335l-.682-.972c2.655-3.026 5.76-7.452 5.76-11.608C35.555 5.66 30.895 1 25.168 1c-5.728 0-10.388 4.66-10.388 10.387 0 2.161.84 4.395 2.02 6.468l-3.138-1.112H4.446v5.336L1 25.526v12.342l6.063 6.064h8.925l4.11 4.358h6.5v-3.357l2.385-1.996h5.459l1.756 6.396h8.881l-2.29-9.386 2.367-4.54v-8.12l4.175-7.224v-5.905z"/></g><g><path fill="#17468f" d="M29.417 11.387a4.256 4.256 0 0 0-4.252-4.25 4.256 4.256 0 0 0-4.25 4.25 4.256 4.256 0 0 0 4.25 4.251 4.256 4.256 0 0 0 4.252-4.25z"/><path fill="none" stroke="#fff" stroke-miterlimit="20" d="M29.417 11.387a4.256 4.256 0 0 0-4.252-4.25 4.256 4.256 0 0 0-4.25 4.25 4.256 4.256 0 0 0 4.25 4.251 4.256 4.256 0 0 0 4.252-4.25z"/></g></g></svg>