<svg xmlns="http://www.w3.org/2000/svg" width="49.331" height="49.333" viewBox="0 0 49.331 49.333">
  <g id="geography" transform="translate(0.49 0.5)">
    <path id="Path_3125" data-name="Path 3125" d="M42.394,13.158l-6.5,6.015L34.82,22.967H29.485l-.682-.973c2.655-3.026,5.761-7.452,5.761-11.607a10.387,10.387,0,1,0-20.775,0,13.485,13.485,0,0,0,2.02,6.467l-3.138-1.112H3.456v5.336L.01,24.526V36.868l6.063,6.063H15l4.109,4.358h6.5V43.933l2.385-2h5.459l1.756,6.4h8.881L41.8,38.947l2.366-4.541V26.287l4.175-7.224V13.158ZM24.177,2.832a7.564,7.564,0,0,1,7.555,7.555c0,2.334-1.431,5.326-4.139,8.653a41.289,41.289,0,0,1-3.422,3.69c-2.734-2.6-7.55-8.06-7.55-12.343a7.564,7.564,0,0,1,7.555-7.555ZM45.509,18.3l-4.175,7.224v8.185L38.8,38.583,40.483,45.5H37.368l-1.756-6.4H26.964l-4.188,3.506v1.847H20.33L16.221,40.1H7.247l-4.4-4.4v-10l3.446-3.446V18.575h5.9l6.388,2.263a41.744,41.744,0,0,0,4.68,4.884l.924.8.924-.8c.1-.086.775-.673,1.722-1.618l1.189,1.7h8.949L38.4,20.711l5.1-4.721h2.006Z" transform="translate(0 0)" fill="#6fb938" stroke="#fff" stroke-width="1"/>
    <path id="Path_3126" data-name="Path 3126" d="M219.466,69.252a4.251,4.251,0,1,0-4.251,4.251A4.256,4.256,0,0,0,219.466,69.252Z" transform="translate(-191.04 -58.865)" fill="#17468f" stroke="#fff" stroke-width="1"/>
  </g>
</svg>
