<svg xmlns="http://www.w3.org/2000/svg" width="17.992" height="23.62" viewBox="0 0 17.992 23.62">
  <g id="google-docs" transform="translate(-61)">
    <path id="Path_299" data-name="Path 299" d="M63.076,23.62h13.84a2.078,2.078,0,0,0,2.076-2.076V6.92H74.148a2.078,2.078,0,0,1-2.076-2.076V0h-9A2.078,2.078,0,0,0,61,2.076V21.544A2.078,2.078,0,0,0,63.076,23.62ZM65.844,9.734h8.3a.692.692,0,0,1,0,1.384h-8.3a.692.692,0,0,1,0-1.384Zm0,2.768h8.3a.692.692,0,0,1,0,1.384h-8.3a.692.692,0,0,1,0-1.384Zm0,2.768h8.3a.692.692,0,0,1,0,1.384h-8.3a.692.692,0,0,1,0-1.384Zm0,2.768H71.38a.692.692,0,1,1,0,1.384H65.844a.692.692,0,0,1,0-1.384Z" fill="#fff"/>
    <path id="Path_300" data-name="Path 300" d="M331.692,13.92h4.439L331,8.789v4.439A.692.692,0,0,0,331.692,13.92Z" transform="translate(-257.544 -8.384)" fill="#fff"/>
  </g>
</svg>
