<svg xmlns="http://www.w3.org/2000/svg" width="21.21" height="25.11" viewBox="0 0 21.21 25.11">
  <g id="Group_5773" data-name="Group 5773" transform="translate(-25 -344)">
    <path id="Union_2" data-name="Union 2" d="M13.6,23.678H2.081A2.084,2.084,0,0,1,0,21.6V2.081A2.084,2.084,0,0,1,2.081,0H11.1V4.856a2.083,2.083,0,0,0,2.081,2.081h4.855v9.6A4.371,4.371,0,1,1,13.6,23.678Zm-9.443-4.9a.693.693,0,0,0,.693.693H10.4a.694.694,0,0,0,0-1.388H4.855A.693.693,0,0,0,4.162,18.776Zm0-2.775a.693.693,0,0,0,.693.694h8.323a.694.694,0,0,0,0-1.388H4.855A.693.693,0,0,0,4.162,16Zm0-2.775a.693.693,0,0,0,.693.693h8.323a.693.693,0,0,0,0-1.387H4.855A.693.693,0,0,0,4.162,13.226Zm0-2.775a.693.693,0,0,0,.693.693h8.323a.693.693,0,0,0,0-1.387H4.855A.693.693,0,0,0,4.162,10.452Zm9.017-4.9a.7.7,0,0,1-.693-.694V.407L17.628,5.55Z" transform="translate(25 344)" fill="#fff"/>
    <g id="Ellipse_13" data-name="Ellipse 13" transform="translate(37.492 360.392)" fill="#fff" stroke="#15cdcb" stroke-width="1">
      <ellipse cx="4.359" cy="4.359" rx="4.359" ry="4.359" stroke="none"/>
      <ellipse cx="4.359" cy="4.359" rx="3.859" ry="3.859" fill="none"/>
    </g>
    <path id="gear" d="M4.695,1.856l-.37-.08a2.011,2.011,0,0,0-.119-.287l.2-.318A.144.144,0,0,0,4.392.992L3.816.416A.144.144,0,0,0,3.637.4L3.318.6A2.011,2.011,0,0,0,3.032.482l-.08-.37A.144.144,0,0,0,2.811,0H2a.144.144,0,0,0-.14.113l-.08.37A2.011,2.011,0,0,0,1.489.6L1.171.4A.144.144,0,0,0,.992.416L.416.992A.144.144,0,0,0,.4,1.171l.2.318a2.011,2.011,0,0,0-.119.287l-.37.08A.144.144,0,0,0,0,2v.814a.144.144,0,0,0,.113.14l.37.08A2.011,2.011,0,0,0,.6,3.318l-.2.318a.144.144,0,0,0,.019.179l.576.576a.144.144,0,0,0,.179.019l.318-.2a2.011,2.011,0,0,0,.287.119l.08.37A.144.144,0,0,0,2,4.808h.814a.144.144,0,0,0,.14-.113l.08-.37a2.011,2.011,0,0,0,.287-.119l.318.2a.144.144,0,0,0,.179-.019l.576-.576a.144.144,0,0,0,.019-.179l-.2-.318a2.011,2.011,0,0,0,.119-.287l.37-.08a.144.144,0,0,0,.113-.14V2A.144.144,0,0,0,4.695,1.856ZM3.266,2.4A.862.862,0,1,1,2.4,1.542.863.863,0,0,1,3.266,2.4Zm0,0" transform="translate(39.492 362.392)" fill="#15cdcb"/>
  </g>
</svg>
