<svg xmlns="http://www.w3.org/2000/svg" xmlns:xlink="http://www.w3.org/1999/xlink" width="294.072" height="285.196" viewBox="0 0 294.072 285.196">
  <defs>
    <clipPath id="clip-path">
      <path id="Path_1939" data-name="Path 1939" d="M174.322,226.622l-12.709,7.338-7.812,4.506a8.334,8.334,0,0,0-.736.426A10.355,10.355,0,0,0,148.1,247.8l-.007,36.52a10.335,10.335,0,0,1-4.19,8.38,10.579,10.579,0,0,1-6.32,2.124,10.405,10.405,0,0,1-5.223-1.42,31.471,31.471,0,0,1-15.733-27.251V228.271a31.465,31.465,0,0,0-15.734-27.251l57.694-33.311h0a31.5,31.5,0,0,1,15.74,27.264v16.5C174.328,216.195,174.322,226.622,174.322,226.622Z" transform="translate(-100.894 -167.71)" fill="none"/>
    </clipPath>
  </defs>
  <g id="Group_6049" data-name="Group 6049" transform="translate(-10.244 -15.715)">
    <g id="Floor" transform="translate(10.244 131.129)">
      <ellipse id="Floor-2" data-name="Floor" cx="147.036" cy="84.891" rx="147.036" ry="84.891" transform="translate(0 0)" fill="#f0f0f0" opacity="0.64"/>
    </g>
    <g id="Shadows" transform="translate(27.935 172.743)">
      <ellipse id="Shadow" cx="26.733" cy="15.434" rx="26.733" ry="15.434" transform="translate(190.462 26.393)" fill="#e0e0e0"/>
      <path id="Shadow-2" data-name="Shadow" d="M115,337.844l119.575,69.039,54.8-31.642-119.6-69.053Z" transform="translate(-68.447 -285.077)" fill="#e0e0e0"/>
      <path id="Shadow-3" data-name="Shadow" d="M64.388,338.147,39.64,323.86a.809.809,0,0,1,0-1.533l87.026-50.244a2.932,2.932,0,0,1,2.655,0l24.746,14.287a.81.81,0,0,1,0,1.534L67.043,338.147A2.932,2.932,0,0,1,64.388,338.147Z" transform="translate(-39.091 -271.765)" fill="#e0e0e0"/>
    </g>
    <g id="Device" transform="translate(46.933 15.715)">
      <g id="Device-2" data-name="Device">
        <g id="Device-3" data-name="Device">
          <g id="Group_5933" data-name="Group 5933" transform="translate(8.41 5.122)">
            <path id="Path_1846" data-name="Path 1846" d="M159.9,24.433l-73.452,42.4a5.925,5.925,0,0,0-2.668,4.629V237.112c0,1.7,1.2,2.4,2.668,1.541l73.452-42.4a5.924,5.924,0,0,0,2.668-4.629V25.974C162.572,24.272,161.374,23.579,159.9,24.433Zm-1.177,151.925c0,1.457-1.022,2.385-2.289,3.114L89.651,218.029c-1.26.729-2.29.14-2.29-1.323V86.947a5.084,5.084,0,0,1,2.29-3.97l66.786-38.551c1.267-.735,2.289-.14,2.289,1.317Z" transform="translate(-83.783 -24.067)" fill="#37474f"/>
          </g>
          <g id="Group_5934" data-name="Group 5934" transform="translate(0 45.033)">
            <path id="Path_1847" data-name="Path 1847" d="M80.815,263.989a5.979,5.979,0,0,1-5.013-.166l-3.055-1.766a5.887,5.887,0,0,1-2.678-4.629V91.791a5.047,5.047,0,0,1,.462-2,6.42,6.42,0,0,1,.318-.641.007.007,0,0,0,.007-.007L79.261,94h.007a7.321,7.321,0,0,0-.463.979,4.861,4.861,0,0,0-.324,1.653v165.65C78.481,263.85,79.5,264.564,80.815,263.989Z" transform="translate(-70.069 -89.146)" fill="#263238"/>
          </g>
          <path id="Path_1848" data-name="Path 1848" d="M146.4,315.3c2.329-1.344,4.217-.255,4.217,2.435a9.322,9.322,0,0,1-4.217,7.3c-2.329,1.344-4.217.255-4.217-2.435A9.321,9.321,0,0,1,146.4,315.3Z" transform="translate(-97.956 -131.35)" fill="#27debf"/>
          <g id="Group_5935" data-name="Group 5935" transform="translate(39.398 30.017)">
            <path id="Path_1849" data-name="Path 1849" d="M146.891,64.9c.989-.571,1.79-.108,1.79,1.034a3.958,3.958,0,0,1-1.79,3.1c-.989.572-1.791.109-1.791-1.033A3.957,3.957,0,0,1,146.891,64.9Z" transform="translate(-138.484 -64.66)"/>
            <path id="Path_1850" data-name="Path 1850" d="M135.806,77.649l13.826-7.982c.825-.476,1.493-.138,1.493.756a3.2,3.2,0,0,1-1.493,2.481l-13.826,7.982c-.825.476-1.493.137-1.493-.756A3.2,3.2,0,0,1,135.806,77.649Z" transform="translate(-134.312 -66.513)"/>
          </g>
          <path id="Path_1851" data-name="Path 1851" d="M160.983,188.776c0,1.457-1.022,2.385-2.289,3.113L91.908,230.447c-1.26.728-2.29.14-2.29-1.323V99.364a5.084,5.084,0,0,1,2.29-3.971l66.786-38.55c1.267-.735,2.289-.14,2.289,1.317Z" transform="translate(-77.629 -31.498)" fill="#17468f" stroke="#fff" stroke-miterlimit="10" stroke-width="1"/>
          <g id="Group_5936" data-name="Group 5936" transform="translate(0.787)">
            <path id="Path_1852" data-name="Path 1852" d="M157.738,22.32c-.192-1.389-1.3-1.891-2.638-1.118L81.641,63.6a5.44,5.44,0,0,0-1.885,2l-8.4-4.854a5.413,5.413,0,0,1,1.891-1.984l73.444-42.41a5.9,5.9,0,0,1,5.343,0l3.069,1.759A5.992,5.992,0,0,1,157.738,22.32Z" transform="translate(-71.352 -15.715)" fill="#455a64"/>
          </g>
        </g>
        <g id="Group_5937" data-name="Group 5937" transform="translate(27.04 66.183)">
          <path id="Path_1853" data-name="Path 1853" d="M119.018,154.55a4.5,4.5,0,0,1,2.1-.686,2.463,2.463,0,0,1,1.638.527,3.575,3.575,0,0,1,1.081,1.642,8.674,8.674,0,0,1,.44,2.626q.018.528.018.976v1.7c0,.29-.006.61-.018.957a14.749,14.749,0,0,1-.432,3.143,13.763,13.763,0,0,1-1.056,2.863,11.379,11.379,0,0,1-1.606,2.4,8.21,8.21,0,0,1-2.078,1.724l-4.491,2.594a.241.241,0,0,1-.315-.023.545.545,0,0,1-.133-.41V158.045a1.3,1.3,0,0,1,.133-.563.837.837,0,0,1,.315-.387Zm2.178,5.784q-.1-2.888-2.262-1.639l-1.7.979v9.73l1.78-1.027a4.6,4.6,0,0,0,2.178-4.2c.01-.366.017-.706.017-1.022v-1.831C121.212,161.015,121.206,160.686,121.2,160.334Z" transform="translate(-114.161 -135.324)" fill="#fff"/>
          <path id="Path_1854" data-name="Path 1854" d="M138.814,142.662q.333-.191.507-.012a.977.977,0,0,1,.242.424l3.625,14.038a1.278,1.278,0,0,1,.067.346,1.068,1.068,0,0,1-.108.459.68.68,0,0,1-.258.315l-2.1,1.21q-.333.192-.475.056a.581.581,0,0,1-.174-.322l-.465-1.856-4.424,2.554-.466,2.394a1.9,1.9,0,0,1-.175.524,1.123,1.123,0,0,1-.475.491l-2.095,1.209a.2.2,0,0,1-.258-.017.448.448,0,0,1-.107-.335,2.218,2.218,0,0,1,.066-.422l3.626-18.225a3.323,3.323,0,0,1,.241-.7,1.231,1.231,0,0,1,.507-.575Zm-2.694,12.745,2.694-1.555-1.347-5.368Z" transform="translate(-120.936 -130.954)" fill="#fff"/>
          <path id="Path_1855" data-name="Path 1855" d="M158.877,130.293a.242.242,0,0,1,.316.023.549.549,0,0,1,.133.409v2.714a1.314,1.314,0,0,1-.133.564.847.847,0,0,1-.316.388l-2.927,1.69v13.135a1.314,1.314,0,0,1-.133.564.857.857,0,0,1-.316.388l-2.179,1.257a.24.24,0,0,1-.316-.023.545.545,0,0,1-.132-.41V137.857l-2.928,1.69a.242.242,0,0,1-.316-.023.543.543,0,0,1-.133-.41V136.4a1.3,1.3,0,0,1,.133-.564.843.843,0,0,1,.316-.387Z" transform="translate(-127.826 -126.19)" fill="#fff"/>
          <path id="Path_1856" data-name="Path 1856" d="M171.6,123.732c.222-.128.391-.131.508-.012a.985.985,0,0,1,.241.424l3.625,14.038a1.25,1.25,0,0,1,.067.346,1.06,1.06,0,0,1-.108.459.685.685,0,0,1-.258.316l-2.1,1.209q-.333.192-.474.056a.579.579,0,0,1-.175-.321l-.465-1.857-4.424,2.554-.466,2.394a1.9,1.9,0,0,1-.175.523,1.122,1.122,0,0,1-.474.491l-2.1,1.21a.2.2,0,0,1-.258-.018.447.447,0,0,1-.107-.334,2.215,2.215,0,0,1,.066-.423l3.626-18.225a3.32,3.32,0,0,1,.241-.7,1.235,1.235,0,0,1,.507-.575Zm-2.694,12.745,2.694-1.555-1.347-5.368Z" transform="translate(-133.616 -123.633)" fill="#fff"/>
        </g>
      </g>
    </g>
    <g id="Character" transform="translate(214.178 55.045)">
      <g id="Character-2" data-name="Character">
        <g id="Group_5939" data-name="Group 5939" transform="translate(8.495 29.195)">
          <g id="Group_5938" data-name="Group 5938">
            <path id="Path_1857" data-name="Path 1857" d="M375.5,127.452c-3.9.183-5.231.925-7.27,3.327-1.99,2.345-11.6,20.148-11.6,20.148s1.8,5.053,5.748,4.623l7.376-11.894Z" transform="translate(-356.629 -127.452)" fill="#ffa8a7"/>
          </g>
        </g>
        <path id="Path_1858" data-name="Path 1858" d="M379.44,127.407a12.231,12.231,0,0,0-4.793.357c-2,.722-2.993,2.166-4.367,4.265-1.064,1.623-4.788,8.365-4.788,8.365s1.815,5.046,6.974,5.046Z" transform="translate(-351.562 -98.204)" fill="#6fb938"/>
        <g id="Character-3" data-name="Character" transform="translate(11.05)">
          <g id="Group_5940" data-name="Group 5940" transform="translate(0 62.613)">
            <path id="Path_1859" data-name="Path 1859" d="M404.107,333.372v-.844c-.332.99-1.877,5.253-4.219,7.389-1.862,1.7-4.4,3.66-5.048,5.553-.672,1.969,3.534,2.63,5.274,2.322a10.73,10.73,0,0,0,6.059-3.253c1-1.229,1.638-2.687,2.353-3.654s2.362-2.046,2.748-3.165a7.138,7.138,0,0,0-.338-3.1c-.273-1.043-.57-2.191-.927-2.093,0,.128,0,.644,0,.644a4.67,4.67,0,0,1-2.951,1C406.2,334.2,404.1,334.03,404.107,333.372Z" transform="translate(-373.934 -240.176)" fill="#263238"/>
            <path id="Path_1860" data-name="Path 1860" d="M399.964,338.363c.577-.515,1.158-1.019,1.685-1.5a17.124,17.124,0,0,0,3.6-5.751,8.1,8.1,0,0,0,.619-3.106v-3.364h5.9v5.476h0v.145l-.03.015c-.284,1.227-2.993,4.489-4.532,6.617a8.565,8.565,0,0,1-5.334,3.553C399.656,340.746,398.521,340.046,399.964,338.363Z" transform="translate(-375.694 -237.129)" fill="#ffa8a7"/>
            <path id="Path_1861" data-name="Path 1861" d="M370.134,323.884v-.844c-.333.99-1.877,5.253-4.219,7.389-1.861,1.7-4.4,3.659-5.047,5.553-.672,1.969,3.534,2.63,5.274,2.322a10.731,10.731,0,0,0,6.06-3.253c1-1.229,1.638-2.687,2.352-3.653s2.362-2.046,2.748-3.166a7.136,7.136,0,0,0-.338-3.1c-.274-1.044-.57-2.191-.927-2.094,0,.128,0,.643,0,.643a4.664,4.664,0,0,1-2.951,1C372.222,324.714,370.127,324.542,370.134,323.884Z" transform="translate(-360.796 -236.507)" fill="#263238"/>
            <path id="Path_1862" data-name="Path 1862" d="M365.989,328.875c.578-.515,1.158-1.019,1.686-1.5a17.133,17.133,0,0,0,3.6-5.751,8.1,8.1,0,0,0,.619-3.106v-3.364h5.9v5.476h0v.146l-.029.015c-.285,1.227-2.993,4.489-4.532,6.617a8.566,8.566,0,0,1-5.334,3.553C365.682,331.258,364.547,330.558,365.989,328.875Z" transform="translate(-362.555 -233.459)" fill="#ffa8a7"/>
            <path id="Path_1863" data-name="Path 1863" d="M400.023,183.406c4.576,9.995-.165,45.2-.165,45.2.138,1.622,1.992,4.814,2.683,11.951.816,8.434-1.281,29.613-1.281,29.613a6.387,6.387,0,0,1-5.965.237s-5.625-31.9-6.683-40.282c-.923-7.319-2.7-23.411-2.7-23.411l-2.847,23.372a43.489,43.489,0,0,1,1.6,7.223c.478,4.933-4.3,27.9-4.3,27.9a13.111,13.111,0,0,1-5.9.178s-1.69-30.477-2.136-36.42c-.748-9.979-.286-41.118,1.544-47.025Z" transform="translate(-365.121 -181.943)" fill="#263238"/>
            <path id="Path_1864" data-name="Path 1864" d="M388.006,213.972l-1.486-9.283s-6.285-1.3-9.135-3.981a16.258,16.258,0,0,0,7.432,4.938l1.669,7.147-1.137,22.993Z" transform="translate(-367.211 -189.2)" fill="#37474f"/>
          </g>
          <path id="Path_1865" data-name="Path 1865" d="M392.687,127.61h0c1.74.12,2.321.077,3.583.207,2.523.259,3.13,3.949,4.162,6.128a10.043,10.043,0,0,1,.278,7.562l-4.089,11.827s1.915,4.627,4.137,9c-10.259,5.726-23.07,2.716-26.155-1.463-.131-.886.662-7.816,1.151-12.342-1.807-4.533-2.284-7.406-1.522-10.4,1.415-5.561,6.485-10.679,7.937-10.673Z" transform="translate(-365.857 -98.257)" fill="#6fb938"/>
          <g id="Group_5948" data-name="Group 5948" transform="translate(7.885)">
            <path id="Path_1866" data-name="Path 1866" d="M401.368,86.75l-2.123-.185a1.639,1.639,0,0,0,.631-.635,1.814,1.814,0,0,0-.681-2.412L397.825,86a12.371,12.371,0,0,0-11.353-6.14l-1.1.058A12.382,12.382,0,0,0,373.67,92.946c.375,7.055.79,14.947.79,14.947l12.741-.678A13.1,13.1,0,0,0,399.59,93.433l-.094-1.862a12.359,12.359,0,0,0-.675-3.4,1.653,1.653,0,0,0,.617.18A1.814,1.814,0,0,0,401.368,86.75Z" transform="translate(-373.652 -79.847)" fill="#263238"/>
            <g id="Group_5941" data-name="Group 5941" transform="translate(2.261 8.182)">
              <path id="Path_1867" data-name="Path 1867" d="M377.382,98.934a24.974,24.974,0,0,0,.1,4.057c.486,6.349,2.63,7.809,3.688,8.206s3.039.016,4.961-.41v3.754s-2.311,3.317-2.049,5.058,3.986,1.956,6.4.114a11.242,11.242,0,0,0,3.4-4.976l0-8.774a2.439,2.439,0,0,0,3.469.142c2.066-1.536,1.96-5.061.648-6.259s-4.025-.69-4.432,1.084c0,0-4.473-.375-5.042-7.742C384.373,98.607,377.645,94.7,377.382,98.934Z" transform="translate(-377.338 -93.188)" fill="#ffa8a7"/>
            </g>
            <path id="Path_1868" data-name="Path 1868" d="M402.33,103.5l.167,3.145h0a2.143,2.143,0,0,1-2.254-2.027l-.187-3.51Z" transform="translate(-383.863 -88.07)" fill="#455a64"/>
            <g id="Group_5942" data-name="Group 5942" transform="translate(10.258 14.979)">
              <path id="Path_1869" data-name="Path 1869" d="M390.379,105.108a.8.8,0,1,0,.8-.836A.814.814,0,0,0,390.379,105.108Z" transform="translate(-390.379 -104.271)" fill="#263238"/>
            </g>
            <g id="Group_5943" data-name="Group 5943" transform="translate(8.065 21.448)">
              <path id="Path_1870" data-name="Path 1870" d="M388.942,114.82l-2.14.81a1.123,1.123,0,0,0,1.457.706A1.2,1.2,0,0,0,388.942,114.82Z" transform="translate(-386.802 -114.82)" fill="#f28f8f"/>
            </g>
            <g id="Group_5944" data-name="Group 5944" transform="translate(11.133 11.546)">
              <path id="Path_1871" data-name="Path 1871" d="M391.806,99.354l1.875.605a.946.946,0,0,0-.6-1.236A1.035,1.035,0,0,0,391.806,99.354Z" transform="translate(-391.806 -98.674)" fill="#455a64"/>
            </g>
            <g id="Group_5945" data-name="Group 5945" transform="translate(3.388 15.325)">
              <path id="Path_1872" data-name="Path 1872" d="M379.176,105.672a.8.8,0,1,0,.8-.836A.813.813,0,0,0,379.176,105.672Z" transform="translate(-379.176 -104.836)" fill="#263238"/>
            </g>
            <g id="Group_5946" data-name="Group 5946" transform="translate(5.612 15.483)">
              <path id="Path_1873" data-name="Path 1873" d="M385.248,105.093l.129,4.818-2.574-.65Z" transform="translate(-382.803 -105.093)" fill="#f28f8f"/>
            </g>
            <g id="Group_5947" data-name="Group 5947" transform="translate(11.059 22.275)">
              <path id="Path_1874" data-name="Path 1874" d="M391.684,119.675c2.031-.377,6.171-1.809,6.738-3.507a4.309,4.309,0,0,1-1.361,2.2c-1.2,1.144-5.377,2.579-5.377,2.579Z" transform="translate(-391.684 -116.168)" fill="#f28f8f"/>
            </g>
          </g>
          <path id="Path_1875" data-name="Path 1875" d="M393.187,167.942c3.37-.8,4.01-2.067,3.12-5.414a2.531,2.531,0,0,0-.1-.323c-.66-1.587-3.293-.643-3.293-.643s1.078-1.343,2.287-3.055a14.452,14.452,0,0,0,1.912-6.529c.162-1.986.486-5.964.486-5.964a3.767,3.767,0,0,0,1.6-4.439l4.048-2.487.762.53a10.287,10.287,0,0,1-.169,6.389l-4.089,11.827a66.932,66.932,0,0,1,4.137,9,26.521,26.521,0,0,1-21.921,1.452A29.909,29.909,0,0,0,393.187,167.942Z" transform="translate(-368.981 -102.757)" fill="#6fb938"/>
          <path id="Path_1876" data-name="Path 1876" d="M393.592,102.965l-4.634.247a2.59,2.59,0,0,0-2.636-1.918l-.4.021a2.589,2.589,0,0,0-2.3,1.726,2.223,2.223,0,0,0-1.542-.576,1.9,1.9,0,0,0-1.312.469,2.578,2.578,0,0,0-2.323-1.221l-.4.021a2.587,2.587,0,0,0,.275,5.167l.4-.021a2.59,2.59,0,0,0,2.446-2.721,2.554,2.554,0,0,0-.19-.812,1.429,1.429,0,0,1,1.1-.445,1.708,1.708,0,0,1,1.4.622l.021-.014a2.617,2.617,0,0,0-.026.526,2.59,2.59,0,0,0,2.72,2.446l.4-.021a2.591,2.591,0,0,0,2.446-2.721c0-.033-.012-.062-.015-.094l4.145-.221A2.233,2.233,0,0,1,393.592,102.965Zm-14.9,3.479-.4.021a2.151,2.151,0,0,1-.228-4.3l.4-.021a2.151,2.151,0,1,1,.229,4.3Zm7.877-.419-.4.021a2.151,2.151,0,0,1-.229-4.3l.4-.021a2.151,2.151,0,1,1,.229,4.3Z" transform="translate(-366.519 -88.139)" fill="#263238"/>
        </g>
        <g id="Group_5956" data-name="Group 5956" transform="translate(0 48.597)">
          <g id="Group_5949" data-name="Group 5949" transform="translate(0 0.311)">
            <path id="Path_1877" data-name="Path 1877" d="M342.777,159.6l20.72,5.457,5.7,23.443-19.7-5.721Z" transform="translate(-342.777 -159.596)" fill="#17468f"/>
            <path id="Path_1879" data-name="Path 1879" d="M365.542,191.168c.132,1.269,1.021,2.737,3.61,3.973s7.631.546,7.631.546l-.7-2.885Z" transform="translate(-351.581 -171.806)" opacity="0.2"/>
          </g>
          <g id="Group_5950" data-name="Group 5950" transform="translate(5.337 16.913)" opacity="0.2">
            <path id="Path_1880" data-name="Path 1880" d="M355.5,186.666a4.2,4.2,0,0,1-3.815,2.52l-.21-.723Z" transform="translate(-351.48 -186.666)"/>
          </g>
          <g id="Group_5951" data-name="Group 5951" transform="translate(6.065 2.905)" opacity="0.1">
            <path id="Path_1881" data-name="Path 1881" d="M352.844,164.955l-.171-.79c-.094-.437,1.122-.455,2.716-.042l3.053.792c1.594.413,2.963,1.1,3.057,1.539l.171.79Z" transform="translate(-352.668 -163.825)"/>
          </g>
          <g id="Group_5952" data-name="Group 5952" transform="translate(4.645)">
            <path id="Path_1882" data-name="Path 1882" d="M350.357,160.153c-.06-.273.432-.344,1.1-.16l1.209.334s-.361-1.709,2.322-1.112a4.2,4.2,0,0,1,3.269,2.538l1.29.366c.713.2,1.359.587,1.444.859l.153.492-10.673-2.811S350.417,160.426,350.357,160.153Z" transform="translate(-350.352 -159.088)" fill="#839bc1"/>
          </g>
          <g id="Group_5953" data-name="Group 5953" transform="translate(5.809 1.58)">
            <path id="Path_1883" data-name="Path 1883" d="M352.561,161.992c.978.236,1.384.366,1.53,1.038.167.768.235,1.333.235,1.333l4.724,1.248s-.228-.973-.3-1.352.088-.608.84-.408l.064-.3-7.4-1.885Z" transform="translate(-352.25 -161.665)" fill="#839bc1"/>
          </g>
          <g id="Group_5954" data-name="Group 5954" transform="translate(5.781 2.979)">
            <path id="Path_1884" data-name="Path 1884" d="M352.381,165.076l-.171-.791c-.094-.436,1.122-.455,2.716-.042l3.053.792c1.594.413,2.963,1.1,3.057,1.539l.171.79Z" transform="translate(-352.205 -163.946)" fill="#839bc1"/>
          </g>
          <g id="Group_5955" data-name="Group 5955" transform="translate(0.645 7.375)">
            <path id="Path_1885" data-name="Path 1885" d="M345.367,171.576s.775,2.651.952,3.282,2.5,1.767,4.022,2.186,3.189.914,2.468,3.044c-.664,1.963-3.171,2.411-4.446,2.356a4.717,4.717,0,0,1-3.711-3.241c-.878-2.508-.4-5.186-.753-6.65S344.6,170.7,345.367,171.576Z" transform="translate(-343.83 -171.114)" fill="#ffa8a7"/>
          </g>
        </g>
        <g id="Group_5957" data-name="Group 5957" transform="translate(13.509 29.426)">
          <path id="Path_1886" data-name="Path 1886" d="M392.29,127.976c2.687.17,5.464,1.626,5.885,4.853s3.035,20.213,2.009,22.126c-2.372,4.422-18.011,12.832-19.565,13.551a17.522,17.522,0,0,1-7.216,1.935c-2.438.028-5.684-.053-7.324-2.257-1.456-1.957-2.279-5.568,1.011-4.947a35.638,35.638,0,0,0,7.538.331l-.383-1.575a7.5,7.5,0,0,1,2.51.41c1.641.488,3.133-.922,6.03-2.712a100.405,100.405,0,0,0,9.425-7.191l-2.319-14.183S389.815,132.184,392.29,127.976Z" transform="translate(-364.805 -127.885)" fill="#ffa8a7"/>
          <path id="Path_1887" data-name="Path 1887" d="M407.093,127.919a5.716,5.716,0,0,1,3.017.271c1.579.6,2.981,1.4,3.636,4.582s1.953,14.806,1.953,14.806-3.44,2.488-9.044,1.306l-2.013-10.549S403.074,130.95,407.093,127.919Z" transform="translate(-380.095 -127.828)" fill="#6fb938"/>
        </g>
      </g>
    </g>
    <g id="Analysis" transform="translate(60.591 101.359)">
      <g id="Analysis-2" data-name="Analysis" transform="translate(0 0)">
        <g id="Group_5960" data-name="Group 5960">
          <g id="Group_5958" data-name="Group 5958">
            <path id="Path_1888" data-name="Path 1888" d="M96.616,195.687l65.562-37.851v9.084L96.616,204.772Z" transform="translate(-93.994 -156.32)" fill="#455a64"/>
            <path id="Path_1889" data-name="Path 1889" d="M100.894,200.066v3.027l60.317-34.824v-3.028Z" transform="translate(-95.648 -159.184)" fill="#263238"/>
            <path id="Path_1890" data-name="Path 1890" d="M94.963,194.731l-2.623-1.514L157.9,155.365l2.622,1.515Z" transform="translate(-92.34 -155.365)" fill="#37474f"/>
            <path id="Path_1891" data-name="Path 1891" d="M92.34,217.087l2.623,1.514v9.085l-2.622-1.515Z" transform="translate(-92.34 -179.235)" fill="#263238"/>
          </g>
          <g id="Group_5959" data-name="Group 5959" transform="translate(5.246 7.571)">
            <path id="Path_1892" data-name="Path 1892" d="M368.122,411.225l-57.7,33.291v-1.478l57.694-33.291Z" transform="translate(-181.924 -261.312)" fill="#37474f"/>
            <path id="Path_1893" data-name="Path 1893" d="M174.322,226.622l-12.709,7.338-7.812,4.506a8.334,8.334,0,0,0-.736.426A10.355,10.355,0,0,0,148.1,247.8l-.007,36.52a10.335,10.335,0,0,1-4.19,8.38,10.579,10.579,0,0,1-6.32,2.124,10.405,10.405,0,0,1-5.223-1.42,31.471,31.471,0,0,1-15.733-27.251V228.271a31.465,31.465,0,0,0-15.734-27.251l57.694-33.311h0a31.5,31.5,0,0,1,15.74,27.264v16.5C174.328,216.195,174.322,226.622,174.322,226.622Z" transform="translate(-100.894 -167.71)" fill="#f5f5f5"/>
            <path id="Path_1894" data-name="Path 1894" d="M195.3,350.755a31.454,31.454,0,0,1-15.733-27.245l0-36.543a31.376,31.376,0,0,0-2.473-12.221,32.29,32.29,0,0,0-1.743-3.512,31.472,31.472,0,0,0-11.517-11.511h0a10.488,10.488,0,0,0-15.727,9.091l0,3.722-.008-3.729-.007,36.52,0-7.6v7.585a10.5,10.5,0,0,1-15.735,9.1,31.47,31.47,0,0,1-15.734-27.251V249.277a31.468,31.468,0,0,0-15.734-27.251v1.51a30.249,30.249,0,0,1,14.442,25.74V287.16a32.849,32.849,0,0,0,16.379,28.368,11.658,11.658,0,0,0,11.782,0c.226-.129.445-.264.665-.413l.02-.013a11.651,11.651,0,0,0,5.2-9.775l.006-36.52a9.2,9.2,0,0,1,13.8-7.967,30.236,30.236,0,0,1,15.088,26.128v8.479l0,28.064a32.856,32.856,0,0,0,16.379,28.368l34.733,20.042v-1.479Z" transform="translate(-100.894 -188.715)" fill="#455a64"/>
            <path id="Path_1895" data-name="Path 1895" d="M320.448,339.028l-57.694,33.291-34.088-19.686a31.454,31.454,0,0,1-15.733-27.245l0-36.543a31.387,31.387,0,0,0-2.473-12.221,32.314,32.314,0,0,0-1.744-3.512A31.472,31.472,0,0,0,197.2,261.6a10.367,10.367,0,0,0-10.033-.251l7.812-4.506,15.717-9.075,33.643-19.42.083-.052a10.379,10.379,0,0,1,10.472.006,31.467,31.467,0,0,1,15.734,27.251l0,36.536a31.472,31.472,0,0,0,15.734,27.251Z" transform="translate(-134.257 -190.594)" fill="#fafafa"/>
            <path id="Path_1896" data-name="Path 1896" d="M205.142,310.655a30.237,30.237,0,0,0-15.088-26.128,9.2,9.2,0,0,0-13.8,7.967l-.006,36.52a11.651,11.651,0,0,1-5.2,9.775l-.02.013c-.22.148-.439.284-.665.413l34.779-20.081Z" transform="translate(-127.76 -212.403)" fill="#e0e0e0"/>
            <path id="Path_1897" data-name="Path 1897" d="M205.142,310.655a30.237,30.237,0,0,0-15.088-26.128,9.2,9.2,0,0,0-13.8,7.967l-.006,36.52a11.651,11.651,0,0,1-5.2,9.775l-.02.013c-.22.148-.439.284-.665.413l34.779-20.081Z" transform="translate(-127.76 -212.403)" opacity="0.15"/>
          </g>
        </g>
        <g id="Group_6000" data-name="Group 6000" transform="translate(5.246 7.571)">
          <g id="Group_5999" data-name="Group 5999" clip-path="url(#clip-path)">
            <g id="Group_5998" data-name="Group 5998" transform="translate(9.452 5.681)">
              <path id="Path_1898" data-name="Path 1898" d="M117.1,204.785a4.491,4.491,0,0,0,4.9.369l41.169-23.769c1.544-.892,1.908-2.559.7-3.6a4.769,4.769,0,0,0-5.067-.168L117.614,201.4C116.07,202.289,115.888,203.747,117.1,204.785Z" transform="translate(-116.307 -176.974)" fill="#17468f"/>
              <g id="Group_5961" data-name="Group 5961" transform="translate(33.529 6.792)">
                <path id="Path_1899" data-name="Path 1899" d="M171.438,200.077a.458.458,0,0,1-.23-.854l19.249-11.114a.457.457,0,1,1,.457.792l-19.249,11.114A.46.46,0,0,1,171.438,200.077Z" transform="translate(-170.979 -188.048)" opacity="0.4"/>
              </g>
              <g id="Group_5962" data-name="Group 5962" transform="translate(35.015 9.27)">
                <path id="Path_1900" data-name="Path 1900" d="M173.86,204.118a.458.458,0,0,1-.229-.854l19.249-11.114a.457.457,0,1,1,.458.792l-19.249,11.114A.455.455,0,0,1,173.86,204.118Z" transform="translate(-173.402 -192.09)" opacity="0.4"/>
              </g>
              <g id="Group_5963" data-name="Group 5963" transform="translate(36.263 11.851)">
                <path id="Path_1901" data-name="Path 1901" d="M175.9,208.327a.458.458,0,0,1-.229-.854l19.249-11.114a.457.457,0,0,1,.458.792l-19.249,11.114A.456.456,0,0,1,175.9,208.327Z" transform="translate(-175.437 -196.298)" opacity="0.4"/>
              </g>
              <g id="Group_5964" data-name="Group 5964" transform="translate(37.265 14.536)">
                <path id="Path_1902" data-name="Path 1902" d="M177.53,212.7a.457.457,0,0,1-.229-.854l19.248-11.114a.457.457,0,1,1,.458.792l-19.248,11.113A.455.455,0,0,1,177.53,212.7Z" transform="translate(-177.072 -200.676)" opacity="0.4"/>
              </g>
              <g id="Group_5965" data-name="Group 5965" transform="translate(37.998 17.167)">
                <path id="Path_1903" data-name="Path 1903" d="M178.725,216.994a.458.458,0,0,1-.23-.854l19.249-11.114a.457.457,0,0,1,.458.792l-19.248,11.113A.454.454,0,0,1,178.725,216.994Z" transform="translate(-178.266 -204.965)" opacity="0.4"/>
              </g>
              <g id="Group_5966" data-name="Group 5966" transform="translate(38.493 19.994)">
                <path id="Path_1904" data-name="Path 1904" d="M179.532,221.6a.458.458,0,0,1-.23-.854l19.249-11.114a.457.457,0,0,1,.457.792L179.76,221.543A.456.456,0,0,1,179.532,221.6Z" transform="translate(-179.073 -209.576)" opacity="0.4"/>
              </g>
              <g id="Group_5967" data-name="Group 5967" transform="translate(38.762 23.012)">
                <path id="Path_1905" data-name="Path 1905" d="M179.971,226.525a.458.458,0,0,1-.23-.854l19.249-11.114a.457.457,0,1,1,.457.792L180.2,226.463A.454.454,0,0,1,179.971,226.525Z" transform="translate(-179.512 -214.496)" opacity="0.4"/>
              </g>
              <g id="Group_5968" data-name="Group 5968" transform="translate(11.453 28.945)">
                <path id="Path_1906" data-name="Path 1906" d="M135.305,251.783a.323.323,0,0,1-.162-.6l46.706-26.966a.323.323,0,0,1,.323.559L135.467,251.74A.322.322,0,0,1,135.305,251.783Z" transform="translate(-134.982 -224.172)" opacity="0.4"/>
                <path id="Path_1907" data-name="Path 1907" d="M135.305,256.484a.322.322,0,0,1-.162-.6l46.706-26.967a.323.323,0,1,1,.323.559L135.467,256.44A.316.316,0,0,1,135.305,256.484Z" transform="translate(-134.982 -225.989)" opacity="0.4"/>
                <path id="Path_1908" data-name="Path 1908" d="M135.305,261.185a.323.323,0,0,1-.162-.6l46.706-26.966a.323.323,0,1,1,.323.559l-46.706,26.966A.321.321,0,0,1,135.305,261.185Z" transform="translate(-134.982 -227.807)" opacity="0.4"/>
                <path id="Path_1909" data-name="Path 1909" d="M135.305,265.886a.323.323,0,0,1-.162-.6l46.706-26.966a.322.322,0,1,1,.323.558l-46.706,26.966A.322.322,0,0,1,135.305,265.886Z" transform="translate(-134.982 -229.625)" opacity="0.4"/>
              </g>
              <g id="Group_5973" data-name="Group 5973" transform="translate(4.646 26.87)">
                <g id="Group_5970" data-name="Group 5970" transform="translate(6.807 10.573)">
                  <g id="Group_5969" data-name="Group 5969">
                    <path id="Path_1910" data-name="Path 1910" d="M135.305,252.951a.323.323,0,0,1-.162-.6l24.727-14.277a.323.323,0,0,1,.323.559l-24.727,14.277A.322.322,0,0,1,135.305,252.951Z" transform="translate(-134.982 -238.028)" opacity="0.4"/>
                  </g>
                </g>
                <g id="Group_5971" data-name="Group 5971" transform="translate(6.343 6.931)">
                  <path id="Path_1911" data-name="Path 1911" d="M134.315,234.1a30.432,30.432,0,0,1,2.29,5.843,30.124,30.124,0,0,1,1.07,6.4.466.466,0,0,0,.758.4l1.375-.794a1.407,1.407,0,0,0,.646-1.209,32.8,32.8,0,0,0-1.157-6.582,35.456,35.456,0,0,0-2.213-5.654.779.779,0,0,0-1.086-.3l-1.352.781A.861.861,0,0,0,134.315,234.1Z" transform="translate(-134.226 -232.09)" fill="#6fb938"/>
                </g>
                <g id="Group_5972" data-name="Group 5972" transform="translate(10.383 1.305)">
                  <path id="Path_1912" data-name="Path 1912" d="M140.941,224.845a32.5,32.5,0,0,1,3.309,7.054,30.477,30.477,0,0,1,1.477,7.719.461.461,0,0,0,.749.4l1.374-.794a1.419,1.419,0,0,0,.652-1.21,33.016,33.016,0,0,0-1.5-7.705,31.665,31.665,0,0,0-3.287-7.007.874.874,0,0,0-1.146-.283l-1.368.76A.735.735,0,0,0,140.941,224.845Z" transform="translate(-140.814 -222.915)" fill="#6fb938"/>
                </g>
                <path id="Path_1913" data-name="Path 1913" d="M155.377,232.391" transform="translate(-136.063 -225.275)" fill="#27debf"/>
                <path id="Path_1914" data-name="Path 1914" d="M157.559,230.4l-1.351.78a1.048,1.048,0,0,0-.45,1.171,31.483,31.483,0,0,1,1.227,6.953.461.461,0,0,0,.749.4l1.374-.794a1.419,1.419,0,0,0,.652-1.21,32.829,32.829,0,0,0-1.266-6.933A.613.613,0,0,0,157.559,230.4Z" transform="translate(-136.194 -224.466)" fill="#6fb938"/>
                <path id="Path_1915" data-name="Path 1915" d="M165.9,221.235a.691.691,0,0,0-1.009-.346l-1.361.775a.944.944,0,0,0-.394,1.145q.37.925.712,1.923a30.475,30.475,0,0,1,1.477,7.719.461.461,0,0,0,.749.4l1.374-.794a1.42,1.42,0,0,0,.651-1.21,32.985,32.985,0,0,0-1.5-7.705Q166.272,222.164,165.9,221.235Z" transform="translate(-139.039 -220.788)" fill="#6fb938"/>
                <path id="Path_1916" data-name="Path 1916" d="M131.962,243.81a.227.227,0,0,0-.312-.083l-.575.332c-.126-.794-.274-1.579-.454-2.352l.778-.449a.229.229,0,0,0-.228-.4l-.667.385c-.194-.778-.41-1.548-.659-2.3l.74-.427a.229.229,0,0,0-.229-.4l-.666.385c-.255-.735-.529-1.462-.837-2.173l-.026-.059.734-.424a.228.228,0,1,0-.228-.4l-.693.4q-.479-1.079-1.061-2.144l.732-.423a.228.228,0,1,0-.228-.4l-.726.419c-.388-.685-.809-1.365-1.258-2.038l.824-.475a.228.228,0,1,0-.229-.4l-.852.491c-.485-.705-1-1.4-1.55-2.092a.229.229,0,1,0-.357.286q.8,1.005,1.51,2.035l-.785.453a.229.229,0,0,0,.114.427.232.232,0,0,0,.114-.031l.813-.47q.676,1.009,1.26,2.037l-.912.527a.228.228,0,1,0,.228.4l.905-.523q.581,1.065,1.059,2.145l-.944.545a.228.228,0,1,0,.229.4l.9-.521,0,.008c.315.729.6,1.472.855,2.227l-.965.557a.229.229,0,1,0,.228.4l.892-.515c.247.756.46,1.528.651,2.307l-.957.553a.229.229,0,0,0,.114.427.224.224,0,0,0,.114-.031l.845-.488c.177.775.321,1.563.443,2.359l-1.036.6a.228.228,0,1,0,.229.4l.884-.511q.2,1.448.278,2.936a.229.229,0,0,0,.229.217h.012a.228.228,0,0,0,.216-.24c-.056-1.067-.162-2.119-.311-3.157l.726-.419A.228.228,0,0,0,131.962,243.81Z" transform="translate(-123.883 -223.853)" opacity="0.4"/>
              </g>
              <g id="Group_5992" data-name="Group 5992" transform="translate(10.6 51.674)">
                <g id="Group_5976" data-name="Group 5976" transform="translate(3.919 4.615)" opacity="0.15">
                  <g id="Group_5974" data-name="Group 5974" transform="translate(0.323 0.323)">
                    <path id="Path_1917" data-name="Path 1917" d="M140.733,304.322a37.189,37.189,0,0,1-.208-5.2c.188-.665,2.973-10.226,8.1-13.206a3.5,3.5,0,0,1,1.01-.422,1.887,1.887,0,0,1,.419-.05c1.358,0,1.967,1.89,2.557,3.718a18.5,18.5,0,0,0,.809,2.2,2.463,2.463,0,0,0,2.075,1.712,2.866,2.866,0,0,0,1.4-.434c2.464-1.4,3.172-5.2,3.923-9.23a45.516,45.516,0,0,1,1.209-5.331c.748-2.349,1.717-3.8,3.05-4.577a2.366,2.366,0,0,1,1.14-.372c1.428,0,1.968,2.544,2.491,5a20.482,20.482,0,0,0,1.038,3.769c.521,1.185,1.205,1.762,2.091,1.762a2.978,2.978,0,0,0,1.477-.464c3.023-1.745,3.938-4.7,4.823-7.565.752-2.429,1.461-4.723,3.455-5.884a2.986,2.986,0,0,1,1.483-.465,1.866,1.866,0,0,1,.653.115,12.76,12.76,0,0,1,.1,1.369l.033,5.792c.054,1.108.128,1.978.23,2.727Z" transform="translate(-140.508 -269.286)" fill="#17468f"/>
                  </g>
                  <g id="Group_5975" data-name="Group 5975">
                    <path id="Path_1918" data-name="Path 1918" d="M184.237,279.256c-.129-.865-.207-1.847-.258-2.9l-.033-5.791a13.255,13.255,0,0,0-.123-1.594,2.2,2.2,0,0,0-.949-.213h0a3.281,3.281,0,0,0-1.646.51c-4.448,2.589-2.751,10.259-8.277,13.448a2.675,2.675,0,0,1-1.315.421c-.824,0-1.38-.623-1.8-1.57-1.3-2.935-1.265-8.964-3.824-8.964a2.655,2.655,0,0,0-1.3.416c-1.582.916-2.53,2.666-3.2,4.758-1.647,5.165-1.55,12.421-4.985,14.378a2.561,2.561,0,0,1-1.245.392c-.817,0-1.356-.63-1.783-1.528-1.063-2.228-1.436-6.1-3.657-6.1a2.223,2.223,0,0,0-.488.058,3.805,3.805,0,0,0-1.1.458C142.8,288.611,140,298.869,140,298.869a37.371,37.371,0,0,0,.266,5.773l.632-.365c-.033-.178-.064-.335-.1-.688a36.8,36.8,0,0,1-.156-4.621c.259-.9,3-10.1,7.941-12.978a3.182,3.182,0,0,1,.919-.385,1.579,1.579,0,0,1,.346-.042c1.123,0,1.7,1.777,2.249,3.494a18.754,18.754,0,0,0,.824,2.237c.223.469.9,1.9,2.366,1.9a3.168,3.168,0,0,0,1.565-.476c2.594-1.477,3.315-5.35,4.079-9.45a45.413,45.413,0,0,1,1.2-5.293c.721-2.268,1.644-3.665,2.9-4.394a2.065,2.065,0,0,1,.979-.33c1.167,0,1.7,2.522,2.175,4.747a20.739,20.739,0,0,0,1.058,3.83c.57,1.3,1.374,1.956,2.387,1.956a3.281,3.281,0,0,0,1.638-.507c3.134-1.809,4.11-4.964,4.971-7.749.732-2.367,1.423-4.6,3.309-5.7a2.677,2.677,0,0,1,1.32-.421h0a1.547,1.547,0,0,1,.356.04c.069.654.071,1.117.071,1.125l.033,5.819c.049,1,.115,1.814.2,2.525a4.5,4.5,0,0,0,.124.673l.574-.331" transform="translate(-139.981 -268.759)"/>
                  </g>
                </g>
                <g id="Group_5977" data-name="Group 5977" transform="translate(3.922 0.248)" opacity="0.4">
                  <path id="Path_1919" data-name="Path 1919" d="M140,293.193v2.923a36.918,36.918,0,0,0,.264,5.773L184.236,276.5c-.127-.863-.207-1.847-.259-2.9l-.031-5.787s0-8.649-5.495-5.477c-5.775,3.334-4.142,13.923-8.242,16.29-4.137,2.389-2.747-7.062-8.242-3.89s-2.747,10.235-8.242,13.407-2.747-12.828-8.242-9.656S139.987,289.54,140,293.193Z" transform="translate(-139.986 -261.638)" fill="#17468f"/>
                </g>
                <g id="Group_5978" data-name="Group 5978" transform="translate(1.698 17.725)">
                  <path id="Path_1920" data-name="Path 1920" d="M136.589,317.372a.229.229,0,0,1-.113-.427l46.767-26.778a.229.229,0,0,1,.227.4L136.7,317.342A.23.23,0,0,1,136.589,317.372Z" transform="translate(-136.36 -290.136)" opacity="0.4"/>
                </g>
                <g id="Group_5982" data-name="Group 5982" transform="translate(9.184 17.725)">
                  <g id="Group_5979" data-name="Group 5979" transform="translate(0.004)">
                    <path id="Path_1921" data-name="Path 1921" d="M148.8,291.051a.229.229,0,0,1-.229-.229v-.457a.229.229,0,1,1,.458,0v.457A.229.229,0,0,1,148.8,291.051Z" transform="translate(-148.574 -290.135)" fill="#fff"/>
                  </g>
                  <g id="Group_5980" data-name="Group 5980" transform="translate(0 1.34)">
                    <path id="Path_1922" data-name="Path 1922" d="M148.932,309.486a.229.229,0,0,1-.228-.208c-.027-.292-.05-.587-.068-.883a.229.229,0,0,1,.214-.243.212.212,0,0,1,.242.214q.028.438.067.87a.228.228,0,0,1-.207.248Zm-.107-1.755a.229.229,0,0,1-.229-.226c0-.254-.007-.549-.009-.882a.229.229,0,0,1,.227-.231.21.21,0,0,1,.231.227c0,.332.006.626.009.879a.229.229,0,0,1-.225.232Zm-.015-1.759a.229.229,0,0,1-.229-.228l0-.881a.229.229,0,0,1,.228-.229h0a.229.229,0,0,1,.229.228l0,.879a.229.229,0,0,1-.228.23Zm-.009-1.759a.229.229,0,0,1-.229-.228l0-.879a.229.229,0,0,1,.228-.229h0a.229.229,0,0,1,.229.228l0,.879a.23.23,0,0,1-.229.229Zm0-1.759a.23.23,0,0,1-.229-.229v-.88a.229.229,0,1,1,.457,0v.88A.229.229,0,0,1,148.8,302.452Zm0-1.76a.229.229,0,0,1-.229-.229v-.879a.229.229,0,1,1,.458,0v.879A.229.229,0,0,1,148.8,300.692Zm0-1.759a.229.229,0,0,1-.229-.229v-.879a.229.229,0,0,1,.458,0v.879A.229.229,0,0,1,148.8,298.934Zm0-1.759h0a.229.229,0,0,1-.228-.229v-.879a.229.229,0,1,1,.457,0v.88A.229.229,0,0,1,148.8,297.174Zm0-1.759h0a.229.229,0,0,1-.228-.229v-.88a.229.229,0,1,1,.457,0v.881A.229.229,0,0,1,148.8,295.415Zm0-1.759a.229.229,0,0,1-.229-.229v-.877a.231.231,0,0,1,.229-.23h0a.228.228,0,0,1,.228.228v.879A.229.229,0,0,1,148.8,293.656Z" transform="translate(-148.567 -292.32)" fill="#fff"/>
                  </g>
                  <g id="Group_5981" data-name="Group 5981" transform="translate(0.228 18.92)">
                    <path id="Path_1923" data-name="Path 1923" d="M149.224,321.9a.23.23,0,0,1-.227-.2c-.02-.152-.04-.3-.058-.457a.228.228,0,1,1,.454-.053c.018.15.037.3.058.45a.229.229,0,0,1-.2.257A.166.166,0,0,1,149.224,321.9Z" transform="translate(-148.938 -320.986)" fill="#fff"/>
                  </g>
                </g>
                <g id="Group_5986" data-name="Group 5986" transform="translate(42.159 0.718)">
                  <g id="Group_5983" data-name="Group 5983" transform="translate(0.004)">
                    <path id="Path_1924" data-name="Path 1924" d="M202.571,263.321a.23.23,0,0,1-.229-.229v-.459a.229.229,0,0,1,.229-.228h0a.229.229,0,0,1,.228.229v.457A.229.229,0,0,1,202.571,263.321Z" transform="translate(-202.342 -262.405)" fill="#fff"/>
                  </g>
                  <g id="Group_5984" data-name="Group 5984" transform="translate(0 1.338)">
                    <path id="Path_1925" data-name="Path 1925" d="M202.7,281.753a.229.229,0,0,1-.228-.208c-.027-.292-.05-.587-.068-.883a.228.228,0,0,1,.213-.243.22.22,0,0,1,.243.213q.028.438.067.87a.227.227,0,0,1-.207.248ZM202.593,280a.229.229,0,0,1-.229-.226c0-.253-.007-.548-.009-.881a.229.229,0,0,1,.227-.231h0a.229.229,0,0,1,.229.227c0,.331.006.625.009.879a.229.229,0,0,1-.226.232Zm-.015-1.76a.23.23,0,0,1-.229-.228l0-.881a.229.229,0,0,1,.228-.229h0a.23.23,0,0,1,.229.228l0,.88a.23.23,0,0,1-.228.23Zm-.008-1.759a.23.23,0,0,1-.229-.229l0-.879a.229.229,0,0,1,.228-.229h0a.229.229,0,0,1,.229.228l0,.879a.23.23,0,0,1-.228.23Zm0-1.76a.229.229,0,0,1-.229-.229v-.879a.229.229,0,0,1,.457,0v.879A.229.229,0,0,1,202.566,274.72Zm0-1.759a.229.229,0,0,1-.229-.229v-.879a.229.229,0,1,1,.458,0v.879A.229.229,0,0,1,202.564,272.961Zm0-1.758a.229.229,0,0,1-.229-.229v-.88a.229.229,0,0,1,.458,0v.88A.229.229,0,0,1,202.564,271.2Zm0-1.761h0a.229.229,0,0,1-.228-.229v-.879a.229.229,0,1,1,.457,0v.88A.229.229,0,0,1,202.564,269.442Zm0-1.759h0a.229.229,0,0,1-.228-.229v-.879a.229.229,0,1,1,.457,0v.881A.229.229,0,0,1,202.564,267.683Zm0-1.759h0a.23.23,0,0,1-.228-.229v-.879a.229.229,0,1,1,.458,0v.881A.229.229,0,0,1,202.566,265.924Z" transform="translate(-202.335 -264.586)" fill="#fff"/>
                  </g>
                  <g id="Group_5985" data-name="Group 5985" transform="translate(0.227 18.919)">
                    <path id="Path_1926" data-name="Path 1926" d="M202.992,294.165a.23.23,0,0,1-.227-.2c-.02-.151-.04-.3-.058-.456a.228.228,0,0,1,.2-.254.222.222,0,0,1,.254.2q.028.225.058.451a.23.23,0,0,1-.2.257Z" transform="translate(-202.705 -293.254)" fill="#fff"/>
                  </g>
                </g>
                <g id="Group_5990" data-name="Group 5990" transform="translate(25.671 13.912)">
                  <g id="Group_5987" data-name="Group 5987" transform="translate(0.002)">
                    <path id="Path_1927" data-name="Path 1927" d="M175.683,284.833a.229.229,0,0,1-.229-.229v-.458a.229.229,0,0,1,.458,0v.458A.229.229,0,0,1,175.683,284.833Z" transform="translate(-175.454 -283.918)" fill="#fff"/>
                  </g>
                  <g id="Group_5988" data-name="Group 5988" transform="translate(0 1.315)">
                    <path id="Path_1928" data-name="Path 1928" d="M175.814,297.671a.228.228,0,0,1-.228-.207c-.027-.286-.049-.573-.067-.863a.229.229,0,0,1,.214-.243.217.217,0,0,1,.243.214q.028.427.066.849a.229.229,0,0,1-.207.249Zm-.108-1.714a.229.229,0,0,1-.229-.227l-.01-.858a.229.229,0,0,1,.226-.231h0a.228.228,0,0,1,.229.226l.01.858a.23.23,0,0,1-.226.232Zm-.017-1.715a.229.229,0,0,1-.229-.228l0-.859a.228.228,0,0,1,.227-.23h0a.229.229,0,0,1,.229.228l0,.859a.229.229,0,0,1-.228.23Zm-.007-1.717a.23.23,0,0,1-.229-.228l0-.858a.23.23,0,0,1,.229-.23h0a.229.229,0,0,1,.229.228l0,.859a.23.23,0,0,1-.228.229Zm0-1.715a.23.23,0,0,1-.229-.229v-.859a.229.229,0,0,1,.458,0v.859A.23.23,0,0,1,175.679,290.811Zm0-1.717h0a.229.229,0,0,1-.229-.229v-.857a.229.229,0,0,1,.458,0v.859A.229.229,0,0,1,175.679,289.094Zm0-1.716h0a.23.23,0,0,1-.229-.229v-.858a.229.229,0,0,1,.458,0v.859A.229.229,0,0,1,175.681,287.378Z" transform="translate(-175.45 -286.062)" fill="#fff"/>
                  </g>
                  <g id="Group_5989" data-name="Group 5989" transform="translate(0.225 13.317)">
                    <path id="Path_1929" data-name="Path 1929" d="M176.1,306.546a.23.23,0,0,1-.227-.2c-.02-.152-.04-.3-.058-.457a.229.229,0,1,1,.454-.055c.018.151.037.3.058.451a.23.23,0,0,1-.2.258Z" transform="translate(-175.816 -305.633)" fill="#fff"/>
                  </g>
                </g>
                <g id="Group_5991" data-name="Group 5991" transform="translate(8.623 16.076)">
                  <path id="Path_1930" data-name="Path 1930" d="M148.441,287.565c.437-.252.791-.085.791.373a1.672,1.672,0,0,1-.791,1.286c-.437.252-.79.085-.79-.374A1.67,1.67,0,0,1,148.441,287.565Z" transform="translate(-147.651 -287.448)" opacity="0.4"/>
                </g>
                <path id="Path_1931" data-name="Path 1931" d="M175.329,281.344c.437-.252.791-.085.791.374a1.673,1.673,0,0,1-.791,1.286c-.437.252-.791.085-.791-.373A1.674,1.674,0,0,1,175.329,281.344Z" transform="translate(-149.426 -268.965)" opacity="0.4"/>
                <path id="Path_1932" data-name="Path 1932" d="M202.208,261.351c.437-.252.791-.085.791.373a1.673,1.673,0,0,1-.791,1.287c-.437.252-.79.085-.79-.373A1.672,1.672,0,0,1,202.208,261.351Z" transform="translate(-159.821 -261.233)" opacity="0.4"/>
                <path id="Path_1933" data-name="Path 1933" d="M135.822,292.755a.228.228,0,0,0-.229-.4l-.6.345v-2.361l.827-.477a.229.229,0,0,0-.229-.4l-.6.345v-2.486a.229.229,0,0,0-.458,0v2.751l-.828.478a.229.229,0,1,0,.228.4l.6-.346v2.361l-.829.478a.229.229,0,0,0,.114.427.234.234,0,0,0,.114-.031l.6-.347v2.361l-.829.479a.229.229,0,1,0,.228.4l.6-.347v2.361l-.83.48a.229.229,0,1,0,.228.4l.6-.348v2.361l-.831.48a.228.228,0,1,0,.229.4l.6-.348v2.361l-.832.48a.229.229,0,1,0,.229.4l.6-.348v2.361l-.832.481a.228.228,0,1,0,.229.4l.6-.346c-.013.784-.007,1.567.028,2.345l-.856.494a.229.229,0,0,0,.114.427.225.225,0,0,0,.114-.031l.656-.378c.05.859.123,1.712.23,2.554a.229.229,0,0,0,.227.2l.029,0a.228.228,0,0,0,.2-.256c-.115-.905-.194-1.824-.242-2.751l.787-.454a.228.228,0,1,0-.228-.4l-.578.334c-.029-.78-.037-1.564-.017-2.351l.824-.476a.229.229,0,1,0-.228-.4l-.594.343v-2.361l.823-.476a.228.228,0,1,0-.228-.4l-.595.343V301.9l.824-.475a.229.229,0,0,0-.229-.4l-.6.344v-2.361l.825-.476a.228.228,0,0,0-.229-.4l-.6.344v-2.361l.825-.477a.229.229,0,0,0-.228-.4l-.6.345v-2.361Z" transform="translate(-133.591 -271.237)" opacity="0.4"/>
              </g>
              <path id="Path_1934" data-name="Path 1934" d="M199.5,316.494,155.57,341.856a4.275,4.275,0,0,1-4.888-.353c-1.106-1.138-.654-2.873.89-3.764l43.913-25.355a4.01,4.01,0,0,1,4.707.533C201.3,314.053,201.04,315.6,199.5,316.494Z" transform="translate(-129.364 -229.138)" fill="#6fb938"/>
              <g id="Group_5997" data-name="Group 5997" transform="translate(13.017 70.481)">
                <g id="Group_5993" data-name="Group 5993">
                  <path id="Path_1935" data-name="Path 1935" d="M137.855,321.112a.323.323,0,0,1-.161-.6l49.477-28.566a.323.323,0,1,1,.323.559l-49.477,28.566A.314.314,0,0,1,137.855,321.112Z" transform="translate(-137.532 -291.899)" opacity="0.4"/>
                </g>
                <g id="Group_5994" data-name="Group 5994" transform="translate(1.011 2.67)">
                  <path id="Path_1936" data-name="Path 1936" d="M139.5,325.471a.323.323,0,0,1-.161-.6L188.827,296.3a.323.323,0,1,1,.323.559l-49.485,28.571A.314.314,0,0,1,139.5,325.471Z" transform="translate(-139.181 -296.253)" opacity="0.4"/>
                </g>
                <g id="Group_5995" data-name="Group 5995" transform="translate(2.259 5.232)">
                  <path id="Path_1937" data-name="Path 1937" d="M141.539,329.651a.323.323,0,0,1-.161-.6l49.491-28.574a.323.323,0,1,1,.323.559L141.7,329.607A.316.316,0,0,1,141.539,329.651Z" transform="translate(-141.216 -300.43)" opacity="0.4"/>
                </g>
                <g id="Group_5996" data-name="Group 5996" transform="translate(3.734 7.669)">
                  <path id="Path_1938" data-name="Path 1938" d="M143.943,333.629a.323.323,0,0,1-.161-.6l49.5-28.578a.323.323,0,0,1,.323.559l-49.5,28.579A.32.32,0,0,1,143.943,333.629Z" transform="translate(-143.62 -304.404)" opacity="0.4"/>
                </g>
              </g>
            </g>
          </g>
        </g>
        <g id="Group_6047" data-name="Group 6047" transform="translate(73.672 48.712)">
          <path id="Path_1940" data-name="Path 1940" d="M213.765,259.389l40.713-23.5c1.544-.892,4-1.421,5.388-.862s1.119,2.006-.425,2.9L218.253,261.7a5.667,5.667,0,0,1-4.971.321C212.053,261.355,212.221,260.28,213.765,259.389Z" transform="translate(-212.469 -234.795)" fill="#17468f"/>
          <path id="Path_1941" data-name="Path 1941" d="M222.077,267.946a.323.323,0,0,1-.161-.6l46.928-27.089a.323.323,0,0,1,.323.559L222.238,267.9A.316.316,0,0,1,222.077,267.946Z" transform="translate(-216.06 -236.889)" opacity="0.4"/>
          <path id="Path_1942" data-name="Path 1942" d="M225.246,271.341a.323.323,0,0,1-.161-.6l47-27.13a.323.323,0,0,1,.323.559l-47,27.13A.323.323,0,0,1,225.246,271.341Z" transform="translate(-217.285 -238.187)" opacity="0.4"/>
          <g id="Group_6001" data-name="Group 6001" transform="translate(9.513 34.826)">
            <path id="Path_1943" data-name="Path 1943" d="M234.21,313.9h0a.23.23,0,0,1-.229-.229l.009-2.49c.007-1.875.007-1.875-.047-3.142l-.01-.21a30.4,30.4,0,0,0-1.672-8.486,23.677,23.677,0,0,0-4.23-7.391.229.229,0,1,1,.356-.288,24.086,24.086,0,0,1,4.306,7.53,30.836,30.836,0,0,1,1.7,8.612l.009.213c.055,1.278.055,1.278.047,3.164l-.008,2.489A.229.229,0,0,1,234.21,313.9Z" transform="translate(-227.981 -291.583)" opacity="0.4"/>
          </g>
          <path id="Path_1944" data-name="Path 1944" d="M236.858,288.09c-.208-.367-.434-.727-.674-1.082a.726.726,0,0,1,.232-1.063l17.932-10.352a.854.854,0,0,1,1.143.27c.216.353.42.724.62,1.113a.866.866,0,0,1-.341,1.127l-17.832,10.3A.783.783,0,0,1,236.858,288.09Z" transform="translate(-221.587 -250.529)" fill="#6fb938"/>
          <path id="Path_1945" data-name="Path 1945" d="M240.188,286.488q.2.618.369,1.223a.585.585,0,0,0,.9.378L284,263.531a1.11,1.11,0,0,0,.494-1.184q-.176-.639-.363-1.228a.631.631,0,0,0-.956-.361L240.628,285.32A1.029,1.029,0,0,0,240.188,286.488Z" transform="translate(-223.171 -244.797)" fill="#a7d387"/>
          <path id="Path_1947" data-name="Path 1947" d="M242.232,300.7c.055.453.1.894.136,1.322a.461.461,0,0,0,.75.4l28.821-16.636a1.4,1.4,0,0,0,.645-1.209q-.054-.662-.136-1.317a.5.5,0,0,0-.808-.4L242.826,299.5A1.313,1.313,0,0,0,242.232,300.7Z" transform="translate(-223.976 -253.349)" fill="#17468f"/>
          <path id="Path_1949" data-name="Path 1949" d="M242.618,316.277v1.3c0,.445.313.626.7.4l12.339-7.123a1.545,1.545,0,0,0,.7-1.211v-1.3c0-.446-.313-.627-.7-.4l-12.339,7.123A1.545,1.545,0,0,0,242.618,316.277Z" transform="translate(-224.128 -263.046)" fill="#839bc1"/>
          <path id="Path_1951" data-name="Path 1951" d="M286.292,288.184a.23.23,0,0,0-.229.229v1.11l-3.288,1.9v-.83a.229.229,0,1,0-.457,0v1.095l-3.289,1.9v-.816a.229.229,0,0,0-.458,0v1.08l-3.288,1.9v-.8a.229.229,0,0,0-.458,0v1.065l-3.289,1.9v-.786a.229.229,0,0,0-.457,0v1.05l-3.289,1.9V299.3a.229.229,0,1,0-.457,0v1.035l-3.288,1.9v-.756a.229.229,0,1,0-.458,0V302.5l-3.288,1.9v-.742a.229.229,0,1,0-.458,0v1.006l-3.289,1.9v-.727a.229.229,0,1,0-.458,0v.991l-3.288,1.9v-.712a.229.229,0,0,0-.458,0v.976l-3.288,1.9v-.7a.229.229,0,1,0-.457,0v.961l-3.29,1.9v-.682a.229.229,0,0,0-.458,0v.946L242,314.956a.229.229,0,0,0,.114.427.224.224,0,0,0,.114-.031l2.626-1.516v.929a.229.229,0,0,0,.458,0v-1.193l3.29-1.9v.914a.229.229,0,0,0,.457,0V311.41l3.288-1.9v.9a.229.229,0,0,0,.458,0v-1.164l3.288-1.9v.885a.229.229,0,1,0,.458,0v-1.149l3.289-1.9v.87a.229.229,0,1,0,.458,0v-1.134l3.288-1.9v.855a.229.229,0,1,0,.458,0V302.76l3.288-1.9v.841a.229.229,0,1,0,.457,0V300.6l3.289-1.9v.825a.229.229,0,1,0,.457,0v-1.089l3.289-1.9v.811a.229.229,0,0,0,.458,0v-1.075l3.288-1.9v.8a.229.229,0,1,0,.458,0v-1.06l3.289-1.9v.781a.229.229,0,1,0,.457,0v-1.046l3.288-1.9v.766a.229.229,0,1,0,.458,0v-2.4A.23.23,0,0,0,286.292,288.184Z" transform="translate(-223.845 -255.442)" opacity="0.4"/>
          <g id="Group_6005" data-name="Group 6005" transform="translate(15.753 62.788)">
            <g id="Group_6002" data-name="Group 6002">
              <path id="Path_1952" data-name="Path 1952" d="M248.79,337.375a8.078,8.078,0,0,0-2.4.968c-4.552,2.673-8.238,9.361-8.238,14.939,0,.148,0,.291.007.432l8.225-3.764Z" transform="translate(-238.156 -337.253)" fill="#17468f"/>
              <path id="Path_1953" data-name="Path 1953" d="M253.981,337.3l-2.4,12.576,8.154-4.733a13.577,13.577,0,0,0,.09-1.523C259.823,339.028,257.363,336.588,253.981,337.3Z" transform="translate(-243.347 -337.177)" fill="#839bc1"/>
              <path id="Path_1954" data-name="Path 1954" d="M258.7,354.407a17.545,17.545,0,0,0,1.033-4.242l-8.154,4.733Z" transform="translate(-243.347 -342.2)" fill="#a7d387"/>
              <path id="Path_1955" data-name="Path 1955" d="M238.167,361.336c.187,5.275,3.8,7.476,8.231,4.92,3.041-1.756,5.694-5.32,7.115-9.174l-7.121.491Z" transform="translate(-238.16 -344.875)" fill="#6fb938"/>
            </g>
            <g id="Group_6004" data-name="Group 6004">
              <path id="Path_1959" data-name="Path 1959" d="M248.79,337.375a8.078,8.078,0,0,0-2.4.968c-4.552,2.673-8.238,9.361-8.238,14.939,0,.148,0,.291.007.432l8.225-3.764Z" transform="translate(-238.156 -337.253)" fill="none" stroke="#fff" stroke-linecap="round" stroke-linejoin="round" stroke-width="1.053"/>
              <path id="Path_1960" data-name="Path 1960" d="M253.981,337.3l-2.4,12.576,8.154-4.733a13.577,13.577,0,0,0,.09-1.523C259.823,339.028,257.363,336.588,253.981,337.3Z" transform="translate(-243.347 -337.177)" fill="none" stroke="#fff" stroke-linecap="round" stroke-linejoin="round" stroke-width="1.053"/>
              <path id="Path_1961" data-name="Path 1961" d="M258.7,354.407a17.545,17.545,0,0,0,1.033-4.242l-8.154,4.733Z" transform="translate(-243.347 -342.2)" fill="none" stroke="#fff" stroke-linecap="round" stroke-linejoin="round" stroke-width="1.053"/>
              <path id="Path_1962" data-name="Path 1962" d="M238.167,361.336c.187,5.275,3.8,7.476,8.231,4.92,3.041-1.756,5.694-5.32,7.115-9.174l-7.121.491Z" transform="translate(-238.16 -344.875)" fill="none" stroke="#fff" stroke-linecap="round" stroke-linejoin="round" stroke-width="1.053"/>
            </g>
          </g>
          <g id="Group_6006" data-name="Group 6006" transform="translate(45.968 45.279)">
            <path id="Path_1963" data-name="Path 1963" d="M291.937,315.678a19.473,19.473,0,0,0-4.512,11.7,8.4,8.4,0,0,0,1.039,4.364l7.2-9.129Z" transform="translate(-287.424 -311.354)" fill="#6fb938"/>
            <path id="Path_1964" data-name="Path 1964" d="M302.226,308.633a6.873,6.873,0,0,0-3.719,1.059,14.051,14.051,0,0,0-3.725,3.26l3.725,6.934Z" transform="translate(-290.27 -308.627)" fill="#a7d387"/>
            <path id="Path_1965" data-name="Path 1965" d="M308.332,311.27a4.3,4.3,0,0,0-3.758-2.634l-3.719,11.253Z" transform="translate(-292.618 -308.631)" fill="#839bc1"/>
            <path id="Path_1966" data-name="Path 1966" d="M303.793,312.931l-7.476,8.619-7.2,9.129c1.414,2.3,4.106,2.854,7.2,1.065,4.552-2.628,8.245-9.322,8.245-14.958A8.9,8.9,0,0,0,303.793,312.931Z" transform="translate(-288.08 -310.292)" fill="#17468f"/>
          </g>
          <g id="Group_6008" data-name="Group 6008" transform="translate(45.968 45.279)">
            <path id="Path_1970" data-name="Path 1970" d="M291.937,315.678a19.473,19.473,0,0,0-4.512,11.7,8.4,8.4,0,0,0,1.039,4.364l7.2-9.129Z" transform="translate(-287.424 -311.354)" fill="none" stroke="#fff" stroke-linecap="round" stroke-linejoin="round" stroke-width="1.053"/>
            <path id="Path_1971" data-name="Path 1971" d="M302.226,308.633a6.873,6.873,0,0,0-3.719,1.059,14.051,14.051,0,0,0-3.725,3.26l3.725,6.934Z" transform="translate(-290.27 -308.627)" fill="none" stroke="#fff" stroke-linecap="round" stroke-linejoin="round" stroke-width="1.053"/>
            <path id="Path_1972" data-name="Path 1972" d="M308.332,311.27a4.3,4.3,0,0,0-3.758-2.634l-3.719,11.253Z" transform="translate(-292.618 -308.631)" fill="none" stroke="#fff" stroke-linecap="round" stroke-linejoin="round" stroke-width="1.053"/>
            <path id="Path_1973" data-name="Path 1973" d="M303.793,312.931l-7.476,8.619-7.2,9.129c1.414,2.3,4.106,2.854,7.2,1.065,4.552-2.628,8.245-9.322,8.245-14.958A8.9,8.9,0,0,0,303.793,312.931Z" transform="translate(-288.08 -310.292)" fill="none" stroke="#fff" stroke-linecap="round" stroke-linejoin="round" stroke-width="1.053"/>
          </g>
          <g id="Group_6013" data-name="Group 6013" transform="translate(34.976 56.19)">
            <g id="Group_6009" data-name="Group 6009">
              <path id="Path_1974" data-name="Path 1974" d="M270.2,327.293l1.349-.779c.386-.223.7-.042.7.4v1.3a1.544,1.544,0,0,1-.7,1.21l-1.35.779c-.386.223-.7.042-.7-.4v-1.3A1.546,1.546,0,0,1,270.2,327.293Z" transform="translate(-269.501 -326.419)" fill="#17468f"/>
            </g>
            <g id="Group_6010" data-name="Group 6010" transform="translate(0 5.816)" opacity="0.52">
              <path id="Path_1975" data-name="Path 1975" d="M270.2,336.776l1.349-.779c.386-.223.7-.042.7.4v1.3a1.544,1.544,0,0,1-.7,1.211l-1.35.779c-.386.223-.7.042-.7-.4v-1.3A1.544,1.544,0,0,1,270.2,336.776Z" transform="translate(-269.501 -335.902)" fill="#17468f"/>
              <path id="Path_1976" data-name="Path 1976" d="M270.2,336.776l1.349-.779c.386-.223.7-.042.7.4v1.3a1.544,1.544,0,0,1-.7,1.211l-1.35.779c-.386.223-.7.042-.7-.4v-1.3A1.544,1.544,0,0,1,270.2,336.776Z" transform="translate(-269.501 -335.902)" fill="#17468f" opacity="0.7"/>
            </g>
            <g id="Group_6011" data-name="Group 6011" transform="translate(0 11.632)">
              <path id="Path_1977" data-name="Path 1977" d="M270.2,346.26l1.349-.779c.386-.223.7-.042.7.4v1.3a1.544,1.544,0,0,1-.7,1.211l-1.35.779c-.386.223-.7.042-.7-.4v-1.3A1.545,1.545,0,0,1,270.2,346.26Z" transform="translate(-269.501 -345.385)" fill="#6fb938"/>
              <path id="Path_1978" data-name="Path 1978" d="M270.2,346.26l1.349-.779c.386-.223.7-.042.7.4v1.3a1.544,1.544,0,0,1-.7,1.211l-1.35.779c-.386.223-.7.042-.7-.4v-1.3A1.545,1.545,0,0,1,270.2,346.26Z" transform="translate(-269.501 -345.385)" fill="#6fb938" opacity="0.15"/>
            </g>
            <g id="Group_6012" data-name="Group 6012" transform="translate(0 17.448)" opacity="0.59">
              <path id="Path_1979" data-name="Path 1979" d="M270.2,355.743l1.349-.779c.386-.223.7-.042.7.4v1.3a1.544,1.544,0,0,1-.7,1.21l-1.35.779c-.386.223-.7.042-.7-.4v-1.3A1.545,1.545,0,0,1,270.2,355.743Z" transform="translate(-269.501 -354.868)" fill="#6fba38"/>
              <path id="Path_1980" data-name="Path 1980" d="M270.2,355.743l1.349-.779c.386-.223.7-.042.7.4v1.3a1.544,1.544,0,0,1-.7,1.21l-1.35.779c-.386.223-.7.042-.7-.4v-1.3A1.545,1.545,0,0,1,270.2,355.743Z" transform="translate(-269.501 -354.868)" fill="#6fba38" opacity="0.5"/>
            </g>
          </g>
          <g id="Group_6014" data-name="Group 6014" transform="translate(38.652 53.645)">
            <path id="Path_1981" data-name="Path 1981" d="M275.953,325.554a.458.458,0,0,1-.229-.854l4.107-2.37a.457.457,0,1,1,.458.792l-4.107,2.37A.453.453,0,0,1,275.953,325.554Z" transform="translate(-275.495 -322.269)" opacity="0.4"/>
          </g>
          <g id="Group_6015" data-name="Group 6015" transform="translate(38.589 59.52)">
            <path id="Path_1982" data-name="Path 1982" d="M275.85,335.133a.458.458,0,0,1-.229-.854l4.107-2.371a.457.457,0,1,1,.458.792l-4.106,2.371A.458.458,0,0,1,275.85,335.133Z" transform="translate(-275.392 -331.847)" opacity="0.4"/>
          </g>
          <g id="Group_6016" data-name="Group 6016" transform="translate(38.526 65.394)">
            <path id="Path_1983" data-name="Path 1983" d="M275.748,344.711a.458.458,0,0,1-.23-.854l4.107-2.371a.457.457,0,0,1,.457.792l-4.106,2.37A.456.456,0,0,1,275.748,344.711Z" transform="translate(-275.289 -341.426)" opacity="0.4"/>
          </g>
          <g id="Group_6017" data-name="Group 6017" transform="translate(38.462 71.268)">
            <path id="Path_1984" data-name="Path 1984" d="M275.644,354.289a.458.458,0,0,1-.23-.854l4.107-2.37a.458.458,0,0,1,.458.793l-4.107,2.37A.468.468,0,0,1,275.644,354.289Z" transform="translate(-275.185 -351.004)" opacity="0.4"/>
          </g>
          <g id="Group_6021" data-name="Group 6021" transform="translate(15.808 83.204)">
            <g id="Group_6018" data-name="Group 6018">
              <path id="Path_1985" data-name="Path 1985" d="M238.7,382.482a.458.458,0,0,1-.229-.854l19.231-11.1a.458.458,0,1,1,.458.792l-19.232,11.1A.462.462,0,0,1,238.7,382.482Z" transform="translate(-238.245 -370.467)" opacity="0.4"/>
            </g>
            <g id="Group_6019" data-name="Group 6019" transform="translate(0.619 2.847)">
              <path id="Path_1986" data-name="Path 1986" d="M239.714,387.124a.458.458,0,0,1-.23-.854l19.232-11.1a.458.458,0,0,1,.457.793l-19.231,11.1A.469.469,0,0,1,239.714,387.124Z" transform="translate(-239.255 -375.11)" opacity="0.4"/>
            </g>
            <g id="Group_6020" data-name="Group 6020" transform="translate(1.506 5.601)">
              <path id="Path_1987" data-name="Path 1987" d="M241.158,391.615a.458.458,0,0,1-.229-.854l19.231-11.1a.458.458,0,1,1,.458.792l-19.232,11.1A.461.461,0,0,1,241.158,391.615Z" transform="translate(-240.7 -379.6)" opacity="0.4"/>
            </g>
          </g>
          <g id="Group_6025" data-name="Group 6025" transform="translate(45.994 65.783)">
            <g id="Group_6022" data-name="Group 6022">
              <path id="Path_1988" data-name="Path 1988" d="M287.925,354.076a.458.458,0,0,1-.229-.854l19.231-11.1a.458.458,0,0,1,.458.793l-19.231,11.1A.456.456,0,0,1,287.925,354.076Z" transform="translate(-287.467 -342.061)" opacity="0.4"/>
            </g>
            <g id="Group_6023" data-name="Group 6023" transform="translate(0.619 2.846)">
              <path id="Path_1989" data-name="Path 1989" d="M288.934,358.717a.458.458,0,0,1-.229-.854l19.232-11.1a.458.458,0,0,1,.457.793l-19.232,11.1A.466.466,0,0,1,288.934,358.717Z" transform="translate(-288.476 -346.702)" opacity="0.4"/>
            </g>
            <g id="Group_6024" data-name="Group 6024" transform="translate(1.506 5.6)">
              <path id="Path_1990" data-name="Path 1990" d="M290.38,363.208a.458.458,0,0,1-.229-.854l19.231-11.1a.457.457,0,1,1,.457.792l-19.231,11.1A.462.462,0,0,1,290.38,363.208Z" transform="translate(-289.922 -351.193)" opacity="0.4"/>
            </g>
          </g>
          <path id="Path_1991" data-name="Path 1991" d="M249.007,388.021l43.844-25.3a3.372,3.372,0,0,1,4.392.787,2.577,2.577,0,0,1-.988,3.858L252.4,392.674a3.629,3.629,0,0,1-4.606-.63A2.826,2.826,0,0,1,249.007,388.021Z" transform="translate(-225.957 -284.08)" fill="#17468f"/>
          <g id="Group_6029" data-name="Group 6029" transform="translate(27.42 102.631)">
            <g id="Group_6026" data-name="Group 6026" transform="translate(2.406 1.697)">
              <path id="Path_1992" data-name="Path 1992" d="M261.562,416.923a.458.458,0,0,1-.23-.854l19.23-11.1a.458.458,0,1,1,.457.793l-19.229,11.1A.469.469,0,0,1,261.562,416.923Z" transform="translate(-261.103 -404.911)" opacity="0.4"/>
            </g>
            <g id="Group_6027" data-name="Group 6027">
              <path id="Path_1993" data-name="Path 1993" d="M257.638,414.156a.458.458,0,0,1-.229-.854l19.23-11.1a.458.458,0,1,1,.457.793l-19.229,11.1A.463.463,0,0,1,257.638,414.156Z" transform="translate(-257.18 -402.145)" opacity="0.4"/>
            </g>
            <g id="Group_6028" data-name="Group 6028" transform="translate(4.935 3.193)">
              <path id="Path_1994" data-name="Path 1994" d="M265.685,419.363a.458.458,0,0,1-.229-.854l19.23-11.1a.458.458,0,0,1,.458.793l-19.23,11.1A.46.46,0,0,1,265.685,419.363Z" transform="translate(-265.227 -407.351)" opacity="0.4"/>
            </g>
          </g>
          <g id="Group_6033" data-name="Group 6033" transform="translate(54.876 86.787)">
            <g id="Group_6030" data-name="Group 6030" transform="translate(2.406 1.697)">
              <path id="Path_1995" data-name="Path 1995" d="M306.331,391.087a.458.458,0,0,1-.229-.854l19.23-11.1a.458.458,0,0,1,.458.793l-19.23,11.1A.468.468,0,0,1,306.331,391.087Z" transform="translate(-305.873 -379.075)" opacity="0.4"/>
            </g>
            <g id="Group_6031" data-name="Group 6031">
              <path id="Path_1996" data-name="Path 1996" d="M302.408,388.32a.458.458,0,0,1-.229-.854l19.229-11.1a.458.458,0,0,1,.458.793l-19.23,11.1A.462.462,0,0,1,302.408,388.32Z" transform="translate(-301.95 -376.309)" opacity="0.4"/>
            </g>
            <g id="Group_6032" data-name="Group 6032" transform="translate(4.935 3.193)">
              <path id="Path_1997" data-name="Path 1997" d="M310.455,393.527a.458.458,0,0,1-.23-.854l19.23-11.1a.458.458,0,1,1,.457.794l-19.23,11.1A.463.463,0,0,1,310.455,393.527Z" transform="translate(-309.996 -381.515)" opacity="0.4"/>
            </g>
          </g>
          <g id="Group_6037" data-name="Group 6037" transform="translate(41.132 106.249)">
            <g id="Group_6034" data-name="Group 6034" transform="translate(0 7.879)">
              <path id="Path_1998" data-name="Path 1998" d="M298.965,422.591c-4.175-2.411-11.25-2.237-15.8.39s-4.857,6.711-.682,9.122,11.25,2.237,15.8-.389S303.14,425,298.965,422.591Zm-2.842,7.875c-3.251,1.876-8.3,2-11.287.278s-2.765-4.64.487-6.516,8.3-2,11.287-.278S299.375,428.589,296.123,430.466Z" transform="translate(-279.539 -420.891)" fill="#17468f"/>
              <path id="Path_1999" data-name="Path 1999" d="M291.514,427.8a7.5,7.5,0,0,1,6.772-.167c1.789,1.033,1.658,2.784-.293,3.91a7.5,7.5,0,0,1-6.772.167C289.432,430.679,289.563,428.928,291.514,427.8Z" transform="translate(-283.569 -423.217)" fill="#27debf"/>
            </g>
            <path id="Path_2000" data-name="Path 2000" d="M291.514,427.8a7.5,7.5,0,0,1,6.772-.167c1.789,1.033,1.658,2.784-.293,3.91a7.5,7.5,0,0,1-6.772.167C289.432,430.679,289.563,428.928,291.514,427.8Z" transform="translate(-283.569 -415.339)" fill="#17468f"/>
            <g id="Group_6035" data-name="Group 6035" transform="translate(7.837 7.884)">
              <path id="Path_2002" data-name="Path 2002" d="M292.318,421.384l.954,1.706a13.573,13.573,0,0,1,5.6-.1l1.287-1.745A19.009,19.009,0,0,0,292.318,421.384Z" transform="translate(-292.318 -420.899)" fill="#17468f"/>
              <path id="Path_2003" data-name="Path 2003" d="M292.318,421.384l.954,1.706a13.573,13.573,0,0,1,5.6-.1l1.287-1.745A19.009,19.009,0,0,0,292.318,421.384Z" transform="translate(-292.318 -420.899)" fill="#fff" opacity="0.7"/>
            </g>
            <g id="Group_6036" data-name="Group 6036" transform="translate(11.298)">
              <path id="Path_2004" data-name="Path 2004" d="M298.42,415.569h-.028a.457.457,0,0,1-.429-.483l.124-2.1,8.455-4.88a.458.458,0,0,1,.458.793l-8.028,4.633-.1,1.609A.456.456,0,0,1,298.42,415.569Z" transform="translate(-297.963 -408.043)" opacity="0.4"/>
            </g>
          </g>
          <g id="Group_6042" data-name="Group 6042" transform="translate(65.851 91.944)">
            <g id="Group_6041" data-name="Group 6041">
              <g id="Group_6038" data-name="Group 6038" transform="translate(0 7.924)">
                <path id="Path_2005" data-name="Path 2005" d="M339.271,399.341c-4.176-2.411-11.251-2.237-15.8.389s-4.856,6.711-.681,9.122,11.25,2.237,15.8-.39S343.446,401.752,339.271,399.341Zm-2.842,7.874c-3.251,1.876-8.3,2-11.287.278s-2.765-4.639.486-6.515,8.3-2,11.287-.279S339.681,405.339,336.429,407.215Z" transform="translate(-319.845 -397.64)" fill="#6fb938"/>
                <path id="Path_2006" data-name="Path 2006" d="M331.82,404.552a7.5,7.5,0,0,1,6.772-.167c1.79,1.033,1.659,2.784-.292,3.91a7.5,7.5,0,0,1-6.772.168C329.738,407.428,329.869,405.677,331.82,404.552Z" transform="translate(-323.875 -399.967)" fill="#27debf"/>
              </g>
              <path id="Path_2007" data-name="Path 2007" d="M331.82,404.552a7.5,7.5,0,0,1,6.772-.167c1.79,1.033,1.659,2.784-.292,3.91a7.5,7.5,0,0,1-6.772.168C329.738,407.428,329.869,405.677,331.82,404.552Z" transform="translate(-323.875 -392.042)" fill="#6fb938"/>
              <g id="Group_6039" data-name="Group 6039" transform="translate(5.908 7.929)">
                <path id="Path_2009" data-name="Path 2009" d="M343,399.343c-3.528-2.038-9.121-2.222-13.518-.648l1.509,1.544c3.141-1.124,7.135-.992,9.655.462a5.3,5.3,0,0,1,1.145.879l2.814-1.006A7.4,7.4,0,0,0,343,399.343Z" transform="translate(-329.478 -397.647)" fill="#6fb938"/>
                <path id="Path_2010" data-name="Path 2010" d="M343,399.343c-3.528-2.038-9.121-2.222-13.518-.648l1.509,1.544c3.141-1.124,7.135-.992,9.655.462a5.3,5.3,0,0,1,1.145.879l2.814-1.006A7.4,7.4,0,0,0,343,399.343Z" transform="translate(-329.478 -397.647)" fill="#fff" opacity="0.7"/>
              </g>
              <g id="Group_6040" data-name="Group 6040" transform="translate(11.368)">
                <path id="Path_2011" data-name="Path 2011" d="M338.84,392.244h-.028a.457.457,0,0,1-.429-.484l.125-2.1,8.455-4.879a.458.458,0,1,1,.458.793l-8.028,4.632-.1,1.609A.457.457,0,0,1,338.84,392.244Z" transform="translate(-338.383 -384.719)" opacity="0.4"/>
              </g>
            </g>
          </g>
          <g id="Group_6046" data-name="Group 6046" transform="translate(55.035 103.069)">
            <g id="Group_6043" data-name="Group 6043">
              <path id="Path_2012" data-name="Path 2012" d="M302.667,430.724a.458.458,0,0,1-.229-.854l46.7-26.95a.458.458,0,1,1,.458.793l-46.7,26.95A.466.466,0,0,1,302.667,430.724Z" transform="translate(-302.209 -402.859)" opacity="0.4"/>
            </g>
            <g id="Group_6044" data-name="Group 6044" transform="translate(2.526 1.452)">
              <path id="Path_2013" data-name="Path 2013" d="M306.785,433.092a.458.458,0,0,1-.229-.854l46.7-26.95a.458.458,0,1,1,.457.793l-46.7,26.95A.464.464,0,0,1,306.785,433.092Z" transform="translate(-306.327 -405.227)" opacity="0.4"/>
            </g>
            <g id="Group_6045" data-name="Group 6045" transform="translate(5.046 2.907)">
              <path id="Path_2014" data-name="Path 2014" d="M310.9,435.464a.458.458,0,0,1-.229-.854l46.7-26.95a.458.458,0,1,1,.457.793l-46.7,26.95A.464.464,0,0,1,310.9,435.464Z" transform="translate(-310.437 -407.599)" opacity="0.4"/>
            </g>
          </g>
        </g>
      </g>
    </g>
  </g>
</svg>
