<svg xmlns="http://www.w3.org/2000/svg" width="34.406" height="46.667" viewBox="0 0 34.406 46.667">
  <g id="Group_7274" data-name="Group 7274" transform="translate(-1127.594 -338.667)">
    <g id="doctor" transform="translate(1051.594 338.667)">
      <path id="Path_3130" data-name="Path 3130" d="M95.141,46.667a8.212,8.212,0,0,0,8.2-8.2v-.138a6.836,6.836,0,1,0-2.734,0v.138a5.469,5.469,0,1,1-10.937,0V24.715a12.322,12.322,0,0,0,10.937-12.228V4.1a4.106,4.106,0,0,0-4.1-4.1h-4.1V2.734h4.1A1.369,1.369,0,0,1,97.875,4.1v8.385a9.57,9.57,0,1,1-19.141,0V4.1A1.369,1.369,0,0,1,80.1,2.734h4.1V0H80.1A4.106,4.106,0,0,0,76,4.1v8.385A12.322,12.322,0,0,0,86.937,24.715V38.463A8.212,8.212,0,0,0,95.141,46.667Zm2.734-15.039a4.1,4.1,0,1,1,4.1,4.1A4.106,4.106,0,0,1,97.875,31.628Z" fill="#15cdcb"/>
    </g>
    <g id="Ellipse_41" data-name="Ellipse 41" transform="translate(1146 362)" fill="#fff" stroke="#15cdcb" stroke-width="2">
      <circle cx="8" cy="8" r="8" stroke="none"/>
      <circle cx="8" cy="8" r="7" fill="none"/>
    </g>
    <g id="star_3_" data-name="star (3)" transform="translate(1150.15 354.204)">
      <g id="Group_7272" data-name="Group 7272" transform="translate(0 11.796)">
        <path id="Path_3131" data-name="Path 3131" d="M8.155,14.656a.237.237,0,0,0-.193-.157L5.43,14.143,4.3,11.925a.243.243,0,0,0-.429,0L2.737,14.143.2,14.5a.237.237,0,0,0-.193.157.226.226,0,0,0,.061.237L1.9,16.619l-.432,2.438a.228.228,0,0,0,.1.226.246.246,0,0,0,.252.018L4.083,18.15,6.348,19.3a.246.246,0,0,0,.252-.018.228.228,0,0,0,.1-.226l-.433-2.438,1.832-1.726A.226.226,0,0,0,8.155,14.656Z" transform="translate(0 -11.796)" fill="#7540ee"/>
      </g>
    </g>
  </g>
</svg>
