<svg xmlns="http://www.w3.org/2000/svg" width="338.166" height="306.377" viewBox="0 0 338.166 306.377">
  <g id="Group_6309" data-name="Group 6309" transform="translate(-995.072 -383.56)">
    <g id="Group_6299" data-name="Group 6299" transform="translate(946.14 310.047)">
      <g id="Background_Complete" data-name="Background Complete" transform="translate(0 54.953)">
        <g id="Group_6275" data-name="Group 6275" transform="translate(56.563 18.56)">
          <g id="Group_6262" data-name="Group 6262" transform="translate(2.806 173.903)">
            <rect id="Rectangle_222" data-name="Rectangle 222" width="7.725" height="87.439" transform="translate(124.218 87.439) rotate(180)" fill="#f0f0f0"/>
            <rect id="Rectangle_223" data-name="Rectangle 223" width="118.285" height="5.54" transform="translate(121.251 92.98) rotate(180)" fill="#f0f0f0"/>
            <rect id="Rectangle_224" data-name="Rectangle 224" width="116.493" height="87.439" transform="translate(0 0)" fill="#f5f5f5"/>
            <rect id="Rectangle_225" data-name="Rectangle 225" width="104.344" height="28.677" rx="6.235" transform="translate(6.074 10.763)" fill="#f0f0f0"/>
            <rect id="Rectangle_226" data-name="Rectangle 226" width="104.344" height="28.677" rx="6.235" transform="translate(6.074 47.999)" fill="#f0f0f0"/>
            <rect id="Rectangle_227" data-name="Rectangle 227" width="65.072" height="3.933" rx="1.966" transform="translate(90.783 27.067) rotate(180)" fill="#f5f5f5"/>
            <rect id="Rectangle_228" data-name="Rectangle 228" width="65.072" height="3.933" rx="1.966" transform="translate(90.783 64.304) rotate(180)" fill="#f5f5f5"/>
          </g>
          <g id="Group_6271" data-name="Group 6271" transform="translate(175.733 48.687)">
            <g id="Group_6264" data-name="Group 6264" transform="translate(0 27.636)">
              <g id="Group_6263" data-name="Group 6263" transform="translate(4.156 5.186)">
                <rect id="Rectangle_229" data-name="Rectangle 229" width="31.192" height="179.421" transform="translate(131.76 179.421) rotate(180)" fill="#f0f0f0"/>
                <rect id="Rectangle_230" data-name="Rectangle 230" width="119.781" height="6.062" transform="translate(125.771 185.484) rotate(180)" fill="#f0f0f0"/>
                <rect id="Rectangle_231" data-name="Rectangle 231" width="100.567" height="179.421" fill="#f5f5f5"/>
                <rect id="Rectangle_232" data-name="Rectangle 232" width="76.04" height="31.379" rx="5.953" transform="translate(12.264 99.493)" fill="#f0f0f0"/>
                <rect id="Rectangle_233" data-name="Rectangle 233" width="76.04" height="31.379" rx="5.953" transform="translate(12.264 136.595)" fill="#f0f0f0"/>
                <rect id="Rectangle_234" data-name="Rectangle 234" width="76.04" height="82.324" rx="5.953" transform="translate(12.264 11.446)" fill="#f0f0f0"/>
              </g>
              <rect id="Rectangle_235" data-name="Rectangle 235" width="104.724" height="5.186" transform="translate(104.724 5.186) rotate(180)" fill="#f0f0f0"/>
              <rect id="Rectangle_236" data-name="Rectangle 236" width="35.552" height="5.186" transform="translate(104.724 0)" fill="#e6e6e6"/>
            </g>
            <g id="Group_6267" data-name="Group 6267" transform="translate(14.485)">
              <g id="Group_6265" data-name="Group 6265" transform="translate(1.158 1.288)">
                <rect id="Rectangle_237" data-name="Rectangle 237" width="25.892" height="26.348" transform="translate(46.206)" fill="#f0f0f0"/>
                <rect id="Rectangle_238" data-name="Rectangle 238" width="45.936" height="26.348" transform="translate(46.206 26.348) rotate(180)" fill="#f5f5f5"/>
                <rect id="Rectangle_239" data-name="Rectangle 239" width="72.098" height="2.128" transform="translate(0 3.972)" fill="#e6e6e6" opacity="0.7" style="mix-blend-mode: multiply;isolation: isolate"/>
              </g>
              <g id="Group_6266" data-name="Group 6266" transform="translate(0)">
                <rect id="Rectangle_240" data-name="Rectangle 240" width="27.321" height="6.157" transform="translate(47.365)" fill="#f0f0f0"/>
                <rect id="Rectangle_241" data-name="Rectangle 241" width="47.365" height="6.157" transform="translate(47.365 6.157) rotate(180)" fill="#f5f5f5"/>
              </g>
            </g>
            <g id="Group_6270" data-name="Group 6270" transform="translate(73.513 9.9)">
              <g id="Group_6268" data-name="Group 6268" transform="translate(0.743 0.827)">
                <rect id="Rectangle_242" data-name="Rectangle 242" width="16.616" height="16.909" transform="translate(29.653)" fill="#f0f0f0"/>
                <rect id="Rectangle_243" data-name="Rectangle 243" width="29.48" height="16.909" transform="translate(29.653 16.909) rotate(180)" fill="#f5f5f5"/>
                <rect id="Rectangle_244" data-name="Rectangle 244" width="46.27" height="1.366" transform="translate(0 2.549)" fill="#e6e6e6" opacity="0.7" style="mix-blend-mode: multiply;isolation: isolate"/>
              </g>
              <g id="Group_6269" data-name="Group 6269" transform="translate(0)">
                <rect id="Rectangle_245" data-name="Rectangle 245" width="17.533" height="3.951" transform="translate(30.397)" fill="#f0f0f0"/>
                <rect id="Rectangle_246" data-name="Rectangle 246" width="30.397" height="3.951" transform="translate(30.397 3.951) rotate(180)" fill="#f5f5f5"/>
              </g>
            </g>
          </g>
          <g id="Group_6272" data-name="Group 6272" transform="translate(47.951)">
            <rect id="Rectangle_247" data-name="Rectangle 247" width="33.361" height="97.373" transform="translate(40.525 97.373) rotate(180)" fill="#f0f0f0"/>
            <rect id="Rectangle_248" data-name="Rectangle 248" width="38.373" height="97.373" transform="translate(38.373 97.373) rotate(180)" fill="#f5f5f5"/>
            <rect id="Rectangle_249" data-name="Rectangle 249" width="89.72" height="31.944" transform="translate(3.215 93.547) rotate(-90)" fill="#fff"/>
            <rect id="Rectangle_250" data-name="Rectangle 250" width="69.891" height="16.458" transform="translate(10.957 83.632) rotate(-90)" fill="#f5f5f5"/>
          </g>
          <g id="Group_6273" data-name="Group 6273" transform="translate(0 20.973)">
            <rect id="Rectangle_251" data-name="Rectangle 251" width="33.361" height="97.373" transform="translate(40.525 97.373) rotate(180)" fill="#f0f0f0"/>
            <rect id="Rectangle_252" data-name="Rectangle 252" width="38.373" height="97.373" transform="translate(38.373 97.373) rotate(180)" fill="#f5f5f5"/>
            <rect id="Rectangle_253" data-name="Rectangle 253" width="89.72" height="31.944" transform="translate(3.215 93.547) rotate(-90)" fill="#fff"/>
            <path id="Rectangle_254" data-name="Rectangle 254" d="M7.541,0h54.81a7.541,7.541,0,0,1,7.541,7.541V8.918a7.54,7.54,0,0,1-7.54,7.54H7.541A7.541,7.541,0,0,1,0,8.918V7.541A7.541,7.541,0,0,1,7.541,0Z" transform="translate(10.957 83.632) rotate(-90)" fill="#f5f5f5"/>
          </g>
          <g id="Group_6274" data-name="Group 6274" transform="translate(94.421 34.946)">
            <rect id="Rectangle_255" data-name="Rectangle 255" width="33.361" height="97.373" transform="translate(40.525 97.373) rotate(180)" fill="#f0f0f0"/>
            <rect id="Rectangle_256" data-name="Rectangle 256" width="38.373" height="97.373" transform="translate(38.373 97.373) rotate(180)" fill="#f5f5f5"/>
            <rect id="Rectangle_257" data-name="Rectangle 257" width="89.72" height="31.944" transform="translate(3.215 93.547) rotate(-90)" fill="#fff"/>
            <rect id="Rectangle_258" data-name="Rectangle 258" width="69.891" height="16.458" rx="7.541" transform="translate(10.957 83.632) rotate(-90)" fill="#f5f5f5"/>
          </g>
        </g>
      </g>
      <g id="Shadow" transform="translate(48.932 360.141)">
        <ellipse id="_Path_" data-name="&lt;Path&gt;" cx="169.083" cy="9.875" rx="169.083" ry="9.875" fill="#f5f5f5"/>
      </g>
      <g id="Email" transform="translate(119.875 89.304)">
        <g id="Group_6277" data-name="Group 6277">
          <g id="Group_6276" data-name="Group 6276" transform="translate(0 2.741)">
            <path id="Path_2715" data-name="Path 2715" d="M350.819,274.425H146.408a8.887,8.887,0,0,1-8.935-9.395l7.733-158.148a10,10,0,0,1,9.854-9.395h204.41a8.887,8.887,0,0,1,8.935,9.395L360.673,265.03A10,10,0,0,1,350.819,274.425Z" transform="translate(-137.462 -97.487)" fill="#d3bfff"/>
            <path id="Path_2716" data-name="Path 2716" d="M350.819,274.425H146.408a8.887,8.887,0,0,1-8.935-9.395l7.733-158.148a10,10,0,0,1,9.854-9.395h204.41a8.887,8.887,0,0,1,8.935,9.395L360.673,265.03A10,10,0,0,1,350.819,274.425Z" transform="translate(-137.462 -97.487)" fill="#b9c7dc"/>
          </g>
          <rect id="Rectangle_259" data-name="Rectangle 259" width="4.176" height="0.783" transform="translate(67.618)" fill="#407bff"/>
          <rect id="Rectangle_260" data-name="Rectangle 260" width="17.093" height="0.783" transform="translate(45.827)" fill="#407bff"/>
          <path id="Path_2717" data-name="Path 2717" d="M360.607,97.487H156.2a10,10,0,0,0-9.854,9.395h223.2A8.887,8.887,0,0,0,360.607,97.487Z" transform="translate(-138.598 -94.746)" fill="#17468f"/>
          <path id="Path_2718" data-name="Path 2718" d="M359.436,125.62h-202.5a2.38,2.38,0,0,1-2.4-2.523l.251-5.132a2.677,2.677,0,0,1,2.646-2.523h202.5a2.38,2.38,0,0,1,2.4,2.523l-.251,5.132A2.678,2.678,0,0,1,359.436,125.62Z" transform="translate(-139.647 -97.043)" fill="#fff"/>
          <path id="Path_2719" data-name="Path 2719" d="M217.006,123.541H162.151a1.241,1.241,0,0,1-1.251-1.315l.131-2.676a1.4,1.4,0,0,1,1.38-1.315h54.855a1.241,1.241,0,0,1,1.251,1.315l-.131,2.676A1.4,1.4,0,0,1,217.006,123.541Z" transform="translate(-140.46 -97.4)" fill="#17468f" opacity="0.66"/>
          <path id="Path_2720" data-name="Path 2720" d="M358.554,143.653h-202.5a2.38,2.38,0,0,1-2.4-2.522l.251-5.133a2.678,2.678,0,0,1,2.646-2.523h202.5a2.38,2.38,0,0,1,2.4,2.523l-.251,5.133A2.678,2.678,0,0,1,358.554,143.653Z" transform="translate(-139.534 -99.35)" fill="#fff"/>
          <path id="Path_2721" data-name="Path 2721" d="M225.051,141.574H161.269a1.24,1.24,0,0,1-1.251-1.315l.131-2.676a1.4,1.4,0,0,1,1.38-1.316h63.782a1.241,1.241,0,0,1,1.251,1.316l-.131,2.676A1.4,1.4,0,0,1,225.051,141.574Z" transform="translate(-140.348 -99.708)" fill="#17468f" opacity="0.66"/>
          <path id="Path_2722" data-name="Path 2722" d="M354.92,266.329h-202.5a2.379,2.379,0,0,1-2.4-2.523L155.3,155.9a2.678,2.678,0,0,1,2.647-2.522h202.5a2.379,2.379,0,0,1,2.4,2.522l-5.276,107.906A2.678,2.678,0,0,1,354.92,266.329Z" transform="translate(-139.069 -101.897)" fill="#fff"/>
          <path id="Path_2723" data-name="Path 2723" d="M196.162,161.959h-35.8a1.24,1.24,0,0,1-1.251-1.316l.131-2.675a1.4,1.4,0,0,1,1.38-1.315h35.8a1.24,1.24,0,0,1,1.251,1.315l-.131,2.675A1.4,1.4,0,0,1,196.162,161.959Z" transform="translate(-140.232 -102.316)" fill="#17468f" opacity="0.66"/>
          <path id="Path_2724" data-name="Path 2724" d="M263.929,174.406H159.7a1.24,1.24,0,0,1-1.251-1.315l.131-2.676a1.4,1.4,0,0,1,1.38-1.315H264.188a1.241,1.241,0,0,1,1.251,1.315l-.131,2.676A1.4,1.4,0,0,1,263.929,174.406Z" transform="translate(-140.146 -103.908)" fill="#17468f" opacity="0.66"/>
          <path id="Path_2725" data-name="Path 2725" d="M244.472,183.672H159.25A1.24,1.24,0,0,1,158,182.357l.131-2.676a1.4,1.4,0,0,1,1.38-1.315h85.222a1.24,1.24,0,0,1,1.251,1.315l-.131,2.676A1.4,1.4,0,0,1,244.472,183.672Z" transform="translate(-140.089 -105.093)" fill="#17468f" opacity="0.66"/>
          <path id="Path_2726" data-name="Path 2726" d="M363.009,292.731h15.006A3.335,3.335,0,0,0,381.3,289.6h0a2.963,2.963,0,0,0-2.979-3.132H363.315a3.335,3.335,0,0,0-3.285,3.132h0A2.962,2.962,0,0,0,363.009,292.731Z" transform="translate(-165.937 -118.924)" fill="#17468f"/>
          <path id="Path_2727" data-name="Path 2727" d="M344.093,289.714a2.215,2.215,0,0,0,2.233,2.348,2.492,2.492,0,0,0,2.464-2.348,2.215,2.215,0,0,0-2.233-2.349A2.492,2.492,0,0,0,344.093,289.714Z" transform="translate(-163.898 -119.039)" fill="#17468f" opacity="0.4"/>
          <path id="Path_2728" data-name="Path 2728" d="M331.368,289.714a2.216,2.216,0,0,0,2.234,2.348,2.493,2.493,0,0,0,2.464-2.348,2.216,2.216,0,0,0-2.234-2.349A2.494,2.494,0,0,0,331.368,289.714Z" transform="translate(-162.27 -119.039)" fill="#17468f" opacity="0.4"/>
          <path id="Path_2729" data-name="Path 2729" d="M318.644,289.714a2.215,2.215,0,0,0,2.234,2.348,2.493,2.493,0,0,0,2.464-2.348,2.216,2.216,0,0,0-2.234-2.349A2.494,2.494,0,0,0,318.644,289.714Z" transform="translate(-160.642 -119.039)" fill="#17468f" opacity="0.4"/>
          <path id="Path_2730" data-name="Path 2730" d="M252.836,259.826l.024-.523.084-1.936c.052-1.291.035-2.573.027-3.863-.054-2.564-.2-5.119-.491-7.631s-.671-5.023-1.181-7.491c-.137-.628-.274-1.256-.43-1.875l2.124-1.735s-3.445-11.982-6.951-12.854a.529.529,0,0,0-.085-.017,3.837,3.837,0,0,0-.7-.1,101.74,101.74,0,0,0-14.244-.985c-2.712-2.573-2.288-7.892-1.317-12.593.176-.288.344-.576.494-.855a20.3,20.3,0,0,0,8.384-11.066c2.159.5,5.4.471,9.391-1.953a11.334,11.334,0,0,1-4.291.2,9.188,9.188,0,0,0,5.8-8.747,6.734,6.734,0,0,0-7.922-6.68,8.657,8.657,0,0,0-5.495,3.462c-.113-.009-.235-.009-.348-.009a7.757,7.757,0,0,0-4.666-1.491c-4.2-5.354-22.409-3.881-25.373,3.288-1.573,3.82-.538,6.07,1.219,7.4a16.447,16.447,0,0,0-.5,4.038,5.14,5.14,0,0,0-.644.6.409.409,0,0,0,0,.584.4.4,0,0,0,.4.052.44.44,0,0,0,.19-.131l.089-.078a14.513,14.513,0,0,0,.9,4.081,28.313,28.313,0,0,0,1.531,8.825c1.773,4.918,6.562,6.872,11.377,5.782.025.349.058.7.058,1.046h.017c-.013,2.337-1.169,3.933-5.518,5.2-2.365.349-4.85.82-7.1,1.282a11.453,11.453,0,0,0-6.84,4.5c-3.321,3.575-7.469,14.93-7.469,14.93l2.73,1.482c-.3,1.151-.593,2.3-.907,3.453-.016.052-.031.1-.045.148H175.538a4.631,4.631,0,0,0-4.653,4.918l.482,8.921a1.414,1.414,0,0,0-.222.166l-1.637,1.535.375,7.788a12.479,12.479,0,0,0,2.049,1.081l.23,4.378a5.027,5.027,0,0,0,.367,1.613c-9.62.889-14.89,3.306-16.2,6.741h79.093a48.023,48.023,0,0,0,.594-7.866l.747-.044c.413-.026.727-.3.617-.532l-.7-3.122a.576.576,0,0,0-.562-.235l-.045.009c.034-.942.067-1.875.107-2.791a32.172,32.172,0,0,0,6.713-.6,16.617,16.617,0,0,0,4.86-1.779,11.207,11.207,0,0,0,2.653-2.11,9.42,9.42,0,0,0,1.939-3.27,9.167,9.167,0,0,0,.414-1.727C252.8,260.358,252.82,260.1,252.836,259.826Zm-8.112,1.1a1.111,1.111,0,0,1-.391.392,8.1,8.1,0,0,1-2.348,1.038,28.069,28.069,0,0,1-5.358.977,124.856,124.856,0,0,1,2.612-16.151c.11-.515.231-1.046.351-1.578.055-.218.1-.436.155-.663.072-.288.135-.576.208-.863.341.532.554.846.554.846l2.259-1.831c.338,1.639.658,3.3.9,4.979.317,2.276.579,4.578.769,6.889.06,1.16.164,2.32.2,3.488l.085,2.389C244.723,260.872,244.752,260.846,244.724,260.925Z" transform="translate(-139.876 -105.03)" fill="#17468f" opacity="0.1"/>
        </g>
      </g>
      <g id="Character" transform="translate(106.137 161.852)">
        <g id="Group_6298" data-name="Group 6298">
          <g id="Group_6282" data-name="Group 6282" transform="translate(35.075 121.939)">
            <path id="Path_2731" data-name="Path 2731" d="M251.307,329.994H165.6a1.218,1.218,0,0,1-1.172-1.546l.027-.1c1.7-6.068,8-10.987,14.066-10.987h75.643a1.217,1.217,0,0,1,1.172,1.546l-2.857,10.2A1.217,1.217,0,0,1,251.307,329.994Z" transform="translate(-162.243 -317.363)" fill="#6fb938"/>
            <g id="Group_6278" data-name="Group 6278" transform="translate(77.945 12.631)">
              <path id="Path_2732" data-name="Path 2732" d="M264.1,405.441h3.408l-12.787-73.594H251.31Z" transform="translate(-251.31 -331.847)" fill="#60a52d"/>
              <path id="Path_2733" data-name="Path 2733" d="M264.1,405.441h3.408l-12.787-73.594H251.31Z" transform="translate(-251.31 -331.847)" fill="#60a52d" opacity="0.6"/>
            </g>
            <g id="Group_6279" data-name="Group 6279" transform="translate(65.158 12.631)">
              <path id="Path_2734" data-name="Path 2734" d="M243.04,405.441h3.408l-6.394-73.594h-3.408Z" transform="translate(-236.647 -331.847)" fill="#60a52d"/>
              <path id="Path_2735" data-name="Path 2735" d="M243.04,405.441h3.408l-6.394-73.594h-3.408Z" transform="translate(-236.647 -331.847)" fill="#60a52d" opacity="0.6"/>
            </g>
            <g id="Group_6280" data-name="Group 6280" transform="translate(0 12.631)">
              <path id="Path_2736" data-name="Path 2736" d="M165.338,405.441h-3.408l12.787-73.594h3.408Z" transform="translate(-161.929 -331.847)" fill="#60a52d"/>
              <path id="Path_2737" data-name="Path 2737" d="M165.338,405.441h-3.408l12.787-73.594h3.408Z" transform="translate(-161.929 -331.847)" fill="#60a52d" opacity="0.6"/>
            </g>
            <g id="Group_6281" data-name="Group 6281" transform="translate(19.181 12.631)">
              <path id="Path_2738" data-name="Path 2738" d="M187.332,405.441h-3.408l6.394-73.594h3.408Z" transform="translate(-183.924 -331.847)" fill="#60a52d"/>
              <path id="Path_2739" data-name="Path 2739" d="M187.332,405.441h-3.408l6.394-73.594h3.408Z" transform="translate(-183.924 -331.847)" fill="#60a52d" opacity="0.6"/>
            </g>
          </g>
          <g id="Group_6297" data-name="Group 6297">
            <g id="Group_6296" data-name="Group 6296">
              <ellipse id="Ellipse_31" data-name="Ellipse 31" cx="7.566" cy="8.026" rx="7.566" ry="8.026" transform="matrix(0.987, -0.164, 0.164, 0.987, 89.478, 2.785)" fill="#263238"/>
              <path id="Path_2740" data-name="Path 2740" d="M228.445,197.387s5.346,3.833,12.232-.7a14.142,14.142,0,0,1-7.549-.574Z" transform="translate(-135.364 -179.912)" fill="#263238"/>
              <path id="Path_2741" data-name="Path 2741" d="M232.16,189.241c.635,3.822-1.6,7.377-4.993,7.94s-6.656-2.079-7.291-5.9,1.6-7.377,4.993-7.94S231.526,185.419,232.16,189.241Z" transform="translate(-134.254 -178.268)" fill="#6fb938"/>
              <path id="Path_2742" data-name="Path 2742" d="M219.725,210c6.783-1.781,15.019-13.083,7.707-24.255-2.765,0-10.337,2.55-10.337,2.55Z" transform="translate(-133.912 -178.585)" fill="#263238"/>
              <path id="Path_2743" data-name="Path 2743" d="M199.231,183.82c-5.254,4.645-7.747,17.237,4.041,25.127,2.47-1.245,8.081-6.932,8.081-6.932Z" transform="translate(-131.065 -178.339)" fill="#263238"/>
              <path id="Path_2744" data-name="Path 2744" d="M197.412,243.361c-.044,1.276-.1,2.374-.2,3.539q-.14,1.724-.326,3.429c-.235,2.279-.555,4.541-.928,6.793a133.866,133.866,0,0,1-2.917,13.384l-.951,3.3-1.045,3.27a10.263,10.263,0,0,1-2.776,4.433,10.1,10.1,0,0,1-4.57,2.379,16.994,16.994,0,0,1-8.124-.377,26.175,26.175,0,0,1-3.466-1.187,28,28,0,0,1-3.276-1.6l1.72-4.084c.939.185,2.014.409,3.022.547,1.024.135,2.034.255,3.018.3a12.043,12.043,0,0,0,5.075-.59,2.557,2.557,0,0,0,1.16-.866,2.442,2.442,0,0,0,.257-.514,2.662,2.662,0,0,0,.106-.324c.016-.06.035-.117.047-.186l.064-.265.794-3.125.726-3.144c.926-4.2,1.675-8.451,2.287-12.714.311-2.13.572-4.269.812-6.4.12-1.067.222-2.135.31-3.2.084-1.045.184-2.161.235-3.1Z" transform="translate(-127.737 -185.918)" fill="#ff8b7b"/>
              <path id="Path_2745" data-name="Path 2745" d="M193.421,233.7c-3.176,1.939-6.44,15.769-6.44,15.769l13.715,6.966s5.846-14.945,3.12-18.943C200.977,233.328,198.055,230.869,193.421,233.7Z" transform="translate(-130.059 -184.565)" fill="#6fb938"/>
              <path id="Path_2746" data-name="Path 2746" d="M191.256,245.1a14.027,14.027,0,0,0,.049,7.313l9.88,5.017s3.414-8.724,3.8-14.626C201.489,239.37,193.464,238.931,191.256,245.1Z" transform="translate(-130.548 -185.567)" opacity="0.2"/>
              <path id="Path_2747" data-name="Path 2747" d="M171.482,281.381l-8.828-5.773,1.38,7.787s3.225,2.019,5.2,1.574Z" transform="translate(-126.947 -190.082)" fill="#ff8b7b"/>
              <path id="Path_2748" data-name="Path 2748" d="M191.792,239.445c.51,7.709,2.185,21.506,7.186,44.2l35.473-2.091c-1.446-14.4-1.987-23.3,3.166-53.339a104.9,104.9,0,0,0-15.18-1.1,112.93,112.93,0,0,0-16.107.95c-2.321.351-4.742.818-6.93,1.285A9.65,9.65,0,0,0,191.792,239.445Z" transform="translate(-130.672 -183.879)" fill="#6fb938"/>
              <path id="Path_2749" data-name="Path 2749" d="M211.335,234.843s3.486,4.414,8.234,5.84,6.087-8.255,5.37-13.574C220.548,226.013,211.335,234.843,211.335,234.843Z" transform="translate(-133.175 -183.865)" opacity="0.2"/>
              <path id="Path_2750" data-name="Path 2750" d="M211.335,234.843a24.035,24.035,0,0,0,8.687,5.374c4.748,1.426,5.634-7.788,4.917-13.107C220.548,226.013,211.335,234.843,211.335,234.843Z" transform="translate(-133.175 -183.865)" fill="#fff"/>
              <path id="Path_2751" data-name="Path 2751" d="M210.1,234.98a12.376,12.376,0,0,1-6.5,5.374c-4.651,1.717.3-10.228,4-12.157C211.993,227.1,210.1,234.98,210.1,234.98Z" transform="translate(-131.944 -184.003)" opacity="0.2"/>
              <path id="Path_2752" data-name="Path 2752" d="M210.069,234.98a12.182,12.182,0,0,1-6.745,4.8c-4.747,1.426.549-9.657,4.243-11.587C211.957,227.1,210.069,234.98,210.069,234.98Z" transform="translate(-131.909 -184.003)" fill="#fff"/>
              <g id="Group_6283" data-name="Group 6283" transform="translate(67.088 95.332)">
                <path id="Path_2753" data-name="Path 2753" d="M235.737,287.087l1.094,3.122c.139.239-.139.508-.549.531l-36.508,2.152c-.32.019-.594-.122-.626-.323l-.508-3.156c-.035-.219.232-.421.582-.442l35.921-2.116A.644.644,0,0,1,235.737,287.087Z" transform="translate(-198.638 -286.853)" fill="#fff"/>
              </g>
              <g id="Group_6287" data-name="Group 6287" transform="translate(69.867 95.281)">
                <g id="Group_6284" data-name="Group 6284" transform="translate(28.533)">
                  <path id="Path_2754" data-name="Path 2754" d="M235.625,291.387l.962-.057c.192-.011.331-.119.311-.239l-.694-4.1c-.02-.119-.194-.208-.385-.2l-.962.057c-.192.011-.332.119-.311.238l.694,4.1C235.26,291.31,235.433,291.4,235.625,291.387Z" transform="translate(-234.544 -286.795)" fill="#263238"/>
                </g>
                <g id="Group_6285" data-name="Group 6285" transform="translate(0 1.681)">
                  <path id="Path_2755" data-name="Path 2755" d="M202.906,293.315l.963-.057c.191-.01.331-.119.311-.238l-.7-4.1c-.02-.12-.194-.209-.385-.2l-.963.057c-.191.011-.331.119-.311.239l.7,4.1C202.542,293.238,202.715,293.327,202.906,293.315Z" transform="translate(-201.825 -288.723)" fill="#263238"/>
                </g>
                <g id="Group_6286" data-name="Group 6286" transform="translate(14.207 0.844)">
                  <path id="Path_2756" data-name="Path 2756" d="M219.2,292.355l.962-.057c.192-.011.331-.119.311-.238l-.694-4.1c-.021-.12-.194-.209-.385-.2l-.962.057c-.192.011-.332.119-.311.239l.694,4.1C218.833,292.278,219.006,292.367,219.2,292.355Z" transform="translate(-218.117 -287.763)" fill="#263238"/>
                </g>
              </g>
              <path id="Path_2757" data-name="Path 2757" d="M242.395,233.7a14.1,14.1,0,0,0-6.861,7.11c-1.585,3.975,2.984,11.891,4.069,13.668C240.113,248.879,241,242.206,242.395,233.7Z" transform="translate(-136.229 -184.72)" opacity="0.2"/>
              <path id="Path_2758" data-name="Path 2758" d="M221.867,208.663c-.711,5.243-1.28,12.853,2.55,16.1a49.869,49.869,0,0,0-13.549,13.107c-6.18-8.171-2.558-12.157-2.558-12.157,5.7-1.721,5.41-4.055,4.167-8.022Z" transform="translate(-132.653 -181.517)" fill="#ff8b7b"/>
              <path id="Path_2759" data-name="Path 2759" d="M218.806,212.886l-5.559,5.338a16.534,16.534,0,0,1,.665,2.83c2.189-.449,5.551-2.535,5.883-4.964C219.953,214.941,219.025,213.412,218.806,212.886Z" transform="translate(-133.419 -182.058)" opacity="0.2"/>
              <path id="Path_2760" data-name="Path 2760" d="M220.31,193.13c1.377,8.573,2.143,12.172-1.156,17.471-4.96,7.971-15.792,7.787-19.7-.2-3.52-7.191-5.18-20,2.343-25.225A11.843,11.843,0,0,1,220.31,193.13Z" transform="translate(-131.274 -178.234)" fill="#ff8b7b"/>
              <path id="Path_2761" data-name="Path 2761" d="M217.109,181.042c-8.721-6.25-30.247-3.6-26.937,3.651,3.977,8.712,10.8,8.945,10.8,8.945s-2.721-1.308-2.664-3.052c6.4-1.987,11.288,2.033,14.05-.59-1.211,4.95,6.734,9.632,6.734,9.632a20.828,20.828,0,0,0,5.232-7.01C226.208,188.342,224.715,181.283,217.109,181.042Z" transform="translate(-130.423 -177.535)" fill="#263238"/>
              <path id="Path_2762" data-name="Path 2762" d="M208.671,200.5c.155.688-.085,1.328-.535,1.429s-.941-.376-1.1-1.064.085-1.329.535-1.43S208.517,199.812,208.671,200.5Z" transform="translate(-132.619 -180.335)" fill="#263238"/>
              <path id="Path_2763" data-name="Path 2763" d="M199.746,202.5c.154.689-.085,1.328-.535,1.429s-.94-.375-1.094-1.064.085-1.329.535-1.429S199.592,201.813,199.746,202.5Z" transform="translate(-131.478 -180.591)" fill="#263238"/>
              <path id="Path_2764" data-name="Path 2764" d="M198.717,201.417l-1.761-.106S198.094,202.412,198.717,201.417Z" transform="translate(-131.335 -180.577)" fill="#263238"/>
              <path id="Path_2765" data-name="Path 2765" d="M202.847,203.465a18.863,18.863,0,0,1-1.469,4.945,3.035,3.035,0,0,0,2.558-.09Z" transform="translate(-131.901 -180.852)" fill="#ff5652"/>
              <path id="Path_2766" data-name="Path 2766" d="M209.128,210.666a6.915,6.915,0,0,1-1,.3.207.207,0,0,1-.248-.157.2.2,0,0,1,.157-.247,5.6,5.6,0,0,0,3.97-3.13.207.207,0,1,1,.388.144A5.8,5.8,0,0,1,209.128,210.666Z" transform="translate(-132.732 -181.343)" fill="#263238"/>
              <path id="Path_2767" data-name="Path 2767" d="M226.7,201.718a6.35,6.35,0,0,1-2.531,4.134c-1.81,1.3-3.472-.14-3.6-2.245-.119-1.893.68-4.85,2.8-5.311A2.85,2.85,0,0,1,226.7,201.718Z" transform="translate(-134.354 -180.182)" fill="#ff8b7b"/>
              <path id="Path_2768" data-name="Path 2768" d="M209.639,195.993a.415.415,0,0,1-.454-.177c-1.037-1.612-3.5-1.735-3.528-1.736a.414.414,0,1,1,.035-.828c.119,0,2.922.146,4.19,2.116a.414.414,0,0,1-.124.573A.432.432,0,0,1,209.639,195.993Z" transform="translate(-132.398 -179.546)" fill="#263238"/>
              <path id="Path_2769" data-name="Path 2769" d="M194.828,199.523a.414.414,0,0,1-.479-.64,4.112,4.112,0,0,1,3.4-1.666.414.414,0,0,1-.068.826A3.284,3.284,0,0,0,195,199.392.421.421,0,0,1,194.828,199.523Z" transform="translate(-130.991 -180.053)" fill="#263238"/>
              <g id="Group_6290" data-name="Group 6290" transform="translate(0 97.679)">
                <path id="Path_2770" data-name="Path 2770" d="M148.105,404l-7.714-3.419,7.494-19.659,7.714,3.419Z" transform="translate(-124.098 -301.234)" fill="#ff8b7b"/>
                <path id="Path_2771" data-name="Path 2771" d="M137.707,401.574l9.308,3.158a.692.692,0,0,1,.469.79l-1.438,7.725a1.405,1.405,0,0,1-1.828,1.023c-3.227-1.157-4.726-1.878-8.819-3.267-2.518-.855-7.884-1.742-11.362-2.921-3.4-1.154-2.5-4.681-.943-4.5a22.664,22.664,0,0,0,13.055-1.966A2.28,2.28,0,0,1,137.707,401.574Z" transform="translate(-121.708 -303.862)" fill="#263238"/>
                <g id="Group_6288" data-name="Group 6288" transform="translate(19.318 79.69)" opacity="0.2">
                  <path id="Path_2772" data-name="Path 2772" d="M156.043,384.346l-7.717-3.421-4.466,11.729,8.113,2.382Z" transform="translate(-143.86 -380.925)"/>
                </g>
                <g id="Group_6289" data-name="Group 6289" transform="translate(19.186)">
                  <path id="Path_2773" data-name="Path 2773" d="M209.775,290.636s-47.609,3.419-49.49,19.568c-3.2,27.48-16.576,65.449-16.576,65.449l10.75,4.555s19.872-36.562,25.4-60.428c9.219-5.215,55.147,13.466,48.446-30.236Z" transform="translate(-143.709 -289.544)" fill="#17468f"/>
                </g>
                <path id="Path_2774" data-name="Path 2774" d="M155.307,393.922l-14.152-4.337,1.02-5.213,15.713,4.654Z" transform="translate(-124.196 -301.676)" fill="#6fb938"/>
                <path id="Path_2775" data-name="Path 2775" d="M134.631,400.9c-.019-.03-.038-.059-.055-.09a1.18,1.18,0,0,1,.03-1.153.7.7,0,0,1,.576-.419c1.112-.109,3.078,2.368,3.3,2.65a.2.2,0,0,1,.018.228.207.207,0,0,1-.2.106C137.175,402.113,135.24,401.8,134.631,400.9Zm3.207.855c-.815-.968-2.029-2.162-2.614-2.1a.3.3,0,0,0-.249.194.782.782,0,0,0-.036.766C135.224,401.141,136.3,401.549,137.838,401.751Z" transform="translate(-123.337 -303.577)" fill="#15cecb"/>
                <path id="Path_2776" data-name="Path 2776" d="M138.338,401.7c-.607-.9-1.292-2.844-.838-3.628a.722.722,0,0,1,.846-.324,1.092,1.092,0,0,1,.742.544c.631,1.1-.168,3.493-.2,3.594a.207.207,0,0,1-.351.072A2.477,2.477,0,0,1,138.338,401.7Zm.357-3.255a.667.667,0,0,0-.433-.29c-.261-.054-.352.038-.4.126-.307.53.176,2.192.751,3.088a4.735,4.735,0,0,0,.118-2.869C138.718,398.48,138.706,398.463,138.7,398.445Z" transform="translate(-123.71 -303.384)" fill="#15cecb"/>
              </g>
              <g id="Group_6293" data-name="Group 6293" transform="translate(10.057 98.776)">
                <path id="Path_2777" data-name="Path 2777" d="M172.208,376.5l-7.232,4.347L153.2,363.412l7.232-4.347Z" transform="translate(-135.793 -299.535)" fill="#ff8b7b"/>
                <path id="Path_2778" data-name="Path 2778" d="M163.951,382.367l7.934-5.8a.693.693,0,0,1,.917.07l5.495,5.617a1.4,1.4,0,0,1-.214,2.083c-2.8,1.975-4.252,2.788-7.741,5.34-2.147,1.57-5.956,5.451-8.921,7.619-2.9,2.12-5.265-.648-4.225-1.816a22.66,22.66,0,0,0,5.893-11.812A2.285,2.285,0,0,1,163.951,382.367Z" transform="translate(-136.273 -301.756)" fill="#263238"/>
                <g id="Group_6291" data-name="Group 6291" transform="translate(17.405 59.533)" opacity="0.2">
                  <path id="Path_2779" data-name="Path 2779" d="M160.433,359.069l-7.235,4.349,7.031,10.4,6.612-5.27Z" transform="translate(-153.198 -359.069)"/>
                </g>
                <g id="Group_6292" data-name="Group 6292">
                  <path id="Path_2780" data-name="Path 2780" d="M187.112,291.8s-50.276-2.313-53.2,13.681c-4.977,27.214,19.344,56.659,19.344,56.659l9.9-6.179s-7.49-20.92-10.341-39.654c9.538-4.605,60.8,18.544,56.944-25.5Z" transform="translate(-133.24 -290.802)" fill="#17468f"/>
                </g>
                <path id="Path_2781" data-name="Path 2781" d="M173.866,300.223a5.439,5.439,0,0,0-2.341.529c-5.806,2.737-10.1,6.275-10.813,10.822-.27,1.727-.584,3.5-.933,5.293.576-.009,1.186,0,1.84.026.279-1.805.523-3.584.724-5.32.562-4.847,5.244-8.546,11.523-11.352Z" transform="translate(-136.635 -292.007)" opacity="0.2"/>
                <path id="Path_2782" data-name="Path 2782" d="M167.556,364.732l-11.683,9.088-3.68-3.831L165.033,359.8Z" transform="translate(-135.665 -299.63)" fill="#6fb938"/>
                <path id="Path_2783" data-name="Path 2783" d="M161.344,387.016c-.035,0-.07,0-.1-.007a1.179,1.179,0,0,1-.927-.686.705.705,0,0,1-.01-.713c.549-.972,3.706-1.156,4.065-1.175a.2.2,0,0,1,.2.116.206.206,0,0,1-.029.226C163.8,385.634,162.434,387.038,161.344,387.016Zm2.542-2.132c-1.26.111-2.934.418-3.224.93a.3.3,0,0,0,.016.314.781.781,0,0,0,.606.47C161.884,386.672,162.836,386.028,163.886,384.884Z" transform="translate(-136.691 -302.781)" fill="#15cecb"/>
                <path id="Path_2784" data-name="Path 2784" d="M164.128,384.545c-1.087-.022-3.07-.577-3.451-1.4a.722.722,0,0,1,.222-.878,1.089,1.089,0,0,1,.872-.294c1.264.118,2.761,2.144,2.825,2.231a.207.207,0,0,1-.144.328A2.477,2.477,0,0,1,164.128,384.545Zm-2.459-2.163a.663.663,0,0,0-.487.188c-.194.182-.171.31-.129.4.257.555,1.9,1.115,2.96,1.161-.535-.649-1.527-1.675-2.281-1.746A.519.519,0,0,0,161.669,382.382Z" transform="translate(-136.742 -302.466)" fill="#15cecb"/>
              </g>
              <path id="Path_2785" data-name="Path 2785" d="M207.642,199.416l-1.761-.106S207.019,200.411,207.642,199.416Z" transform="translate(-132.477 -180.321)" fill="#263238"/>
              <path id="Path_2786" data-name="Path 2786" d="M225.436,276.531l-8.429-4.277,2.035,8.661s5.41,1.512,7.928-1.114Z" transform="translate(-133.9 -189.653)" fill="#ff8b7b"/>
              <path id="Path_2787" data-name="Path 2787" d="M245.693,238.758c.362.726.615,1.279.9,1.905s.517,1.222.76,1.832c.485,1.222.943,2.444,1.364,3.676.831,2.469,1.525,4.972,2.148,7.488s1.085,5.073,1.475,7.635c.174,1.285.353,2.57.465,3.862l.171,1.938.044.522c.014.27.03.534.029.809a8.976,8.976,0,0,1-.187,1.725,8.034,8.034,0,0,1-1.523,3.274,9.115,9.115,0,0,1-2.376,2.109,14.7,14.7,0,0,1-4.627,1.783,34.261,34.261,0,0,1-8.228.574,73.719,73.719,0,0,1-15.234-2.307l.749-4.367a112.2,112.2,0,0,0,14.365.03,30.334,30.334,0,0,0,6.508-1.1,7.132,7.132,0,0,0,2.212-1.037.985.985,0,0,0,.343-.4c.017-.074-.016-.051-.024-.089l-.389-2.39c-.187-1.166-.436-2.324-.648-3.486-.484-2.314-1.048-4.609-1.658-6.89-.629-2.276-1.349-4.526-2.137-6.74-.378-1.113-.787-2.212-1.214-3.294l-.657-1.6c-.208-.512-.459-1.09-.636-1.48Z" transform="translate(-134.394 -185.368)" fill="#ff8b7b"/>
              <path id="Path_2788" data-name="Path 2788" d="M243,228.361c3.618.871,8.607,12.857,8.607,12.857l-11.185,10.15s-7.651-9.4-6.429-14.079C235.268,232.413,238.874,227.367,243,228.361Z" transform="translate(-136.057 -184.021)" fill="#6fb938"/>
              <path id="Path_2789" data-name="Path 2789" d="M208.731,273.675l2.1,7.159,7.156.081-2.034-8.662Z" transform="translate(-132.842 -189.653)" fill="#ff8b7b"/>
              <g id="Group_6294" data-name="Group 6294" transform="translate(35.641 69.988)">
                <path id="Path_2790" data-name="Path 2790" d="M209.5,291.5H172.825a6.189,6.189,0,0,1-5.815-4.918l-4.351-23.869a4,4,0,0,1,4.021-4.918h36.671a6.188,6.188,0,0,1,5.814,4.918l4.352,23.869A4,4,0,0,1,209.5,291.5Z" transform="translate(-162.578 -257.791)" fill="#fff"/>
                <path id="Path_2791" data-name="Path 2791" d="M208.841,291.5H172.825a6.189,6.189,0,0,1-5.815-4.918l-4.351-23.869a4,4,0,0,1,4.021-4.918H202.7a6.187,6.187,0,0,1,5.814,4.918l4.352,23.869A4,4,0,0,1,208.841,291.5Z" transform="translate(-162.578 -257.791)" fill="#263238"/>
              </g>
              <g id="Group_6295" data-name="Group 6295" transform="translate(35.707 83.591)">
                <path id="Path_2792" data-name="Path 2792" d="M162.654,275.324l1.38,7.788,3.033-2.841-.814-5.8a1.257,1.257,0,0,0-2.162-.684Z" transform="translate(-162.654 -273.389)" fill="#ff8b7b"/>
              </g>
            </g>
          </g>
        </g>
      </g>
    </g>
    <g id="google-docs_1_" data-name="google-docs (1)" transform="translate(982.283 482.11)">
      <g id="Docs_3_" transform="translate(68 2)">
        <g id="Group_6304" data-name="Group 6304" transform="translate(0)">
          <g id="Group_6303" data-name="Group 6303">
            <g id="Group_6302" data-name="Group 6302">
              <g id="Group_6301" data-name="Group 6301">
                <path id="Path_2793" data-name="Path 2793" d="M100.963,13.833,90.2,10.759,87.129,0H65.611A4.611,4.611,0,0,0,61,4.611V47.853a4.611,4.611,0,0,0,4.611,4.611h30.74a4.611,4.611,0,0,0,4.611-4.611Z" transform="translate(-61)" fill="#6fb938"/>
              </g>
            </g>
          </g>
        </g>
        <path id="Path_2795" data-name="Path 2795" d="M329.833,13.833H319.074A3.083,3.083,0,0,1,316,10.759V0a1.441,1.441,0,0,1,1.076.461l12.3,12.3A1.441,1.441,0,0,1,329.833,13.833Z" transform="translate(-289.871)" fill="#afe985"/>
        <g id="Group_6305" data-name="Group 6305" transform="translate(9.222 21.621)">
          <path id="Path_2796" data-name="Path 2796" d="M170.981,214.074H152.537a1.537,1.537,0,0,1,0-3.074h18.444a1.537,1.537,0,1,1,0,3.074Z" transform="translate(-151 -211)" fill="#fff5f5"/>
        </g>
        <g id="Group_6306" data-name="Group 6306" transform="translate(9.222 27.769)">
          <path id="Path_2797" data-name="Path 2797" d="M170.981,274.074H152.537a1.537,1.537,0,0,1,0-3.074h18.444a1.537,1.537,0,0,1,0,3.074Z" transform="translate(-151 -271)" fill="#fff5f5"/>
        </g>
        <g id="Group_6307" data-name="Group 6307" transform="translate(9.222 33.917)">
          <path id="Path_2798" data-name="Path 2798" d="M170.981,334.074H152.537a1.537,1.537,0,1,1,0-3.074h18.444a1.537,1.537,0,1,1,0,3.074Z" transform="translate(-151 -331)" fill="#fff5f5"/>
        </g>
        <g id="Group_6308" data-name="Group 6308" transform="translate(9.222 40.065)">
          <path id="Path_2799" data-name="Path 2799" d="M164.833,394.074h-12.3a1.537,1.537,0,0,1,0-3.074h12.3a1.537,1.537,0,0,1,0,3.074Z" transform="translate(-151 -391)" fill="#fff5f5"/>
        </g>
      </g>
    </g>
  </g>
</svg>
