<svg xmlns="http://www.w3.org/2000/svg" width="21.21" height="25.107" viewBox="0 0 21.21 25.107">
  <g id="Group_7293" data-name="Group 7293" transform="translate(-25 -295)">
    <g id="Group_5763" data-name="Group 5763" transform="translate(0 6)">
      <path id="Path_233" data-name="Path 233" d="M109.515,130.782l-2.663,2.663-1.076-1.076a.339.339,0,0,0-.479.479l1.316,1.316a.339.339,0,0,0,.479,0h0l2.9-2.9a.339.339,0,0,0-.479-.479Z" transform="translate(-64.611 173.124)" fill="#15cdcb"/>
      <path id="Union_3" data-name="Union 3" d="M13.605,23.676H2.081A2.084,2.084,0,0,1,0,21.594V2.081A2.083,2.083,0,0,1,2.081,0H11.1V4.855a2.084,2.084,0,0,0,2.081,2.081h4.856v9.595a4.371,4.371,0,1,1-4.429,7.145Zm-9.443-4.9a.693.693,0,0,0,.693.694H10.4a.694.694,0,1,0,0-1.388H4.855A.693.693,0,0,0,4.162,18.774Zm0-2.774a.693.693,0,0,0,.693.694h8.323a.694.694,0,0,0,0-1.388H4.855A.693.693,0,0,0,4.162,16Zm0-2.774a.693.693,0,0,0,.693.694h8.323a.694.694,0,0,0,0-1.388H4.855A.693.693,0,0,0,4.162,13.225Zm0-2.774a.693.693,0,0,0,.693.694h8.323a.694.694,0,0,0,0-1.388H4.855A.693.693,0,0,0,4.162,10.451Zm9.016-4.9a.694.694,0,0,1-.693-.694V.406l5.142,5.142Z" transform="translate(25 289)" fill="#fff"/>
      <g id="Ellipse_15" data-name="Ellipse 15" transform="translate(37.469 305.366)" fill="#fff" stroke="#15cdcb" stroke-width="1">
        <ellipse cx="4.371" cy="4.371" rx="4.371" ry="4.371" stroke="none"/>
        <ellipse cx="4.371" cy="4.371" rx="3.871" ry="3.871" fill="none"/>
      </g>
    </g>
    <path id="Path_2942" data-name="Path 2942" d="M109.412,130.775l-2.6,2.476-1.051-1a.342.342,0,0,0-.467,0,.3.3,0,0,0,0,.445l1.285,1.223a.343.343,0,0,0,.468,0h0l2.833-2.7a.3.3,0,0,0,0-.445A.342.342,0,0,0,109.412,130.775Z" transform="translate(-65.945 183.473)" fill="#15cdcb" stroke="#15cdcb" stroke-width="0.2"/>
  </g>
</svg>
