<svg xmlns="http://www.w3.org/2000/svg" width="283.091" height="272.471" viewBox="0 0 283.091 272.471">
  <g id="Group_6810" data-name="Group 6810" transform="translate(-24.745 -53.675)">
    <g id="Background_Complete" data-name="Background Complete" transform="translate(82.978 53.675)">
      <g id="Group_6320" data-name="Group 6320" transform="translate(155.848 211.162)">
        <g id="Group_6315" data-name="Group 6315" transform="translate(11.728 30.395)">
          <g id="Group_6314" data-name="Group 6314">
            <g id="Group_6313" data-name="Group 6313">
              <path id="Path_2800" data-name="Path 2800" d="M352.118,424.986c-1.1-.947-3.568-3.947-1.668-7.438.7-1.28,2.175-1.913,3.514-2.476a14.258,14.258,0,0,0,3.854-2c2.09-1.777,2.666-4.731,4.053-7.1a8.877,8.877,0,0,1,7.7-4.619c3.6.163,6.594,3.1,7.954,6.449s1.407,7.066,1.435,10.682c.015,2-.073,4.253-1.541,5.6-1.353,1.245-3.391,1.26-5.225,1.2l-19.65-.6" transform="translate(-349.752 -401.347)" fill="#f5f5f5"/>
            </g>
          </g>
        </g>
        <g id="Group_6319" data-name="Group 6319">
          <g id="Group_6318" data-name="Group 6318">
            <g id="Group_6317" data-name="Group 6317">
              <g id="Group_6316" data-name="Group 6316">
                <path id="Path_2801" data-name="Path 2801" d="M384.548,357.6H332.872l9.309,55.5a6.2,6.2,0,0,0,4.412,4.941c.06.019.121.033.181.05.154.039.3.091.46.119a6.526,6.526,0,0,0,1.051.121l.008.053.252-.04h23.033a6.489,6.489,0,0,0,1.265-.126,6.223,6.223,0,0,0,5.228-5.425l4.487-38.244.2-1.52h-.024l1.777-15.146ZM374.8,393.005h-5.3l.535-16.109h6.144ZM376.69,376.9h5.077l-1.891,16.109h-4.563Zm-15.15,33.966-.322-13.994h7.637l-.465,13.994Zm-8.256-13.994H360.7l.322,13.994h-6.655Zm.574,13.994h-6.222c-.591-3.778-1.36-8.688-2.193-13.994h7.327Zm-.874-17.857L351.731,376.9h8.513l.37,16.109Zm8.145,0-.371-16.109h8.761l-.535,16.109Zm-.46-19.972-.343-14.918h9.817l-.5,14.918Zm-.513,0h-8.724l-1.16-14.918h9.54Zm-9.238,0h-9.23c-.327-2.06-.636-4.011-.916-5.765-.963-6.031-1.325-8.3-1.526-9.153h10.513Zm.3,3.863,1.252,16.109h-7.634c-.256-1.634-.516-3.288-.777-4.943-.6-3.8-1.2-7.6-1.761-11.166Zm-6.9,16.109H339.33l-2.7-16.109h5.15C342.566,381.875,343.438,387.416,344.316,393.005Zm.607,3.863c.76,4.843,1.508,9.618,2.193,13.994h-4.791l-2.347-13.994ZM368.9,410.863l.465-13.994h5.1l-1.2,13.994Zm1.257-37.829.5-14.918h7.125l-1.275,14.918Zm-31.4-14.918c.2,1.078,1.148,6.948,2.412,14.918H335.98l-2.5-14.918Zm39.027,52.747h-3.994l1.2-13.994h4.44Zm4.438-37.829h-5.2l1.275-14.918h5.676Z" transform="translate(-332.872 -357.6)" fill="#e0e0e0"/>
              </g>
            </g>
          </g>
        </g>
      </g>
      <g id="Group_6329" data-name="Group 6329" transform="translate(162.38 182.443)">
        <g id="Group_6322" data-name="Group 6322" transform="translate(0.453)">
          <g id="Group_6321" data-name="Group 6321">
            <path id="Path_2802" data-name="Path 2802" d="M342.925,358.626s.19.07.541.213l1.543.637,5.851,2.444,21.069,8.863-.19.077L389.6,328.7v0l.1.238-28.942-12.305.217-.088-12.96,30.316-3.724,8.659-1,2.3-.263.6a2.185,2.185,0,0,1-.1.2,1.612,1.612,0,0,1,.072-.195l.238-.586.95-2.29,3.628-8.658,12.852-30.48.064-.152.153.065L389.837,328.6l.167.071-.071.167v0l-17.925,42.128-.057.134-.133-.057-21.094-9.038-5.792-2.5-1.5-.657C343.088,358.706,342.925,358.626,342.925,358.626Z" transform="translate(-342.924 -316.264)" fill="#e0e0e0"/>
          </g>
        </g>
        <g id="Group_6324" data-name="Group 6324" transform="translate(18.75 12.506)">
          <g id="Group_6323" data-name="Group 6323">
            <path id="Path_2803" data-name="Path 2803" d="M379.911,376.41a.514.514,0,0,1-.071-.145l-.176-.438q-.238-.625-.643-1.7c-.555-1.51-1.338-3.643-2.3-6.265l-7.461-20.714c.192-.454.06-.129.106-.231l.012-.006.023-.01.046-.021.092-.041.183-.083.366-.165.728-.329,1.441-.651,2.819-1.271,5.331-2.4,9.035-4.041,6.1-2.7,1.668-.716.437-.178a.547.547,0,0,1,.154-.049.534.534,0,0,1-.139.083l-.422.211-1.639.778-6.057,2.8-9,4.112-5.322,2.417-2.817,1.276-1.441.652-.728.329-.365.165-.183.083-.092.042-.046.021-.023.01-.012,0c.04-.1-.1.229.087-.22,2.869,8.089,5.466,15.412,7.361,20.749l2.192,6.3q.365,1.086.579,1.72c.056.181.1.328.142.45A.569.569,0,0,1,379.911,376.41Z" transform="translate(-369.26 -334.264)" fill="#e0e0e0"/>
          </g>
        </g>
        <g id="Group_6326" data-name="Group 6326" transform="translate(18.252 0.103)">
          <g id="Group_6325" data-name="Group 6325">
            <path id="Path_2804" data-name="Path 2804" d="M378.688,337.358c-.09.043-2.433-4.611-5.234-10.393s-5-10.508-4.909-10.552,2.433,4.609,5.234,10.394S378.779,337.314,378.688,337.358Z" transform="translate(-368.543 -316.413)" fill="#e0e0e0"/>
          </g>
        </g>
        <g id="Group_6328" data-name="Group 6328" transform="translate(0 36.045)">
          <g id="Group_6327" data-name="Group 6327">
            <path id="Path_2805" data-name="Path 2805" d="M342.273,374.589c-.027-.1,5.044-1.616,11.326-3.394s11.4-3.142,11.425-3.046-5.043,1.615-11.327,3.394S342.3,374.685,342.273,374.589Z" transform="translate(-342.273 -368.144)" fill="#e0e0e0"/>
          </g>
        </g>
      </g>
      <g id="Group_6336" data-name="Group 6336">
        <g id="Group_6330" data-name="Group 6330">
          <rect id="Rectangle_261" data-name="Rectangle 261" width="207.733" height="174.633" fill="#ebebeb"/>
        </g>
        <g id="Group_6332" data-name="Group 6332" transform="translate(0.402 11.877)">
          <g id="Group_6331" data-name="Group 6331">
            <path id="Path_2806" data-name="Path 2806" d="M109.138,70.95c0-.1,46.327-.181,103.459-.181,57.154,0,103.47.081,103.47.181s-46.316.181-103.47.181C155.465,71.13,109.138,71.05,109.138,70.95Z" transform="translate(-109.138 -70.769)" fill="#e0e0e0"/>
          </g>
        </g>
        <g id="Group_6333" data-name="Group 6333" transform="translate(4.505 3.582)">
          <circle id="Ellipse_32" data-name="Ellipse 32" cx="2.22" cy="2.22" r="2.22" fill="#e0e0e0"/>
        </g>
        <g id="Group_6334" data-name="Group 6334" transform="translate(10.683 3.582)">
          <circle id="Ellipse_33" data-name="Ellipse 33" cx="2.22" cy="2.22" r="2.22" fill="#e0e0e0"/>
        </g>
        <g id="Group_6335" data-name="Group 6335" transform="translate(17.537 3.582)">
          <circle id="Ellipse_34" data-name="Ellipse 34" cx="2.22" cy="2.22" r="2.22" fill="#e0e0e0"/>
        </g>
      </g>
    </g>
    <g id="Floor" transform="translate(24.745 325.784)">
      <g id="Group_6338" data-name="Group 6338">
        <g id="Group_6337" data-name="Group 6337">
          <path id="Path_2807" data-name="Path 2807" d="M307.836,445.5c0,.1-63.377.181-141.538.181-78.189,0-141.552-.081-141.552-.181s63.363-.181,141.552-.181C244.458,445.321,307.836,445.4,307.836,445.5Z" transform="translate(-24.745 -445.321)" fill="#263238"/>
        </g>
      </g>
    </g>
    <g id="Screen" transform="translate(69.384 67.484)">
      <g id="Group_6503" data-name="Group 6503" transform="translate(0 0)">
        <g id="Group_6340" data-name="Group 6340">
          <g id="Group_6339" data-name="Group 6339">
            <path id="Path_2808" data-name="Path 2808" d="M302.325,252.917c0-1.272-.06-71.236-.151-179.187l.151.151-213.131.029h-.019l.181-.181c-.008,64.933-.014,126.176-.02,179.186l-.16-.161,213.15.161-213.15.161h-.161v-.161c-.006-53.01-.013-114.253-.02-179.186V73.55h.2l213.131.028h.152v.152C302.386,181.681,302.327,251.646,302.325,252.917Z" transform="translate(-88.994 -73.55)" fill="#fafafa"/>
          </g>
        </g>
        <g id="Group_6502" data-name="Group 6502">
          <g id="Group_6341" data-name="Group 6341" transform="translate(0.181 0.181)">
            <rect id="Rectangle_262" data-name="Rectangle 262" width="213.15" height="179.187" fill="#fafafa"/>
          </g>
          <g id="Group_6364" data-name="Group 6364" transform="translate(0.593 12.552)">
            <g id="Group_6342" data-name="Group 6342">
              <rect id="Rectangle_263" data-name="Rectangle 263" width="76.54" height="17.545" fill="#ebebeb"/>
            </g>
            <g id="Group_6363" data-name="Group 6363" transform="translate(8.381 3.234)">
              <g id="Group_6351" data-name="Group 6351">
                <g id="Group_6344" data-name="Group 6344">
                  <g id="Group_6343" data-name="Group 6343">
                    <path id="Path_2809" data-name="Path 2809" d="M102.078,108.016a6.261,6.261,0,0,1,.645-.029l1.77-.034,6.307-.069-.145.132c-.01-3.215-.022-7.214-.035-11.543-.04-.036.342.311.179.164h-2.3l-2.231,0-4.187-.01.165-.15c-.033,3.357-.062,6.213-.082,8.277-.018.993-.033,1.794-.044,2.389-.008.257-.015.469-.019.644a1.319,1.319,0,0,1-.019.234,6.272,6.272,0,0,1-.04-.814c-.011-.586-.026-1.376-.044-2.355-.02-2.089-.048-4.979-.081-8.376v-.15h.167l4.187-.01,2.231,0h2.3l.182.165c-.013,4.329-.026,8.328-.035,11.543v.134l-.145,0-6.4-.069-1.738-.034A4.357,4.357,0,0,1,102.078,108.016Z" transform="translate(-101.911 -96.271)" fill="#17468f"/>
                  </g>
                </g>
                <g id="Group_6346" data-name="Group 6346" transform="translate(1.062 3.366)">
                  <g id="Group_6345" data-name="Group 6345">
                    <path id="Path_2810" data-name="Path 2810" d="M108.344,101.271a11.12,11.12,0,0,1-2.455.119,11.045,11.045,0,0,1-2.45-.155,11.113,11.113,0,0,1,2.455-.119A11.041,11.041,0,0,1,108.344,101.271Z" transform="translate(-103.44 -101.115)" fill="#17468f"/>
                  </g>
                </g>
                <g id="Group_6348" data-name="Group 6348" transform="translate(1.062 4.699)">
                  <g id="Group_6347" data-name="Group 6347">
                    <path id="Path_2811" data-name="Path 2811" d="M109.679,103.242a14,14,0,0,1-3.117.146,14.141,14.141,0,0,1-3.122-.2,13.906,13.906,0,0,1,3.117-.146A14.038,14.038,0,0,1,109.679,103.242Z" transform="translate(-103.44 -103.034)" fill="#17468f"/>
                  </g>
                </g>
                <g id="Group_6350" data-name="Group 6350" transform="translate(1.062 1.95)">
                  <g id="Group_6349" data-name="Group 6349">
                    <path id="Path_2812" data-name="Path 2812" d="M110,99.247a14.992,14.992,0,0,1-3.278.192,14.982,14.982,0,0,1-3.279-.17,15.081,15.081,0,0,1,3.279-.192A15.051,15.051,0,0,1,110,99.247Z" transform="translate(-103.44 -99.077)" fill="#17468f"/>
                  </g>
                </g>
              </g>
              <g id="Group_6360" data-name="Group 6360" transform="translate(182.938 19.197)">
                <g id="Group_6353" data-name="Group 6353">
                  <g id="Group_6352" data-name="Group 6352">
                    <path id="Path_2813" data-name="Path 2813" d="M365.489,143.32a10.28,10.28,0,0,1,1.066-.048l2.927-.056,10.427-.115-.24.218c-.016-5.316-.036-11.927-.058-19.086-.065-.06.566.513.3.27H376.1l-3.69,0-6.924-.018.273-.248c-.054,5.551-.1,10.273-.135,13.686-.031,1.642-.055,2.967-.073,3.95-.013.424-.024.775-.033,1.065a1.978,1.978,0,0,1-.032.386,10.464,10.464,0,0,1-.065-1.345c-.018-.969-.042-2.275-.073-3.894-.033-3.453-.08-8.232-.135-13.848l0-.247h.276l6.924-.017,3.69,0h3.806c-.266-.244.366.331.3.273-.022,7.158-.042,13.769-.058,19.086v.222l-.24,0-10.577-.115-2.872-.056A7.192,7.192,0,0,1,365.489,143.32Z" transform="translate(-365.213 -123.901)" fill="#17468f"/>
                  </g>
                </g>
                <g id="Group_6355" data-name="Group 6355" transform="translate(1.757 5.565)">
                  <g id="Group_6354" data-name="Group 6354">
                    <path id="Path_2814" data-name="Path 2814" d="M375.851,132.169a36.286,36.286,0,0,1-8.109-.058,36.4,36.4,0,0,1,8.109.058Z" transform="translate(-367.742 -131.911)" fill="#17468f"/>
                  </g>
                </g>
                <g id="Group_6357" data-name="Group 6357" transform="translate(1.757 7.77)">
                  <g id="Group_6356" data-name="Group 6356">
                    <path id="Path_2815" data-name="Path 2815" d="M378.058,135.427a45.962,45.962,0,0,1-10.316-.1,23.111,23.111,0,0,1,5.155-.241A23.355,23.355,0,0,1,378.058,135.427Z" transform="translate(-367.742 -135.084)" fill="#17468f"/>
                  </g>
                </g>
                <g id="Group_6359" data-name="Group 6359" transform="translate(1.757 3.224)">
                  <g id="Group_6358" data-name="Group 6358">
                    <path id="Path_2816" data-name="Path 2816" d="M378.585,128.822a49.279,49.279,0,0,1-10.843.037,49.287,49.287,0,0,1,10.843-.037Z" transform="translate(-367.742 -128.541)" fill="#17468f"/>
                  </g>
                </g>
              </g>
              <g id="Group_6362" data-name="Group 6362" transform="translate(19.352 5.053)">
                <g id="Group_6361" data-name="Group 6361">
                  <path id="Path_2817" data-name="Path 2817" d="M169.78,103.725c0,.1-8.959.181-20.006.181s-20.008-.081-20.008-.181,8.956-.181,20.008-.181S169.78,103.625,169.78,103.725Z" transform="translate(-129.765 -103.544)" fill="#263238"/>
                </g>
              </g>
            </g>
          </g>
          <g id="Group_6370" data-name="Group 6370" transform="translate(76.162 90.479)">
            <g id="Group_6365" data-name="Group 6365">
              <rect id="Rectangle_264" data-name="Rectangle 264" width="137.169" height="30.055" fill="#f0fafe"/>
            </g>
            <g id="Group_6369" data-name="Group 6369" transform="translate(8.824 9.396)">
              <g id="Group_6367" data-name="Group 6367">
                <rect id="Rectangle_266" data-name="Rectangle 266" width="11.264" height="11.264" rx="2.245" fill="#6fb938"/>
              </g>
              <g id="Group_6368" data-name="Group 6368" transform="translate(1.809 2.424)">
                <path id="Path_2818" data-name="Path 2818" d="M216.887,226.5a.689.689,0,0,1-.416-.139l-2.275-1.706a.695.695,0,0,1,.834-1.112l1.772,1.33,3.557-3.861a.695.695,0,1,1,1.021.941l-3.982,4.323A.694.694,0,0,1,216.887,226.5Z" transform="translate(-213.918 -220.789)" fill="#fff"/>
              </g>
            </g>
          </g>
          <g id="Group_6374" data-name="Group 6374" transform="translate(76.162 60.27)">
            <g id="Group_6371" data-name="Group 6371">
              <rect id="Rectangle_267" data-name="Rectangle 267" width="137.169" height="30.055" fill="#f0fafe"/>
            </g>
            <g id="Group_6373" data-name="Group 6373" transform="translate(0.971 29.991)">
              <g id="Group_6372" data-name="Group 6372">
                <path id="Path_2819" data-name="Path 2819" d="M335.379,203.644c0,.1-30.305.181-67.68.181s-67.687-.081-67.687-.181,30.3-.181,67.687-.181S335.379,203.544,335.379,203.644Z" transform="translate(-200.012 -203.463)" fill="#263238"/>
              </g>
            </g>
          </g>
          <g id="Group_6380" data-name="Group 6380" transform="translate(76.232 150.569)">
            <g id="Group_6375" data-name="Group 6375" transform="translate(0 0)">
              <rect id="Rectangle_268" data-name="Rectangle 268" width="137.169" height="28.798" fill="#f0fafe"/>
            </g>
            <g id="Group_6379" data-name="Group 6379" transform="translate(8.824 9.396)">
              <g id="Group_6377" data-name="Group 6377">
                <rect id="Rectangle_270" data-name="Rectangle 270" width="11.264" height="11.264" rx="2.245" fill="#6fb938"/>
              </g>
              <g id="Group_6378" data-name="Group 6378" transform="translate(1.809 2.424)">
                <path id="Path_2820" data-name="Path 2820" d="M216.988,312.989a.69.69,0,0,1-.417-.139l-2.275-1.706a.695.695,0,1,1,.834-1.111l1.773,1.329,3.556-3.861a.695.695,0,1,1,1.022.941l-3.982,4.323A.69.69,0,0,1,216.988,312.989Z" transform="translate(-214.018 -307.276)" fill="#fff"/>
              </g>
            </g>
          </g>
          <g id="Group_6381" data-name="Group 6381" transform="translate(76.162 60.27)" opacity="0.8">
            <path id="Path_2940" data-name="Path 2940" d="M0,0H137.169V30.055H0Z" fill="none"/>
          </g>
          <g id="Group_6384" data-name="Group 6384" transform="translate(84.986 69.666)">
            <g id="Group_6382" data-name="Group 6382">
              <rect id="Rectangle_272" data-name="Rectangle 272" width="11.264" height="11.264" rx="2.245" fill="#6fb938"/>
            </g>
            <g id="Group_6383" data-name="Group 6383" transform="translate(1.809 2.424)">
              <path id="Path_2821" data-name="Path 2821" d="M216.887,183.021a.689.689,0,0,1-.416-.139l-2.275-1.706a.695.695,0,0,1,.834-1.112l1.772,1.33,3.557-3.861a.694.694,0,0,1,1.021.941L217.4,182.8A.692.692,0,0,1,216.887,183.021Z" transform="translate(-213.918 -177.309)" fill="#fff"/>
            </g>
          </g>
          <g id="Group_6386" data-name="Group 6386">
            <g id="Group_6385" data-name="Group 6385">
              <path id="Path_2822" data-name="Path 2822" d="M302.325,252.917c0-1.272-.06-71.236-.151-179.187l.151.151-213.131.029h-.019l.181-.181c-.008,64.933-.014,126.176-.02,179.186l-.16-.161,213.15.161-213.15.161h-.161v-.161c-.006-53.01-.013-114.253-.02-179.186V73.55h.2l213.131.028h.152v.152C302.386,181.681,302.327,251.646,302.325,252.917Z" transform="translate(-88.994 -73.55)" fill="#15cecb"/>
            </g>
          </g>
          <g id="Group_6388" data-name="Group 6388" transform="translate(0.593 12.371)">
            <g id="Group_6387" data-name="Group 6387">
              <path id="Path_2823" data-name="Path 2823" d="M89.848,91.537c0-.1,47.534-.181,106.158-.181,58.643,0,106.168.081,106.168.181s-47.525.181-106.168.181C137.382,91.718,89.848,91.637,89.848,91.537Z" transform="translate(-89.848 -91.356)" fill="#15cecb"/>
            </g>
          </g>
          <g id="Group_6389" data-name="Group 6389" transform="translate(4.804 3.855)">
            <circle id="Ellipse_35" data-name="Ellipse 35" cx="2.278" cy="2.278" r="2.278" fill="#6fb938"/>
          </g>
          <g id="Group_6390" data-name="Group 6390" transform="translate(11.143 3.855)">
            <circle id="Ellipse_36" data-name="Ellipse 36" cx="2.278" cy="2.278" r="2.278" fill="#6fb938"/>
          </g>
          <g id="Group_6391" data-name="Group 6391" transform="translate(18.176 3.856)">
            <path id="Path_2824" data-name="Path 2824" d="M119.043,79.767a2.278,2.278,0,1,1-3.222,0A2.279,2.279,0,0,1,119.043,79.767Z" transform="translate(-115.154 -79.099)" fill="#6fb938"/>
          </g>
          <g id="Group_6403" data-name="Group 6403" transform="translate(26.226 37.011)">
            <g id="Group_6396" data-name="Group 6396">
              <g id="Group_6393" data-name="Group 6393">
                <g id="Group_6392" data-name="Group 6392">
                  <path id="Path_2825" data-name="Path 2825" d="M129.015,126.966a2.307,2.307,0,0,1,.491-.038l1.442-.039,5.295-.068h.072l.045.059,2.33,3.07.033.044v.057c0,1.406.008,2.935.012,4.529v.18h-2.308l-9.532-.028h-.154v-.152c.015-1.567.027-2.962.038-4.143V130.4l.016-.026,1.622-2.544a7.43,7.43,0,0,1,.6-.865,1.239,1.239,0,0,1-.126.262l-.395.7-1.5,2.565.017-.059c.01,1.181.024,2.576.038,4.143l-.152-.152,9.532-.028h2.128l-.179.179c0-1.594.008-3.123.012-4.529l.033.1-2.295-3.1.116.058-5.234-.069L129.545,127A3.042,3.042,0,0,1,129.015,126.966Z" transform="translate(-126.741 -126.82)" fill="#17468f"/>
                </g>
              </g>
              <g id="Group_6395" data-name="Group 6395" transform="translate(0.154 3.399)">
                <g id="Group_6394" data-name="Group 6394">
                  <path id="Path_2826" data-name="Path 2826" d="M138.623,131.758a4.066,4.066,0,0,1-1,.14c-.64.057-1.554.122-2.65.189l.151-.151a3.113,3.113,0,0,1-.548,1.619,2.164,2.164,0,0,1-.728.634,2.489,2.489,0,0,1-2.879-.575,3.544,3.544,0,0,1-.78-1.658l.151.129c-1.014-.016-1.858-.038-2.447-.065a3.563,3.563,0,0,1-.925-.09,3.628,3.628,0,0,1,.925-.089c.589-.026,1.433-.049,2.447-.065l.122,0,.03.131a3.34,3.34,0,0,0,.735,1.476,2.17,2.17,0,0,0,2.459.488,1.838,1.838,0,0,0,.609-.52,2.89,2.89,0,0,0,.513-1.425l.015-.147.135,0c1.1-.035,2.013-.056,2.656-.058A4.109,4.109,0,0,1,138.623,131.758Z" transform="translate(-126.963 -131.712)" fill="#17468f"/>
                </g>
              </g>
            </g>
            <g id="Group_6398" data-name="Group 6398" transform="translate(16.466 0.327)">
              <g id="Group_6397" data-name="Group 6397">
                <path id="Path_2827" data-name="Path 2827" d="M171.906,127.471a2.274,2.274,0,0,1,.593-.056v.111c-1.417.073-5.69.126-10.732.126-3.129,0-5.96-.02-8.009-.053l-2.428-.057a4.2,4.2,0,0,1-.89-.071,4.241,4.241,0,0,1,.89-.07l2.428-.058c2.05-.033,4.881-.053,8.009-.053,5.042,0,9.315.053,10.732.125v.111A2.232,2.232,0,0,1,171.906,127.471Z" transform="translate(-150.44 -127.29)" fill="#263238"/>
              </g>
            </g>
            <g id="Group_6400" data-name="Group 6400" transform="translate(16.466 4.874)">
              <g id="Group_6399" data-name="Group 6399">
                <path id="Path_2828" data-name="Path 2828" d="M171.906,134.016a2.232,2.232,0,0,1,.593-.056v.111c-1.417.072-5.69.125-10.732.125-3.129,0-5.96-.02-8.009-.053l-2.428-.058a4.24,4.24,0,0,1-.89-.07,4.259,4.259,0,0,1,.89-.071l2.428-.057c2.05-.033,4.881-.054,8.009-.054,5.042,0,9.315.053,10.732.126v.111A2.235,2.235,0,0,1,171.906,134.016Z" transform="translate(-150.44 -133.835)" fill="#263238"/>
              </g>
            </g>
            <g id="Group_6402" data-name="Group 6402" transform="translate(16.466 9.422)">
              <g id="Group_6401" data-name="Group 6401">
                <path id="Path_2829" data-name="Path 2829" d="M171.906,140.562a2.274,2.274,0,0,1,.593-.056v.111c-1.417.073-5.69.126-10.732.126-3.129,0-5.96-.02-8.009-.053l-2.428-.057a4.264,4.264,0,0,1-.89-.071,4.238,4.238,0,0,1,.89-.07l2.428-.058c2.05-.033,4.881-.053,8.009-.053,5.042,0,9.315.053,10.732.125v.111A2.234,2.234,0,0,1,171.906,140.562Z" transform="translate(-150.44 -140.381)" fill="#263238"/>
              </g>
            </g>
          </g>
          <g id="Group_6415" data-name="Group 6415" transform="translate(26.226 69.555)">
            <g id="Group_6408" data-name="Group 6408">
              <g id="Group_6405" data-name="Group 6405">
                <g id="Group_6404" data-name="Group 6404">
                  <path id="Path_2830" data-name="Path 2830" d="M129.015,173.806a2.31,2.31,0,0,1,.491-.038l1.442-.039,5.295-.068h.072l.045.059,2.33,3.07.033.044v.057c0,1.406.008,2.934.012,4.529v.18h-2.308l-9.532-.029h-.154v-.152c.015-1.567.027-2.962.038-4.144v-.033l.016-.026,1.622-2.544a7.431,7.431,0,0,1,.6-.865,1.258,1.258,0,0,1-.126.262l-.395.7-1.5,2.565.017-.06c.01,1.182.024,2.577.038,4.144l-.152-.152,9.532-.028h2.128l-.179.179c0-1.595.008-3.123.012-4.529l.033.1-2.295-3.1.116.058-5.234-.068-1.463-.038A3.042,3.042,0,0,1,129.015,173.806Z" transform="translate(-126.741 -173.66)" fill="#17468f"/>
                </g>
              </g>
              <g id="Group_6407" data-name="Group 6407" transform="translate(0.154 3.399)">
                <g id="Group_6406" data-name="Group 6406">
                  <path id="Path_2831" data-name="Path 2831" d="M138.623,178.6a4.067,4.067,0,0,1-1,.14c-.64.057-1.554.122-2.65.188l.151-.151a3.117,3.117,0,0,1-.548,1.619,2.164,2.164,0,0,1-.728.634,2.488,2.488,0,0,1-2.879-.576,3.539,3.539,0,0,1-.78-1.658l.151.128c-1.014-.015-1.858-.038-2.447-.064a3.565,3.565,0,0,1-.925-.09,3.626,3.626,0,0,1,.925-.089c.589-.026,1.433-.049,2.447-.065l.122,0,.03.131a3.34,3.34,0,0,0,.735,1.476,2.17,2.17,0,0,0,2.459.488,1.84,1.84,0,0,0,.609-.521,2.885,2.885,0,0,0,.513-1.424l.015-.147.135,0c1.1-.035,2.013-.056,2.656-.058A4.064,4.064,0,0,1,138.623,178.6Z" transform="translate(-126.963 -178.552)" fill="#17468f"/>
                </g>
              </g>
            </g>
            <g id="Group_6410" data-name="Group 6410" transform="translate(16.466 0.327)">
              <g id="Group_6409" data-name="Group 6409">
                <path id="Path_2832" data-name="Path 2832" d="M171.906,174.311a2.273,2.273,0,0,1,.593-.056v.111c-1.417.073-5.69.126-10.732.126-3.129,0-5.96-.021-8.009-.053l-2.428-.057a4.26,4.26,0,0,1-.89-.071,4.236,4.236,0,0,1,.89-.07l2.428-.058c2.05-.033,4.881-.053,8.009-.053,5.042,0,9.315.053,10.732.125v.111A2.235,2.235,0,0,1,171.906,174.311Z" transform="translate(-150.44 -174.13)" fill="#263238"/>
              </g>
            </g>
            <g id="Group_6412" data-name="Group 6412" transform="translate(16.466 4.874)">
              <g id="Group_6411" data-name="Group 6411">
                <path id="Path_2833" data-name="Path 2833" d="M171.906,180.856a2.233,2.233,0,0,1,.593-.056v.111c-1.417.072-5.69.125-10.732.125-3.129,0-5.96-.02-8.009-.053l-2.428-.058a4.239,4.239,0,0,1-.89-.07,4.2,4.2,0,0,1,.89-.071l2.428-.057c2.05-.033,4.881-.054,8.009-.054,5.042,0,9.315.053,10.732.126v.111A2.272,2.272,0,0,1,171.906,180.856Z" transform="translate(-150.44 -180.675)" fill="#263238"/>
              </g>
            </g>
            <g id="Group_6414" data-name="Group 6414" transform="translate(16.466 9.422)">
              <g id="Group_6413" data-name="Group 6413">
                <path id="Path_2834" data-name="Path 2834" d="M171.906,187.4a2.272,2.272,0,0,1,.593-.056v.111c-1.417.073-5.69.126-10.732.126-3.129,0-5.96-.021-8.009-.054l-2.428-.057a4.262,4.262,0,0,1-.89-.071,4.238,4.238,0,0,1,.89-.07l2.428-.058c2.05-.033,4.881-.053,8.009-.053,5.042,0,9.315.053,10.732.125v.111A2.234,2.234,0,0,1,171.906,187.4Z" transform="translate(-150.44 -187.221)" fill="#263238"/>
              </g>
            </g>
          </g>
          <g id="Group_6427" data-name="Group 6427" transform="translate(26.226 102.098)">
            <g id="Group_6420" data-name="Group 6420">
              <g id="Group_6417" data-name="Group 6417">
                <g id="Group_6416" data-name="Group 6416">
                  <path id="Path_2835" data-name="Path 2835" d="M129.015,220.646a2.245,2.245,0,0,1,.491-.038l1.442-.039,5.295-.068h.072l.045.06,2.33,3.07.033.044v.057c0,1.406.008,2.934.012,4.529v.18h-2.308l-9.532-.028h-.154v-.152c.015-1.567.027-2.962.038-4.144v-.033l.016-.026,1.622-2.545a7.371,7.371,0,0,1,.6-.864,1.258,1.258,0,0,1-.126.262l-.395.7-1.5,2.565.017-.06c.01,1.182.024,2.577.038,4.144l-.152-.152,9.532-.029h2.128l-.179.179c0-1.595.008-3.123.012-4.529l.033.1-2.295-3.1.116.058-5.234-.068-1.463-.039A3.014,3.014,0,0,1,129.015,220.646Z" transform="translate(-126.741 -220.499)" fill="#17468f"/>
                </g>
              </g>
              <g id="Group_6419" data-name="Group 6419" transform="translate(0.154 3.399)">
                <g id="Group_6418" data-name="Group 6418">
                  <path id="Path_2836" data-name="Path 2836" d="M138.623,225.438a4.066,4.066,0,0,1-1,.14c-.64.057-1.554.122-2.65.188l.151-.151a3.117,3.117,0,0,1-.548,1.619,2.164,2.164,0,0,1-.728.634,2.488,2.488,0,0,1-2.879-.576,3.539,3.539,0,0,1-.78-1.658l.151.128c-1.014-.016-1.858-.038-2.447-.064a3.563,3.563,0,0,1-.925-.09,3.627,3.627,0,0,1,.925-.089c.589-.026,1.433-.049,2.447-.065l.122,0,.03.131a3.34,3.34,0,0,0,.735,1.476,2.17,2.17,0,0,0,2.459.488,1.84,1.84,0,0,0,.609-.521,2.885,2.885,0,0,0,.513-1.424l.015-.147.135,0c1.1-.035,2.013-.056,2.656-.058A4.066,4.066,0,0,1,138.623,225.438Z" transform="translate(-126.963 -225.392)" fill="#17468f"/>
                </g>
              </g>
            </g>
            <g id="Group_6422" data-name="Group 6422" transform="translate(16.466 0.327)">
              <g id="Group_6421" data-name="Group 6421">
                <path id="Path_2837" data-name="Path 2837" d="M171.906,221.151a2.234,2.234,0,0,1,.593-.056v.111c-1.417.073-5.69.125-10.732.125-3.129,0-5.96-.02-8.009-.053l-2.428-.057a4.262,4.262,0,0,1-.89-.071,4.235,4.235,0,0,1,.89-.07l2.428-.058c2.05-.033,4.881-.053,8.009-.053,5.042,0,9.315.053,10.732.125v.111A2.234,2.234,0,0,1,171.906,221.151Z" transform="translate(-150.44 -220.97)" fill="#263238"/>
              </g>
            </g>
            <g id="Group_6424" data-name="Group 6424" transform="translate(16.466 4.875)">
              <g id="Group_6423" data-name="Group 6423">
                <path id="Path_2838" data-name="Path 2838" d="M171.906,227.7a2.234,2.234,0,0,1,.593-.056v.111c-1.417.072-5.69.125-10.732.125-3.129,0-5.96-.02-8.009-.053l-2.428-.058a4.239,4.239,0,0,1-.89-.07,4.2,4.2,0,0,1,.89-.071l2.428-.057c2.05-.033,4.881-.054,8.009-.054,5.042,0,9.315.053,10.732.126v.111A2.274,2.274,0,0,1,171.906,227.7Z" transform="translate(-150.44 -227.515)" fill="#263238"/>
              </g>
            </g>
            <g id="Group_6426" data-name="Group 6426" transform="translate(16.466 9.423)">
              <g id="Group_6425" data-name="Group 6425">
                <path id="Path_2839" data-name="Path 2839" d="M171.906,234.242a2.235,2.235,0,0,1,.593-.056v.111c-1.417.073-5.69.126-10.732.126-3.129,0-5.96-.021-8.009-.053l-2.428-.058a4.237,4.237,0,0,1-.89-.07,4.239,4.239,0,0,1,.89-.07l2.428-.058c2.05-.033,4.881-.053,8.009-.053,5.042,0,9.315.053,10.732.125v.111A2.233,2.233,0,0,1,171.906,234.242Z" transform="translate(-150.44 -234.061)" fill="#263238"/>
              </g>
            </g>
          </g>
          <g id="Group_6437" data-name="Group 6437" transform="translate(193.987 68.599)">
            <g id="Group_6428" data-name="Group 6428" transform="translate(0.872 1.78)">
              <path id="Path_2840" data-name="Path 2840" d="M376.862,185.761H371.57a2.119,2.119,0,0,1-2.116-2.116v-8.8h.695v8.8a1.423,1.423,0,0,0,1.422,1.422h5.292a1.423,1.423,0,0,0,1.422-1.422v-8.492h.695v8.492A2.119,2.119,0,0,1,376.862,185.761Z" transform="translate(-369.454 -174.847)" fill="#17468f"/>
            </g>
            <g id="Group_6429" data-name="Group 6429" transform="translate(0 1.828)">
              <rect id="Rectangle_273" data-name="Rectangle 273" width="11.269" height="0.695" fill="#17468f"/>
            </g>
            <g id="Group_6430" data-name="Group 6430" transform="translate(2.888)">
              <path id="Path_2841" data-name="Path 2841" d="M373.051,174.46h-.695v-.772a1.4,1.4,0,0,1,1.4-1.4h2.8a1.4,1.4,0,0,1,1.4,1.4v.622h-.695v-.622a.709.709,0,0,0-.708-.709h-2.8a.709.709,0,0,0-.709.709Z" transform="translate(-372.356 -172.285)" fill="#17468f"/>
            </g>
            <g id="Group_6432" data-name="Group 6432" transform="translate(3.818 4.121)">
              <g id="Group_6431" data-name="Group 6431">
                <path id="Path_2842" data-name="Path 2842" d="M373.875,184.188a24.762,24.762,0,0,1,0-5.971,24.675,24.675,0,0,1,0,5.971Z" transform="translate(-373.694 -178.217)" fill="#17468f"/>
              </g>
            </g>
            <g id="Group_6434" data-name="Group 6434" transform="translate(5.485 4.121)">
              <g id="Group_6433" data-name="Group 6433">
                <path id="Path_2843" data-name="Path 2843" d="M376.275,184.188a24.762,24.762,0,0,1,0-5.971,24.667,24.667,0,0,1,0,5.971Z" transform="translate(-376.094 -178.217)" fill="#17468f"/>
              </g>
            </g>
            <g id="Group_6436" data-name="Group 6436" transform="translate(7.13 4.121)">
              <g id="Group_6435" data-name="Group 6435">
                <path id="Path_2844" data-name="Path 2844" d="M378.642,184.188a24.667,24.667,0,0,1,0-5.971,24.758,24.758,0,0,1,0,5.971Z" transform="translate(-378.461 -178.217)" fill="#17468f"/>
              </g>
            </g>
          </g>
          <g id="Group_6447" data-name="Group 6447" transform="translate(193.987 97.081)">
            <g id="Group_6438" data-name="Group 6438" transform="translate(0.872 1.779)">
              <path id="Path_2845" data-name="Path 2845" d="M376.862,226.753H371.57a2.118,2.118,0,0,1-2.116-2.116v-8.8h.695v8.8a1.423,1.423,0,0,0,1.422,1.422h5.292a1.423,1.423,0,0,0,1.422-1.422v-8.491h.695v8.491A2.119,2.119,0,0,1,376.862,226.753Z" transform="translate(-369.454 -215.839)" fill="#17468f"/>
            </g>
            <g id="Group_6439" data-name="Group 6439" transform="translate(0 1.828)">
              <rect id="Rectangle_274" data-name="Rectangle 274" width="11.269" height="0.695" fill="#17468f"/>
            </g>
            <g id="Group_6440" data-name="Group 6440" transform="translate(2.888)">
              <path id="Path_2846" data-name="Path 2846" d="M373.051,215.453h-.695v-.773a1.4,1.4,0,0,1,1.4-1.4h2.8a1.4,1.4,0,0,1,1.4,1.4v.623h-.695v-.623a.709.709,0,0,0-.708-.708h-2.8a.709.709,0,0,0-.709.708Z" transform="translate(-372.356 -213.278)" fill="#17468f"/>
            </g>
            <g id="Group_6442" data-name="Group 6442" transform="translate(3.818 4.121)">
              <g id="Group_6441" data-name="Group 6441">
                <path id="Path_2847" data-name="Path 2847" d="M373.875,225.18a24.762,24.762,0,0,1,0-5.971,24.675,24.675,0,0,1,0,5.971Z" transform="translate(-373.694 -219.209)" fill="#17468f"/>
              </g>
            </g>
            <g id="Group_6444" data-name="Group 6444" transform="translate(5.485 4.121)">
              <g id="Group_6443" data-name="Group 6443">
                <path id="Path_2848" data-name="Path 2848" d="M376.275,225.18a24.762,24.762,0,0,1,0-5.971,24.667,24.667,0,0,1,0,5.971Z" transform="translate(-376.094 -219.209)" fill="#17468f"/>
              </g>
            </g>
            <g id="Group_6446" data-name="Group 6446" transform="translate(7.13 4.121)">
              <g id="Group_6445" data-name="Group 6445">
                <path id="Path_2849" data-name="Path 2849" d="M378.642,225.18a24.667,24.667,0,0,1,0-5.971,24.758,24.758,0,0,1,0,5.971Z" transform="translate(-378.461 -219.209)" fill="#17468f"/>
              </g>
            </g>
          </g>
          <g id="Group_6457" data-name="Group 6457" transform="translate(193.987 159.693)">
            <g id="Group_6448" data-name="Group 6448" transform="translate(0.872 1.779)">
              <path id="Path_2850" data-name="Path 2850" d="M376.862,316.869H371.57a2.118,2.118,0,0,1-2.116-2.116v-8.8h.695v8.8a1.423,1.423,0,0,0,1.422,1.421h5.292a1.423,1.423,0,0,0,1.422-1.421v-8.491h.695v8.491A2.119,2.119,0,0,1,376.862,316.869Z" transform="translate(-369.454 -305.956)" fill="#17468f"/>
            </g>
            <g id="Group_6449" data-name="Group 6449" transform="translate(0 1.828)">
              <rect id="Rectangle_275" data-name="Rectangle 275" width="11.269" height="0.695" fill="#17468f"/>
            </g>
            <g id="Group_6450" data-name="Group 6450" transform="translate(2.888)">
              <path id="Path_2851" data-name="Path 2851" d="M373.051,305.57h-.695V304.8a1.4,1.4,0,0,1,1.4-1.4h2.8a1.4,1.4,0,0,1,1.4,1.4v.622h-.695V304.8a.709.709,0,0,0-.708-.708h-2.8a.709.709,0,0,0-.709.708Z" transform="translate(-372.356 -303.395)" fill="#17468f"/>
            </g>
            <g id="Group_6452" data-name="Group 6452" transform="translate(3.818 4.121)">
              <g id="Group_6451" data-name="Group 6451">
                <path id="Path_2852" data-name="Path 2852" d="M373.875,315.3a24.762,24.762,0,0,1,0-5.971,24.676,24.676,0,0,1,0,5.971Z" transform="translate(-373.694 -309.326)" fill="#17468f"/>
              </g>
            </g>
            <g id="Group_6454" data-name="Group 6454" transform="translate(5.485 4.121)">
              <g id="Group_6453" data-name="Group 6453">
                <path id="Path_2853" data-name="Path 2853" d="M376.275,315.3a24.762,24.762,0,0,1,0-5.971,24.667,24.667,0,0,1,0,5.971Z" transform="translate(-376.094 -309.326)" fill="#17468f"/>
              </g>
            </g>
            <g id="Group_6456" data-name="Group 6456" transform="translate(7.13 4.121)">
              <g id="Group_6455" data-name="Group 6455">
                <path id="Path_2854" data-name="Path 2854" d="M378.642,315.3a24.667,24.667,0,0,1,0-5.971,24.758,24.758,0,0,1,0,5.971Z" transform="translate(-378.461 -309.326)" fill="#17468f"/>
              </g>
            </g>
          </g>
          <g id="Group_6459" data-name="Group 6459" transform="translate(77.133 29.917)">
            <g id="Group_6458" data-name="Group 6458">
              <path id="Path_2855" data-name="Path 2855" d="M335.379,116.79c0,.1-30.305.181-67.68.181s-67.687-.081-67.687-.181,30.3-.181,67.687-.181S335.379,116.69,335.379,116.79Z" transform="translate(-200.012 -116.609)" fill="#263238"/>
            </g>
          </g>
          <g id="Group_6461" data-name="Group 6461" transform="translate(77.133 60.089)">
            <g id="Group_6460" data-name="Group 6460">
              <path id="Path_2856" data-name="Path 2856" d="M335.379,160.217c0,.1-30.305.181-67.68.181s-67.687-.081-67.687-.181,30.3-.181,67.687-.181S335.379,160.117,335.379,160.217Z" transform="translate(-200.012 -160.036)" fill="#263238"/>
            </g>
          </g>
          <g id="Group_6463" data-name="Group 6463" transform="translate(77.133 119.814)">
            <g id="Group_6462" data-name="Group 6462">
              <path id="Path_2857" data-name="Path 2857" d="M335.379,246.179c0,.1-30.305.181-67.68.181s-67.687-.081-67.687-.181S230.311,246,267.7,246,335.379,246.079,335.379,246.179Z" transform="translate(-200.012 -245.998)" fill="#263238"/>
            </g>
          </g>
          <g id="Group_6465" data-name="Group 6465" transform="translate(77.133 150.389)">
            <g id="Group_6464" data-name="Group 6464" transform="translate(0 0)">
              <path id="Path_2858" data-name="Path 2858" d="M335.379,290.185c0,.1-30.305.181-67.68.181s-67.687-.081-67.687-.181S230.311,290,267.7,290,335.379,290.085,335.379,290.185Z" transform="translate(-200.012 -290.004)" fill="#263238"/>
            </g>
          </g>
          <g id="Group_6467" data-name="Group 6467" transform="translate(84.804 39.582)">
            <g id="Group_6466" data-name="Group 6466">
              <path id="Path_2859" data-name="Path 2859" d="M220.938,141.964c0-.018.151-.013.415-.1a1.55,1.55,0,0,0,.89-.747,4.35,4.35,0,0,0,.154-1.887c-.008-.769-.017-1.635-.026-2.587s-.015-2.012-.022-3.136q0-.423,0-.86a2.553,2.553,0,0,0-.074-.829,1.4,1.4,0,0,0-1.239-.952l-8.235.009a1.388,1.388,0,0,0-1.357,1.129c-.049.645-.015,1.4-.027,2.07,0,1.378-.007,2.708-.01,3.978q0,.949-.008,1.852a3.61,3.61,0,0,0,.042.845,1.406,1.406,0,0,0,1.03,1.024,3.349,3.349,0,0,0,.763.046l1.5.012,4.54.058,1.234.033a1.919,1.919,0,0,1,.431.037,1.959,1.959,0,0,1-.431.036l-1.234.034-4.54.058-1.5.012a3.587,3.587,0,0,1-.83-.043,1.7,1.7,0,0,1-1.262-1.23,3.793,3.793,0,0,1-.06-.921q0-.9-.008-1.852c0-1.269-.007-2.6-.01-3.978q0-.518,0-1.044a8.919,8.919,0,0,1,.029-1.092,1.747,1.747,0,0,1,1.711-1.426l8.257.019a1.725,1.725,0,0,1,1.519,1.185,2.853,2.853,0,0,1,.082.928q0,.437,0,.86c-.008,1.123-.015,2.173-.022,3.136s-.019,1.818-.026,2.587q-.008.568-.015,1.062a1.713,1.713,0,0,1-.218.893,1.582,1.582,0,0,1-.993.749A1.052,1.052,0,0,1,220.938,141.964Z" transform="translate(-211.052 -130.52)" fill="#17468f"/>
            </g>
          </g>
          <g id="Group_6469" data-name="Group 6469" transform="translate(84.804 129.749)">
            <g id="Group_6468" data-name="Group 6468" transform="translate(0 0)">
              <path id="Path_2860" data-name="Path 2860" d="M220.938,271.743c0-.018.151-.013.415-.1a1.549,1.549,0,0,0,.89-.746,4.351,4.351,0,0,0,.154-1.887c-.008-.769-.017-1.635-.026-2.587s-.015-2.012-.022-3.136q0-.423,0-.859a2.558,2.558,0,0,0-.074-.83,1.4,1.4,0,0,0-1.239-.951l-8.235.009a1.386,1.386,0,0,0-1.357,1.129c-.049.644-.015,1.4-.027,2.07,0,1.378-.007,2.709-.01,3.978q0,.949-.008,1.852a3.6,3.6,0,0,0,.042.844,1.405,1.405,0,0,0,1.03,1.025,3.432,3.432,0,0,0,.763.046l1.5.011,4.54.058,1.234.034a1.916,1.916,0,0,1,.431.037,1.964,1.964,0,0,1-.431.036l-1.234.034-4.54.058-1.5.011a3.582,3.582,0,0,1-.83-.042,1.7,1.7,0,0,1-1.262-1.23,3.8,3.8,0,0,1-.06-.921q0-.9-.008-1.852c0-1.269-.007-2.6-.01-3.978q0-.517,0-1.044a8.911,8.911,0,0,1,.029-1.091A1.749,1.749,0,0,1,212.8,260.3l8.257.02a1.724,1.724,0,0,1,1.519,1.185,2.85,2.85,0,0,1,.082.928q0,.437,0,.859c-.008,1.124-.015,2.173-.022,3.136s-.019,1.818-.026,2.587c-.006.378-.01.732-.015,1.061a1.717,1.717,0,0,1-.218.894,1.584,1.584,0,0,1-.993.749A1.067,1.067,0,0,1,220.938,271.743Z" transform="translate(-211.052 -260.298)" fill="#17468f"/>
            </g>
          </g>
          <g id="Group_6471" data-name="Group 6471" transform="translate(76.057 12.553)">
            <g id="Group_6470" data-name="Group 6470">
              <path id="Path_2861" data-name="Path 2861" d="M198.528,255.821s-.013-.144-.018-.424-.01-.707-.017-1.244c-.006-1.107-.016-2.717-.029-4.784,0-4.168,0-10.177,0-17.6.033-14.859.18-35.383.39-58.051.194-22.671.369-43.191.5-58.059.048-7.42.087-13.427.113-17.595.017-2.066.031-3.676.04-4.784.008-.537.015-.95.019-1.244s.019-.424.019-.424.012.143.018.424.01.707.017,1.244c.006,1.107.016,2.717.028,4.784,0,4.167,0,10.176,0,17.595-.033,14.859-.18,35.385-.39,58.061-.194,22.663-.369,43.182-.5,58.049-.048,7.42-.087,13.428-.113,17.6-.017,2.067-.031,3.677-.04,4.784-.008.538-.015.951-.019,1.244S198.528,255.821,198.528,255.821Z" transform="translate(-198.463 -91.617)" fill="#15cecb"/>
            </g>
          </g>
          <g id="Group_6476" data-name="Group 6476" transform="translate(106.857 72.194)">
            <g id="Group_6473" data-name="Group 6473">
              <g id="Group_6472" data-name="Group 6472">
                <path id="Path_2862" data-name="Path 2862" d="M289.426,177.639c0,.1-10.44.181-23.315.181s-23.318-.081-23.318-.181,10.438-.181,23.318-.181S289.426,177.539,289.426,177.639Z" transform="translate(-242.793 -177.458)" fill="#263238"/>
              </g>
            </g>
            <g id="Group_6475" data-name="Group 6475" transform="translate(0 5.144)">
              <g id="Group_6474" data-name="Group 6474">
                <path id="Path_2863" data-name="Path 2863" d="M318.572,185.043c0,.1-16.965.181-37.888.181s-37.891-.081-37.891-.181,16.962-.181,37.891-.181S318.572,184.943,318.572,185.043Z" transform="translate(-242.793 -184.862)" fill="#263238"/>
              </g>
            </g>
          </g>
          <g id="Group_6481" data-name="Group 6481" transform="translate(106.857 132.715)">
            <g id="Group_6478" data-name="Group 6478">
              <g id="Group_6477" data-name="Group 6477">
                <path id="Path_2864" data-name="Path 2864" d="M289.426,264.747c0,.1-10.44.181-23.315.181s-23.318-.081-23.318-.181,10.438-.181,23.318-.181S289.426,264.647,289.426,264.747Z" transform="translate(-242.793 -264.566)" fill="#263238"/>
              </g>
            </g>
            <g id="Group_6480" data-name="Group 6480" transform="translate(0 5.145)">
              <g id="Group_6479" data-name="Group 6479">
                <path id="Path_2865" data-name="Path 2865" d="M318.572,272.152c0,.1-16.965.181-37.888.181s-37.891-.081-37.891-.181,16.962-.181,37.891-.181S318.572,272.052,318.572,272.152Z" transform="translate(-242.793 -271.971)" fill="#263238"/>
              </g>
            </g>
          </g>
          <g id="Group_6486" data-name="Group 6486" transform="translate(106.857 43.115)">
            <g id="Group_6483" data-name="Group 6483">
              <g id="Group_6482" data-name="Group 6482">
                <path id="Path_2866" data-name="Path 2866" d="M289.426,135.786c0,.1-10.44.181-23.315.181s-23.318-.081-23.318-.181,10.438-.181,23.318-.181S289.426,135.686,289.426,135.786Z" transform="translate(-242.793 -135.605)" fill="#263238"/>
              </g>
            </g>
            <g id="Group_6485" data-name="Group 6485" transform="translate(0 5.144)">
              <g id="Group_6484" data-name="Group 6484">
                <path id="Path_2867" data-name="Path 2867" d="M318.572,143.19c0,.1-16.965.181-37.888.181s-37.891-.081-37.891-.181,16.962-.181,37.891-.181S318.572,143.09,318.572,143.19Z" transform="translate(-242.793 -143.009)" fill="#263238"/>
              </g>
            </g>
          </g>
          <g id="Group_6491" data-name="Group 6491" transform="translate(106.857 101.848)">
            <g id="Group_6488" data-name="Group 6488">
              <g id="Group_6487" data-name="Group 6487">
                <path id="Path_2868" data-name="Path 2868" d="M289.426,220.32c0,.1-10.44.181-23.315.181s-23.318-.081-23.318-.181,10.438-.181,23.318-.181S289.426,220.22,289.426,220.32Z" transform="translate(-242.793 -220.139)" fill="#263238"/>
              </g>
            </g>
            <g id="Group_6490" data-name="Group 6490" transform="translate(0 5.144)">
              <g id="Group_6489" data-name="Group 6489">
                <path id="Path_2869" data-name="Path 2869" d="M318.572,227.724c0,.1-16.965.181-37.888.181s-37.891-.081-37.891-.181,16.962-.181,37.891-.181S318.572,227.624,318.572,227.724Z" transform="translate(-242.793 -227.543)" fill="#263238"/>
              </g>
            </g>
          </g>
          <g id="Group_6496" data-name="Group 6496" transform="translate(106.857 161.429)">
            <g id="Group_6493" data-name="Group 6493">
              <g id="Group_6492" data-name="Group 6492">
                <path id="Path_2870" data-name="Path 2870" d="M289.426,306.076c0,.1-10.44.181-23.315.181s-23.318-.081-23.318-.181,10.438-.181,23.318-.181S289.426,305.976,289.426,306.076Z" transform="translate(-242.793 -305.895)" fill="#263238"/>
              </g>
            </g>
            <g id="Group_6495" data-name="Group 6495" transform="translate(0 5.144)">
              <g id="Group_6494" data-name="Group 6494">
                <path id="Path_2871" data-name="Path 2871" d="M318.572,313.48c0,.1-16.965.181-37.888.181s-37.891-.081-37.891-.181,16.962-.181,37.891-.181S318.572,313.38,318.572,313.48Z" transform="translate(-242.793 -313.299)" fill="#263238"/>
              </g>
            </g>
          </g>
          <g id="Group_6497" data-name="Group 6497" transform="translate(197.223 16.342)">
            <rect id="Rectangle_276" data-name="Rectangle 276" width="9.176" height="9.176" fill="#e0e0e0"/>
          </g>
          <g id="Group_6498" data-name="Group 6498" transform="translate(182.281 16.342)">
            <rect id="Rectangle_277" data-name="Rectangle 277" width="9.176" height="9.176" fill="#e0e0e0"/>
          </g>
          <g id="Group_6499" data-name="Group 6499" transform="translate(167.338 16.342)">
            <rect id="Rectangle_278" data-name="Rectangle 278" width="9.176" height="9.176" fill="#e0e0e0"/>
          </g>
          <g id="Group_6501" data-name="Group 6501" transform="translate(9.93 40.37)">
            <g id="Group_6500" data-name="Group 6500">
              <path id="Path_2872" data-name="Path 2872" d="M103.286,131.655l3.9,5.091,3.334-5.091Z" transform="translate(-103.286 -131.655)" fill="#17468f"/>
            </g>
          </g>
        </g>
      </g>
    </g>
    <g id="Character" transform="translate(32.784 164.379)">
      <g id="Group_6621" data-name="Group 6621">
        <g id="Group_6510" data-name="Group 6510" transform="translate(29.411)">
          <g id="Group_6507" data-name="Group 6507">
            <g id="Group_6506" data-name="Group 6506">
              <g id="Group_6505" data-name="Group 6505">
                <g id="Group_6504" data-name="Group 6504">
                  <path id="Path_2873" data-name="Path 2873" d="M87.317,222.457c9.053-11.921,18.6-10.237,25.219-7.356a18.209,18.209,0,0,1,10.63,17.347c-.117,1.9-.523,3.909.251,5.651,1.246,2.8,4.87,3.593,6.968,5.832,2.869,3.06,2.233,7.905,1.264,11.986s-1.988,8.74.411,12.181c2.2,3.152,6.39,4,9.846,5.674a18.076,18.076,0,0,1,9.565,11.255,15.414,15.414,0,0,1-3.275,14.222c-3.36,3.661-8.406,5.285-13.322,6.008a49.079,49.079,0,0,1-56.167-51.042" transform="translate(-78.648 -213.012)" fill="#263238"/>
                </g>
              </g>
            </g>
          </g>
          <g id="Group_6509" data-name="Group 6509" transform="translate(12.796 2.432)">
            <g id="Group_6508" data-name="Group 6508">
              <path id="Path_2874" data-name="Path 2874" d="M118.628,216.68a24.072,24.072,0,0,0-3.215.181,42.653,42.653,0,0,0-7.475,2.165,21.183,21.183,0,0,1-7.7,1.441,9.576,9.576,0,0,1-2.357-.388,3.248,3.248,0,0,1-.813-.322,15.761,15.761,0,0,0,3.178.454,22.764,22.764,0,0,0,7.578-1.528,36.755,36.755,0,0,1,7.559-2.076,12.168,12.168,0,0,1,2.384-.062A3.364,3.364,0,0,1,118.628,216.68Z" transform="translate(-97.065 -216.512)" fill="#455a64"/>
            </g>
          </g>
        </g>
        <g id="Group_6511" data-name="Group 6511" transform="translate(69.114 97.43)">
          <path id="Path_2875" data-name="Path 2875" d="M151.261,353.243c.347,1.039,7.554,35.085,7.554,35.085l54.81,21.074-3.085,8-47-4.132h0c-27.425-4.094-28.952-17.554-27.295-32.6l2.841-25.782Z" transform="translate(-135.791 -353.243)" fill="#ffbe9d"/>
        </g>
        <g id="Group_6546" data-name="Group 6546" transform="translate(0 58.61)">
          <g id="Group_6522" data-name="Group 6522" transform="translate(5.804 4.247)">
            <g id="Group_6512" data-name="Group 6512">
              <path id="Path_2876" data-name="Path 2876" d="M44.669,319.7c5.65-8.552,14.224-13.483,22.073-16.215l28.835,2.057a22,22,0,0,1,17.565,6.478l2.68,71.452,6.621,18.742h-68.6L44.669,319.7" transform="translate(-44.669 -303.481)" fill="#6fb938"/>
            </g>
            <g id="Group_6514" data-name="Group 6514" transform="translate(26.154 33.408)">
              <g id="Group_6513" data-name="Group 6513">
                <path id="Path_2877" data-name="Path 2877" d="M125.684,356.029a.8.8,0,0,1-.166-.11l-.463-.35c-.207-.148-.44-.364-.756-.561l-1.08-.7c-.428-.224-.9-.483-1.425-.744-.548-.211-1.114-.517-1.774-.707a18.094,18.094,0,0,0-4.542-.953,18.844,18.844,0,0,0-5.6.347,17.115,17.115,0,0,0-5.911,2.487,12.428,12.428,0,0,0-4.652,5.233,7.456,7.456,0,0,0-.633,3.624,6.8,6.8,0,0,0,1.37,3.507,4.831,4.831,0,0,0,3.169,1.879,3.06,3.06,0,0,0,3.12-1.34,4.052,4.052,0,0,0,.054-3.405,6.538,6.538,0,0,0-.819-1.524,8.481,8.481,0,0,0-1.154-1.253,12.475,12.475,0,0,0-5.69-2.844,17.529,17.529,0,0,0-5.6-.313,36.956,36.956,0,0,0-7.959,1.872l-2.116.716-.552.182a.779.779,0,0,1-.192.05.828.828,0,0,1,.18-.085l.54-.216c.477-.184,1.18-.454,2.1-.78a35.285,35.285,0,0,1,7.979-1.993,17.63,17.63,0,0,1,5.69.274,12.731,12.731,0,0,1,5.848,2.89,7.384,7.384,0,0,1,.627.616,6.12,6.12,0,0,1,.577.684,6.86,6.86,0,0,1,.868,1.6,4.385,4.385,0,0,1-.073,3.707,3,3,0,0,1-1.493,1.282,4,4,0,0,1-1.975.236,5.185,5.185,0,0,1-3.409-2.013,7.149,7.149,0,0,1-1.444-3.7,7.806,7.806,0,0,1,.666-3.8,12.724,12.724,0,0,1,4.791-5.369,17.311,17.311,0,0,1,6.034-2.5,18.936,18.936,0,0,1,5.686-.309,18.018,18.018,0,0,1,4.586,1.017,19.162,19.162,0,0,1,1.782.741c.526.273,1,.544,1.422.779l1.071.729c.311.208.538.435.739.593l.442.379A.784.784,0,0,1,125.684,356.029Z" transform="translate(-82.312 -351.564)" fill="#fafafa"/>
              </g>
            </g>
            <g id="Group_6515" data-name="Group 6515" transform="translate(66.61 8.535)">
              <path id="Path_2878" data-name="Path 2878" d="M142.4,315.765l17.019,30.606-18.883,5.8Z" transform="translate(-140.54 -315.765)" fill="#6fb938"/>
            </g>
            <g id="Group_6517" data-name="Group 6517" transform="translate(69.291 27.461)">
              <g id="Group_6516" data-name="Group 6516">
                <path id="Path_2879" data-name="Path 2879" d="M145.868,395.759a2.922,2.922,0,0,1-.056-.534c-.023-.386-.053-.9-.09-1.536-.063-1.373-.151-3.293-.258-5.649-.2-4.772-.44-11.364-.65-18.647s-.349-13.882-.393-18.658c-.02-2.388-.028-4.32-.01-5.656.011-.64.019-1.151.026-1.538a2.931,2.931,0,0,1,.034-.536,3.058,3.058,0,0,1,.039.536l.042,1.537c.03,1.374.072,3.295.124,5.653.129,4.807.3,11.384.5,18.652.213,7.265.4,13.842.545,18.649.06,2.358.108,4.28.143,5.653.01.64.017,1.151.023,1.538A3.046,3.046,0,0,1,145.868,395.759Z" transform="translate(-144.399 -343.005)" fill="#263238"/>
              </g>
            </g>
            <g id="Group_6519" data-name="Group 6519" transform="translate(46.09 11.243)">
              <g id="Group_6518" data-name="Group 6518">
                <path id="Path_2880" data-name="Path 2880" d="M138.414,326.277a2.286,2.286,0,0,1-.39.271,10.256,10.256,0,0,1-1.2.654,12.62,12.62,0,0,1-11.989-1.007,7.988,7.988,0,0,1-1.663-1.411,4.1,4.1,0,0,1-1.024-2.063,2.806,2.806,0,0,1,.613-2.316,2.489,2.489,0,0,1,2.362-.682,3.044,3.044,0,0,1,2.034,1.393,3.5,3.5,0,0,1,.368,2.364,4.678,4.678,0,0,1-.964,2.089,5.627,5.627,0,0,1-1.708,1.381A10.663,10.663,0,0,1,121,328.034a17.524,17.524,0,0,1-3.475.04,16.941,16.941,0,0,1-4.873-1.176,13.1,13.1,0,0,1-1.237-.572,2.323,2.323,0,0,1-.41-.242,2.372,2.372,0,0,1,.441.176c.284.125.7.306,1.257.507a17.911,17.911,0,0,0,4.843,1.051,17.623,17.623,0,0,0,3.419-.083,10.456,10.456,0,0,0,3.727-1.079,5.31,5.31,0,0,0,1.6-1.3,4.352,4.352,0,0,0,.884-1.934,3.144,3.144,0,0,0-.329-2.12,2.69,2.69,0,0,0-1.793-1.22,2.131,2.131,0,0,0-2.025.568,2.456,2.456,0,0,0-.529,2.021,3.765,3.765,0,0,0,.934,1.89,7.712,7.712,0,0,0,1.59,1.362,12.234,12.234,0,0,0,6.907,2.088,12.721,12.721,0,0,0,4.838-.934C137.848,326.61,138.391,326.239,138.414,326.277Z" transform="translate(-111.006 -319.664)" fill="#fafafa"/>
              </g>
            </g>
            <g id="Group_6521" data-name="Group 6521" transform="translate(7.995 75.403)">
              <g id="Group_6520" data-name="Group 6520">
                <path id="Path_2881" data-name="Path 2881" d="M118.051,416.217a1.231,1.231,0,0,1-.2-.129l-.557-.405a19.336,19.336,0,0,0-2.268-1.351,20.22,20.22,0,0,0-9.38-2.066,28.385,28.385,0,0,0-13.627,4.085,19.989,19.989,0,0,0-3.365,2.4A11.527,11.527,0,0,0,86,422.094a6.589,6.589,0,0,0-.628,4.26,3.774,3.774,0,0,0,1.066,1.889,2.083,2.083,0,0,0,2,.49,2.847,2.847,0,0,0,1.6-1.42,4.822,4.822,0,0,0,.581-2.126,7.429,7.429,0,0,0-1.325-4.133,10.153,10.153,0,0,0-3.074-2.938,11.951,11.951,0,0,0-3.817-1.5,22.064,22.064,0,0,0-7.629-.072,45.949,45.949,0,0,0-6.55,1.429,47.133,47.133,0,0,0-8.968,3.716c-1.007.552-1.776,1.006-2.293,1.321l-.589.357a1.139,1.139,0,0,1-.208.112,1.114,1.114,0,0,1,.188-.142l.57-.388c.505-.336,1.263-.811,2.264-1.383a45.044,45.044,0,0,1,15.543-5.319,22.222,22.222,0,0,1,7.741.042,12.232,12.232,0,0,1,3.929,1.528,10.477,10.477,0,0,1,3.186,3.033,7.77,7.77,0,0,1,1.39,4.341,5.18,5.18,0,0,1-.625,2.291,3.2,3.2,0,0,1-1.82,1.592,2.448,2.448,0,0,1-2.344-.568,4.124,4.124,0,0,1-1.174-2.073,6.92,6.92,0,0,1,.66-4.5,11.846,11.846,0,0,1,2.741-3.44,20.2,20.2,0,0,1,3.429-2.435,28.436,28.436,0,0,1,13.791-4.052,20.019,20.019,0,0,1,9.447,2.2A13.446,13.446,0,0,1,118.051,416.217Z" transform="translate(-56.177 -412.009)" fill="#fafafa"/>
              </g>
            </g>
          </g>
          <g id="Group_6543" data-name="Group 6543" transform="translate(0 9.896)">
            <g id="Group_6530" data-name="Group 6530" transform="translate(0.825)">
              <g id="Group_6528" data-name="Group 6528" transform="translate(5.224 10.246)">
                <g id="Group_6523" data-name="Group 6523">
                  <path id="Path_2882" data-name="Path 2882" d="M65.7,334.585c-2.079-10.68-17.2-11.073-19.847-.522q-.061.243-.119.493c-3.891,16.627,9.272,65.758,12.81,68.588s7.042,6.048,13.09,3.538c3.534-1.467,40.256-33.919,40.256-33.919s8.491,8.137,11.321,7.429,8.245-9.056,8.245-9.056,5.247,7.874,5.906,7.995a1.974,1.974,0,0,0,2.123-2.83c-.707-1.062-7.4-15.7-7.4-15.7s5.273-.571,4.211-2.34c0,0-.132-1.626-3.7-1.312s-3.564-3.773-10.167-3.354-20.334,2.1-39.62,16.875l-8.909,6.289Z" transform="translate(-45.021 -326.359)" fill="#ffbe9d"/>
                </g>
                <g id="Group_6525" data-name="Group 6525" transform="translate(26.611 27.056)">
                  <g id="Group_6524" data-name="Group 6524">
                    <path id="Path_2883" data-name="Path 2883" d="M94.508,382.353s.072-.065.22-.18l.666-.509,2.6-1.953a103.162,103.162,0,0,1,10.325-6.5A67.969,67.969,0,0,1,125.7,366.5c1.752-.37,3.566-.707,5.45-.914q1.411-.156,2.865-.256a12.378,12.378,0,0,1,2.968.131,7.867,7.867,0,0,1,2.843,1.1c.882.538,1.623,1.283,2.514,1.735a3.362,3.362,0,0,0,1.428.375c.49.012,1.035-.066,1.573-.044a5,5,0,0,1,1.619.274,1.728,1.728,0,0,1,1.2,1.228l-.024-.074a.991.991,0,0,1,.139.752,1.233,1.233,0,0,1-.437.621,4.184,4.184,0,0,1-1.263.634,14.466,14.466,0,0,1-2.778.593l.14-.246,4.715,10.195c.823,1.738,1.642,3.525,2.544,5.255a3.056,3.056,0,0,1,.338.711,2.129,2.129,0,0,1,.019.812,2.316,2.316,0,0,1-.788,1.374,2.015,2.015,0,0,1-1.526.461l-.2-.022a.531.531,0,0,1-.147-.055c-.04-.024-.063-.046-.1-.07a2.729,2.729,0,0,1-.29-.28c-.174-.191-.338-.385-.5-.583-1.811-2.322-3.416-4.725-5.015-7.089h.3a60.059,60.059,0,0,1-4.086,5.517,22.389,22.389,0,0,1-2.341,2.439c-.216.181-.443.352-.664.527a8.389,8.389,0,0,1-.734.442,2.675,2.675,0,0,1-.853.251,3.075,3.075,0,0,1-.864-.111,11.242,11.242,0,0,1-2.959-1.455c-.911-.588-1.774-1.225-2.61-1.878-1.669-1.312-3.235-2.681-4.72-4.081l.224,0c-11.644,10.245-21.617,18.844-28.745,24.8-3.565,2.979-6.42,5.3-8.419,6.824-1,.766-1.785,1.331-2.334,1.685a4.593,4.593,0,0,1-.867.482c-.008-.019.3-.149.837-.527s1.312-.946,2.3-1.724c1.977-1.551,4.81-3.892,8.355-6.893,7.089-6,17.031-14.635,28.655-24.9l.113-.1.112.1c1.476,1.387,3.042,2.752,4.7,4.051.831.648,1.688,1.278,2.586,1.856a10.99,10.99,0,0,0,2.859,1.407c1.038.388,1.974-.352,2.8-1.037a22.234,22.234,0,0,0,2.3-2.4,59.857,59.857,0,0,0,4.055-5.483l.15-.226.151.224c1.593,2.355,3.206,4.766,5,7.061.155.195.315.384.479.564a2.511,2.511,0,0,0,.249.242l.055.042.007,0c0-.012,0,.022-.01.065.006-.029-.019.106.014-.058h.016l.172.018a1.649,1.649,0,0,0,1.262-.379,1.787,1.787,0,0,0,.348-2.44c-.923-1.77-1.729-3.536-2.555-5.282l-4.708-10.2-.1-.216.24-.03a14.22,14.22,0,0,0,2.7-.573,3.879,3.879,0,0,0,1.157-.575.9.9,0,0,0,.322-.438.653.653,0,0,0-.1-.493l-.015-.026-.009-.049a1.436,1.436,0,0,0-.98-.939,4.666,4.666,0,0,0-1.5-.254c-.519-.022-1.021.054-1.579.042a3.7,3.7,0,0,1-1.564-.413c-.961-.494-1.688-1.239-2.539-1.756a7.536,7.536,0,0,0-2.726-1.064,21.463,21.463,0,0,0-5.741.113c-1.873.2-3.679.531-5.421.894a68.38,68.38,0,0,0-17.346,6.612,108.847,108.847,0,0,0-10.361,6.41l-2.63,1.907-.682.486C94.591,382.3,94.508,382.353,94.508,382.353Z" transform="translate(-83.323 -365.301)" fill="#eb996e"/>
                  </g>
                </g>
                <g id="Group_6527" data-name="Group 6527" transform="translate(25.24 49.706)">
                  <g id="Group_6526" data-name="Group 6526">
                    <path id="Path_2884" data-name="Path 2884" d="M81.7,410.546a1.556,1.556,0,0,1-.143-.518,10.194,10.194,0,0,1-.178-1.45,14.784,14.784,0,0,1,2.555-9.157,10.186,10.186,0,0,1,.9-1.149c.234-.254.372-.385.39-.369.048.04-.438.625-1.079,1.658a16.734,16.734,0,0,0-2.513,9.009C81.643,409.785,81.757,410.536,81.7,410.546Z" transform="translate(-81.348 -397.901)" fill="#eb996e"/>
                  </g>
                </g>
              </g>
              <g id="Group_6529" data-name="Group 6529">
                <path id="Path_2885" data-name="Path 2885" d="M53.1,311.612c-.337.226-12.565,3.882-14.488,16.419s-.771,34.359-.771,34.359l33.171-2.279-9.507-44.082Z" transform="translate(-37.503 -311.612)" fill="#6fb938"/>
              </g>
            </g>
            <g id="Group_6532" data-name="Group 6532" transform="translate(83.577 55.966)">
              <g id="Group_6531" data-name="Group 6531">
                <path id="Path_2886" data-name="Path 2886" d="M159.967,398.544a10.81,10.81,0,0,1,.014-1.139,5.979,5.979,0,0,0-2.425-4.6,10.727,10.727,0,0,1-.947-.632,2.269,2.269,0,0,1,1.089.419,5.428,5.428,0,0,1,2.54,4.818A2.275,2.275,0,0,1,159.967,398.544Z" transform="translate(-156.608 -392.164)" fill="#eb996e"/>
              </g>
            </g>
            <g id="Group_6534" data-name="Group 6534" transform="translate(86.589 53.312)">
              <g id="Group_6533" data-name="Group 6533">
                <path id="Path_2887" data-name="Path 2887" d="M164.337,393.66a7.688,7.688,0,0,0-3.392-5.309,1.939,1.939,0,0,1,.9.4,5.742,5.742,0,0,1,2.507,3.924A1.945,1.945,0,0,1,164.337,393.66Z" transform="translate(-160.943 -388.343)" fill="#eb996e"/>
              </g>
            </g>
            <g id="Group_6536" data-name="Group 6536" transform="translate(89.979 50.705)">
              <g id="Group_6535" data-name="Group 6535">
                <path id="Path_2888" data-name="Path 2888" d="M165.826,384.6c.025-.035.312.1.693.443A4.925,4.925,0,0,1,168.1,388.6c0,.511-.094.816-.138.811a7.28,7.28,0,0,0-2.132-4.811Z" transform="translate(-165.823 -384.591)" fill="#eb996e"/>
              </g>
            </g>
            <g id="Group_6538" data-name="Group 6538" transform="translate(0 27.347)">
              <g id="Group_6537" data-name="Group 6537">
                <path id="Path_2889" data-name="Path 2889" d="M66.613,351.319a.612.612,0,0,1-.174-.006l-.5-.056a17.7,17.7,0,0,0-1.931-.132,18.426,18.426,0,0,0-6.941,1.287,17.571,17.571,0,0,0-8.107,6.43,9.493,9.493,0,0,0-1.784,5.765,6.457,6.457,0,0,0,.969,3.036,4.717,4.717,0,0,0,2.519,2,4.455,4.455,0,0,0,3.2-.154,3.62,3.62,0,0,0,1.946-2.354,5.83,5.83,0,0,0-.122-3.06,8.678,8.678,0,0,0-1.325-2.678,13.256,13.256,0,0,0-8.784-5.194,13.429,13.429,0,0,0-6.944.934A15.131,15.131,0,0,0,36.9,358l-.431.261a.654.654,0,0,1-.154.08,9.94,9.94,0,0,1,2.258-1.336,13.3,13.3,0,0,1,7.034-1.057,13.451,13.451,0,0,1,9.019,5.249,8.985,8.985,0,0,1,1.389,2.78,6.165,6.165,0,0,1,.131,3.248,3.974,3.974,0,0,1-2.135,2.587,4.8,4.8,0,0,1-3.459.172,5.066,5.066,0,0,1-2.712-2.15,6.793,6.793,0,0,1-1.019-3.206,9.8,9.8,0,0,1,1.86-5.975,17.685,17.685,0,0,1,8.291-6.483,18,18,0,0,1,7.038-1.189A12.942,12.942,0,0,1,66.613,351.319Z" transform="translate(-36.316 -350.973)" fill="#fafafa"/>
              </g>
            </g>
            <g id="Group_6540" data-name="Group 6540" transform="translate(7.247 5.761)">
              <g id="Group_6539" data-name="Group 6539">
                <path id="Path_2890" data-name="Path 2890" d="M68.659,323.844a4.563,4.563,0,0,1-.84.388,8.266,8.266,0,0,1-1.022.369,13.564,13.564,0,0,1-1.387.387,15.15,15.15,0,0,1-1.718.322,19.9,19.9,0,0,1-2,.19,20.907,20.907,0,0,1-8.993-1.616,19.946,19.946,0,0,1-1.807-.874,15.248,15.248,0,0,1-1.5-.9,13.438,13.438,0,0,1-1.166-.846,8.088,8.088,0,0,1-.829-.7,4.488,4.488,0,0,1-.653-.656c.051-.059,1,.863,2.787,1.989a16.327,16.327,0,0,0,1.5.85c.542.3,1.156.551,1.794.831a21.82,21.82,0,0,0,8.854,1.591c.695-.04,1.358-.059,1.97-.155a16.332,16.332,0,0,0,1.7-.275C67.421,324.3,68.632,323.77,68.659,323.844Z" transform="translate(-46.747 -319.904)" fill="#fafafa"/>
              </g>
            </g>
            <g id="Group_6542" data-name="Group 6542" transform="translate(1.167 30.953)">
              <g id="Group_6541" data-name="Group 6541">
                <path id="Path_2891" data-name="Path 2891" d="M68.728,356.163a1.433,1.433,0,0,1,.076.331c.042.252.1.571.163.968.135.885.322,2.11.555,3.633.454,3.147,1.084,7.518,1.815,12.589l.026.184-.186.013-7.747.541L45.45,375.6,40,375.921l-1.483.068a2.761,2.761,0,0,1-.519,0,2.8,2.8,0,0,1,.514-.072l1.478-.135,5.444-.431,17.974-1.288,7.748-.524-.158.2-1.687-12.607c-.191-1.529-.345-2.759-.456-3.648-.044-.4-.08-.723-.108-.975A1.534,1.534,0,0,1,68.728,356.163Z" transform="translate(-37.996 -356.163)" fill="#263238"/>
              </g>
            </g>
          </g>
          <g id="Group_6545" data-name="Group 6545" transform="translate(15.747)" opacity="0.2">
            <g id="Group_6544" data-name="Group 6544">
              <path id="Path_2892" data-name="Path 2892" d="M59.05,306.917c-.33,1.17.594,2.271,1.2,3.325,1.167,2.031,1.231,4.486,1.336,6.826a47.418,47.418,0,0,0,1.966,12.672A21.826,21.826,0,0,0,70.568,340.3a14.28,14.28,0,0,0,12.092,2.83c4.149-1.082,7.657-4.754,7.993-9.029.333-4.238-2.223-8.081-3.7-12.068a64.43,64.43,0,0,1-2.3-9.553,28.535,28.535,0,0,0-3.192-9.25,11.819,11.819,0,0,0-7.631-5.734c-3.225-.589-6.91.936-8.215,3.944" transform="translate(-58.98 -297.368)"/>
            </g>
          </g>
        </g>
        <g id="Group_6617" data-name="Group 6617" transform="translate(14.286 5.897)">
          <g id="Group_6612" data-name="Group 6612" transform="translate(17.317 4.043)">
            <g id="Group_6611" data-name="Group 6611">
              <g id="Group_6600" data-name="Group 6600">
                <g id="Group_6599" data-name="Group 6599">
                  <g id="Group_6598" data-name="Group 6598">
                    <g id="Group_6551" data-name="Group 6551">
                      <g id="Group_6550" data-name="Group 6550">
                        <g id="Group_6549" data-name="Group 6549">
                          <g id="Group_6548" data-name="Group 6548">
                            <g id="Group_6547" data-name="Group 6547">
                              <path id="Path_2893" data-name="Path 2893" d="M82.036,229.436l.007,3.695-.24,55.311c-.028,6.421,5.471,11.559,12.346,11.536h0c6.944-.023,12.678-5.3,12.813-11.781.142-6.807.416-13.972.416-13.972s8.8-1.3,10.817-12.711c1-5.674.884-15.01.54-22.646a12.086,12.086,0,0,0-13.128-11.5Z" transform="translate(-81.803 -227.318)" fill="#ffbe9d"/>
                            </g>
                          </g>
                        </g>
                      </g>
                    </g>
                    <g id="Group_6563" data-name="Group 6563" transform="translate(29.023 14.773)">
                      <g id="Group_6556" data-name="Group 6556" transform="translate(2.289 2.386)">
                        <g id="Group_6555" data-name="Group 6555">
                          <g id="Group_6554" data-name="Group 6554">
                            <g id="Group_6553" data-name="Group 6553">
                              <g id="Group_6552" data-name="Group 6552">
                                <path id="Path_2894" data-name="Path 2894" d="M129.8,253.366a1.469,1.469,0,0,1-1.442,1.456,1.4,1.4,0,0,1-1.489-1.35,1.468,1.468,0,0,1,1.44-1.456A1.405,1.405,0,0,1,129.8,253.366Z" transform="translate(-126.87 -252.015)" fill="#263238"/>
                              </g>
                            </g>
                          </g>
                        </g>
                      </g>
                      <g id="Group_6562" data-name="Group 6562">
                        <g id="Group_6561" data-name="Group 6561">
                          <g id="Group_6560" data-name="Group 6560">
                            <g id="Group_6559" data-name="Group 6559">
                              <g id="Group_6558" data-name="Group 6558">
                                <g id="Group_6557" data-name="Group 6557">
                                  <path id="Path_2895" data-name="Path 2895" d="M129.374,250.175c-.185.188-1.283-.654-2.862-.678-1.577-.047-2.751.746-2.918.549-.083-.087.108-.429.62-.788a4.032,4.032,0,0,1,2.341-.676,3.871,3.871,0,0,1,2.273.779C129.306,249.742,129.465,250.091,129.374,250.175Z" transform="translate(-123.575 -248.581)" fill="#263238"/>
                                </g>
                              </g>
                            </g>
                          </g>
                        </g>
                      </g>
                    </g>
                    <g id="Group_6575" data-name="Group 6575" transform="translate(13.494 14.792)">
                      <g id="Group_6568" data-name="Group 6568" transform="translate(2.859 2.101)">
                        <g id="Group_6567" data-name="Group 6567">
                          <g id="Group_6566" data-name="Group 6566">
                            <g id="Group_6565" data-name="Group 6565">
                              <g id="Group_6564" data-name="Group 6564">
                                <path id="Path_2896" data-name="Path 2896" d="M108.27,252.984a1.468,1.468,0,0,1-1.442,1.455,1.4,1.4,0,0,1-1.489-1.35,1.468,1.468,0,0,1,1.44-1.456A1.406,1.406,0,0,1,108.27,252.984Z" transform="translate(-105.34 -251.632)" fill="#263238"/>
                              </g>
                            </g>
                          </g>
                        </g>
                      </g>
                      <g id="Group_6574" data-name="Group 6574">
                        <g id="Group_6573" data-name="Group 6573">
                          <g id="Group_6572" data-name="Group 6572">
                            <g id="Group_6571" data-name="Group 6571">
                              <g id="Group_6570" data-name="Group 6570">
                                <g id="Group_6569" data-name="Group 6569">
                                  <path id="Path_2897" data-name="Path 2897" d="M107.024,250.2c-.186.188-1.285-.654-2.863-.679-1.577-.046-2.751.746-2.919.549-.082-.087.108-.429.62-.787a4.021,4.021,0,0,1,2.34-.677,3.872,3.872,0,0,1,2.274.779C106.955,249.769,107.115,250.118,107.024,250.2Z" transform="translate(-101.225 -248.608)" fill="#263238"/>
                                </g>
                              </g>
                            </g>
                          </g>
                        </g>
                      </g>
                    </g>
                    <g id="Group_6581" data-name="Group 6581" transform="translate(24.31 15.028)">
                      <g id="Group_6580" data-name="Group 6580">
                        <g id="Group_6579" data-name="Group 6579">
                          <g id="Group_6578" data-name="Group 6578">
                            <g id="Group_6577" data-name="Group 6577">
                              <g id="Group_6576" data-name="Group 6576">
                                <path id="Path_2898" data-name="Path 2898" d="M117.3,262.119a10.476,10.476,0,0,1,2.573-.417c.4-.035.786-.108.859-.382a2.05,2.05,0,0,0-.248-1.2q-.542-1.474-1.138-3.092c-1.579-4.4-2.713-8.017-2.535-8.08s1.6,3.455,3.18,7.857q.569,1.628,1.087,3.109a2.337,2.337,0,0,1,.181,1.586,1.012,1.012,0,0,1-.674.578,2.767,2.767,0,0,1-.686.083A10.232,10.232,0,0,1,117.3,262.119Z" transform="translate(-116.792 -248.948)" fill="#263238"/>
                              </g>
                            </g>
                          </g>
                        </g>
                      </g>
                    </g>
                    <g id="Group_6586" data-name="Group 6586" transform="translate(10.323 42.546)">
                      <g id="Group_6585" data-name="Group 6585">
                        <g id="Group_6584" data-name="Group 6584">
                          <g id="Group_6583" data-name="Group 6583">
                            <g id="Group_6582" data-name="Group 6582">
                              <path id="Path_2899" data-name="Path 2899" d="M111.913,292.914a29.12,29.12,0,0,1-15.253-4.36s3.579,7.927,15.05,7.06Z" transform="translate(-96.66 -288.554)" fill="#eb996e"/>
                            </g>
                          </g>
                        </g>
                      </g>
                    </g>
                    <g id="Group_6591" data-name="Group 6591" transform="translate(19.352 30.88)">
                      <g id="Group_6590" data-name="Group 6590">
                        <g id="Group_6589" data-name="Group 6589">
                          <g id="Group_6588" data-name="Group 6588">
                            <g id="Group_6587" data-name="Group 6587">
                              <path id="Path_2900" data-name="Path 2900" d="M114.385,272.877a2.845,2.845,0,0,0-2.532-1.1,2.6,2.6,0,0,0-1.811.93,1.647,1.647,0,0,0-.158,1.88,1.91,1.91,0,0,0,2.061.56,5.969,5.969,0,0,0,2.04-1.169,1.749,1.749,0,0,0,.459-.459.528.528,0,0,0,.008-.588" transform="translate(-109.657 -271.763)" fill="#eb996e"/>
                            </g>
                          </g>
                        </g>
                      </g>
                    </g>
                    <g id="Group_6597" data-name="Group 6597" transform="translate(19.877 29.209)">
                      <g id="Group_6596" data-name="Group 6596">
                        <g id="Group_6595" data-name="Group 6595">
                          <g id="Group_6594" data-name="Group 6594">
                            <g id="Group_6593" data-name="Group 6593">
                              <g id="Group_6592" data-name="Group 6592">
                                <path id="Path_2901" data-name="Path 2901" d="M110.684,269.359c.257-.01.23,1.7,1.675,2.947s3.274,1.087,3.283,1.326c.022.108-.413.326-1.184.333a4.269,4.269,0,0,1-2.742-1.01,3.719,3.719,0,0,1-1.3-2.469C110.368,269.768,110.567,269.346,110.684,269.359Z" transform="translate(-110.412 -269.359)" fill="#263238"/>
                              </g>
                            </g>
                          </g>
                        </g>
                      </g>
                    </g>
                  </g>
                </g>
              </g>
              <g id="Group_6605" data-name="Group 6605" transform="translate(12.592 8.966)">
                <g id="Group_6604" data-name="Group 6604">
                  <g id="Group_6603" data-name="Group 6603">
                    <g id="Group_6602" data-name="Group 6602">
                      <g id="Group_6601" data-name="Group 6601">
                        <path id="Path_2902" data-name="Path 2902" d="M107.146,241.462c-.163.427-1.737.195-3.593.385-1.861.154-3.364.669-3.6.279-.106-.186.161-.585.773-.99a6.283,6.283,0,0,1,5.483-.507C106.879,240.915,107.216,241.259,107.146,241.462Z" transform="translate(-99.926 -240.222)" fill="#263238"/>
                      </g>
                    </g>
                  </g>
                </g>
              </g>
              <g id="Group_6610" data-name="Group 6610" transform="translate(28.95 10.101)">
                <g id="Group_6609" data-name="Group 6609">
                  <g id="Group_6608" data-name="Group 6608">
                    <g id="Group_6607" data-name="Group 6607">
                      <g id="Group_6606" data-name="Group 6606">
                        <path id="Path_2903" data-name="Path 2903" d="M128.842,243.542c-.284.354-1.365-.038-2.673-.079-1.306-.086-2.421.2-2.669-.181-.108-.184.072-.541.562-.871a3.874,3.874,0,0,1,4.3.21C128.823,243,128.968,243.37,128.842,243.542Z" transform="translate(-123.47 -241.857)" fill="#263238"/>
                      </g>
                    </g>
                  </g>
                </g>
              </g>
            </g>
          </g>
          <g id="Group_6616" data-name="Group 6616">
            <g id="Group_6613" data-name="Group 6613">
              <path id="Path_2904" data-name="Path 2904" d="M88.78,223.9c3.1,4.035-.03,9.821-3.515,13.524s-7.736,8.006-6.726,12.99c1.171,5.779,9.127,9.41,8.007,15.2-.409,2.114-2.055,3.927-2.041,6.08.024,3.885,5.069,5.723,6.551,9.314,2.032,4.921-3.372,9.9-3.4,15.225-.017,3.023,1.722,5.826,1.843,8.847.248,6.188-7.028,10.791-13.047,9.327s-10.188-7.282-11.555-13.323-.463-12.336.446-18.462c-.573,2.614-4.533,3.139-6.489,1.312s-2.218-4.85-1.807-7.5c1.03-6.63,5.326-12.279,7.334-18.681,1.756-5.6,1.709-11.572,2.444-17.39S69.3,228.469,73.7,224.591s12.078-4.424,15.713.178" transform="translate(-56.878 -221.499)" fill="#263238"/>
            </g>
            <g id="Group_6615" data-name="Group 6615" transform="translate(9.458 0.816)">
              <g id="Group_6614" data-name="Group 6614">
                <path id="Path_2905" data-name="Path 2905" d="M77.247,312.553a1.523,1.523,0,0,1,.141-.229l.438-.652a14.777,14.777,0,0,0,2.254-7.348,14.155,14.155,0,0,0-1.126-6.136,30.4,30.4,0,0,0-4.21-6.365,32.94,32.94,0,0,1-2.456-3.529,14.031,14.031,0,0,1-1.623-4.276,8.413,8.413,0,0,1,.386-4.786,6.826,6.826,0,0,1,1.415-2.079,15.967,15.967,0,0,1,1.962-1.611A10.33,10.33,0,0,0,78,272.021a7.41,7.41,0,0,0,.316-5.066c-.831-3.489-3.252-6.181-4.8-9.207a11.674,11.674,0,0,1-1.442-4.8,10.562,10.562,0,0,1,.9-4.722,20.594,20.594,0,0,1,5.386-6.986c2.061-1.853,4.1-3.431,5.769-5.071a18.239,18.239,0,0,0,3.81-4.982,11.981,11.981,0,0,0,1.3-4.54,8.257,8.257,0,0,0-.3-2.974c-.192-.661-.355-.989-.331-1a5.627,5.627,0,0,1,.4.978,8.03,8.03,0,0,1,.369,3,11.966,11.966,0,0,1-1.261,4.62,18.284,18.284,0,0,1-3.812,5.075c-1.674,1.665-3.707,3.259-5.747,5.11a20.388,20.388,0,0,0-5.282,6.9,10.24,10.24,0,0,0-.862,4.572,11.342,11.342,0,0,0,1.411,4.656c.773,1.489,1.744,2.91,2.66,4.4a17.021,17.021,0,0,1,2.177,4.881,7.758,7.758,0,0,1-.345,5.313,10.628,10.628,0,0,1-3.684,3.65,15.714,15.714,0,0,0-1.921,1.57,6.483,6.483,0,0,0-1.346,1.968,8.088,8.088,0,0,0-.376,4.59,13.737,13.737,0,0,0,1.572,4.179,32.9,32.9,0,0,0,2.418,3.505,30.335,30.335,0,0,1,4.207,6.446,14.269,14.269,0,0,1,1.094,6.245,14.944,14.944,0,0,1-.992,4.691,14.113,14.113,0,0,1-1.4,2.688c-.2.286-.363.492-.47.634A1.45,1.45,0,0,1,77.247,312.553Z" transform="translate(-70.491 -222.673)" fill="#455a64"/>
              </g>
            </g>
          </g>
        </g>
        <g id="Group_6620" data-name="Group 6620" transform="translate(52.08 108.312)">
          <g id="Group_6618" data-name="Group 6618">
            <path id="Path_2906" data-name="Path 2906" d="M174.893,370.292l-26.332,45.979-37.286,1.291v4.1H220.207L249.852,373.1a2.758,2.758,0,0,0-2.354-4.2H177.286A2.757,2.757,0,0,0,174.893,370.292Z" transform="translate(-111.275 -368.905)" fill="#17468f"/>
          </g>
          <g id="Group_6619" data-name="Group 6619" transform="translate(89.879 19.233)">
            <path id="Path_2907" data-name="Path 2907" d="M247.359,403.288c-1.653,2.572-4.2,3.882-5.687,2.926s-1.354-3.816.3-6.389,4.2-3.882,5.687-2.926S249.011,400.716,247.359,403.288Z" transform="translate(-240.638 -396.587)" fill="#fff"/>
          </g>
        </g>
      </g>
    </g>
  </g>
</svg>
