<svg xmlns="http://www.w3.org/2000/svg" width="274.763" height="316.404" viewBox="0 0 274.763 316.404">
  <g id="Group_5751" data-name="Group 5751" transform="translate(-111.469 -101.667)">
    <g id="Server">
      <g id="Group_5741" data-name="Group 5741">
        <g id="Group_5734" data-name="Group 5734">
          <path id="Path_296" data-name="Path 296" d="M0,0H124.17V237.008a2.024,2.024,0,0,1-2.024,2.025H2.024A2.025,2.025,0,0,1,0,237.008Z" transform="translate(115.043 177.205)" fill="#6fb938"/>
          <g id="Group_5733" data-name="Group 5733">
            <rect id="Rectangle_5" data-name="Rectangle 5" width="8.639" height="31.492" transform="translate(232.261 370.445)" fill="#17468f"/>
            <rect id="Rectangle_6" data-name="Rectangle 6" width="2.608" height="31.492" transform="translate(232.261 401.938) rotate(180)" opacity="0.2"/>
            <rect id="Rectangle_7" data-name="Rectangle 7" width="11.247" height="31.492" transform="translate(229.653 370.445)" fill="#17468f" opacity="0.1"/>
            <ellipse id="Ellipse_4" data-name="Ellipse 4" cx="3.056" cy="13.514" rx="3.056" ry="13.514" transform="translate(233.524 372.678)" fill="#11346a"/>
          </g>
          <path id="Path_295" data-name="Path 295" d="M0,0H107.974V237.008a2.024,2.024,0,0,1-2.024,2.025H2.024A2.025,2.025,0,0,1,0,237.008Z" transform="translate(115.043 179.039)" fill="#15cdcb" opacity="0.15"/>
          <path id="Path_234" data-name="Path 234" d="M223.017,177.205h.816V416.237h0a.816.816,0,0,1-.816-.816Z" opacity="0.2"/>
          <rect id="Rectangle_9" data-name="Rectangle 9" width="99.201" height="18.349" transform="translate(111.469 187.103)" fill="#17468f"/>
          <rect id="Rectangle_10" data-name="Rectangle 10" width="3.614" height="15.2" transform="translate(204.903 188.677)" fill="#fff" opacity="0.3"/>
          <rect id="Rectangle_11" data-name="Rectangle 11" width="3.614" height="15.2" transform="translate(198.705 188.677)" fill="#fff" opacity="0.3"/>
          <rect id="Rectangle_12" data-name="Rectangle 12" width="3.614" height="15.2" transform="translate(192.506 188.677)" fill="#fff" opacity="0.3"/>
          <rect id="Rectangle_13" data-name="Rectangle 13" width="3.614" height="15.2" transform="translate(186.308 188.677)" fill="#fff" opacity="0.3"/>
          <rect id="Rectangle_14" data-name="Rectangle 14" width="3.614" height="15.2" transform="translate(180.109 188.677)" fill="#fff" opacity="0.3"/>
          <rect id="Rectangle_15" data-name="Rectangle 15" width="3.614" height="15.2" transform="translate(173.911 188.677)" fill="#fff" opacity="0.3"/>
          <rect id="Rectangle_16" data-name="Rectangle 16" width="3.614" height="15.2" transform="translate(167.712 188.677)" fill="#fff" opacity="0.3"/>
          <rect id="Rectangle_17" data-name="Rectangle 17" width="3.614" height="15.2" transform="translate(161.514 188.677)" fill="#fff" opacity="0.3"/>
          <rect id="Rectangle_18" data-name="Rectangle 18" width="3.614" height="15.2" transform="translate(155.315 188.677)" fill="#fff" opacity="0.3"/>
          <rect id="Rectangle_19" data-name="Rectangle 19" width="3.614" height="15.2" transform="translate(149.116 188.677)" fill="#fff" opacity="0.3"/>
          <rect id="Rectangle_20" data-name="Rectangle 20" width="3.614" height="15.2" transform="translate(142.918 188.677)" fill="#fff" opacity="0.3"/>
          <rect id="Rectangle_21" data-name="Rectangle 21" width="3.614" height="15.2" transform="translate(136.719 188.677)" fill="#fff" opacity="0.3"/>
          <rect id="Rectangle_22" data-name="Rectangle 22" width="3.614" height="15.2" transform="translate(130.521 188.677)" fill="#fff" opacity="0.3"/>
          <rect id="Rectangle_23" data-name="Rectangle 23" width="3.614" height="15.2" transform="translate(124.322 188.677)" fill="#fff" opacity="0.3"/>
          <rect id="Rectangle_24" data-name="Rectangle 24" width="99.201" height="18.349" transform="translate(111.469 212.625)" fill="#17468f"/>
          <rect id="Rectangle_25" data-name="Rectangle 25" width="99.201" height="18.349" transform="translate(111.469 238.148)" fill="#17468f"/>
          <rect id="Rectangle_26" data-name="Rectangle 26" width="99.201" height="18.349" transform="translate(111.469 263.67)" fill="#17468f"/>
          <rect id="Rectangle_27" data-name="Rectangle 27" width="99.201" height="18.349" transform="translate(111.469 289.193)" fill="#17468f"/>
          <rect id="Rectangle_28" data-name="Rectangle 28" width="99.201" height="18.349" transform="translate(111.469 314.715)" fill="#17468f"/>
          <rect id="Rectangle_29" data-name="Rectangle 29" width="99.201" height="18.349" transform="translate(111.469 340.237)" fill="#17468f"/>
          <rect id="Rectangle_30" data-name="Rectangle 30" width="99.201" height="18.349" transform="translate(111.469 365.76)" fill="#17468f"/>
          <rect id="Rectangle_31" data-name="Rectangle 31" width="2.462" height="18.349" transform="translate(213.132 205.452) rotate(180)" opacity="0.2"/>
          <rect id="Rectangle_32" data-name="Rectangle 32" width="2.462" height="18.349" transform="translate(213.132 230.974) rotate(180)" opacity="0.2"/>
          <rect id="Rectangle_33" data-name="Rectangle 33" width="2.462" height="18.349" transform="translate(213.132 256.497) rotate(180)" opacity="0.2"/>
          <rect id="Rectangle_34" data-name="Rectangle 34" width="2.462" height="18.349" transform="translate(213.132 282.019) rotate(180)" opacity="0.2"/>
          <rect id="Rectangle_35" data-name="Rectangle 35" width="2.462" height="18.349" transform="translate(213.132 307.541) rotate(180)" opacity="0.2"/>
          <rect id="Rectangle_36" data-name="Rectangle 36" width="2.462" height="18.349" transform="translate(213.132 333.064) rotate(180)" opacity="0.2"/>
          <rect id="Rectangle_37" data-name="Rectangle 37" width="2.462" height="18.349" transform="translate(213.132 358.586) rotate(180)" opacity="0.2"/>
          <rect id="Rectangle_38" data-name="Rectangle 38" width="2.462" height="18.349" transform="translate(213.132 384.109) rotate(180)" opacity="0.2"/>
          <path id="Path_235" data-name="Path 235" d="M116.756,192.9a2.321,2.321,0,1,0,2.321-2.321A2.321,2.321,0,0,0,116.756,192.9Z" fill="#fff"/>
          <path id="Path_236" data-name="Path 236" d="M116.756,199.659a2.321,2.321,0,1,0,2.321-2.321A2.321,2.321,0,0,0,116.756,199.659Z" fill="#263238" opacity="0.3"/>
          <rect id="Rectangle_39" data-name="Rectangle 39" width="3.614" height="15.2" transform="translate(204.903 214.2)" fill="#fff" opacity="0.3"/>
          <rect id="Rectangle_40" data-name="Rectangle 40" width="3.614" height="15.2" transform="translate(198.705 214.2)" fill="#fff" opacity="0.3"/>
          <rect id="Rectangle_41" data-name="Rectangle 41" width="3.614" height="15.2" transform="translate(192.506 214.2)" fill="#fff" opacity="0.3"/>
          <rect id="Rectangle_42" data-name="Rectangle 42" width="3.614" height="15.2" transform="translate(186.308 214.2)" fill="#fff" opacity="0.3"/>
          <rect id="Rectangle_43" data-name="Rectangle 43" width="3.614" height="15.2" transform="translate(180.109 214.2)" fill="#fff" opacity="0.3"/>
          <rect id="Rectangle_44" data-name="Rectangle 44" width="3.614" height="15.2" transform="translate(173.911 214.2)" fill="#fff" opacity="0.3"/>
          <rect id="Rectangle_45" data-name="Rectangle 45" width="3.614" height="15.2" transform="translate(167.712 214.2)" fill="#fff" opacity="0.3"/>
          <rect id="Rectangle_46" data-name="Rectangle 46" width="3.614" height="15.2" transform="translate(161.514 214.2)" fill="#fff" opacity="0.3"/>
          <rect id="Rectangle_47" data-name="Rectangle 47" width="3.614" height="15.2" transform="translate(155.315 214.2)" fill="#fff" opacity="0.3"/>
          <rect id="Rectangle_48" data-name="Rectangle 48" width="3.614" height="15.2" transform="translate(149.116 214.2)" fill="#fff" opacity="0.3"/>
          <rect id="Rectangle_49" data-name="Rectangle 49" width="3.614" height="15.2" transform="translate(142.918 214.2)" fill="#fff" opacity="0.3"/>
          <rect id="Rectangle_50" data-name="Rectangle 50" width="3.614" height="15.2" transform="translate(136.719 214.2)" fill="#fff" opacity="0.3"/>
          <rect id="Rectangle_51" data-name="Rectangle 51" width="3.614" height="15.2" transform="translate(130.521 214.2)" fill="#fff" opacity="0.3"/>
          <rect id="Rectangle_52" data-name="Rectangle 52" width="3.614" height="15.2" transform="translate(124.322 214.2)" fill="#fff" opacity="0.3"/>
          <path id="Path_237" data-name="Path 237" d="M116.756,218.418a2.321,2.321,0,1,0,2.321-2.321A2.321,2.321,0,0,0,116.756,218.418Z" fill="#fff"/>
          <path id="Path_238" data-name="Path 238" d="M116.756,225.181a2.321,2.321,0,1,0,2.321-2.32A2.321,2.321,0,0,0,116.756,225.181Z" fill="#263238" opacity="0.3"/>
          <rect id="Rectangle_53" data-name="Rectangle 53" width="3.614" height="15.2" transform="translate(204.903 239.722)" fill="#fff" opacity="0.3"/>
          <rect id="Rectangle_54" data-name="Rectangle 54" width="3.614" height="15.2" transform="translate(198.705 239.722)" fill="#fff" opacity="0.3"/>
          <rect id="Rectangle_55" data-name="Rectangle 55" width="3.614" height="15.2" transform="translate(192.506 239.722)" fill="#fff" opacity="0.3"/>
          <rect id="Rectangle_56" data-name="Rectangle 56" width="3.614" height="15.2" transform="translate(186.308 239.722)" fill="#fff" opacity="0.3"/>
          <rect id="Rectangle_57" data-name="Rectangle 57" width="3.614" height="15.2" transform="translate(180.109 239.722)" fill="#fff" opacity="0.3"/>
          <rect id="Rectangle_58" data-name="Rectangle 58" width="3.614" height="15.2" transform="translate(173.911 239.722)" fill="#fff" opacity="0.3"/>
          <rect id="Rectangle_59" data-name="Rectangle 59" width="3.614" height="15.2" transform="translate(167.712 239.722)" fill="#fff" opacity="0.3"/>
          <rect id="Rectangle_60" data-name="Rectangle 60" width="3.614" height="15.2" transform="translate(161.514 239.722)" fill="#fff" opacity="0.3"/>
          <rect id="Rectangle_61" data-name="Rectangle 61" width="3.614" height="15.2" transform="translate(155.315 239.722)" fill="#fff" opacity="0.3"/>
          <rect id="Rectangle_62" data-name="Rectangle 62" width="3.614" height="15.2" transform="translate(149.116 239.722)" fill="#fff" opacity="0.3"/>
          <rect id="Rectangle_63" data-name="Rectangle 63" width="3.614" height="15.2" transform="translate(142.918 239.722)" fill="#fff" opacity="0.3"/>
          <rect id="Rectangle_64" data-name="Rectangle 64" width="3.614" height="15.2" transform="translate(136.719 239.722)" fill="#fff" opacity="0.3"/>
          <rect id="Rectangle_65" data-name="Rectangle 65" width="3.614" height="15.2" transform="translate(130.521 239.722)" fill="#fff" opacity="0.3"/>
          <rect id="Rectangle_66" data-name="Rectangle 66" width="3.614" height="15.2" transform="translate(124.322 239.722)" fill="#fff" opacity="0.3"/>
          <path id="Path_239" data-name="Path 239" d="M116.756,243.941a2.321,2.321,0,1,0,2.321-2.321A2.321,2.321,0,0,0,116.756,243.941Z" fill="#fff"/>
          <path id="Path_240" data-name="Path 240" d="M116.756,250.7a2.321,2.321,0,1,0,2.321-2.321A2.321,2.321,0,0,0,116.756,250.7Z" fill="#263238" opacity="0.3"/>
          <rect id="Rectangle_67" data-name="Rectangle 67" width="3.614" height="15.2" transform="translate(204.903 265.245)" fill="#fff" opacity="0.3"/>
          <rect id="Rectangle_68" data-name="Rectangle 68" width="3.614" height="15.2" transform="translate(198.705 265.245)" fill="#fff" opacity="0.3"/>
          <rect id="Rectangle_69" data-name="Rectangle 69" width="3.614" height="15.2" transform="translate(192.506 265.245)" fill="#fff" opacity="0.3"/>
          <rect id="Rectangle_70" data-name="Rectangle 70" width="3.614" height="15.2" transform="translate(186.308 265.245)" fill="#fff" opacity="0.3"/>
          <rect id="Rectangle_71" data-name="Rectangle 71" width="3.614" height="15.2" transform="translate(180.109 265.245)" fill="#fff" opacity="0.3"/>
          <rect id="Rectangle_72" data-name="Rectangle 72" width="3.614" height="15.2" transform="translate(173.911 265.245)" fill="#fff" opacity="0.3"/>
          <rect id="Rectangle_73" data-name="Rectangle 73" width="3.614" height="15.2" transform="translate(167.712 265.245)" fill="#fff" opacity="0.3"/>
          <rect id="Rectangle_74" data-name="Rectangle 74" width="3.614" height="15.2" transform="translate(161.514 265.245)" fill="#fff" opacity="0.3"/>
          <rect id="Rectangle_75" data-name="Rectangle 75" width="3.614" height="15.2" transform="translate(155.315 265.245)" fill="#fff" opacity="0.3"/>
          <rect id="Rectangle_76" data-name="Rectangle 76" width="3.614" height="15.2" transform="translate(149.116 265.245)" fill="#fff" opacity="0.3"/>
          <rect id="Rectangle_77" data-name="Rectangle 77" width="3.614" height="15.2" transform="translate(142.918 265.245)" fill="#fff" opacity="0.3"/>
          <rect id="Rectangle_78" data-name="Rectangle 78" width="3.614" height="15.2" transform="translate(136.719 265.245)" fill="#fff" opacity="0.3"/>
          <rect id="Rectangle_79" data-name="Rectangle 79" width="3.614" height="15.2" transform="translate(130.521 265.245)" fill="#fff" opacity="0.3"/>
          <rect id="Rectangle_80" data-name="Rectangle 80" width="3.614" height="15.2" transform="translate(124.322 265.245)" fill="#fff" opacity="0.3"/>
          <path id="Path_241" data-name="Path 241" d="M116.756,269.463a2.321,2.321,0,1,0,2.321-2.321A2.321,2.321,0,0,0,116.756,269.463Z" fill="#fff"/>
          <path id="Path_242" data-name="Path 242" d="M116.756,276.226a2.321,2.321,0,1,0,2.321-2.321A2.321,2.321,0,0,0,116.756,276.226Z" fill="#263238" opacity="0.3"/>
          <rect id="Rectangle_81" data-name="Rectangle 81" width="3.614" height="15.2" transform="translate(204.903 290.767)" fill="#fff" opacity="0.3"/>
          <rect id="Rectangle_82" data-name="Rectangle 82" width="3.614" height="15.2" transform="translate(198.705 290.767)" fill="#fff" opacity="0.3"/>
          <rect id="Rectangle_83" data-name="Rectangle 83" width="3.614" height="15.2" transform="translate(192.506 290.767)" fill="#fff" opacity="0.3"/>
          <rect id="Rectangle_84" data-name="Rectangle 84" width="3.614" height="15.2" transform="translate(186.308 290.767)" fill="#fff" opacity="0.3"/>
          <rect id="Rectangle_85" data-name="Rectangle 85" width="3.614" height="15.2" transform="translate(180.109 290.767)" fill="#fff" opacity="0.3"/>
          <rect id="Rectangle_86" data-name="Rectangle 86" width="3.614" height="15.2" transform="translate(173.911 290.767)" fill="#fff" opacity="0.3"/>
          <rect id="Rectangle_87" data-name="Rectangle 87" width="3.614" height="15.2" transform="translate(167.712 290.767)" fill="#fff" opacity="0.3"/>
          <rect id="Rectangle_88" data-name="Rectangle 88" width="3.614" height="15.2" transform="translate(161.514 290.767)" fill="#fff" opacity="0.3"/>
          <rect id="Rectangle_89" data-name="Rectangle 89" width="3.614" height="15.2" transform="translate(155.315 290.767)" fill="#fff" opacity="0.3"/>
          <rect id="Rectangle_90" data-name="Rectangle 90" width="3.614" height="15.2" transform="translate(149.116 290.767)" fill="#fff" opacity="0.3"/>
          <rect id="Rectangle_91" data-name="Rectangle 91" width="3.614" height="15.2" transform="translate(142.918 290.767)" fill="#fff" opacity="0.3"/>
          <rect id="Rectangle_92" data-name="Rectangle 92" width="3.614" height="15.2" transform="translate(136.719 290.767)" fill="#fff" opacity="0.3"/>
          <rect id="Rectangle_93" data-name="Rectangle 93" width="3.614" height="15.2" transform="translate(130.521 290.767)" fill="#fff" opacity="0.3"/>
          <rect id="Rectangle_94" data-name="Rectangle 94" width="3.614" height="15.2" transform="translate(124.322 290.767)" fill="#fff" opacity="0.3"/>
          <path id="Path_243" data-name="Path 243" d="M116.756,294.985a2.321,2.321,0,1,0,2.321-2.32A2.321,2.321,0,0,0,116.756,294.985Z" fill="#fff"/>
          <path id="Path_244" data-name="Path 244" d="M116.756,301.749a2.321,2.321,0,1,0,2.321-2.321A2.321,2.321,0,0,0,116.756,301.749Z" fill="#263238" opacity="0.3"/>
          <rect id="Rectangle_95" data-name="Rectangle 95" width="3.614" height="15.2" transform="translate(204.903 316.289)" fill="#fff" opacity="0.3"/>
          <rect id="Rectangle_96" data-name="Rectangle 96" width="3.614" height="15.2" transform="translate(198.705 316.289)" fill="#fff" opacity="0.3"/>
          <rect id="Rectangle_97" data-name="Rectangle 97" width="3.614" height="15.2" transform="translate(192.506 316.289)" fill="#fff" opacity="0.3"/>
          <rect id="Rectangle_98" data-name="Rectangle 98" width="3.614" height="15.2" transform="translate(186.308 316.289)" fill="#fff" opacity="0.3"/>
          <rect id="Rectangle_99" data-name="Rectangle 99" width="3.614" height="15.2" transform="translate(180.109 316.289)" fill="#fff" opacity="0.3"/>
          <rect id="Rectangle_100" data-name="Rectangle 100" width="3.614" height="15.2" transform="translate(173.911 316.289)" fill="#fff" opacity="0.3"/>
          <rect id="Rectangle_101" data-name="Rectangle 101" width="3.614" height="15.2" transform="translate(167.712 316.289)" fill="#fff" opacity="0.3"/>
          <rect id="Rectangle_102" data-name="Rectangle 102" width="3.614" height="15.2" transform="translate(161.514 316.289)" fill="#fff" opacity="0.3"/>
          <rect id="Rectangle_103" data-name="Rectangle 103" width="3.614" height="15.2" transform="translate(155.315 316.289)" fill="#fff" opacity="0.3"/>
          <rect id="Rectangle_104" data-name="Rectangle 104" width="3.614" height="15.2" transform="translate(149.116 316.289)" fill="#fff" opacity="0.3"/>
          <rect id="Rectangle_105" data-name="Rectangle 105" width="3.614" height="15.2" transform="translate(142.918 316.289)" fill="#fff" opacity="0.3"/>
          <rect id="Rectangle_106" data-name="Rectangle 106" width="3.614" height="15.2" transform="translate(136.719 316.289)" fill="#fff" opacity="0.3"/>
          <rect id="Rectangle_107" data-name="Rectangle 107" width="3.614" height="15.2" transform="translate(130.521 316.289)" fill="#fff" opacity="0.3"/>
          <rect id="Rectangle_108" data-name="Rectangle 108" width="3.614" height="15.2" transform="translate(124.322 316.289)" fill="#fff" opacity="0.3"/>
          <path id="Path_245" data-name="Path 245" d="M116.756,320.508a2.321,2.321,0,1,0,2.321-2.321A2.321,2.321,0,0,0,116.756,320.508Z" fill="#fff"/>
          <path id="Path_246" data-name="Path 246" d="M116.756,327.271a2.321,2.321,0,1,0,2.321-2.321A2.321,2.321,0,0,0,116.756,327.271Z" fill="#263238" opacity="0.3"/>
          <rect id="Rectangle_109" data-name="Rectangle 109" width="3.614" height="15.2" transform="translate(204.903 341.812)" fill="#fff" opacity="0.3"/>
          <rect id="Rectangle_110" data-name="Rectangle 110" width="3.614" height="15.2" transform="translate(198.705 341.812)" fill="#fff" opacity="0.3"/>
          <rect id="Rectangle_111" data-name="Rectangle 111" width="3.614" height="15.2" transform="translate(192.506 341.812)" fill="#fff" opacity="0.3"/>
          <rect id="Rectangle_112" data-name="Rectangle 112" width="3.614" height="15.2" transform="translate(186.308 341.812)" fill="#fff" opacity="0.3"/>
          <rect id="Rectangle_113" data-name="Rectangle 113" width="3.614" height="15.2" transform="translate(180.109 341.812)" fill="#fff" opacity="0.3"/>
          <rect id="Rectangle_114" data-name="Rectangle 114" width="3.614" height="15.2" transform="translate(173.911 341.812)" fill="#fff" opacity="0.3"/>
          <rect id="Rectangle_115" data-name="Rectangle 115" width="3.614" height="15.2" transform="translate(167.712 341.812)" fill="#fff" opacity="0.3"/>
          <rect id="Rectangle_116" data-name="Rectangle 116" width="3.614" height="15.2" transform="translate(161.514 341.812)" fill="#fff" opacity="0.3"/>
          <rect id="Rectangle_117" data-name="Rectangle 117" width="3.614" height="15.2" transform="translate(155.315 341.812)" fill="#fff" opacity="0.3"/>
          <rect id="Rectangle_118" data-name="Rectangle 118" width="3.614" height="15.2" transform="translate(149.116 341.812)" fill="#fff" opacity="0.3"/>
          <rect id="Rectangle_119" data-name="Rectangle 119" width="3.614" height="15.2" transform="translate(142.918 341.812)" fill="#fff" opacity="0.3"/>
          <rect id="Rectangle_120" data-name="Rectangle 120" width="3.614" height="15.2" transform="translate(136.719 341.812)" fill="#fff" opacity="0.3"/>
          <rect id="Rectangle_121" data-name="Rectangle 121" width="3.614" height="15.2" transform="translate(130.521 341.812)" fill="#fff" opacity="0.3"/>
          <rect id="Rectangle_122" data-name="Rectangle 122" width="3.614" height="15.2" transform="translate(124.322 341.812)" fill="#fff" opacity="0.3"/>
          <path id="Path_247" data-name="Path 247" d="M116.756,346.03a2.321,2.321,0,1,0,2.321-2.321A2.321,2.321,0,0,0,116.756,346.03Z" fill="#fff"/>
          <path id="Path_248" data-name="Path 248" d="M116.756,352.793a2.321,2.321,0,1,0,2.321-2.32A2.321,2.321,0,0,0,116.756,352.793Z" fill="#263238" opacity="0.3"/>
          <rect id="Rectangle_123" data-name="Rectangle 123" width="3.614" height="15.2" transform="translate(204.903 367.334)" fill="#fff" opacity="0.3"/>
          <rect id="Rectangle_124" data-name="Rectangle 124" width="3.614" height="15.2" transform="translate(198.705 367.334)" fill="#fff" opacity="0.3"/>
          <rect id="Rectangle_125" data-name="Rectangle 125" width="3.614" height="15.2" transform="translate(192.506 367.334)" fill="#fff" opacity="0.3"/>
          <rect id="Rectangle_126" data-name="Rectangle 126" width="3.614" height="15.2" transform="translate(186.308 367.334)" fill="#fff" opacity="0.3"/>
          <rect id="Rectangle_127" data-name="Rectangle 127" width="3.614" height="15.2" transform="translate(180.109 367.334)" fill="#fff" opacity="0.3"/>
          <rect id="Rectangle_128" data-name="Rectangle 128" width="3.614" height="15.2" transform="translate(173.911 367.334)" fill="#fff" opacity="0.3"/>
          <rect id="Rectangle_129" data-name="Rectangle 129" width="3.614" height="15.2" transform="translate(167.712 367.334)" fill="#fff" opacity="0.3"/>
          <rect id="Rectangle_130" data-name="Rectangle 130" width="3.614" height="15.2" transform="translate(161.514 367.334)" fill="#fff" opacity="0.3"/>
          <rect id="Rectangle_131" data-name="Rectangle 131" width="3.614" height="15.2" transform="translate(155.315 367.334)" fill="#fff" opacity="0.3"/>
          <rect id="Rectangle_132" data-name="Rectangle 132" width="3.614" height="15.2" transform="translate(149.116 367.334)" fill="#fff" opacity="0.3"/>
          <rect id="Rectangle_133" data-name="Rectangle 133" width="3.614" height="15.2" transform="translate(142.918 367.334)" fill="#fff" opacity="0.3"/>
          <rect id="Rectangle_134" data-name="Rectangle 134" width="3.614" height="15.2" transform="translate(136.719 367.334)" fill="#fff" opacity="0.3"/>
          <rect id="Rectangle_135" data-name="Rectangle 135" width="3.614" height="15.2" transform="translate(130.521 367.334)" fill="#fff" opacity="0.3"/>
          <rect id="Rectangle_136" data-name="Rectangle 136" width="3.614" height="15.2" transform="translate(124.322 367.334)" fill="#fff" opacity="0.3"/>
          <path id="Path_249" data-name="Path 249" d="M116.756,371.553a2.321,2.321,0,1,0,2.321-2.321A2.321,2.321,0,0,0,116.756,371.553Z" fill="#fff"/>
          <path id="Path_250" data-name="Path 250" d="M116.756,378.316a2.321,2.321,0,1,0,2.321-2.321A2.322,2.322,0,0,0,116.756,378.316Z" fill="#263238" opacity="0.3"/>
        </g>
        <g id="Group_5740" data-name="Group 5740">
          <g id="Group_5737" data-name="Group 5737">
            <g id="Group_5735" data-name="Group 5735">
              <path id="Path_251" data-name="Path 251" d="M189.273,116.4v6.291l-3.716.922a14.451,14.451,0,0,1-1.276,3.068l1.979,3.285-4.449,4.449-3.284-1.979a14.224,14.224,0,0,1-3.069,1.276l-.922,3.716h-6.291l-.922-3.715a14.277,14.277,0,0,1-3.069-1.277l-3.284,1.979-4.449-4.449,1.979-3.284a14.458,14.458,0,0,1-1.276-3.069l-3.716-.922V116.4l3.717-.923a14.46,14.46,0,0,1,1.275-3.067l-1.979-3.285,4.449-4.449,3.286,1.98a14.2,14.2,0,0,1,3.066-1.275l.923-3.718h6.291l.923,3.718a14.19,14.19,0,0,1,3.065,1.275l3.287-1.98,4.449,4.449-1.98,3.286a14.379,14.379,0,0,1,1.275,3.066Zm-17.883-2.879a6.025,6.025,0,1,0,6.026,6.025A6.027,6.027,0,0,0,171.39,113.525Z" fill="#6fb938"/>
            </g>
            <g id="Group_5736" data-name="Group 5736">
              <path id="Path_252" data-name="Path 252" d="M207.128,132.528l-1.333,3.219-2.1-.315a8.005,8.005,0,0,1-1.3,1.3l.316,2.1-3.22,1.334-1.261-1.709a7.926,7.926,0,0,1-1.841,0l-1.26,1.706-3.22-1.334.316-2.1a7.9,7.9,0,0,1-1.3-1.3l-2.1.316-1.334-3.219,1.709-1.262a8.039,8.039,0,0,1,0-1.841l-1.706-1.26,1.334-3.219,2.1.315a8.005,8.005,0,0,1,1.3-1.3l-.317-2.1,3.22-1.334,1.262,1.71a7.863,7.863,0,0,1,1.84,0l1.26-1.708,3.22,1.334-.316,2.1a7.88,7.88,0,0,1,1.3,1.3l2.1-.316,1.333,3.219-1.709,1.262a8.03,8.03,0,0,1,0,1.84Z" fill="#17468f"/>
              <path id="Path_253" data-name="Path 253" d="M207.128,132.528l-1.333,3.219-2.1-.315a8.005,8.005,0,0,1-1.3,1.3l.316,2.1-3.22,1.334-1.261-1.709a7.926,7.926,0,0,1-1.841,0l-1.26,1.706-3.22-1.334.316-2.1a7.9,7.9,0,0,1-1.3-1.3l-2.1.316-1.334-3.219,1.709-1.262a8.039,8.039,0,0,1,0-1.841l-1.706-1.26,1.334-3.219,2.1.315a8.005,8.005,0,0,1,1.3-1.3l-.317-2.1,3.22-1.334,1.262,1.71a7.863,7.863,0,0,1,1.84,0l1.26-1.708,3.22,1.334-.316,2.1a7.88,7.88,0,0,1,1.3,1.3l2.1-.316,1.333,3.219-1.709,1.262a8.03,8.03,0,0,1,0,1.84Z" fill="#17468f" opacity="0.3"/>
            </g>
          </g>
          <g id="Group_5739" data-name="Group 5739">
            <g id="Group_5738" data-name="Group 5738">
              <path id="Path_254" data-name="Path 254" d="M218.517,158.5H141.7a3.893,3.893,0,0,1-3.882-3.881h0a3.894,3.894,0,0,1,3.882-3.882h76.816a3.894,3.894,0,0,1,3.882,3.882h0A3.893,3.893,0,0,1,218.517,158.5Z" fill="#6fb938"/>
              <path id="Path_255" data-name="Path 255" d="M141.7,157.582a2.962,2.962,0,1,1,0-5.924h27.15a2.962,2.962,0,1,1,0,5.924Z" fill="#fff"/>
            </g>
            <path id="Path_256" data-name="Path 256" d="M175.161,163.263l4.948,4.948,4.948-4.948Z" fill="#17468f"/>
          </g>
        </g>
      </g>
    </g>
    <g id="Character">
      <g id="Group_5750" data-name="Group 5750">
        <g id="Group_5746" data-name="Group 5746">
          <path id="Path_257" data-name="Path 257" d="M248.506,415.715h-2.138a4.742,4.742,0,0,1-4.737-4.737V396.257a.9.9,0,0,0-.9-.9H236.58v-1.011h4.152a1.913,1.913,0,0,1,1.911,1.911v14.721a3.73,3.73,0,0,0,3.725,3.725h2.138a3.731,3.731,0,0,0,3.726-3.725v-175.5a1.914,1.914,0,0,1,1.912-1.912h10.937v1.012H254.144a.9.9,0,0,0-.9.9v175.5A4.742,4.742,0,0,1,248.506,415.715Z" fill="#17468f"/>
          <g id="Group_5742" data-name="Group 5742">
            <rect id="Rectangle_137" data-name="Rectangle 137" width="104.937" height="3.007" transform="translate(234.826 235.141)" fill="#143b77"/>
            <rect id="Rectangle_138" data-name="Rectangle 138" width="34.417" height="3.007" transform="translate(234.826 235.141)" opacity="0.2"/>
          </g>
          <g id="Group_5743" data-name="Group 5743">
            <rect id="Rectangle_139" data-name="Rectangle 139" width="7.423" height="177.062" transform="translate(286.319 238.148)" fill="#17468f"/>
            <path id="Path_258" data-name="Path 258" d="M293.742,238.148h-7.423V415.209h2.435V242.632l4.989-1.013Z" opacity="0.2"/>
          </g>
          <g id="Group_5745" data-name="Group 5745">
            <path id="Path_259" data-name="Path 259" d="M316.223,191.657H258.65a3.187,3.187,0,0,0-3.219,3.69l4.342,34.079a4.33,4.33,0,0,0,4.16,3.69h57.573a3.188,3.188,0,0,0,3.22-3.69l-4.343-34.079A4.331,4.331,0,0,0,316.223,191.657Z" fill="#17468f"/>
            <path id="Path_260" data-name="Path 260" d="M334.317,233h-72.1a1.846,1.846,0,0,0-1.864,2.137h76.377A2.509,2.509,0,0,0,334.317,233Z" fill="#061e43"/>
            <path id="Path_261" data-name="Path 261" d="M279.318,233h-17.1a1.846,1.846,0,0,0-1.864,2.137h21.378A2.508,2.508,0,0,0,279.318,233Z" fill="#143b77" opacity="0.2"/>
            <path id="Path_262" data-name="Path 262" d="M264.27,231.091a2.3,2.3,0,0,1-2.151-1.92l-4.343-34.08a1.277,1.277,0,0,1,.273-1.023,1.2,1.2,0,0,1,.939-.386h57.573a2.3,2.3,0,0,1,2.152,1.921l4.342,34.08a1.279,1.279,0,0,1-.272,1.022,1.208,1.208,0,0,1-.94.386Z" fill="#fff"/>
            <g id="Group_5744" data-name="Group 5744">
              <path id="Path_263" data-name="Path 263" d="M294.92,207.93l.645,3.79-2.258.564a7.24,7.24,0,0,1-.493,1.851l1.59,1.975-2.36,2.69-2.282-1.185a7.76,7.76,0,0,1-1.812.776l-.2,2.241-3.983.014-.965-2.236a10.984,10.984,0,0,1-2.073-.762l-1.876,1.2-3.273-2.67.916-1.983a10.422,10.422,0,0,1-1.123-1.845l-2.447-.547-.645-3.79,2.258-.565a7.286,7.286,0,0,1,.493-1.85l-1.59-1.975,2.36-2.69,2.284,1.185a7.76,7.76,0,0,1,1.81-.775l.2-2.242,3.983-.014.966,2.237a10.937,10.937,0,0,1,2.071.761l1.878-1.2,3.272,2.67-.916,1.984a10.357,10.357,0,0,1,1.122,1.845ZM283.3,206.236a3.072,3.072,0,0,0-3.2,3.644,4.58,4.58,0,0,0,4.432,3.617,3.073,3.073,0,0,0,3.2-3.644A4.581,4.581,0,0,0,283.3,206.236Z" fill="#e4ecf8"/>
            </g>
            <path id="Path_264" data-name="Path 264" d="M307.877,217.6l-.514,1.942L306,219.36a3.839,3.839,0,0,1-.692.786l.416,1.265-1.9.81-.973-1.026a5.278,5.278,0,0,1-1.166.006l-.622,1.03-2.175-.8-.015-1.264a6.229,6.229,0,0,1-.957-.782l-1.3.195-1.175-1.937.953-.764a4.784,4.784,0,0,1-.191-1.109L295,215.02l.514-1.943,1.36.185a3.863,3.863,0,0,1,.692-.785l-.416-1.266,1.9-.81.974,1.027a5.2,5.2,0,0,1,1.164-.006l.623-1.031,2.175.8.015,1.265a6.166,6.166,0,0,1,.956.781l1.3-.2,1.175,1.937-.953.764a4.781,4.781,0,0,1,.19,1.108Z" fill="#e4ecf8"/>
          </g>
        </g>
        <g id="Group_5749" data-name="Group 5749">
          <path id="Path_265" data-name="Path 265" d="M355.765,147.335c-.76,5.29-1.3,14.939,2.546,18.247a26.688,26.688,0,0,1-12.078,11.3c-7.23-4.032-4.2-10.473-4.2-10.473,5.77-1.693,5.4-6.018,4.174-10.036Z" fill="#ffc3bd"/>
          <g id="Group_5747" data-name="Group 5747">
            <path id="Path_266" data-name="Path 266" d="M358.233,162.71a2.71,2.71,0,0,1-3.207-1.338,2.765,2.765,0,0,0-1.925.869,2.755,2.755,0,0,0-4.1.38,2.751,2.751,0,0,0-4.3.838,2.731,2.731,0,0,0-1.24-.259,2.775,2.775,0,1,0,2.56,4.014,2.731,2.731,0,0,0,1.24.259,2.761,2.761,0,0,0,2.122-1.12,2.761,2.761,0,0,0,3.845-.174,9.614,9.614,0,0,1,5.184,2.078,2.775,2.775,0,1,0-.183-5.547Z" fill="#17468f"/>
            <path id="Path_267" data-name="Path 267" d="M358.233,162.71a2.71,2.71,0,0,1-3.207-1.338,2.765,2.765,0,0,0-1.925.869,2.755,2.755,0,0,0-4.1.38,2.751,2.751,0,0,0-4.3.838,2.731,2.731,0,0,0-1.24-.259,2.775,2.775,0,1,0,2.56,4.014,2.731,2.731,0,0,0,1.24.259,2.761,2.761,0,0,0,2.122-1.12,2.761,2.761,0,0,0,3.845-.174,9.614,9.614,0,0,1,5.184,2.078,2.775,2.775,0,1,0-.183-5.547Z" fill="#17468f" opacity="0.5"/>
          </g>
          <path id="Path_268" data-name="Path 268" d="M333.115,143.857c.2.683,0,1.345-.444,1.477s-.973-.316-1.174-1,0-1.345.443-1.477S332.913,143.173,333.115,143.857Z" fill="#263238"/>
          <path id="Path_269" data-name="Path 269" d="M332.149,142.837l-1.782.012S331.588,143.883,332.149,142.837Z" fill="#263238"/>
          <path id="Path_270" data-name="Path 270" d="M330.888,140.066a.419.419,0,0,1-.379-.67,4.155,4.155,0,0,1,3.415-1.715.419.419,0,0,1-.061.836,3.307,3.307,0,0,0-2.688,1.387A.421.421,0,0,1,330.888,140.066Z" fill="#263238"/>
          <path id="Path_271" data-name="Path 271" d="M334.091,145.938a19.059,19.059,0,0,1-1.148,5.083,3.066,3.066,0,0,0,2.572-.262Z" fill="#ed847e"/>
          <path id="Path_272" data-name="Path 272" d="M355.359,134.234c1.963,8.548,2.977,12.125.009,17.687-4.464,8.366-15.394,8.908-19.872,1.119-4.031-7.011-6.566-19.813.666-25.582A11.964,11.964,0,0,1,355.359,134.234Z" fill="#ffc3bd"/>
          <path id="Path_273" data-name="Path 273" d="M338.814,142.388c.465-3.251-3.962.807-5.114-4.142-.666-2.862-4.086-2.312-3.255-6.827s4.46-4.152,4.879-5.876c.706-2.907,2.647-4.353,5.623-5.063,4.712-1.123,5.671,3.2,9.375,2.134,3.457-.993,8.365-.249,10.125,3.348s-.959,7.644.837,9.317a9.484,9.484,0,0,1,.5,13.436c-3.025,3.156,1.531,5.245-1.84,6.972s-7.54,1.637-9.183-2.82C349.635,149.823,337.339,152.712,338.814,142.388Z" fill="#263238"/>
          <path id="Path_274" data-name="Path 274" d="M340.189,142.5a6.41,6.41,0,0,1-.532,4.867c-1.1,1.963-3.232,1.368-4.259-.5-.924-1.68-1.468-4.725.272-6.06A2.879,2.879,0,0,1,340.189,142.5Z" fill="#ffc3bd"/>
          <path id="Path_275" data-name="Path 275" d="M366.118,178.021c-1.551,6.069-3.38,11.9-5.432,17.743-1.029,2.915-2.1,5.82-3.276,8.694-.593,1.436-1.182,2.874-1.812,4.3l-.96,2.135L353.6,213.08l-.522,1.093-.783,1.308a22.767,22.767,0,0,1-1.671,2.23,29.475,29.475,0,0,1-3.794,3.649,45.209,45.209,0,0,1-8.385,5.208A75.359,75.359,0,0,1,320.48,232.5l-1.139-4.329c2.7-1.028,5.481-2.2,8.124-3.47a70.765,70.765,0,0,0,7.688-4.147c4.847-3,9.353-6.6,11.008-10.966l.809-1.982.8-2.071c.539-1.378,1.047-2.775,1.556-4.17q1.491-4.2,2.9-8.463c1.819-5.676,3.559-11.474,5.151-17.15Z" fill="#ffc3bd"/>
          <path id="Path_276" data-name="Path 276" d="M321.438,227.525l-7.727-1.3,1.181,7.1s6.851.443,9.06-2.492Z" fill="#ffc3bd"/>
          <path id="Path_277" data-name="Path 277" d="M307.876,229.489,307.131,233l7.761.323-1.181-7.1Z" fill="#ffc3bd"/>
          <path id="Path_278" data-name="Path 278" d="M328.454,172.917a72.452,72.452,0,0,0,.422,8.269c.755,7.893,2.823,20.821,7.272,40.065l33.421-2.091c-1.368-12.718-1.839-20.108,1.564-42.283a10.509,10.509,0,0,0-9.778-12.106l-.626-.033a114.125,114.125,0,0,0-16.3,0c-3.51.32-7.256.889-10.119,1.376A7.046,7.046,0,0,0,328.454,172.917Z" fill="#6fb938"/>
          <path id="Path_279" data-name="Path 279" d="M357.432,157.493c3.857,6.773-16.5,14.79-2.928,18.088s.987,5.658,3.785,14.957c2.435,8.089,12.968-2.635,9.476-12.212-4.018-11.021,4.485-10.962-5.561-21C358.355,153.485,357.432,157.493,357.432,157.493Z" fill="#263238"/>
          <path id="Path_280" data-name="Path 280" d="M361.451,157.963l-2.623.22A3.818,3.818,0,0,1,355.105,156h0a1.931,1.931,0,0,1,1.881-2.651l2.623-.219a3.818,3.818,0,0,1,3.723,2.182h0A1.93,1.93,0,0,1,361.451,157.963Z" fill="#6fb938"/>
          <path id="Path_281" data-name="Path 281" d="M335.471,175.415l-6.124,9.95c.476,3.715,1.154,8.159,2.106,13.392l4.372-2.6C337.962,180.415,335.471,175.415,335.471,175.415Z" opacity="0.2"/>
          <path id="Path_282" data-name="Path 282" d="M336.562,178.021c-1.52,5.943-3.3,11.653-5.306,17.379-1.01,2.853-2.027,5.705-3.186,8.518-.555,1.412-1.165,2.813-1.751,4.218-.632,1.4-1.22,2.767-1.925,4.215l-.511,1.072a11.109,11.109,0,0,1-.581,1.131c-.253.416-.509.873-.772,1.246l-.8,1.109a26.308,26.308,0,0,1-3.627,3.762,39.824,39.824,0,0,1-8.2,5.321,66.741,66.741,0,0,1-17.733,5.673l-1.046-4.352c2.636-.958,5.37-2.085,7.951-3.3a63.677,63.677,0,0,0,7.47-4.045,36.466,36.466,0,0,0,6.359-4.945,19.871,19.871,0,0,0,2.363-2.837l.46-.737c.152-.244.234-.452.362-.675a8,8,0,0,0,.385-.878l.4-.968c2.156-5.258,4.08-10.848,5.9-16.384,1.777-5.559,3.479-11.238,5.037-16.794Z" fill="#ffc3bd"/>
          <path id="Path_283" data-name="Path 283" d="M337.61,173.316a21.381,21.381,0,0,0-5.035-6.669c-5.95,2.686-8.046,5.616-11.432,22.509,4.933,4.317,13.126,4.317,13.126,4.317l4.41-11.367S339.122,176.933,337.61,173.316Z" fill="#6fb938"/>
          <path id="Path_284" data-name="Path 284" d="M291.883,227.525l-7.631-1,2.327,6.381s5.609.867,7.818-2.068Z" fill="#ffc3bd"/>
          <path id="Path_285" data-name="Path 285" d="M280.25,229.489,278.083,233l8.5-.1-2.327-6.381Z" fill="#ffc3bd"/>
          <path id="Path_286" data-name="Path 286" d="M337.239,221.179S333,282.962,332.308,312.8a25.568,25.568,0,0,0,2.057,10.594c13.283,31.261,40.118,65.74,40.118,65.74l5.367-5.444s-17.8-39.9-29.993-69.842c7.25-29.563,11.806-94.161,11.806-94.161Z" fill="#ffc3bd"/>
          <path id="Path_287" data-name="Path 287" d="M372.773,367.668c-4.4-10.064-10.3-23.639-15.945-37.037l-.1,32.607a3.222,3.222,0,0,0,.516,1.5c7.769,11.849,14.531,20.855,16.587,23.556Z" opacity="0.2"/>
          <path id="Path_288" data-name="Path 288" d="M343.114,220.908s5.807,63.711,10.707,90.219c5.147,27.84,9,94.186,9.052,96.216h6.117s8.378-74.576.558-99.541c-1.291-30.483.021-88.642.021-88.642Z" fill="#ffc3bd"/>
          <path id="Path_289" data-name="Path 289" d="M372.455,387.6l6.506-5.737a.7.7,0,0,1,.934-.026l5.907,5.175a1.468,1.468,0,0,1-.1,2.161c-2.73,2.326-2.942,2.25-6.337,5.241-2.089,1.84-5.365,4.878-8.249,7.419-2.821,2.486-5.385-.1-4.4-1.411,4.432-5.873,4.371-8.316,4.932-11.4A2.5,2.5,0,0,1,372.455,387.6Z" fill="#263238"/>
          <path id="Path_290" data-name="Path 290" d="M362.147,406.094h6.971a.7.7,0,0,1,.707.612l1.035,7.962a1.463,1.463,0,0,1-1.458,1.593c-3.508-.061-2.1-.267-6.53-.267-2.722,0-6.7.283-10.463.283-3.678,0-3.908-3.718-2.338-4.054,7.04-1.51,8.178-3.592,10.571-5.578A2.369,2.369,0,0,1,362.147,406.094Z" fill="#263238"/>
          <path id="Path_291" data-name="Path 291" d="M336.148,221.251l-6.7,92.179,43.436-11.7c-3.782-38.057,10.2-63.577-3.316-82.565Z" fill="#263238"/>
          <g id="Group_5748" data-name="Group 5748">
            <path id="Path_292" data-name="Path 292" d="M370.2,220.778l-34.2,2.459a.579.579,0,0,1-.619-.536l-.112-1.559a.579.579,0,0,1,.536-.619l33.951-2.44a.578.578,0,0,1,.605.443l.366,1.541A.579.579,0,0,1,370.2,220.778Z" fill="#59942d"/>
            <path id="Path_293" data-name="Path 293" d="M370.2,220.778l-34.2,2.459a.579.579,0,0,1-.619-.536l-.112-1.559a.579.579,0,0,1,.536-.619l33.951-2.44a.578.578,0,0,1,.605.443l.366,1.541A.579.579,0,0,1,370.2,220.778Z" fill="#59942d" opacity="0.7"/>
          </g>
          <path id="Path_294" data-name="Path 294" d="M365.473,239.663a56.125,56.125,0,0,1-17.423,12.869C359.271,251.113,364.017,246.518,365.473,239.663Z" opacity="0.2"/>
        </g>
      </g>
    </g>
  </g>
</svg>
