<svg xmlns="http://www.w3.org/2000/svg" width="49.24" height="42.608" viewBox="0 0 49.24 42.608">
  <g id="hospital" transform="translate(0 -26.184)">
    <g id="Group_7269" data-name="Group 7269" transform="translate(14.488 40.372)">
      <g id="Group_7268" data-name="Group 7268">
        <path id="Path_3127" data-name="Path 3127" d="M133.154,143.87H129.02v-4.134a1.51,1.51,0,0,0-1.5-1.52h-5.968a1.51,1.51,0,0,0-1.51,1.51v4.134H115.92a1.51,1.51,0,0,0-1.52,1.5v5.968a1.51,1.51,0,0,0,1.51,1.51h4.134v4.124a1.51,1.51,0,0,0,1.5,1.52H127.5a1.51,1.51,0,0,0,1.51-1.51h0v-4.134h4.134a1.51,1.51,0,0,0,1.52-1.5v-5.957A1.51,1.51,0,0,0,133.154,143.87Z" transform="translate(-114.4 -138.216)" fill="#17468f"/>
      </g>
    </g>
    <g id="Group_7271" data-name="Group 7271" transform="translate(0 26.184)">
      <g id="Group_7270" data-name="Group 7270" transform="translate(0 0)">
        <path id="Path_3128" data-name="Path 3128" d="M42.249,32.794H33.9V29.227a2.948,2.948,0,0,0-2.852-3.042q-.124,0-.249,0H18.44a2.948,2.948,0,0,0-3.1,2.791q-.006.124,0,.249v3.546H6.991C3.769,32.774,0,34.607,0,39.764V61.8c0,5.157,3.769,6.991,6.991,6.991H42.249c3.222,0,6.991-1.834,6.991-6.991V39.785C49.24,34.628,45.481,32.794,42.249,32.794ZM17.366,29.227a.95.95,0,0,1,1.084-1.084H30.8c1.084,0,1.084.78,1.084,1.084v3.546H17.366ZM47.214,61.8c0,4.478-3.465,4.965-4.965,4.965H6.991c-1.489,0-4.965-.486-4.965-4.965V39.785c0-4.478,3.465-4.965,4.965-4.965H42.249c1.489,0,4.965.486,4.965,4.965V61.8Z" transform="translate(0 -26.184)" fill="#6fb938"/>
      </g>
    </g>
  </g>
</svg>
