<svg xmlns="http://www.w3.org/2000/svg" width="20" height="20" viewBox="0 0 20 20"><g><g><path fill="#fff" d="M17.937 13.893c-.043.964-.205 1.484-.34 1.831a3.273 3.273 0 0 1-1.873 1.873c-.347.135-.87.297-1.83.34-1.041.046-1.353.057-3.986.057-2.632 0-2.948-.011-3.985-.058-.964-.042-1.484-.204-1.83-.339a3.036 3.036 0 0 1-1.134-.736 3.067 3.067 0 0 1-.736-1.133c-.135-.347-.297-.871-.34-1.83-.045-1.041-.057-1.354-.057-3.986 0-2.633.012-2.949.058-3.985.042-.964.204-1.484.339-1.831.158-.428.409-.817.74-1.133.32-.328.705-.578 1.133-.736.347-.135.871-.297 1.83-.34 1.042-.046 1.354-.057 3.986-.057 2.636 0 2.949.011 3.985.058.964.042 1.484.204 1.831.339.428.158.817.408 1.133.736.328.32.578.705.736 1.133.135.347.297.871.34 1.83.046 1.041.057 1.353.057 3.986 0 2.632-.011 2.94-.057 3.981zm1.776-8.055c-.046-1.048-.215-1.769-.458-2.393a4.815 4.815 0 0 0-1.141-1.75A4.855 4.855 0 0 0 16.368.558C15.74.315 15.023.145 13.974.099c-1.056-.05-1.39-.062-4.07-.062-2.678 0-3.014.012-4.066.058C4.79.142 4.07.311 3.445.554a4.814 4.814 0 0 0-1.75 1.14A4.858 4.858 0 0 0 .558 3.442C.315 4.069.146 4.786.099 5.834.05 6.89.038 7.226.038 9.904c0 2.679.011 3.014.057 4.066.047 1.049.216 1.77.46 2.394.25.663.639 1.256 1.14 1.75.493.5 1.09.89 1.746 1.137.628.242 1.345.412 2.393.458 1.053.047 1.388.058 4.067.058 2.678 0 3.014-.011 4.066-.058 1.048-.046 1.769-.216 2.393-.458a5.046 5.046 0 0 0 2.887-2.887c.243-.628.412-1.345.459-2.394.046-1.052.057-1.387.057-4.066 0-2.678-.004-3.014-.05-4.066z"/></g><g><path fill="#fff" d="M9.904 13.192a3.288 3.288 0 1 1 .001-6.576 3.288 3.288 0 0 1 0 6.576zm0-8.356a5.07 5.07 0 0 0-5.068 5.068 5.07 5.07 0 1 0 5.068-5.068z"/></g><g><path fill="#fff" d="M16.356 4.636a1.183 1.183 0 1 1-2.366 0 1.183 1.183 0 0 1 2.366 0z"/></g></g></svg>