<svg xmlns="http://www.w3.org/2000/svg" width="19" height="19" viewBox="0 0 19 19"><g><g><path fill="#fff" d="M18.635 18.64v-.001h.005v-6.836c0-3.344-.72-5.92-4.63-5.92-1.88 0-3.14 1.03-3.656 2.009H10.3V6.195H6.593v12.444h3.86v-6.162c0-1.622.307-3.191 2.317-3.191 1.98 0 2.009 1.851 2.009 3.295v6.059z"/></g><g><path fill="#fff" d="M.307 6.195h3.865V18.64H.307z"/></g><g><path fill="#fff" d="M2.238 0A2.239 2.239 0 0 0 0 2.238c0 1.236 1.003 2.26 2.238 2.26 1.236 0 2.239-1.024 2.239-2.26A2.24 2.24 0 0 0 2.238 0z"/></g></g></svg>