<svg xmlns="http://www.w3.org/2000/svg" width="278.876" height="266.465" viewBox="0 0 278.876 266.465">
  <g id="Group_5840" data-name="Group 5840" transform="translate(-160.315 -102.301)">
    <g id="Group_5838" data-name="Group 5838" transform="translate(162.773 102.301)">
      <g id="Group_5827" data-name="Group 5827" transform="translate(2.472 0)">
        <circle id="Ellipse_16" data-name="Ellipse 16" cx="94.21" cy="94.21" r="94.21" transform="translate(0 133.232) rotate(-45)" fill="#17468f" opacity="0.08"/>
      </g>
      <g id="Group_5837" data-name="Group 5837" transform="translate(0 12.36)">
        <g id="Group_5828" data-name="Group 5828" transform="translate(1.621)">
          <path id="Path_1682" data-name="Path 1682" d="M163.011,110.469l27.646,64.866,20.206-13.823,11.71,17.015,2.113-28.7,24.454-14.9Z" transform="translate(-164.011 -110.469)" fill="#17468f"/>
          <path id="Path_1683" data-name="Path 1683" d="M207.64,152.965l-24.685,16.893,20.206-13.823,11.71,17.015,2.113-28.7-38.967-23.207Z" transform="translate(-155.309 -104.992)" fill="#17468f"/>
          <path id="Path_1684" data-name="Path 1684" d="M216.466,151.383l-38.449-30.242,38.967,23.207Z" transform="translate(-155.309 -104.992)" fill="#143b77"/>
        </g>
        <g id="Group_5829" data-name="Group 5829" transform="translate(23.751 71.893)">
          <path id="Path_1685" data-name="Path 1685" d="M202.977,162.233c-.218-1.264-.495-2.524-.822-3.748l1.9-.507c.342,1.28.631,2.6.86,3.921Z" transform="translate(-165.05 -157.978)" fill="#6fb938"/>
          <path id="Path_1686" data-name="Path 1686" d="M192.669,202.244a16.218,16.218,0,0,1-7.881-2.63l1.085-1.634a14.266,14.266,0,0,0,6.926,2.306Zm8.152-1.6-.866-1.76a19.752,19.752,0,0,0,5.87-4.623l1.46,1.31A21.63,21.63,0,0,1,200.821,200.643Zm-21.494-7.3a16.181,16.181,0,0,1-1.692-7.13c0-.2,0-.4.012-.6l.024-.425,1.957.144-.02.357c-.006.177-.011.35-.011.521a14.193,14.193,0,0,0,1.489,6.262Zm75.928-.448-.009-1.963c2.556-.012,5.186-.117,7.818-.31l.144,1.957C260.531,192.781,257.856,192.887,255.255,192.9Zm-7.96-.257-1.253-.1c-2.412-.2-4.6-.472-6.683-.834l.333-1.934c2.028.351,4.158.616,6.512.813l1.227.092Zm23.819-.893-.265-1.945c2.524-.344,5.125-.773,7.733-1.276l.371,1.926C276.312,190.965,273.674,191.4,271.114,191.749Zm-39.552-1.984a38.008,38.008,0,0,1-6.428-2.848c-.307-.173-.614-.353-.917-.536l1.014-1.681c.286.173.574.342.866.505a36.054,36.054,0,0,0,6.1,2.7Zm-19.585-.781-1.7-.978a44.07,44.07,0,0,0,3.237-7l1.846.666A46.21,46.21,0,0,1,211.977,188.985Zm74.732-.218-.462-1.907c2.455-.6,5.009-1.273,7.591-2.011l.54,1.887C291.77,187.482,289.191,188.164,286.709,188.767Zm15.249-4.346-.605-1.867q3.741-1.212,7.445-2.532l.657,1.851Q305.728,183.2,301.958,184.421Zm-84.295-2.586a54.31,54.31,0,0,0-5.843-3.844l-.657-.348.9-1.745c.235.12.468.245.7.371a56.833,56.833,0,0,1,6.058,3.98Zm-35.286-2.951-1.372-1.4a16.764,16.764,0,0,1,7.223-3.875l.66,1.851A15.283,15.283,0,0,0,182.378,178.884ZM204,175.052a31.177,31.177,0,0,0-6.8-.752l-.8.009-.048-1.961a33.2,33.2,0,0,1,8.075.79Zm13.435-1.156-1.932-.344a45.56,45.56,0,0,0,.7-7.684l1.963.009A47.467,47.467,0,0,1,217.431,173.9Z" transform="translate(-177.635 -153.928)" fill="#6fb938"/>
          <path id="Path_1687" data-name="Path 1687" d="M269.946,175.717l-.7-1.834q1.832-.7,3.659-1.415l.713,1.83Q271.788,175.013,269.946,175.717Z" transform="translate(-130.614 -150.541)" fill="#6fb938"/>
        </g>
        <path id="Path_1688" data-name="Path 1688" d="M311.2,213.184a1.962,1.962,0,0,1-.189-3.915,46.617,46.617,0,0,0,30.724-15.942,1.962,1.962,0,0,1,2.958,2.577,50.5,50.5,0,0,1-33.3,17.271Q311.294,213.184,311.2,213.184Z" transform="translate(-86.336 -68.287)" fill="#6fb938"/>
        <g id="Group_5833" data-name="Group 5833" transform="translate(64.21 55.085)">
          <g id="Group_5832" data-name="Group 5832">
            <path id="Path_1689" data-name="Path 1689" d="M341.108,223.979,272.739,264.3l-68.368-40.318a.391.391,0,0,1,.011-.11c.056-.256,3.83-3.406,9.585-8.082.054-.044.1-.088.156-.133,18.878-15.328,58.616-46.717,58.616-46.717s39.74,31.39,58.618,46.717c5.844,4.743,9.685,7.948,9.741,8.215A.39.39,0,0,1,341.108,223.979Z" transform="translate(-204.371 -135.546)" fill="#143b77"/>
            <g id="Group_5830" data-name="Group 5830" transform="translate(11.263)">
              <path id="Path_1690" data-name="Path 1690" d="M297.036,146.871H223.271a11.458,11.458,0,0,0-11.457,11.457V269.86a11.456,11.456,0,0,0,11.457,11.455H315.7a11.456,11.456,0,0,0,11.457-11.455V176.992Z" transform="translate(-211.814 -146.871)" fill="#fff"/>
              <path id="Path_1691" data-name="Path 1691" d="M268.131,165.537a11.455,11.455,0,0,0,11.457,11.455h18.665l-30.121-30.121Z" transform="translate(-182.909 -146.871)" fill="#e6e8e8"/>
              <rect id="Rectangle_180" data-name="Rectangle 180" width="33.611" height="33.611" rx="2.697" transform="translate(17.449 18.853)" fill="#17468f"/>
              <path id="Path_1692" data-name="Path 1692" d="M287.724,187.713H226.659A3.289,3.289,0,0,0,223.371,191h0a3.289,3.289,0,0,0,3.288,3.288h61.065A3.289,3.289,0,0,0,291.012,191h0A3.289,3.289,0,0,0,287.724,187.713Z" transform="translate(-205.882 -125.908)" fill="#d9dbdb"/>
              <path id="Path_1693" data-name="Path 1693" d="M287.724,198.537H226.659a3.289,3.289,0,0,0-3.288,3.288h0a3.289,3.289,0,0,0,3.288,3.288h61.065a3.289,3.289,0,0,0,3.288-3.288h0A3.289,3.289,0,0,0,287.724,198.537Z" transform="translate(-205.882 -120.353)" fill="#d9dbdb"/>
              <path id="Path_1694" data-name="Path 1694" d="M259.992,209.037H226.659a3.289,3.289,0,0,0-3.288,3.288h0a3.289,3.289,0,0,0,3.288,3.288h33.333a3.289,3.289,0,0,0,3.288-3.288h0A3.289,3.289,0,0,0,259.992,209.037Z" transform="translate(-205.882 -114.964)" fill="#d9dbdb"/>
            </g>
            <g id="Group_5831" data-name="Group 5831" transform="translate(0.008 88.432)">
              <path id="Path_1695" data-name="Path 1695" d="M341.113,205.309V270.9a8.353,8.353,0,0,1-8.332,8.331h-120.1a8.333,8.333,0,0,1-8.309-8.331V205.309l68.368,40.31Z" transform="translate(-204.376 -205.309)" fill="#17468f"/>
              <path id="Path_1696" data-name="Path 1696" d="M338.022,267.36l-44-44-22.054,13L249.9,223.351l-44.007,44.007a8.257,8.257,0,0,0,6.011,2.612H332A8.289,8.289,0,0,0,338.022,267.36Z" transform="translate(-203.596 -196.049)" fill="#143b77"/>
            </g>
          </g>
        </g>
        <g id="Group_5836" data-name="Group 5836" transform="translate(177.844 53.273)">
          <g id="Group_5835" data-name="Group 5835">
            <path id="Path_1697" data-name="Path 1697" d="M316.382,145.877a41.243,41.243,0,0,0-36.812,37.88,40.782,40.782,0,0,0,7.2,26.313,9.961,9.961,0,0,1,.949,9.494l-3.246,7.814,13.267-3.44a10,10,0,0,1,6.495.5,41.074,41.074,0,1,0,12.142-78.564Z" transform="translate(-279.463 -145.673)" fill="#6fb938"/>
            <g id="Group_5834" data-name="Group 5834" transform="translate(19.58 23.746)">
              <path id="Path_1698" data-name="Path 1698" d="M314.91,198.628l2.258-2.256s-1.793-4.227,5.725-11.351c4.473-4.242,5.475-8.349,5.11-11.705a11.734,11.734,0,0,0-10.287-10.289c-3.358-.363-7.465.637-11.705,5.112-7.126,7.516-11.351,5.723-11.351,5.723L292.4,176.12Z" transform="translate(-292.402 -160.547)" fill="#fff"/>
              <path id="Path_1699" data-name="Path 1699" d="M296.175,177.42a6.22,6.22,0,0,0,8.7,8.694Z" transform="translate(-291.083 -153.125)" fill="#fff"/>
              <path id="Path_1700" data-name="Path 1700" d="M318.917,166.586l-1.406,1.406a13.592,13.592,0,0,0-4.332-4.31l1.416-1.418a3.056,3.056,0,1,1,4.322,4.322Z" transform="translate(-281.738 -161.365)" fill="#fff"/>
            </g>
          </g>
          <path id="Path_1701" data-name="Path 1701" d="M318.174,145.7a35.476,35.476,0,1,1-36.264,58,41.036,41.036,0,0,0,3.609,6.371,9.961,9.961,0,0,1,.949,9.494l-3.246,7.814,13.267-3.44a10,10,0,0,1,6.495.5,41.066,41.066,0,1,0,15.19-78.739Z" transform="translate(-278.208 -145.668)" fill="#60a52d"/>
        </g>
        <path id="Path_1702" data-name="Path 1702" d="M165.9,123.6l8.968,20.577a2.068,2.068,0,0,1-1.077,2.722l-.319.138a2.069,2.069,0,0,1-2.725-1.094L162.1,125.229a2.068,2.068,0,0,1,1.189-2.742h0A2.066,2.066,0,0,1,165.9,123.6Z" transform="translate(-161.939 -104.367)" fill="#17468f"/>
      </g>
    </g>
    <g id="Group_5839" data-name="Group 5839" transform="translate(160.315 108.314)">
      <path id="Path_1703" data-name="Path 1703" d="M190.01,218.877a6.593,6.593,0,1,0,6.592,6.593A6.592,6.592,0,0,0,190.01,218.877Zm0,9.261a2.669,2.669,0,1,1,2.668-2.668A2.669,2.669,0,0,1,190.01,228.138Z" transform="translate(-148.457 -48.481)" fill="#6fb938" opacity="0.33"/>
      <path id="Path_1704" data-name="Path 1704" d="M306.757,236.507a6.593,6.593,0,1,0,6.592,6.592A6.592,6.592,0,0,0,306.757,236.507Zm0,9.261a2.669,2.669,0,1,1,2.668-2.669A2.67,2.67,0,0,1,306.757,245.768Z" transform="translate(-88.536 -39.432)" fill="#6fb938" opacity="0.33"/>
      <path id="Path_1705" data-name="Path 1705" d="M341.876,168.839a5.048,5.048,0,1,0,5.048,5.048A5.048,5.048,0,0,0,341.876,168.839Zm0,7.091a2.043,2.043,0,1,1,2.043-2.043A2.043,2.043,0,0,1,341.876,175.93Z" transform="translate(-69.717 -74.163)" fill="#6fb938" opacity="0.33"/>
      <path id="Path_1706" data-name="Path 1706" d="M283.237,115.477a5.337,5.337,0,1,0,5.337,5.337A5.337,5.337,0,0,0,283.237,115.477Zm0,7.5a2.16,2.16,0,1,1,2.159-2.161A2.16,2.16,0,0,1,283.237,122.975Z" transform="translate(-99.963 -101.552)" fill="#6fb938" opacity="0.33"/>
      <path id="Path_1707" data-name="Path 1707" d="M170.511,197.656a5.611,5.611,0,1,0,5.613,5.611A5.611,5.611,0,0,0,170.511,197.656Z" transform="translate(-157.961 -59.372)" fill="#6fb938" opacity="0.33"/>
      <path id="Path_1708" data-name="Path 1708" d="M318.768,209.931a4.081,4.081,0,1,0,4.081,4.081A4.081,4.081,0,0,0,318.768,209.931Z" transform="translate(-81.082 -53.072)" fill="#6fb938" opacity="0.33"/>
      <path id="Path_1709" data-name="Path 1709" d="M230.091,116.586a5.965,5.965,0,1,0,5.965,5.965A5.965,5.965,0,0,0,230.091,116.586Z" transform="translate(-127.563 -100.982)" fill="#6fb938" opacity="0.33"/>
      <path id="Path_1710" data-name="Path 1710" d="M250.646,259.374a4.347,4.347,0,1,0,4.346,4.348A4.347,4.347,0,0,0,250.646,259.374Z" transform="translate(-116.183 -27.695)" fill="#6fb938" opacity="0.33"/>
      <path id="Path_1711" data-name="Path 1711" d="M306.5,131.79a5.1,5.1,0,1,0,5.1,5.1A5.1,5.1,0,0,0,306.5,131.79Z" transform="translate(-87.901 -93.179)" fill="#6fb938" opacity="0.33"/>
      <circle id="Ellipse_17" data-name="Ellipse 17" cx="2.904" cy="2.904" r="2.904" transform="translate(34.987 78.276)" fill="#6fb938" opacity="0.33"/>
      <path id="Path_1712" data-name="Path 1712" d="M343.009,152.026a4.954,4.954,0,1,0,4.954,4.956A4.955,4.955,0,0,0,343.009,152.026Z" transform="translate(-69.088 -82.792)" fill="#6fb938" opacity="0.33"/>
      <circle id="Ellipse_18" data-name="Ellipse 18" cx="3.161" cy="3.161" r="3.161" transform="translate(6.606 95.451)" fill="#6fb938" opacity="0.33"/>
      <path id="Path_1713" data-name="Path 1713" d="M257.134,111.279l1.985-1.985a1.769,1.769,0,0,0-2.5-2.5l-1.985,1.985-1.985-1.985a1.77,1.77,0,0,0-2.5,2.5l1.985,1.985-1.985,1.985a1.77,1.77,0,1,0,2.5,2.5l1.985-1.985,1.985,1.985a1.769,1.769,0,0,0,2.5-2.5Z" transform="translate(-114.474 -106.275)" fill="#6fb938" opacity="0.33"/>
      <path id="Path_1714" data-name="Path 1714" d="M167.822,150.929l1.985-1.985a1.77,1.77,0,0,0-2.5-2.5l-1.985,1.985-1.985-1.985a1.77,1.77,0,0,0-2.5,2.5l1.985,1.985-1.985,1.985a1.77,1.77,0,1,0,2.5,2.5l1.985-1.985,1.985,1.985a1.77,1.77,0,1,0,2.5-2.5Z" transform="translate(-160.315 -85.924)" fill="#6fb938" opacity="0.33"/>
      <path id="Path_1715" data-name="Path 1715" d="M322.179,230.786l1.683-1.681a1.5,1.5,0,1,0-2.12-2.12l-1.681,1.681-1.681-1.681a1.5,1.5,0,0,0-2.12,2.12l1.681,1.681-1.681,1.681a1.5,1.5,0,1,0,2.12,2.12l1.681-1.681,1.681,1.681a1.5,1.5,0,1,0,2.12-2.12Z" transform="translate(-80.499 -44.543)" fill="#6fb938" opacity="0.33"/>
    </g>
  </g>
</svg>
