<svg xmlns="http://www.w3.org/2000/svg" width="55" height="33" viewBox="0 0 55 33"><g><g><g><path fill="#ffb600" d="M54.316 16.3c0 8.97-7.244 16.3-16.3 16.3-8.97 0-16.3-7.33-16.3-16.3S28.961 0 37.93 0c9.142 0 16.386 7.33 16.386 16.3z"/></g><g><path fill="#f7981d" d="M38.016 0c8.97 0 16.3 7.33 16.3 16.3s-7.244 16.3-16.3 16.3c-8.97 0-16.3-7.33-16.3-16.3"/></g><g><path fill="#ff8500" d="M38.016 0c8.97 0 16.3 7.33 16.3 16.3s-7.244 16.3-16.3 16.3"/></g><g><path fill="#ff5050" d="M16.11 0C7.227.086-.017 7.33-.017 16.3s7.244 16.3 16.3 16.3c4.226 0 8.02-1.639 10.953-4.226.603-.517 1.12-1.121 1.638-1.725h-3.363a19.897 19.897 0 0 1-1.208-1.638h5.779c.345-.518.69-1.122.948-1.725h-7.675a10.279 10.279 0 0 1-.69-1.725h8.97c.517-1.639.862-3.364.862-5.175 0-1.207-.173-2.328-.345-3.45H22.147c.087-.603.26-1.12.432-1.724h8.969a10.28 10.28 0 0 0-.69-1.725h-7.59c.26-.604.604-1.121.95-1.725h5.778a8.201 8.201 0 0 0-1.294-1.725H25.51a14.7 14.7 0 0 1 1.638-1.639C24.303 1.725 20.422.173 16.197.173c0-.173 0-.173-.087-.173z"/></g><g><path fill="#e52836" d="M-.017 16.3c0 8.97 7.244 16.3 16.3 16.3 4.226 0 8.02-1.639 10.953-4.226.603-.517 1.12-1.121 1.638-1.725h-3.363a19.89 19.89 0 0 1-1.208-1.638h5.779c.345-.518.69-1.122.948-1.725h-7.675a10.28 10.28 0 0 1-.69-1.725h8.97c.517-1.639.862-3.364.862-5.175 0-1.207-.173-2.328-.345-3.45H22.147c.087-.603.26-1.12.432-1.724h8.969a10.28 10.28 0 0 0-.69-1.725h-7.59c.26-.604.604-1.121.95-1.725h5.778a8.202 8.202 0 0 0-1.294-1.725H25.51a14.702 14.702 0 0 1 1.638-1.639C24.303 1.725 20.422.172 16.197.172h-.087"/></g><g><path fill="#cb2026" d="M16.283 32.6c4.226 0 8.02-1.639 10.953-4.226.603-.517 1.12-1.121 1.638-1.725h-3.363a19.888 19.888 0 0 1-1.208-1.638h5.779c.345-.518.69-1.122.948-1.725h-7.675a10.28 10.28 0 0 1-.69-1.725h8.97c.517-1.639.862-3.364.862-5.175 0-1.207-.173-2.328-.345-3.45H22.147c.087-.603.259-1.12.432-1.724h8.969a10.284 10.284 0 0 0-.69-1.725h-7.59c.26-.604.604-1.121.95-1.725h5.777a8.202 8.202 0 0 0-1.293-1.725H25.51a14.7 14.7 0 0 1 1.638-1.639C24.303 1.725 20.422.172 16.197.172h-.087"/></g><g><g><path fill="#fff" d="M22.061 20.44l.259-1.466c-.086 0-.259.086-.431.086-.604 0-.69-.345-.604-.518l.517-3.018h.949l.259-1.639h-.863l.173-1.035h-1.725s-1.035 5.692-1.035 6.382c0 1.035.604 1.466 1.38 1.466.517 0 .949-.172 1.121-.258z"/></g><g><path fill="#fff" d="M25.683 15.179c.949 0 .777 1.121.777 1.207h-1.898c0-.086.173-1.207 1.121-1.207zm-3.018 2.5c0 2.416 1.638 3.02 3.018 3.02 1.294 0 1.811-.26 1.811-.26l.345-1.638s-.948.431-1.81.431c-1.898 0-1.553-1.38-1.553-1.38h3.536s.259-1.12.259-1.552c0-1.121-.604-2.501-2.501-2.501-1.811-.173-3.105 1.725-3.105 3.88z"/></g><g><path fill="#fff" d="M36.636 20.44l.345-1.898s-.862.432-1.466.432c-1.207 0-1.725-.95-1.725-1.984 0-2.07 1.035-3.191 2.243-3.191.862 0 1.552.517 1.552.517l.259-1.81s-1.035-.432-1.984-.432c-1.984 0-3.967 1.725-3.967 5.002 0 2.156 1.035 3.622 3.105 3.622.69 0 1.638-.258 1.638-.258z"/></g><g><path fill="#fff" d="M12.92 17.507c0 .26-.173 1.64-1.208 1.64-.518 0-.69-.432-.69-.69 0-.432.259-1.036 1.552-1.036.26.086.345.086.345.086zm-.346-3.88c-1.207 0-2.07.344-2.07.344l-.258 1.467s.776-.345 1.897-.345c.604 0 1.121.086 1.121.603 0 .345-.086.432-.086.432h-.776c-1.466 0-3.105.603-3.105 2.587 0 1.552 1.035 1.897 1.639 1.897 1.207 0 1.725-.776 1.81-.776l-.085.69h1.552l.69-4.743c0-2.07-1.725-2.157-2.329-2.157z"/></g><g><path fill="#fff" d="M16.542 20.612c.43 0 2.587.086 2.587-2.242 0-2.156-2.07-1.725-2.07-2.587 0-.432.345-.604.949-.604.258 0 1.207.086 1.207.086l.259-1.552s-.604-.173-1.639-.173c-1.293 0-2.587.518-2.587 2.243 0 1.983 2.156 1.81 2.156 2.587 0 .517-.604.604-1.035.604-.776 0-1.552-.26-1.552-.26l-.26 1.553c.087.173.518.345 1.985.345z"/></g><g><path fill="#fff" d="M50.176 16.817c0 .95-.43 2.157-1.38 2.157-.603 0-.948-.518-.948-1.38 0-1.38.604-2.243 1.38-2.243.603 0 .948.432.948 1.466zm.777-4.57l-.345 2.328s-.69-.862-1.639-.862c-1.552 0-2.932 1.897-2.932 4.14 0 1.38.69 2.845 2.156 2.845 1.035 0 1.638-.69 1.638-.69l-.086.604h1.725l1.294-8.28z"/></g><g><path fill="#fff" d="M3.174 20.526l1.035-6.21.172 6.21H5.59l2.242-6.21-.949 6.21h1.811l1.38-8.28H7.227l-1.725 5.089-.086-5.088h-2.5l-1.38 8.279z"/></g><g><path fill="#fff" d="M29.91 20.526c.517-2.846.603-5.175 1.81-4.743.173-1.122.432-1.553.604-1.984h-.345c-.776 0-1.38 1.035-1.38 1.035l.173-.949h-1.639l-1.121 6.727h1.897z"/></g><g><path fill="#fff" d="M41.035 17.507c0 .26-.173 1.64-1.208 1.64-.517 0-.69-.432-.69-.69 0-.432.259-1.036 1.553-1.036.258.086.258.086.345.086zm-.432-3.88c-1.207 0-2.07.344-2.07.344l-.258 1.467s.776-.345 1.897-.345c.604 0 1.121.086 1.121.603 0 .345-.086.432-.086.432h-.776c-1.466 0-3.105.603-3.105 2.587 0 1.552 1.035 1.897 1.639 1.897 1.207 0 1.725-.776 1.81-.776l-.085.69h1.552l.69-4.743c.086-2.07-1.725-2.157-2.329-2.157z"/></g><g><path fill="#fff" d="M44.398 20.526c.518-2.846.604-5.175 1.811-4.743.173-1.122.432-1.553.604-1.984h-.345c-.776 0-1.38 1.035-1.38 1.035l.173-.949h-1.639l-1.121 6.727h1.897z"/></g></g><g><g><path fill="#dce5e5" d="M19.388 19.232c0 1.035.603 1.466 1.38 1.466.603 0 1.12-.172 1.293-.258l.259-1.466c-.086 0-.259.086-.431.086-.604 0-.69-.345-.604-.518l.517-3.018h.95l.258-1.639h-.863l.173-1.035"/></g><g><path fill="#dce5e5" d="M25.683 15.179c.949 0 1.122 1.121 1.122 1.207h-2.243c0-.086.173-1.207 1.121-1.207zm-2.156 2.5c0 2.416.776 3.02 2.156 3.02 1.294 0 1.811-.26 1.811-.26l.345-1.638s-.948.431-1.81.431c-1.898 0-1.553-1.38-1.553-1.38h3.536s.259-1.12.259-1.552c0-1.121-.604-2.501-2.501-2.501-1.812-.173-2.243 1.725-2.243 3.88z"/></g><g><path fill="#dce5e5" d="M36.636 20.44l.345-1.898s-.862.432-1.466.432c-1.207 0-1.725-.95-1.725-1.984 0-2.07 1.035-3.191 2.243-3.191.862 0 1.552.517 1.552.517l.259-1.81s-1.035-.432-1.984-.432c-1.983 0-3.105 1.725-3.105 5.002 0 2.156.173 3.622 2.243 3.622.69 0 1.638-.258 1.638-.258z"/></g><g><path fill="#dce5e5" d="M13.782 17.507c0 .26-1.035 1.639-2.07 1.639-.518 0-.69-.431-.69-.69 0-.431.259-1.035 1.552-1.035.26.086 1.208.086 1.208.086zm-3.536-1.983s.776-.345 1.897-.345c.604 0 1.121.086 1.121.604 0 .345-.086.43-.086.43h-.776c-1.466 0-3.105.604-3.105 2.588 0 1.552 1.035 1.897 1.639 1.897 1.207 0 1.725-.776 1.81-.776l-.085.69h1.552l.69-4.743c0-1.984-1.725-2.07-2.415-2.07z"/></g><g><path fill="#dce5e5" d="M14.644 20.44s.518.172 1.984.172c.431 0 2.587.086 2.587-2.242 0-2.156-2.07-1.725-2.07-2.587 0-.432.345-.604.949-.604.259 0 1.207.086 1.207.086l.26-1.552s-.605-.173-1.64-.173c-1.293 0-1.724.518-1.724 2.243 0 1.983 1.293 1.81 1.293 2.587 0 .517-.603.604-1.035.604"/></g><g><path fill="#dce5e5" d="M50.521 16.817c0 .95-.776 2.157-1.724 2.157-.604 0-.95-.518-.95-1.38 0-1.38.605-2.243 1.38-2.243.605 0 1.294.432 1.294 1.466zm.087-2.242s-.69-.862-1.639-.862c-1.552 0-2.07 1.897-2.07 4.14 0 1.38-.172 2.845 1.294 2.845 1.035 0 1.639-.69 1.639-.69l-.087.604h1.725l1.294-8.28z"/></g><g><path fill="#dce5e5" d="M3.174 20.526l1.035-6.21.172 6.21H5.59l2.242-6.21-.949 6.21h1.811l1.38-8.28H7.917l-2.415 5.089-.086-5.088h-.949l-2.932 8.279z"/></g><g><path fill="#dce5e5" d="M28.098 20.526h1.811c.518-2.846.604-5.175 1.811-4.743.173-1.122.432-1.553.604-1.984h-.345c-.776 0-1.38 1.035-1.38 1.035l.173-.949"/></g><g><path fill="#dce5e5" d="M39.741 19.146c-.517 0-.69-.431-.69-.69 0-.431.259-1.035 1.552-1.035.345.086 1.204.086 1.208.086 0 .26-1.035 1.639-2.07 1.639zm2.07-1.639zm0 0zm-3.536-1.983s.776-.345 1.897-.345c.604 0 1.121.086 1.121.604 0 .345-.086.43-.086.43h-.776c-1.466 0-3.105.604-3.105 2.588 0 1.552 1.035 1.897 1.639 1.897 1.207 0 1.725-.776 1.811-.776l-.086.69h1.552l.69-4.743c0-1.984-1.725-2.07-2.415-2.07z"/></g><g><path fill="#dce5e5" d="M42.587 20.526h1.811c.518-2.846.604-5.175 1.811-4.743.173-1.122.431-1.553.604-1.984h-.345c-.776 0-1.38 1.035-1.38 1.035l.173-.949"/></g></g></g></g></svg>