<svg id="pay_1_" data-name="pay (1)" xmlns="http://www.w3.org/2000/svg" width="21.114" height="14.076" viewBox="0 0 21.114 14.076">
  <g id="Group_7398" data-name="Group 7398" transform="translate(0 5.278)">
    <g id="Group_7397" data-name="Group 7397" transform="translate(0 0)">
      <path id="Path_3154" data-name="Path 3154" d="M20.674,213.333H.44a.416.416,0,0,0-.44.44v6.158a2.178,2.178,0,0,0,2.2,2.2H18.914a2.178,2.178,0,0,0,2.2-2.2v-6.158A.416.416,0,0,0,20.674,213.333ZM3.079,216.852H6.6a.44.44,0,0,1,0,.88H3.079a.44.44,0,0,1,0-.88Zm6.158,2.639H3.079a.44.44,0,1,1,0-.88H9.237a.44.44,0,1,1,0,.88Zm7.478,0a1.486,1.486,0,0,1-.88-.264,1.486,1.486,0,0,1-.88.264,1.759,1.759,0,1,1,0-3.519,1.486,1.486,0,0,1,.88.264,1.486,1.486,0,0,1,.88-.264,1.759,1.759,0,1,1,0,3.519Z" transform="translate(0 -213.333)" fill="#17468f"/>
    </g>
  </g>
  <g id="Group_7400" data-name="Group 7400" transform="translate(0 0)">
    <g id="Group_7399" data-name="Group 7399" transform="translate(0 0)">
      <path id="Path_3155" data-name="Path 3155" d="M18.914,85.333H2.2a2.178,2.178,0,0,0-2.2,2.2v.88a.416.416,0,0,0,.44.44H20.674a.416.416,0,0,0,.44-.44v-.88A2.178,2.178,0,0,0,18.914,85.333Z" transform="translate(0 -85.333)" fill="#17468f"/>
    </g>
  </g>
</svg>
