<svg xmlns="http://www.w3.org/2000/svg" width="20" height="24" viewBox="0 0 20 24">
  <path id="Standard_Reports" data-name="Standard Reports" d="M19.25,0H4.75A2.752,2.752,0,0,0,2,2.75v18.5A2.752,2.752,0,0,0,4.75,24h14.5A2.752,2.752,0,0,0,22,21.25V2.75A2.752,2.752,0,0,0,19.25,0Zm-8.5,13V8.076a4.988,4.988,0,1,1-3.7,8.937L10.53,13.53A.747.747,0,0,0,10.75,13ZM9.25,8.076V12.69L5.987,15.953A4.959,4.959,0,0,1,9.25,8.076Zm9,13.174H5.75a.75.75,0,1,1,0-1.5h12.5a.75.75,0,1,1,0,1.5Zm0-3.25h-1.5a.75.75,0,0,1,0-1.5h1.5a.75.75,0,1,1,0,1.5Zm0-2.75h-1.5a.75.75,0,0,1,0-1.5h1.5a.75.75,0,1,1,0,1.5Zm0-3h-1.5a.75.75,0,1,1,0-1.5h1.5a.75.75,0,1,1,0,1.5Zm0-2.75h-1.5a.75.75,0,1,1,0-1.5h1.5a.75.75,0,1,1,0,1.5Z" transform="translate(-2)" fill="#fff"/>
</svg>
