<svg xmlns="http://www.w3.org/2000/svg" xmlns:xlink="http://www.w3.org/1999/xlink" width="343.449" height="296.528" viewBox="0 0 343.449 296.528">
  <defs>
    <linearGradient id="linear-gradient" x1="-1.092" y1="0.815" x2="-1.067" y2="0.442" gradientUnits="objectBoundingBox">
      <stop offset="0.01" stop-color="#ff5252"/>
      <stop offset="1" stop-color="#ff1744"/>
    </linearGradient>
    <linearGradient id="linear-gradient-2" x1="1.037" y1="0.363" x2="0.039" y2="0.363" gradientUnits="objectBoundingBox">
      <stop offset="0" stop-color="#263238"/>
      <stop offset="1" stop-color="#000001"/>
    </linearGradient>
  </defs>
  <g id="Group_6926" data-name="Group 6926" transform="translate(-13682 -594.334)">
    <g id="Group_6917" data-name="Group 6917" transform="translate(13682 594.334)">
      <g id="Group_6893" data-name="Group 6893" transform="translate(44.654 0)">
        <g id="Group_6889" data-name="Group 6889" transform="translate(0 0)">
          <g id="Group_6888" data-name="Group 6888" transform="translate(0 0)">
            <rect id="Rectangle_297" data-name="Rectangle 297" width="108.412" height="185.077" fill="#fff"/>
            <text id="basic" transform="translate(18.515 37.911)" fill="#15cecb" font-size="22" font-family="OpenSans-SemiBold, Open Sans" font-weight="600" letter-spacing="0.09em"><tspan x="0" y="0">BASIC</tspan></text>
            <g id="Group_6884" data-name="Group 6884" transform="translate(8.969 140.468)">
              <rect id="Rectangle_298" data-name="Rectangle 298" width="91.457" height="35.521" rx="3.549" transform="translate(0.429 0)" fill="#7540ee"/>
              <text id="start" transform="translate(45.429 22.492)" fill="#fff" font-size="19" font-family="OpenSans-SemiBold, Open Sans" font-weight="600"><tspan x="-21.7" y="0">start</tspan></text>
            </g>
            <text id="Lorem_ipsum_dolor_sit_amet_consectetur_adipiscing_elit_sed_do_eiusmod_tempor_incididunt_ut_labore_et_dolore_magna_aliqua._Ut_enim_ad_minim_veniam_quis_nostrud_exercitation_ullamco_laboris_nisi_ut_aliquip_ex_ea_commodo_consequat._Duis_aute_irure_dolor_in" data-name="Lorem ipsum dolor sit amet, consectetur adipiscing elit, sed do eiusmod tempor incididunt ut labore et dolore magna aliqua. Ut enim ad minim veniam, quis nostrud exercitation ullamco laboris nisi ut aliquip ex ea commodo consequat. Duis aute irure dolor in" transform="translate(8.658 109.73)" font-size="5.346" font-family="OpenSans-Light, Open Sans" font-weight="300" letter-spacing="0.09em"><tspan x="5.997" y="6">Lorem ipsum dolor sit amet, </tspan><tspan x="1.877" y="12.416">consectetur adipiscing elit, sed </tspan><tspan x="3.081" y="18.831">do eiusmod tempor incididunt </tspan></text>
            <line id="Line_454" data-name="Line 454" x2="92.164" transform="translate(8.236 53.115)" fill="none" stroke="#ebe2ff" stroke-miterlimit="10" stroke-width="1"/>
            <g id="Group_6922" data-name="Group 6922" transform="translate(26.564 62.591)">
              <text id="lorem_ipsum_lorem_ipsum_lorem_ipsum" data-name="lorem ipsum
lorem ipsum
lorem ipsum" transform="translate(12.583 4.409)" font-size="5" font-family="OpenSans-Regular, Open Sans" letter-spacing="0.09em"><tspan x="0" y="0">lorem ipsum</tspan><tspan x="0" y="13">lorem ipsum</tspan><tspan x="0" y="26">lorem ipsum</tspan></text>
              <g id="Group_6921" data-name="Group 6921" transform="translate(0.627 -0.591)">
                <g id="Group_6885" data-name="Group 6885" transform="translate(0 0)">
                  <path id="Path_2952" data-name="Path 2952" d="M174.144,128.9l-1.266-1.675-1.22,1.1,2.023,1.894.563.527.346-.576,3.528-5.884Z" transform="translate(-171.657 -124.283)"/>
                </g>
                <g id="Group_6919" data-name="Group 6919" transform="translate(0.001 13.158)">
                  <path id="Path_2952-2" data-name="Path 2952" d="M174.144,128.9l-1.266-1.674-1.22,1.1,2.022,1.894.563.527.345-.576,3.527-5.882Z" transform="translate(-171.657 -124.283)"/>
                </g>
                <g id="Group_6920" data-name="Group 6920" transform="translate(0.001 26.314)">
                  <path id="Path_2952-3" data-name="Path 2952" d="M174.144,128.9l-1.266-1.674-1.22,1.1,2.022,1.894.563.527.345-.576,3.527-5.882Z" transform="translate(-171.657 -124.283)"/>
                </g>
              </g>
            </g>
          </g>
        </g>
        <g id="Group_6923" data-name="Group 6923" transform="translate(121.981 0)">
          <g id="Group_6888-2" data-name="Group 6888" transform="translate(0 0)">
            <rect id="Rectangle_297-2" data-name="Rectangle 297" width="108.412" height="185.077" transform="translate(0.417)" fill="#fff"/>
            <text id="Gold" transform="translate(21.417 35.733)" fill="#15cecb" font-size="22" font-family="OpenSans-SemiBold, Open Sans" font-weight="600" letter-spacing="0.09em"><tspan x="0" y="0">GOLD</tspan></text>
            <g id="Group_6884-2" data-name="Group 6884" transform="translate(8.416 140.468)">
              <rect id="Rectangle_298-2" data-name="Rectangle 298" width="91.457" height="35.521" rx="3.549" transform="translate(0 -0.468)" fill="#7540ee"/>
              <text id="start-2" data-name="start" transform="translate(46 24.532)" fill="#fff" font-size="19" font-family="OpenSans-SemiBold, Open Sans" font-weight="600"><tspan x="-21.7" y="0">start</tspan></text>
            </g>
            <text id="Lorem_ipsum_dolor_sit_amet_consectetur_adipiscing_elit_sed_do_eiusmod_tempor_incididunt_ut_labore_et_dolore_magna_aliqua._Ut_enim_ad_minim_veniam_quis_nostrud_exercitation_ullamco_laboris_nisi_ut_aliquip_ex_ea_commodo_consequat._Duis_aute_irure_dolor_in-2" data-name="Lorem ipsum dolor sit amet, consectetur adipiscing elit, sed do eiusmod tempor incididunt ut labore et dolore magna aliqua. Ut enim ad minim veniam, quis nostrud exercitation ullamco laboris nisi ut aliquip ex ea commodo consequat. Duis aute irure dolor in" transform="translate(8.416 109.73)" font-size="5.346" font-family="OpenSans-Light, Open Sans" font-weight="300" letter-spacing="0.09em"><tspan x="5.997" y="6">Lorem ipsum dolor sit amet, </tspan><tspan x="1.877" y="12.416">consectetur adipiscing elit, sed </tspan><tspan x="3.081" y="18.831">do eiusmod tempor incididunt </tspan></text>
            <line id="Line_454-2" data-name="Line 454" x2="92.164" transform="translate(8.916 53.115)" fill="none" stroke="#ebe2ff" stroke-miterlimit="10" stroke-width="1"/>
            <g id="Group_6928" data-name="Group 6928" transform="translate(126.207)">
              <text id="lorem_ipsum_lorem_ipsum_lorem_ipsum-2" data-name="lorem ipsum
lorem ipsum
lorem ipsum" transform="translate(-82.834 67)" font-size="5" font-family="OpenSans-Regular, Open Sans" letter-spacing="0.09em"><tspan x="0" y="0">lorem ipsum</tspan><tspan x="0" y="13">lorem ipsum</tspan><tspan x="0" y="26">lorem ipsum</tspan></text>
              <g id="Group_6927" data-name="Group 6927" transform="translate(-94.79 62)">
                <g id="Group_6885-2" data-name="Group 6885" transform="translate(0 0)">
                  <path id="Path_2952-4" data-name="Path 2952" d="M174.144,128.9l-1.266-1.675-1.22,1.1,2.023,1.894.563.527.346-.576,3.528-5.884Z" transform="translate(-171.657 -124.283)"/>
                </g>
                <g id="Group_6919-2" data-name="Group 6919" transform="translate(0.001 13.158)">
                  <path id="Path_2952-5" data-name="Path 2952" d="M174.144,128.9l-1.266-1.674-1.22,1.1,2.022,1.894.563.527.345-.576,3.527-5.882Z" transform="translate(-171.657 -124.283)"/>
                </g>
                <g id="Group_6920-2" data-name="Group 6920" transform="translate(0.001 26.314)">
                  <path id="Path_2952-6" data-name="Path 2952" d="M174.144,128.9l-1.266-1.674-1.22,1.1,2.022,1.894.563.527.345-.576,3.527-5.882Z" transform="translate(-171.657 -124.283)"/>
                </g>
              </g>
            </g>
          </g>
        </g>
      </g>
      <g id="Group_6900" data-name="Group 6900" transform="translate(0 141.599)">
        <ellipse id="Ellipse_37" data-name="Ellipse 37" cx="39.38" cy="8.305" rx="39.38" ry="8.305" transform="translate(2.775 114.561)" fill="#bcc6cc" opacity="0.35" style="mix-blend-mode: multiply;isolation: isolate"/>
        <g id="Group_6899" data-name="Group 6899" transform="translate(0)">
          <g id="Group_6894" data-name="Group 6894" transform="translate(50.481 35.594)">
            <path id="Path_2958" data-name="Path 2958" d="M318.236,293.454c.844.8,1.719,1.581,2.626,2.317-.147.026-.294.051-.441.073q-1.171-1.116-2.289-2.288Z" transform="translate(-312.456 -238.971)" fill="#15cecb"/>
            <path id="Path_2959" data-name="Path 2959" d="M316.339,292.412l.236-.249c1,1.039,2,2.084,3.063,3.067l-.046.01c-.651-.514-1.281-1.055-1.893-1.591Q317.007,293.043,316.339,292.412Z" transform="translate(-309.785 -238.722)" fill="#15cecb"/>
            <path id="Path_2960" data-name="Path 2960" d="M273.294,285.074c.964-1.108,1.994-2.155,3.029-3.2,0-.02-.006-.041-.01-.062l.036.035q.4-.4.789-.8c-.349-.341-.7-.682-1.051-1.018q-.131-1.214-.194-2.406c.635.734,1.31,1.432,2.007,2.092.092.087.19.172.284.258.068-.07.136-.139.2-.209.188-.2.37-.4.557-.6-.125-.117-.258-.232-.38-.348a28.282,28.282,0,0,1-2.128-2.268c-.2-.244-.4-.49-.6-.742q-.01-1.562.111-3.091c1.011,1.115,2.034,2.221,3.078,3.305.481.5.972.99,1.463,1.481.249-.267.5-.533.746-.8-.324-.324-.65-.646-.968-.976-.753-.782-1.492-1.578-2.228-2.371-.648-.7-1.3-1.4-1.941-2.1a31.723,31.723,0,0,1,.558-3.158,48.329,48.329,0,0,0,4.22,6.219q.407.518.825,1.03c.124.152.253.3.379.453.239-.26.483-.514.721-.775l.035-.038c-.361-.433-.718-.869-1.066-1.311a44.213,44.213,0,0,1-4.706-7.156,30.887,30.887,0,0,1,1.032-3.012,38.544,38.544,0,0,0,1.948,4.017c1.19,2.2,2.363,4.419,3.563,6.618.263-.288.525-.579.788-.867q-.742-1.362-1.481-2.726-1.2-2.21-2.37-4.437a26.319,26.319,0,0,1-1.808-4.084c.186-.4.379-.8.585-1.2.678,1.38,1.4,2.738,2.154,4.079.888,1.583,1.8,3.147,2.649,4.754q.652,1.237,1.311,2.473l.786-.872c-.512-.967-1.019-1.936-1.532-2.9-1.557-2.928-3.271-5.757-4.719-8.739.218-.386.442-.772.679-1.157l.115-.184q.661,1.169,1.324,2.338c1.763,3.094,3.549,6.179,5.409,9.217.252-.282.505-.562.756-.845-.846-1.406-1.674-2.821-2.5-4.232-1.462-2.5-2.886-5.02-4.316-7.537q.529-.811,1.086-1.6c.737,1.039,1.425,2.113,2.1,3.193.951,1.516,1.951,3.005,2.891,4.527.8,1.29,1.5,2.635,2.214,3.969.26-.3.521-.591.78-.888-.822-1.532-1.646-3.062-2.611-4.51-1.593-2.4-3.021-4.9-4.7-7.23q.7-.954,1.435-1.884c.015.021.03.04.044.061.537.767,1,1.583,1.465,2.4.78,1.365,1.653,2.669,2.423,4.04.9,1.605,1.744,3.242,2.6,4.873l.486.93q.39-.453.779-.908c-1.193-2.278-2.354-4.574-3.673-6.782-.821-1.374-1.641-2.752-2.476-4.116-.289-.472-.593-.939-.928-1.382q.753-.916,1.538-1.81a123.113,123.113,0,0,1,7.7,11.519c.249-.3.5-.6.751-.9-.395-.65-.79-1.3-1.192-1.946a114.033,114.033,0,0,0-6.5-9.5l-.01-.013q.575-.634,1.164-1.258.286.362.569.727c2.592,3.348,4.957,6.871,7.221,10.449.245-.3.491-.6.735-.9-.628-.989-1.26-1.973-1.907-2.949-1.57-2.368-3.207-4.7-4.939-6.961q-.45-.586-.908-1.165.665-.684,1.344-1.356.709.941,1.414,1.883c2.151,2.874,4.3,5.747,6.67,8.443.232-.294.466-.586.7-.88q-1.292-1.474-2.511-3.009c-1.289-1.621-2.534-3.281-3.778-4.944q-.849-1.134-1.7-2.265.817-.788,1.653-1.559,1.346,1.393,2.634,2.841c1.911,2.138,3.735,4.355,5.492,6.621.23-.3.463-.6.692-.9-1.637-2.1-3.329-4.162-5.094-6.155q-1.422-1.605-2.908-3.151.471-.425.947-.846c1.06,1.158,2.116,2.323,3.137,3.513a51.72,51.72,0,0,1,4.46,5.921q.357-.472.711-.946a52.979,52.979,0,0,0-4.108-5.429c-1.093-1.285-2.228-2.539-3.369-3.785q.816-.708,1.643-1.4c1.225,1.425,2.4,2.891,3.5,4.408a45.431,45.431,0,0,1,3.2,5.064c.243-.327.482-.657.724-.985a46.407,46.407,0,0,0-2.892-4.551c-1.148-1.6-2.386-3.145-3.677-4.645q.585-.483,1.173-.959c1.3,1.643,2.593,3.291,3.782,5a39.525,39.525,0,0,1,2.459,4c.24-.328.482-.656.72-.986a40.564,40.564,0,0,0-2.172-3.5c-1.235-1.784-2.582-3.5-3.936-5.207q.783-.627,1.571-1.242c1.242,1.921,2.462,3.854,3.582,5.842q.868,1.54,1.64,3.132c.243-.343.486-.685.726-1.03q-.657-1.321-1.379-2.607c-1.152-2.051-2.411-4.041-3.693-6.019q.734-.568,1.469-1.127c1.122,2.184,2.189,4.4,3.23,6.622q.514,1.1,1.022,2.205c.244-.355.479-.716.719-1.072q-.381-.828-.767-1.653c-1.064-2.279-2.157-4.545-3.309-6.779q.8-.6,1.6-1.2a46.061,46.061,0,0,1,3.155,7.183c.106.329.2.662.292.994.069-.1.142-.207.21-.313.2-.306.391-.617.584-.927-.033-.1-.065-.209-.1-.313a48.7,48.7,0,0,0-3.243-7.289q.674-.5,1.346-.99c1,2.424,1.837,4.923,2.727,7.39q.369-.623.721-1.256c-.811-2.28-1.6-4.576-2.53-6.806l.908-.663c.366-.266.714-.527,1.051-.781.224.566.432,1.134.628,1.7.468,1.347.872,2.721,1.212,4.111q.378-.784.725-1.582c-.292-1.056-.611-2.1-.977-3.13-.212-.595-.437-1.192-.68-1.784.367-.278.717-.54,1.052-.779l.031.069a24.994,24.994,0,0,1,1.35,3.716c.222-.591.425-1.189.617-1.791-.274-.756-.575-1.494-.884-2.2q-.092-.208-.186-.416a4.588,4.588,0,0,1,1.721-.709,3.733,3.733,0,0,1,.148.367c.018-.079.04-.157.057-.237a.184.184,0,0,1,.36.049c-.02.433-.065.86-.114,1.286.083.46.137.943.176,1.427-.215.579-.454,1.152-.7,1.722.248-.57.486-1.143.7-1.722.058.736.089,1.465.159,2.095a9.445,9.445,0,0,1-1.2.447c-.132.424-.274.845-.428,1.261a12.968,12.968,0,0,0,1.747-.574q.085.826.148,1.661a14.594,14.594,0,0,1-2.52.473c-.166.383-.336.764-.517,1.141a17.62,17.62,0,0,0,3.113-.5c0,.053.006.106.009.159q.034.614.059,1.23c-1.007.272-2.025.506-3.051.686-.191.033-.382.065-.573.094-.141.022-.288.036-.431.055-.123.23-.242.461-.368.688-.094.167-.192.331-.287.5.353-.036.7-.076,1.048-.124a32.276,32.276,0,0,0,3.7-.759c.01.454.014.909.015,1.365-.441.068-.895.088-1.307.111-1.259.07-2.523.036-3.781-.019-.063.107-.123.216-.186.323-.148.251-.3.5-.456.747.272.014.544.034.816.045a34.363,34.363,0,0,0,3.953-.01c.31-.023.631-.049.953-.092q-.013.8-.047,1.6a36.965,36.965,0,0,1-5.678-.869c-.128-.019-.255-.031-.382-.046-.221.353-.446.7-.672,1.055a10.612,10.612,0,0,1,1.123.115,35.528,35.528,0,0,0,5.554.826q-.061,1.04-.157,2.08c-1.841-.424-3.663-.919-5.485-1.417-.594-.163-1.194-.307-1.795-.446-.227.34-.454.68-.684,1.018,1.947.47,3.883.973,5.83,1.465.671.17,1.344.341,2.021.494-.031.286-.065.572-.1.859-2.784-.579-5.525-1.416-8.311-2.008q-.338.487-.679.97c2.971.583,5.884,1.49,8.846,2.115q-.138.964-.31,1.921c-1.7-.463-3.374-1.022-5.04-1.537-1.4-.434-2.8-.873-4.22-1.252l-.141-.037c-.229.319-.461.635-.692.952.476.126.949.262,1.4.391,2.841.81,5.639,1.768,8.491,2.543q-.091.455-.19.909-.074.343-.151.684-.226-.052-.451-.108c-1.052-.261-2.086-.583-3.089-.908-2.3-.745-4.588-1.638-6.937-2.255l-.712.963c2.609.644,5.136,1.655,7.687,2.468.693.221,1.4.434,2.112.625.375.1.753.2,1.133.283-.093.37-.191.739-.292,1.107-.636-.111-1.269-.244-1.9-.389-.909-.21-1.812-.448-2.7-.7-2.351-.655-4.676-1.417-7.03-2.064-.238.319-.48.635-.72.953,2.561.686,5.082,1.524,7.636,2.229.613.169,1.231.332,1.853.487.846.208,1.7.4,2.558.552q-.281.938-.6,1.861c-1.087-.381-2.164-.8-3.24-1.221a82.557,82.557,0,0,0-8.77-3.161c-.242.32-.481.642-.724.959.824.21,1.643.441,2.452.706,2.075.681,4.113,1.5,6.157,2.31,1.248.493,2.5.979,3.761,1.422q-.6,1.607-1.307,3.155c-1.626-.786-3.222-1.636-4.857-2.4q-.335-.157-.673-.309c-2.3-1.034-4.636-2.005-6.9-3.121-.231.3-.458.594-.689.889q1.417.7,2.864,1.348c1.5.667,3.01,1.3,4.5,1.992.147.068.294.136.44.2,1.477.7,2.924,1.461,4.392,2.176l.448.217q-.673,1.364-1.446,2.667c-1.766-1.078-3.491-2.226-5.278-3.268l-.512-.3c-2.151-1.252-4.328-2.484-6.573-3.565-.236.3-.47.592-.708.888q1.788.857,3.52,1.825,1.432.8,2.838,1.637c1.984,1.174,3.943,2.385,5.913,3.593l.22.135q-.947,1.494-2.035,2.887c-1.436-.921-2.812-1.954-4.179-2.924-.792-.562-1.6-1.1-2.418-1.625-1.831-1.177-3.7-2.288-5.558-3.432-.236.288-.47.577-.708.864,1.781,1.1,3.583,2.177,5.351,3.3.988.628,1.964,1.273,2.917,1.951,1.277.909,2.564,1.86,3.9,2.724q-.707.846-1.474,1.645-.513-.254-1.013-.543a42.274,42.274,0,0,1-6.022-4.457c-1.472-1.241-2.936-2.491-4.481-3.625-.241.29-.485.575-.727.864.3.22.6.435.892.663,1.153.9,2.272,1.843,3.4,2.78,1.157.965,2.319,1.924,3.528,2.824a27.13,27.13,0,0,0,3.607,2.321q-1.066,1.037-2.239,1.984c-1.492-1.261-2.846-2.73-4.214-4.028-.731-.694-1.5-1.343-2.283-1.984-.692-.57-1.39-1.134-2.07-1.717-.583-.5-1.15-1.019-1.716-1.538q-.361.425-.724.848.928.849,1.885,1.668c.546.466,1.1.92,1.654,1.376.925.763,1.846,1.53,2.712,2.36,1.267,1.215,2.523,2.524,3.883,3.691q-1.108.828-2.306,1.57a84.573,84.573,0,0,1-6.433-6.323c-.9-.943-1.816-1.872-2.752-2.777-.242.278-.481.558-.724.835q1.266,1.223,2.487,2.5c2.095,2.175,4.149,4.395,6.423,6.359-.417.238-.844.465-1.277.687-1.842-1.278-3.547-2.792-5.27-4.178-.709-.571-1.411-1.138-2.1-1.718-.441-.37-.877-.745-1.311-1.131-.212-.189-.433-.391-.659-.593-.249.278-.5.559-.746.837.358.307.713.62,1.064.935.179.161.361.319.543.475.972.833,1.981,1.609,2.975,2.418,1.44,1.175,2.876,2.4,4.394,3.5-.481.223-.967.43-1.454.627a20.383,20.383,0,0,1-4.906-3.309c-.947-.794-1.863-1.631-2.785-2.458-.336-.3-.675-.6-1.014-.892-.246.269-.491.538-.738.806.207.181.415.36.62.542,1.21,1.077,2.393,2.187,3.645,3.207a23.76,23.76,0,0,0,3.788,2.632c-.565.2-1.135.39-1.708.567a71.942,71.942,0,0,1-7.573-5.628c-.249.266-.506.526-.758.791,2.3,1.769,4.51,3.687,6.932,5.248-.982.272-1.975.518-2.977.749-.709-.51-1.4-1.048-2.068-1.594-1.143-.928-2.256-1.892-3.384-2.839-.258.264-.521.524-.781.786,1.584,1.339,3.146,2.733,4.8,3.982-.706.173-1.44.362-2.19.546l-.306-.277c-1.143-1.042-2.208-2.162-3.283-3.272-.238.236-.474.475-.713.71-.153.162-.3.33-.459.491l-.018-.017c-.264.257-.526.517-.788.776l.033.031c-.269.269-.542.532-.815.795.027-.026.055-.05.081-.076q.817.861,1.667,1.689a11.406,11.406,0,0,1-3.311-.133l0-.009c-.922.885-1.862,1.75-2.854,2.55A.23.23,0,0,1,273.294,285.074Zm43.163-54.315c-.008-.028-.018-.056-.026-.084-.046.164-.1.323-.152.485C316.341,231.027,316.4,230.893,316.458,230.759ZM277.73,281.623q-.37.367-.742.731.385-.352.763-.711Z" transform="translate(-273.23 -225.939)" fill="#15cecb"/>
          </g>
          <g id="Group_6895" data-name="Group 6895" transform="translate(0 54.098)">
            <path id="Path_2961" data-name="Path 2961" d="M350.822,296.325c.746-.422,1.482-.871,2.195-1.352-.013.109-.027.218-.043.326-.692.39-1.392.765-2.1,1.12Z" transform="translate(-320.509 -257.769)" fill="#15cecb"/>
            <path id="Path_2962" data-name="Path 2962" d="M350.815,295.35l-.124-.22c.947-.485,1.9-.963,2.817-1.5l0,.035c-.5.349-1.018.675-1.528.992Q351.4,295.016,350.815,295.35Z" transform="translate(-320.894 -257.511)" fill="#15cecb"/>
            <path id="Path_2963" data-name="Path 2963" d="M382.623,292.449c-.573-.916-1.089-1.867-1.6-2.82l-.046-.006.033-.018-.392-.727c-.315.173-.63.345-.943.521q-.882-.168-1.736-.38c.653-.29,1.289-.614,1.9-.964.081-.046.161-.1.242-.145-.035-.062-.068-.125-.1-.187-.1-.175-.2-.347-.3-.52-.109.063-.219.132-.327.193a20.8,20.8,0,0,1-2.054,1.011c-.215.091-.432.178-.65.261q-1.1-.328-2.153-.742,1.5-.708,2.989-1.457c.455-.232.905-.472,1.357-.713-.135-.232-.269-.466-.4-.7-.3.158-.594.32-.894.472-.713.362-1.432.713-2.148,1.06-.631.307-1.263.614-1.9.914a23.413,23.413,0,0,1-2.1-1.071,35.515,35.515,0,0,0,5.286-1.636q.451-.174.9-.359c.134-.055.267-.114.4-.169-.132-.224-.259-.451-.391-.675l-.019-.032c-.383.161-.767.319-1.152.469a32.466,32.466,0,0,1-6.05,1.777,22.667,22.667,0,0,1-1.9-1.373,28.328,28.328,0,0,0,3.247-.509c1.808-.365,3.619-.715,5.425-1.087-.146-.248-.295-.494-.441-.741q-1.118.23-2.238.457-1.813.37-3.633.716a19.359,19.359,0,0,1-3.265.4q-.364-.326-.722-.67c1.118-.182,2.23-.4,3.335-.642,1.306-.285,2.6-.593,3.917-.844q1.012-.194,2.023-.391l-.445-.741c-.791.152-1.582.3-2.371.456-2.4.467-4.757,1.067-7.168,1.446-.225-.236-.449-.477-.669-.726l-.1-.121q.966-.213,1.93-.43c2.557-.577,5.114-1.172,7.652-1.829-.144-.238-.287-.477-.433-.714-1.172.294-2.346.573-3.517.851-2.074.493-4.155.954-6.235,1.421q-.456-.547-.9-1.11c.89-.3,1.795-.55,2.7-.794,1.272-.344,2.535-.73,3.809-1.064,1.079-.283,2.177-.488,3.271-.706-.153-.247-.3-.495-.458-.741-1.256.25-2.51.5-3.737.87-2.029.607-4.1,1.075-6.1,1.757q-.522-.7-1.018-1.415l.052-.018c.655-.214,1.329-.365,2-.516,1.128-.256,2.235-.591,3.366-.839,1.323-.29,2.657-.531,3.989-.782l.759-.142c-.157-.248-.314-.5-.472-.743-1.86.35-3.726.675-5.564,1.13-1.143.282-2.29.565-3.43.859-.395.1-.788.216-1.173.357q-.484-.726-.944-1.472a90.5,90.5,0,0,1,9.765-2.947c-.158-.24-.313-.482-.472-.721-.542.138-1.085.277-1.626.421a83.941,83.941,0,0,0-8.086,2.537l-.011,0q-.323-.541-.636-1.09c.211-.082.423-.164.634-.245,2.914-1.106,5.9-2.015,8.909-2.841-.16-.237-.318-.475-.479-.712-.831.23-1.661.464-2.487.709-2.005.6-4,1.248-5.963,1.984-.34.128-.678.256-1.015.388q-.339-.614-.666-1.237.813-.3,1.63-.592c2.486-.9,4.971-1.795,7.377-2.884-.157-.226-.312-.453-.47-.679q-1.316.593-2.658,1.122c-1.418.559-2.855,1.08-4.293,1.6q-.98.353-1.96.71-.379-.744-.742-1.5c.847-.433,1.7-.845,2.565-1.245,1.916-.886,3.869-1.694,5.842-2.444-.162-.227-.322-.455-.485-.681-1.831.7-3.645,1.449-5.428,2.265q-1.437.656-2.844,1.371-.2-.424-.392-.849c1.043-.5,2.089-.991,3.147-1.454a38.14,38.14,0,0,1,5.127-1.869l-.512-.7a38.82,38.82,0,0,0-4.705,1.727c-1.139.494-2.266,1.023-3.389,1.559q-.323-.726-.635-1.458c1.267-.557,2.552-1.071,3.856-1.517a33.451,33.451,0,0,1,4.253-1.164c-.178-.241-.359-.48-.538-.721a34.176,34.176,0,0,0-3.825,1.06c-1.374.465-2.728,1-4.061,1.59q-.214-.514-.424-1.031c1.436-.562,2.874-1.118,4.337-1.588a28.82,28.82,0,0,1,3.344-.872c-.181-.24-.358-.481-.54-.719a29.761,29.761,0,0,0-2.929.778c-1.521.487-3.017,1.067-4.513,1.653q-.272-.686-.537-1.373c1.62-.462,3.242-.906,4.884-1.268q1.27-.281,2.557-.482-.283-.368-.569-.733-1.071.179-2.132.411c-1.691.371-3.363.83-5.031,1.307q-.242-.638-.478-1.276c1.779-.321,3.566-.6,5.357-.852q.886-.126,1.773-.245c-.2-.248-.4-.491-.6-.737q-.665.091-1.328.185c-1.833.261-3.664.543-5.485.874q-.253-.694-.5-1.386a34.039,34.039,0,0,1,5.736-.679c.254,0,.508,0,.763.008-.059-.071-.115-.144-.175-.215-.173-.207-.351-.408-.528-.611-.081,0-.161,0-.241,0a35.821,35.821,0,0,0-5.83.717q-.206-.581-.408-1.16c1.921-.183,3.862-.236,5.79-.333q-.36-.393-.729-.778c-1.779.081-3.566.144-5.337.32l-.271-.782c-.108-.314-.218-.616-.324-.907.446-.036.891-.061,1.329-.077,1.05-.04,2.1-.03,3.155.029q-.471-.435-.958-.85c-.805-.021-1.612-.022-2.414.016-.464.021-.933.052-1.4.1-.117-.319-.226-.621-.323-.908l.055-.007a18.435,18.435,0,0,1,2.908-.153c-.369-.282-.746-.554-1.13-.819-.591.03-1.175.085-1.737.151l-.332.041a3.363,3.363,0,0,1-.13-1.364,2.6,2.6,0,0,1,.29-.025c-.052-.03-.1-.063-.155-.092a.135.135,0,0,1,.111-.243c.3.107.592.231.882.357.341.04.693.106,1.043.183.361.276.713.566,1.062.863-.349-.3-.7-.587-1.062-.863.53.116,1.051.252,1.509.337a7.125,7.125,0,0,1,.058.938c.27.184.536.374.8.572a9.6,9.6,0,0,0-.029-1.353q.6.117,1.2.253a10.76,10.76,0,0,1-.209,1.876c.234.2.466.4.693.609a13.1,13.1,0,0,0,.315-2.3l.114.028q.439.108.879.223c-.025.767-.078,1.534-.173,2.3-.018.141-.036.283-.056.424-.015.1-.036.211-.053.316.135.136.272.269.405.407.1.1.192.207.289.309.051-.256.1-.512.137-.764a23.675,23.675,0,0,0,.26-2.765q.483.136.964.282c-.047.325-.13.649-.2.944-.221.9-.516,1.785-.826,2.659.062.068.126.133.187.2.144.158.286.32.428.481.069-.188.141-.375.207-.565a25.026,25.026,0,0,0,.842-2.786c.05-.223.1-.455.14-.691q.56.182,1.118.377a27.159,27.159,0,0,1-1.832,3.812c-.04.085-.077.172-.115.258.2.232.4.466.6.7a7.731,7.731,0,0,1,.323-.767A26.18,26.18,0,0,0,362.2,252q.719.266,1.431.557c-.693,1.2-1.434,2.382-2.176,3.558-.241.383-.472.775-.7,1.168.191.232.383.465.571.7.75-1.27,1.52-2.525,2.285-3.79.264-.436.529-.873.782-1.317.194.084.389.169.582.256-1,1.837-2.184,3.587-3.2,5.421q.27.343.537.687c1.049-1.967,2.314-3.823,3.389-5.775q.649.3,1.287.63c-.691,1.1-1.444,2.157-2.165,3.219-.607.893-1.217,1.786-1.788,2.7l-.056.091q.261.345.521.692c.191-.307.389-.612.578-.9,1.181-1.827,2.456-3.592,3.614-5.433q.3.162.6.328c.15.084.3.168.449.253-.057.1-.115.2-.173.295-.41.684-.858,1.344-1.3,1.98-1.019,1.46-2.139,2.879-3.079,4.4.175.236.351.472.525.709,1.014-1.7,2.268-3.262,3.389-4.883.305-.441.606-.892.894-1.352.152-.243.3-.489.443-.738q.361.218.717.444c-.215.424-.444.842-.682,1.254-.343.6-.7,1.18-1.072,1.755-.966,1.515-2,2.988-2.963,4.507.174.236.345.475.517.711,1.032-1.655,2.163-3.251,3.208-4.9q.376-.593.741-1.2c.328-.55.646-1.11.939-1.683q.6.4,1.181.821c-.5.684-1.026,1.353-1.556,2.019a60.916,60.916,0,0,0-4.109,5.5c.173.239.349.476.521.716.324-.535.663-1.063,1.024-1.575.925-1.315,1.942-2.573,2.949-3.84.616-.773,1.226-1.549,1.809-2.343q1,.764,1.942,1.6c-.9.976-1.844,1.917-2.735,2.9q-.183.2-.362.408c-1.222,1.4-2.407,2.834-3.679,4.188.159.225.32.449.478.675q.8-.847,1.564-1.727c.792-.91,1.563-1.84,2.368-2.739l.239-.266c.81-.89,1.657-1.745,2.476-2.626l.249-.269q.816.766,1.567,1.591c-1.138,1.011-2.317,1.98-3.434,3.014l-.32.3c-1.344,1.245-2.678,2.514-3.923,3.862q.237.345.474.689.986-1.075,2.041-2.087.872-.836,1.762-1.647c1.253-1.145,2.527-2.264,3.8-3.392l.142-.126q.848.988,1.6,2.053c-.957.814-1.979,1.561-2.957,2.315-.566.437-1.118.891-1.664,1.353-1.221,1.037-2.406,2.117-3.61,3.176.152.228.305.456.456.684,1.16-1.017,2.3-2.055,3.474-3.059.654-.561,1.318-1.11,2-1.635.914-.7,1.861-1.406,2.756-2.161q.444.68.842,1.391-.29.306-.6.6a31.177,31.177,0,0,1-4.433,3.284c-1.189.769-2.385,1.532-3.514,2.377.152.232.3.465.452.7.219-.162.436-.329.659-.486.882-.619,1.787-1.2,2.688-1.794.928-.608,1.852-1.219,2.746-1.878a19.978,19.978,0,0,0,2.409-2.042q.5.974.916,2c-1.208.779-2.533,1.417-3.74,2.1-.646.366-1.269.771-1.888,1.182-.55.365-1.1.735-1.654,1.089-.478.3-.964.591-1.452.878q.222.345.441.692.8-.472,1.579-.969c.445-.285.884-.578,1.325-.87.735-.487,1.474-.971,2.244-1.4,1.127-.631,2.32-1.234,3.434-1.941q.345.957.611,1.96a62.324,62.324,0,0,1-5.834,3.172c-.858.433-1.708.877-2.546,1.342.144.229.29.458.432.688q1.133-.628,2.293-1.215c1.981-1.008,3.986-1.977,5.858-3.157.077.345.146.694.209,1.047-1.3,1.023-2.728,1.9-4.074,2.814-.554.377-1.1.749-1.662,1.112q-.533.346-1.077.68c-.179.109-.369.221-.56.336.143.236.288.469.429.705.294-.187.59-.369.887-.549.153-.091.3-.186.452-.28.795-.505,1.558-1.05,2.342-1.575,1.137-.762,2.309-1.51,3.407-2.343.052.387.094.773.129,1.159a15.034,15.034,0,0,1-3.384,2.745c-.763.5-1.549.961-2.33,1.433-.283.171-.564.347-.846.523.136.231.274.461.41.692.171-.107.342-.215.515-.32,1.018-.621,2.054-1.215,3.041-1.878a17.519,17.519,0,0,0,2.668-2.1q.03.662.032,1.325a52.953,52.953,0,0,1-5.59,4.124c.134.232.262.469.395.7,1.739-1.238,3.564-2.384,5.183-3.753-.019.75-.059,1.5-.111,2.256-.512.391-1.039.759-1.567,1.114-.9.605-1.817,1.182-2.726,1.773.131.239.257.479.387.719,1.283-.828,2.6-1.628,3.834-2.522-.03.534-.054,1.092-.086,1.659l-.261.156c-.979.581-2,1.091-3.009,1.609.115.219.233.436.347.655.082.143.167.285.247.428l-.015.01c.123.241.251.481.377.721l.028-.017c.132.248.258.5.385.746-.012-.025-.023-.05-.036-.074q.782-.39,1.548-.811a8.387,8.387,0,0,1-.8,2.3h-.006c.425.839.833,1.687,1.182,2.557A.169.169,0,0,1,382.623,292.449Zm-28.977-42.06h-.065c.106.067.206.141.309.211C353.81,250.529,353.728,250.46,353.646,250.389Zm27.5,38.2q.178.339.354.679c-.11-.231-.221-.461-.337-.69Z" transform="translate(-350.262 -248.87)" fill="#15cecb"/>
          </g>
          <g id="Group_6896" data-name="Group 6896" transform="translate(23.673)">
            <path id="Path_2964" data-name="Path 2964" d="M328.12,289.38c1.551-.079,3.107-.209,4.651-.41-.11.166-.221.33-.333.494-1.437.07-2.875.111-4.314.109C328.122,289.508,328.122,289.445,328.12,289.38Z" transform="translate(-305.617 -202.512)" fill="#15cecb"/>
            <path id="Path_2965" data-name="Path 2965" d="M326.844,287.5c-.007-.152-.015-.3-.023-.457,1.927-.018,3.855-.022,5.779-.143l-.032.053c-1.1.157-2.2.269-3.278.368Q328.069,287.438,326.844,287.5Z" transform="translate(-304.397 -202.114)" fill="#15cecb"/>
            <path id="Path_2966" data-name="Path 2966" d="M334.883,278.5c-.186-1.949-.251-3.907-.309-5.866l-.069-.048.068,0q-.022-.748-.045-1.5c-.65.025-1.3.048-1.95.08q-1.293-.989-2.5-2.023c1.292.06,2.586.049,3.866-.018.168-.009.341-.027.51-.038-.006-.129-.009-.259-.015-.388-.018-.362-.047-.725-.065-1.087-.228.014-.461.037-.686.048a37.618,37.618,0,0,1-4.147-.027c-.422-.027-.844-.061-1.265-.1q-1.518-1.425-2.884-2.948c2.006.048,4.015.074,6.022.063.926,0,1.85-.031,2.775-.054-.03-.486-.057-.972-.089-1.458-.611.015-1.221.036-1.832.04-1.449.01-2.9-.007-4.339-.024-1.27-.015-2.544-.028-3.817-.058a42.17,42.17,0,0,1-2.54-3.44,64.339,64.339,0,0,0,9.889,1.637q.875.084,1.753.149c.261.019.524.032.786.049-.032-.47-.053-.94-.086-1.41l0-.069c-.75-.049-1.5-.1-2.246-.174a58.921,58.921,0,0,1-11.242-2.027,41.5,41.5,0,0,1-1.962-3.766,51.151,51.151,0,0,0,5.672,1.809c3.224.876,6.442,1.776,9.67,2.637-.037-.52-.077-1.039-.115-1.558q-2-.535-4-1.074-3.237-.87-6.465-1.786a35.1,35.1,0,0,1-5.61-2q-.327-.823-.626-1.672c1.957.613,3.934,1.161,5.922,1.666,2.347.6,4.7,1.15,7.029,1.808q1.8.506,3.594,1.006-.059-.781-.12-1.561c-1.4-.393-2.807-.793-4.211-1.184-4.262-1.186-8.57-2.128-12.783-3.468-.173-.565-.34-1.137-.495-1.72-.024-.093-.048-.186-.072-.28q1.738.436,3.476.867c4.611,1.139,9.233,2.247,13.879,3.242-.041-.5-.079-1-.122-1.507-2.135-.474-4.265-.976-6.386-1.474-3.76-.883-7.5-1.824-11.252-2.753q-.3-1.255-.552-2.523c1.682.243,3.353.565,5.018.9,2.339.475,4.7.875,7.033,1.366,1.977.416,3.923.974,5.871,1.507-.048-.523-.092-1.047-.141-1.57-2.236-.613-4.472-1.223-6.758-1.622-3.779-.661-7.51-1.581-11.308-2.1q-.278-1.552-.5-3.117l.1.013c1.235.185,2.449.487,3.66.785,2.036.5,4.1.855,6.133,1.371,2.379.6,4.735,1.293,7.095,1.967l1.346.387q-.08-.794-.162-1.588c-3.3-.941-6.583-1.927-9.929-2.681-2.081-.469-4.168-.943-6.254-1.39-.721-.155-1.453-.29-2.188-.374q-.195-1.569-.337-3.15a164.349,164.349,0,0,1,18.208,3.143c-.061-.516-.116-1.034-.179-1.55-.99-.217-1.982-.432-2.975-.637a152.145,152.145,0,0,0-15.156-2.447l-.023,0q-.085-1.138-.146-2.281.614.056,1.226.119c5.617.571,11.2,1.522,16.735,2.622-.066-.514-.13-1.028-.2-1.542-1.532-.3-3.066-.6-4.6-.867-3.732-.659-7.493-1.223-11.268-1.622q-.979-.1-1.96-.194-.051-1.271-.075-2.545,1.561.178,3.121.365c4.754.562,9.508,1.123,14.289,1.31-.07-.493-.138-.987-.211-1.48q-2.612-.105-5.216-.337c-2.751-.244-5.5-.566-8.25-.892-1.25-.148-2.5-.3-3.752-.439q-.01-1.513.012-3.029c1.722-.014,3.445.011,5.166.064,3.822.117,7.64.393,11.445.776-.078-.5-.153-1-.233-1.5-3.536-.349-7.081-.607-10.629-.731-1.906-.067-3.812-.1-5.718-.086q.022-.846.052-1.692c2.095.04,4.19.089,6.277.2a68.946,68.946,0,0,1,9.822,1.129c-.086-.518-.173-1.037-.261-1.556a70.645,70.645,0,0,0-9.022-1.018c-2.247-.123-4.5-.179-6.755-.222q.065-1.439.154-2.877c2.5.126,5,.335,7.476.668a60.606,60.606,0,0,1,7.832,1.564c-.092-.536-.191-1.07-.286-1.605a61.822,61.822,0,0,0-7.055-1.386c-2.6-.361-5.233-.583-7.869-.715q.07-1.008.15-2.014c2.783.253,5.563.518,8.312.943a52.6,52.6,0,0,1,6.124,1.3c-.1-.534-.19-1.069-.291-1.6a53.828,53.828,0,0,0-5.375-1.114c-2.859-.447-5.753-.719-8.649-.982q.114-1.331.243-2.659c3,.563,5.988,1.161,8.94,1.906q2.284.576,4.533,1.293-.162-.824-.328-1.648-1.881-.579-3.786-1.063c-3.041-.77-6.122-1.382-9.212-1.962q.127-1.23.262-2.454c3.142.922,6.26,1.924,9.367,2.962q1.537.514,3.071,1.04c-.119-.562-.252-1.12-.376-1.682q-1.15-.391-2.3-.777c-3.181-1.064-6.374-2.091-9.593-3.031q.154-1.33.314-2.653a61.527,61.527,0,0,1,9.842,3.551c.415.2.822.416,1.23.631-.039-.163-.071-.328-.111-.491-.113-.474-.238-.945-.36-1.417-.131-.063-.261-.129-.393-.191a64.992,64.992,0,0,0-10.027-3.564q.138-1.109.28-2.21c3.261,1.261,6.447,2.748,9.649,4.155-.176-.62-.358-1.238-.551-1.852-2.949-1.311-5.893-2.658-8.9-3.809q.1-.744.194-1.486c.078-.6.147-1.174.21-1.733.752.3,1.492.625,2.217.953q2.6,1.178,5.087,2.606-.41-1.086-.863-2.154c-1.289-.687-2.594-1.342-3.924-1.932-.77-.341-1.553-.672-2.348-.983.069-.61.137-1.189.214-1.732l.094.033a33.274,33.274,0,0,1,4.833,2.109c-.368-.757-.759-1.5-1.164-2.243-.981-.431-1.973-.817-2.937-1.164-.191-.069-.382-.136-.573-.2a6.106,6.106,0,0,1,.9-2.316,5.265,5.265,0,0,1,.491.2c-.061-.09-.115-.184-.177-.274a.246.246,0,0,1,.379-.3c.4.418.771.854,1.139,1.294.52.342,1.038.734,1.54,1.14.362.74.7,1.5,1.02,2.261-.324-.764-.659-1.52-1.02-2.261.764.62,1.5,1.26,2.171,1.771a12.6,12.6,0,0,1-.667,1.566q.432.776.827,1.573a17.328,17.328,0,0,0,1.05-2.216q.876.678,1.741,1.383a19.467,19.467,0,0,1-1.859,2.87c.218.512.429,1.028.629,1.549a23.586,23.586,0,0,0,2.374-3.469l.161.137q.625.53,1.244,1.074c-.663,1.223-1.371,2.421-2.142,3.578q-.214.323-.435.641c-.108.157-.23.311-.342.467.109.329.223.657.326.988.077.245.144.49.218.734.29-.373.573-.749.842-1.127a42.659,42.659,0,0,0,2.663-4.269q.672.611,1.333,1.24c-.34.489-.737.946-1.093,1.365-1.089,1.281-2.284,2.471-3.493,3.637.045.159.1.317.141.477.1.374.2.751.3,1.127.264-.249.533-.494.793-.746a45.768,45.768,0,0,0,3.622-3.832c.262-.32.533-.654.787-1q.76.747,1.5,1.516c-1.725,1.861-4.086,3.142-6.057,4.689-.135.106-.264.217-.395.327.139.537.27,1.078.4,1.619a14.118,14.118,0,0,1,1.144-.98,47.518,47.518,0,0,0,5.9-4.609q.949,1.014,1.867,2.062c-2.1,1.39-4.255,2.7-6.411,4-.7.424-1.394.872-2.08,1.324.12.533.242,1.064.356,1.6,2.245-1.449,4.51-2.858,6.774-4.287.781-.493,1.565-.987,2.335-1.5q.372.441.736.887c-3.117,2.16-6.446,4.041-9.577,6.189q.16.773.313,1.548c3.294-2.337,6.848-4.317,10.173-6.607q.8,1.02,1.574,2.066c-2.007,1.214-4.089,2.322-6.117,3.458-1.707.956-3.419,1.907-5.088,2.929l-.165.1c.1.514.19,1.029.284,1.544.559-.344,1.126-.676,1.669-1,3.393-2,6.89-3.827,10.259-5.871q.357.506.705,1.018c.175.257.349.515.521.775q-.258.171-.519.337c-1.219.776-2.479,1.481-3.716,2.152-2.834,1.538-5.8,2.928-8.554,4.63q.139.788.277,1.574c3.02-1.929,6.319-3.444,9.449-5.163.851-.467,1.7-.953,2.545-1.466q.663-.406,1.315-.835.408.646.8,1.3c-.692.512-1.4,1-2.122,1.478-1.039.687-2.1,1.34-3.159,1.975-2.793,1.67-5.666,3.217-8.455,4.9.09.524.173,1.048.261,1.572,3.015-1.845,6.142-3.512,9.17-5.332q1.089-.655,2.173-1.344c.978-.626,1.946-1.277,2.884-1.965q.649,1.133,1.248,2.289c-1.367.7-2.758,1.361-4.158,2.009a110.235,110.235,0,0,0-11.114,5.573c.086.527.178,1.053.262,1.581.96-.6,1.936-1.183,2.936-1.721,2.565-1.38,5.234-2.594,7.891-3.828,1.624-.754,3.242-1.516,4.831-2.33q1.007,2.053,1.849,4.164c-2.254.849-4.542,1.611-6.784,2.487q-.46.18-.917.366c-3.112,1.273-6.2,2.639-9.356,3.8.075.494.153.988.226,1.482q1.982-.724,3.935-1.53c2.02-.833,4.024-1.713,6.057-2.516.2-.079.4-.159.6-.236,2.033-.784,4.1-1.484,6.139-2.247l.622-.233q.7,1.905,1.248,3.849c-2.664.716-5.358,1.329-8.008,2.1l-.759.221c-3.187.928-6.378,1.9-9.486,3.077q.105.749.208,1.5,2.471-.941,5-1.725c1.394-.433,2.791-.842,4.191-1.239,2.958-.839,5.929-1.619,8.907-2.414l.332-.09q.574,2.288.92,4.619c-2.21.543-4.472.923-6.666,1.353-1.271.249-2.534.536-3.792.843-2.819.689-5.616,1.48-8.423,2.218.061.493.124.985.185,1.478,2.7-.706,5.4-1.463,8.107-2.139,1.514-.378,3.034-.73,4.566-1.027,2.052-.4,4.153-.768,6.216-1.265q.167,1.461.236,2.936-.718.263-1.455.48a56.379,56.379,0,0,1-9.842,1.725c-2.552.282-5.1.549-7.62,1,.058.5.111,1,.167,1.5.487-.086.972-.181,1.461-.253,1.93-.286,3.87-.5,5.809-.727,2-.232,3.99-.473,5.971-.814a36.078,36.078,0,0,0,5.558-1.355q.024,1.985-.14,3.989c-2.59.282-5.253.242-7.764.371-1.343.069-2.68.22-4.016.384-1.186.145-2.372.3-3.561.423-1.019.1-2.042.174-3.064.245q.079.74.154,1.479c1.116-.079,2.231-.173,3.344-.29.952-.1,1.9-.219,2.851-.334,1.587-.194,3.175-.378,4.774-.454,2.337-.109,4.758-.119,7.134-.361q-.215,1.83-.6,3.671a112.748,112.748,0,0,1-12.023.408c-1.741.007-3.478.036-5.212.109.047.489.1.978.142,1.467,1.564-.067,3.13-.1,4.7-.11,4.027-.027,8.06.029,12.049-.366-.154.621-.327,1.244-.511,1.866-2.928.607-5.958.863-8.88,1.254-1.2.161-2.4.319-3.593.454-.762.086-1.526.165-2.3.228-.378.031-.776.06-1.18.092.04.5.085.993.123,1.49q.941-.1,1.882-.169c.32-.025.64-.056.959-.088,1.7-.173,3.375-.437,5.071-.652,2.459-.313,4.964-.574,7.419-1.035-.228.67-.473,1.329-.73,1.982a27.18,27.18,0,0,1-7.706,1.7c-1.638.186-3.288.3-4.935.433-.6.048-1.2.1-1.794.161.034.485.07.969.1,1.454.365-.035.729-.071,1.093-.1,2.152-.179,4.312-.3,6.449-.575a31.74,31.74,0,0,0,6.026-1.243q-.487,1.1-1.022,2.172c-4,1.15-8.242,1.531-12.4,2.149.027.486.044.972.068,1.459,3.822-.6,7.707-.971,11.44-1.878-.638,1.2-1.313,2.385-2.011,3.565-1.144.217-2.3.387-3.441.535-1.947.251-3.9.441-5.853.662.018.492.028.984.043,1.477,2.749-.3,5.532-.529,8.255-.976-.482.841-.973,1.724-1.485,2.618l-.549.041c-2.058.147-4.119.148-6.18.166.01.448.025.895.031,1.342.015.3.04.6.052.894l-.033,0c.006.491.016.984.026,1.475l.06,0c.014.507.016,1.013.019,1.519,0-.05,0-.1,0-.149q1.583,0,3.164-.059a15.2,15.2,0,0,1-3.171,3.078l-.01-.006c.009,1.7-.019,3.408-.159,5.1A.305.305,0,0,1,334.883,278.5Zm-12.836-91.627c-.035-.019-.07-.034-.1-.052.115.194.217.4.329.592C322.2,187.23,322.121,187.051,322.046,186.871Zm13.576,84.17c.009.463.018.926.023,1.39.009-.464.015-.928.015-1.391Z" transform="translate(-313.135 -181.832)" fill="#15cecb"/>
          </g>
          <g id="Group_6898" data-name="Group 6898" transform="translate(25.07 94.819)">
            <g id="Group_6897" data-name="Group 6897" transform="translate(0)">
              <path id="Path_2967" data-name="Path 2967" d="M320.095,299.441l30.18-.109a1.716,1.716,0,0,1,1.681,2.092l-1.1,4.916a1.715,1.715,0,0,1-1.669,1.342l-27.945.1a1.717,1.717,0,0,1-1.678-1.329l-1.135-4.909A1.717,1.717,0,0,1,320.095,299.441Z" transform="translate(-318.384 -299.332)" fill="#fff"/>
              <path id="Path_2968" data-name="Path 2968" d="M349.5,310.659l-2.368,16.855a2.321,2.321,0,0,1-2.291,2l-17.667.065a2.323,2.323,0,0,1-2.305-1.982l-2.49-16.837Z" transform="translate(-319.1 -301.518)" fill="#fff"/>
            </g>
          </g>
        </g>
      </g>
      <g id="Group_6907" data-name="Group 6907" transform="translate(246.075 121.434)">
        <ellipse id="Ellipse_38" data-name="Ellipse 38" cx="31.732" cy="6.692" rx="31.732" ry="6.692" transform="translate(2.236 92.313)" fill="#bcc6cc" opacity="0.35" style="mix-blend-mode: multiply;isolation: isolate"/>
        <ellipse id="Ellipse_40" data-name="Ellipse 40" cx="36.314" cy="7.659" rx="36.314" ry="7.659" transform="translate(24.745 159.777)" fill="#bcc6cc" opacity="0.35" style="mix-blend-mode: multiply;isolation: isolate"/>
        <g id="Group_6906" data-name="Group 6906" transform="translate(0)">
          <g id="Group_6901" data-name="Group 6901" transform="translate(40.677 28.681)">
            <path id="Path_2969" data-name="Path 2969" d="M58.216,280.454c.68.647,1.385,1.274,2.116,1.867-.118.021-.237.041-.355.059q-.943-.9-1.844-1.843Z" transform="translate(-53.559 -236.552)" fill="#15cecb"/>
            <path id="Path_2970" data-name="Path 2970" d="M56.339,279.363l.191-.2c.81.837,1.614,1.679,2.468,2.471l-.037.008c-.525-.414-1.032-.85-1.525-1.282Q56.877,279.872,56.339,279.363Z" transform="translate(-51.058 -236.101)" fill="#15cecb"/>
            <path id="Path_2971" data-name="Path 2971" d="M13.282,260.59c.776-.893,1.607-1.736,2.44-2.578,0-.016-.005-.033-.008-.05l.029.029q.319-.321.636-.642c-.282-.274-.562-.549-.847-.821q-.105-.978-.157-1.939c.512.591,1.055,1.154,1.617,1.685.074.07.153.139.229.208.055-.057.11-.112.164-.168.152-.159.3-.322.449-.481-.1-.094-.208-.187-.306-.28a22.806,22.806,0,0,1-1.715-1.827c-.164-.2-.324-.395-.481-.6q-.008-1.258.09-2.49c.815.9,1.639,1.789,2.48,2.663.388.4.784.8,1.179,1.193.2-.215.4-.43.6-.646-.261-.261-.524-.52-.78-.786-.607-.63-1.2-1.271-1.8-1.91-.522-.562-1.047-1.126-1.564-1.7a25.559,25.559,0,0,1,.449-2.544,38.941,38.941,0,0,0,3.4,5.011q.328.417.665.83c.1.123.2.243.306.365.192-.209.389-.414.581-.624l.029-.031c-.291-.349-.579-.7-.859-1.056a35.629,35.629,0,0,1-3.792-5.766,24.879,24.879,0,0,1,.832-2.427,31.056,31.056,0,0,0,1.57,3.237c.959,1.776,1.9,3.561,2.871,5.333.212-.232.423-.466.635-.7q-.6-1.1-1.193-2.2-.967-1.781-1.91-3.575a21.207,21.207,0,0,1-1.457-3.291c.15-.324.306-.648.471-.97.546,1.112,1.129,2.206,1.736,3.287.716,1.276,1.452,2.536,2.135,3.831q.526,1,1.056,1.993l.633-.7c-.413-.779-.821-1.56-1.235-2.337-1.255-2.36-2.635-4.639-3.8-7.042.176-.311.356-.622.547-.932L19.3,239q.533.942,1.067,1.884c1.421,2.493,2.86,4.979,4.359,7.427.2-.228.407-.453.609-.681-.681-1.133-1.349-2.273-2.013-3.41-1.178-2.014-2.325-4.045-3.478-6.073q.426-.653.875-1.292c.594.838,1.148,1.7,1.694,2.573.766,1.222,1.572,2.422,2.329,3.648.641,1.039,1.207,2.123,1.784,3.2.209-.239.42-.476.629-.716-.662-1.234-1.327-2.467-2.1-3.634-1.284-1.93-2.434-3.947-3.788-5.826q.563-.768,1.156-1.517l.036.048c.433.618.806,1.276,1.18,1.931.628,1.1,1.332,2.151,1.953,3.256.726,1.293,1.405,2.612,2.093,3.926l.391.75q.314-.365.627-.732c-.961-1.836-1.9-3.686-2.959-5.465-.661-1.107-1.323-2.217-1.995-3.317-.233-.38-.478-.757-.748-1.114q.607-.738,1.239-1.459a99.216,99.216,0,0,1,6.2,9.282c.2-.241.4-.481.6-.724-.318-.524-.637-1.048-.96-1.568a91.883,91.883,0,0,0-5.238-7.655l-.008-.01q.463-.511.938-1.014.23.292.458.586c2.089,2.7,3.994,5.537,5.818,8.42.2-.243.4-.485.592-.729-.506-.8-1.015-1.59-1.537-2.377-1.265-1.909-2.584-3.79-3.98-5.609q-.363-.472-.732-.939.535-.551,1.083-1.092.572.757,1.139,1.518c1.734,2.316,3.466,4.631,5.375,6.8.187-.237.375-.472.561-.709q-1.041-1.188-2.024-2.425c-1.038-1.306-2.042-2.645-3.044-3.984q-.684-.914-1.369-1.825.658-.635,1.332-1.256,1.085,1.123,2.122,2.289c1.54,1.723,3.009,3.509,4.426,5.335.185-.243.373-.483.558-.726-1.319-1.693-2.682-3.353-4.105-4.959q-1.146-1.293-2.343-2.539.379-.342.763-.681c.854.933,1.7,1.871,2.528,2.831A41.676,41.676,0,0,1,37,233.418q.288-.38.573-.762a42.683,42.683,0,0,0-3.31-4.374c-.881-1.035-1.8-2.046-2.715-3.05q.657-.571,1.324-1.13c.987,1.148,1.936,2.329,2.819,3.552a36.6,36.6,0,0,1,2.576,4.08c.2-.263.388-.529.583-.793a37.392,37.392,0,0,0-2.331-3.667c-.925-1.29-1.923-2.534-2.963-3.743q.471-.389.945-.773c1.048,1.324,2.089,2.652,3.048,4.032a31.839,31.839,0,0,1,1.981,3.222c.193-.265.388-.528.58-.795a32.7,32.7,0,0,0-1.75-2.818c-.995-1.438-2.081-2.818-3.171-4.2q.631-.505,1.266-1c1,1.548,1.984,3.106,2.886,4.708q.7,1.241,1.321,2.524c.2-.276.391-.552.585-.83q-.53-1.064-1.111-2.1c-.929-1.652-1.943-3.256-2.976-4.85q.591-.457,1.183-.908c.9,1.76,1.764,3.543,2.6,5.336q.415.887.823,1.777c.2-.286.386-.577.579-.864q-.307-.667-.618-1.332c-.858-1.836-1.738-3.662-2.666-5.463q.646-.487,1.291-.967a37.111,37.111,0,0,1,2.542,5.788c.085.265.161.533.235.8.056-.085.114-.167.169-.252.161-.246.315-.5.471-.747-.027-.084-.053-.168-.08-.252a39.248,39.248,0,0,0-2.613-5.874q.543-.4,1.085-.8c.805,1.953,1.48,3.967,2.2,5.955q.3-.5.581-1.012c-.653-1.837-1.289-3.688-2.039-5.484l.732-.534c.295-.214.575-.425.847-.629.18.456.348.914.506,1.367.377,1.085.7,2.193.977,3.312q.3-.632.584-1.275c-.235-.85-.492-1.695-.787-2.522-.171-.479-.352-.96-.548-1.438.3-.224.578-.435.847-.628l.025.055a20.137,20.137,0,0,1,1.088,2.994c.179-.476.343-.958.5-1.444-.22-.609-.464-1.2-.713-1.771q-.074-.168-.15-.336a3.7,3.7,0,0,1,1.387-.572,3.015,3.015,0,0,1,.119.3c.014-.064.033-.127.046-.191a.148.148,0,0,1,.29.04c-.016.349-.052.693-.092,1.036.067.371.111.76.142,1.15-.174.466-.366.929-.565,1.388.2-.459.391-.921.565-1.388.047.593.072,1.181.128,1.688a7.62,7.62,0,0,1-.963.36c-.107.341-.22.681-.345,1.016a10.455,10.455,0,0,0,1.408-.462q.068.665.119,1.338a11.758,11.758,0,0,1-2.031.381c-.134.309-.271.616-.417.919a14.2,14.2,0,0,0,2.508-.4c0,.043,0,.085.007.128q.027.495.047.991c-.812.219-1.631.408-2.459.553-.154.027-.308.053-.462.076-.114.018-.232.029-.347.044-.1.185-.2.371-.3.555-.075.135-.155.267-.231.4.284-.029.567-.061.845-.1a26,26,0,0,0,2.978-.611c.008.366.011.733.012,1.1-.356.055-.721.071-1.053.089-1.014.057-2.033.029-3.047-.016-.051.086-.1.174-.15.26-.12.2-.244.4-.367.6.219.012.438.027.657.036a27.7,27.7,0,0,0,3.186-.008c.25-.019.509-.04.768-.074q-.011.645-.038,1.291a29.783,29.783,0,0,1-4.575-.7c-.1-.015-.205-.025-.308-.037-.178.285-.36.568-.542.85a8.557,8.557,0,0,1,.905.093,28.631,28.631,0,0,0,4.476.666q-.049.838-.126,1.676c-1.483-.341-2.951-.741-4.42-1.142-.479-.131-.962-.248-1.446-.36-.183.274-.365.548-.551.821,1.569.379,3.129.784,4.7,1.181.541.137,1.083.274,1.628.4-.025.231-.053.461-.082.692-2.243-.466-4.452-1.141-6.7-1.618q-.272.392-.547.782c2.394.469,4.741,1.2,7.128,1.7q-.111.776-.25,1.548c-1.367-.373-2.719-.824-4.061-1.239-1.129-.35-2.258-.7-3.4-1.009l-.114-.03c-.185.257-.371.512-.558.767.384.1.765.211,1.131.316,2.29.652,4.544,1.424,6.842,2.048q-.073.367-.153.733-.059.276-.122.551-.182-.042-.363-.087c-.847-.211-1.681-.469-2.489-.731-1.854-.6-3.7-1.32-5.59-1.817l-.574.776c2.1.519,4.139,1.334,6.194,1.988.559.178,1.127.35,1.7.5.3.081.607.158.913.228-.075.3-.154.6-.235.892-.512-.09-1.023-.2-1.531-.313-.733-.169-1.46-.361-2.18-.561-1.894-.528-3.768-1.142-5.664-1.663-.192.257-.387.512-.58.768,2.063.553,4.095,1.228,6.153,1.8.494.136.992.268,1.493.391.681.168,1.369.321,2.061.445q-.226.756-.482,1.5c-.876-.307-1.744-.642-2.611-.984a66.525,66.525,0,0,0-7.067-2.547c-.2.257-.388.517-.583.773.664.169,1.324.355,1.976.569,1.672.549,3.314,1.212,4.961,1.862,1.006.4,2.014.789,3.031,1.146q-.48,1.3-1.053,2.543c-1.31-.633-2.6-1.318-3.914-1.935q-.27-.127-.542-.249c-1.853-.833-3.736-1.616-5.559-2.515-.186.239-.369.479-.555.717q1.142.566,2.308,1.086c1.206.538,2.425,1.049,3.624,1.6.118.055.237.109.354.165,1.19.564,2.356,1.177,3.539,1.754l.361.175q-.542,1.1-1.165,2.149c-1.423-.869-2.813-1.793-4.253-2.634l-.413-.241c-1.733-1.009-3.487-2-5.3-2.873-.19.239-.379.477-.57.715q1.441.691,2.836,1.47,1.154.646,2.287,1.319c1.6.946,3.177,1.922,4.765,2.9l.178.109q-.763,1.2-1.64,2.326c-1.157-.742-2.266-1.574-3.368-2.356-.639-.453-1.289-.887-1.948-1.31-1.475-.948-2.985-1.843-4.478-2.766-.19.232-.379.465-.57.7,1.435.89,2.887,1.754,4.312,2.66.8.506,1.583,1.025,2.351,1.572,1.029.732,2.066,1.5,3.142,2.195q-.57.682-1.187,1.326-.414-.2-.816-.438a34.072,34.072,0,0,1-4.852-3.591c-1.186-1-2.366-2.007-3.611-2.921-.194.233-.391.464-.586.7.241.178.484.351.719.534.929.725,1.831,1.485,2.736,2.24.932.778,1.869,1.55,2.843,2.276a21.865,21.865,0,0,0,2.907,1.87q-.859.836-1.8,1.6c-1.2-1.016-2.293-2.2-3.4-3.245-.589-.559-1.212-1.082-1.84-1.6-.558-.459-1.12-.914-1.668-1.384-.47-.4-.927-.821-1.383-1.239q-.291.342-.583.683.748.684,1.519,1.344c.44.375.887.741,1.333,1.109.745.614,1.487,1.233,2.185,1.9,1.021.979,2.033,2.034,3.129,2.974q-.892.667-1.858,1.265a68.144,68.144,0,0,1-5.184-5.095c-.727-.76-1.464-1.509-2.217-2.237-.2.224-.388.45-.583.673q1.02.985,2,2.012c1.688,1.752,3.343,3.541,5.176,5.124-.336.192-.68.375-1.029.553-1.485-1.03-2.858-2.25-4.246-3.366-.572-.46-1.137-.917-1.7-1.384-.355-.3-.707-.6-1.056-.911-.171-.152-.349-.315-.531-.478-.2.224-.4.451-.6.674.289.247.574.5.857.754.144.13.291.257.438.383.783.671,1.6,1.3,2.4,1.949,1.16.947,2.317,1.935,3.541,2.818-.388.179-.779.347-1.172.505a16.425,16.425,0,0,1-3.954-2.666c-.763-.64-1.5-1.314-2.244-1.981-.271-.243-.544-.481-.817-.719-.2.217-.4.434-.594.65.167.146.334.29.5.437.975.867,1.929,1.762,2.937,2.584a19.147,19.147,0,0,0,3.052,2.121c-.455.163-.914.314-1.377.457a57.991,57.991,0,0,1-6.1-4.535c-.2.215-.408.424-.611.637,1.852,1.425,3.634,2.971,5.586,4.229-.791.219-1.592.417-2.4.6-.572-.411-1.126-.845-1.667-1.284-.921-.748-1.818-1.525-2.727-2.288-.208.213-.419.422-.629.633,1.276,1.079,2.535,2.2,3.864,3.209-.569.139-1.161.292-1.765.44L21.973,258c-.921-.839-1.779-1.742-2.645-2.637-.192.19-.382.383-.575.572-.124.131-.245.266-.37.4l-.014-.014c-.213.207-.424.417-.635.625l.027.025c-.217.217-.437.429-.657.64l.066-.061q.658.693,1.343,1.361a9.19,9.19,0,0,1-2.668-.107V258.8c-.743.713-1.5,1.41-2.3,2.055A.185.185,0,0,1,13.282,260.59Zm34.781-43.767c-.006-.023-.014-.045-.021-.068-.037.132-.083.26-.122.391C47.968,217.039,48.014,216.931,48.063,216.823ZM16.856,257.809q-.3.3-.6.589.31-.284.615-.573Z" transform="translate(-13.23 -212.939)" fill="#15cecb"/>
          </g>
          <g id="Group_6902" data-name="Group 6902" transform="translate(0 43.592)">
            <path id="Path_2972" data-name="Path 2972" d="M90.822,283.062c.6-.34,1.195-.7,1.769-1.089-.01.088-.022.176-.034.263-.557.314-1.122.616-1.694.9Z" transform="translate(-66.396 -251.995)" fill="#15cecb"/>
            <path id="Path_2973" data-name="Path 2973" d="M90.791,282.016l-.1-.177c.763-.391,1.529-.776,2.27-1.208l0,.028c-.4.281-.821.544-1.231.8Q91.265,281.747,90.791,282.016Z" transform="translate(-66.681 -251.526)" fill="#15cecb"/>
            <path id="Path_2974" data-name="Path 2974" d="M116.338,270.986c-.462-.738-.878-1.5-1.291-2.272l-.037-.005.027-.014-.316-.586c-.254.139-.508.278-.76.42q-.711-.136-1.4-.306c.526-.233,1.038-.495,1.535-.776.065-.037.13-.079.2-.117-.028-.05-.055-.1-.083-.151-.079-.141-.163-.28-.243-.419-.088.051-.176.107-.263.155a16.742,16.742,0,0,1-1.655.815c-.173.073-.348.144-.523.21q-.889-.264-1.735-.6,1.211-.571,2.409-1.174c.367-.187.73-.38,1.093-.574-.109-.187-.217-.375-.326-.562-.24.127-.479.257-.72.38-.575.292-1.154.574-1.731.854-.508.247-1.018.495-1.53.737a18.864,18.864,0,0,1-1.7-.863,28.623,28.623,0,0,0,4.26-1.318q.364-.141.726-.289c.108-.044.215-.092.323-.137-.107-.181-.209-.364-.315-.544l-.015-.026c-.308.129-.618.257-.929.378a26.16,26.16,0,0,1-4.875,1.432,18.274,18.274,0,0,1-1.531-1.107,22.825,22.825,0,0,0,2.617-.41c1.457-.294,2.916-.576,4.372-.876-.118-.2-.237-.4-.356-.6l-1.8.368q-1.461.3-2.927.577a15.6,15.6,0,0,1-2.631.319q-.294-.262-.582-.54c.9-.146,1.8-.322,2.687-.517,1.053-.23,2.1-.478,3.156-.68q.815-.156,1.63-.315l-.359-.6c-.637.123-1.275.243-1.91.367-1.932.376-3.833.86-5.776,1.165-.181-.191-.362-.384-.539-.585l-.085-.1q.778-.172,1.555-.347c2.061-.465,4.121-.944,6.166-1.474-.116-.192-.231-.384-.349-.575-.944.237-1.89.462-2.834.685-1.671.4-3.348.769-5.024,1.145q-.368-.441-.722-.894c.717-.238,1.446-.443,2.176-.64,1.025-.277,2.043-.588,3.069-.857.869-.228,1.754-.393,2.635-.569-.123-.2-.244-.4-.369-.6-1.012.2-2.022.4-3.011.7-1.635.489-3.3.866-4.916,1.416q-.42-.562-.821-1.141l.042-.014c.528-.172,1.071-.294,1.613-.416.909-.206,1.8-.477,2.712-.676,1.066-.233,2.141-.428,3.214-.63l.612-.114c-.126-.2-.253-.4-.38-.6-1.5.282-3,.544-4.483.91-.921.228-1.845.455-2.764.692-.318.083-.635.174-.945.287q-.39-.585-.761-1.186a72.929,72.929,0,0,1,7.869-2.375c-.127-.194-.252-.388-.38-.581-.437.111-.874.223-1.31.339a67.644,67.644,0,0,0-6.516,2.044l-.009,0q-.26-.436-.512-.878l.511-.2c2.348-.891,4.757-1.624,7.179-2.289-.129-.191-.256-.383-.386-.574-.67.185-1.338.374-2,.572-1.616.481-3.223,1.006-4.8,1.6-.274.1-.546.206-.818.313q-.273-.495-.536-1,.655-.24,1.313-.477c2-.723,4.006-1.446,5.945-2.324-.126-.182-.251-.365-.378-.547q-1.06.478-2.142.9c-1.143.451-2.3.87-3.459,1.288q-.79.285-1.579.572-.305-.6-.6-1.208c.682-.349,1.372-.681,2.067-1,1.544-.714,3.117-1.365,4.707-1.97-.131-.183-.259-.367-.391-.549-1.475.565-2.937,1.168-4.374,1.825q-1.158.529-2.291,1.1-.16-.341-.316-.684c.841-.4,1.684-.8,2.536-1.172a30.729,30.729,0,0,1,4.131-1.506l-.413-.567a31.293,31.293,0,0,0-3.792,1.392c-.918.4-1.826.825-2.731,1.256q-.26-.585-.512-1.175c1.021-.449,2.056-.863,3.107-1.223a26.959,26.959,0,0,1,3.427-.938c-.144-.194-.289-.387-.434-.581a27.537,27.537,0,0,0-3.082.854c-1.107.375-2.2.81-3.273,1.282q-.173-.415-.341-.831c1.157-.453,2.316-.9,3.494-1.28a23.226,23.226,0,0,1,2.695-.7c-.146-.193-.289-.388-.435-.579a23.8,23.8,0,0,0-2.36.627c-1.226.392-2.431.86-3.636,1.332q-.219-.553-.432-1.106c1.305-.373,2.613-.73,3.935-1.022q1.023-.226,2.061-.388-.228-.3-.458-.59-.863.144-1.718.331c-1.362.3-2.71.669-4.054,1.053q-.2-.514-.385-1.028c1.433-.259,2.873-.481,4.316-.687q.714-.1,1.429-.2c-.159-.2-.324-.4-.484-.594q-.536.073-1.07.149c-1.477.21-2.952.438-4.42.7q-.2-.559-.4-1.117a27.423,27.423,0,0,1,4.622-.547c.2,0,.41,0,.615.006-.047-.057-.093-.116-.141-.173-.139-.166-.283-.328-.425-.492-.065,0-.13,0-.194,0a28.867,28.867,0,0,0-4.7.578q-.166-.468-.329-.934c1.548-.148,3.112-.191,4.666-.269q-.29-.317-.588-.627c-1.434.066-2.873.116-4.3.258l-.218-.63c-.087-.253-.176-.5-.261-.731.36-.029.718-.049,1.071-.062.846-.033,1.7-.024,2.542.023q-.379-.35-.772-.685c-.649-.017-1.3-.018-1.946.013-.374.017-.752.042-1.129.077-.094-.257-.182-.5-.26-.732l.044-.006a14.851,14.851,0,0,1,2.343-.124c-.3-.228-.6-.447-.91-.66-.476.024-.947.068-1.4.122l-.268.033a2.708,2.708,0,0,1-.1-1.1,2.082,2.082,0,0,1,.234-.02c-.042-.024-.083-.051-.125-.074a.109.109,0,0,1,.09-.2c.243.086.477.186.711.287.275.033.559.085.84.148.291.222.575.456.856.7-.281-.239-.565-.473-.856-.7.427.094.847.2,1.216.272a5.747,5.747,0,0,1,.047.756c.217.148.432.3.642.461a7.73,7.73,0,0,0-.023-1.09q.483.095.968.2a8.671,8.671,0,0,1-.168,1.512c.189.161.375.323.559.491a10.546,10.546,0,0,0,.254-1.853l.092.023q.354.087.708.179c-.02.618-.063,1.236-.139,1.85-.014.114-.029.228-.046.341-.012.084-.029.17-.043.254.109.109.219.217.326.328.079.082.155.166.233.249.041-.206.079-.412.111-.616a19.09,19.09,0,0,0,.209-2.228q.389.109.777.228c-.038.262-.1.523-.163.761-.178.726-.416,1.438-.665,2.143.05.055.1.107.151.161.116.128.23.259.345.388.056-.152.114-.3.167-.455a20.171,20.171,0,0,0,.678-2.245c.04-.18.081-.367.113-.557q.452.146.9.3a21.893,21.893,0,0,1-1.476,3.072c-.033.068-.062.138-.092.208.163.187.323.375.482.564a6.228,6.228,0,0,1,.26-.618,21.1,21.1,0,0,0,1.43-3.009q.579.215,1.153.449c-.559.971-1.156,1.92-1.754,2.867-.194.309-.38.624-.564.942.154.187.308.375.46.564.6-1.023,1.224-2.035,1.841-3.054.213-.352.426-.7.63-1.062.157.068.313.137.469.206-.81,1.48-1.76,2.89-2.577,4.369q.217.275.432.553c.845-1.585,1.864-3.081,2.731-4.653q.523.245,1.037.508c-.557.883-1.164,1.738-1.745,2.594-.489.72-.981,1.439-1.441,2.178l-.045.073q.211.278.42.557c.154-.248.313-.493.466-.728.951-1.472,1.979-2.894,2.912-4.378q.243.131.483.265c.121.068.242.135.362.2-.046.08-.092.159-.14.237-.33.551-.691,1.083-1.049,1.6-.821,1.176-1.724,2.319-2.481,3.545.141.191.283.38.423.571.817-1.369,1.828-2.628,2.73-3.935.246-.355.488-.719.72-1.09.122-.2.242-.394.357-.594q.291.176.577.358c-.173.341-.358.678-.549,1.01-.276.48-.568.951-.864,1.414-.778,1.221-1.613,2.408-2.388,3.632.14.19.278.382.417.573.832-1.334,1.743-2.62,2.585-3.946q.3-.478.6-.968c.265-.443.52-.895.756-1.356q.484.322.952.662c-.4.551-.826,1.09-1.254,1.627a49.094,49.094,0,0,0-3.311,4.43c.139.193.281.384.419.577.261-.431.535-.856.825-1.269.745-1.06,1.565-2.074,2.376-3.094.5-.623.988-1.248,1.458-1.888q.81.616,1.565,1.288c-.728.786-1.486,1.545-2.2,2.34q-.147.163-.292.328c-.984,1.126-1.94,2.284-2.964,3.375.128.181.257.362.385.544q.644-.683,1.26-1.392c.638-.734,1.26-1.483,1.908-2.207l.192-.214c.653-.717,1.335-1.406,1.995-2.116l.2-.217q.657.617,1.263,1.282c-.917.815-1.867,1.6-2.767,2.429l-.258.239c-1.083,1-2.158,2.026-3.161,3.112l.382.555q.795-.866,1.645-1.682.7-.674,1.42-1.327c1.01-.923,2.036-1.825,3.063-2.734l.114-.1q.684.8,1.286,1.654c-.771.656-1.6,1.258-2.383,1.866-.456.352-.9.718-1.341,1.09-.984.836-1.939,1.706-2.909,2.559.122.184.246.367.367.551.935-.819,1.856-1.656,2.8-2.465.527-.452,1.062-.894,1.611-1.317.737-.568,1.5-1.133,2.221-1.741q.358.548.679,1.121-.234.247-.483.48a25.126,25.126,0,0,1-3.572,2.646c-.958.62-1.921,1.235-2.832,1.915.122.187.243.374.364.562.176-.131.351-.265.531-.391.711-.5,1.44-.97,2.166-1.446.748-.49,1.492-.982,2.213-1.513a16.1,16.1,0,0,0,1.941-1.645q.4.785.738,1.615c-.973.628-2.041,1.142-3.014,1.693-.521.3-1.023.621-1.522.953-.443.294-.884.592-1.332.877-.385.244-.777.476-1.17.707q.179.278.356.558.643-.38,1.273-.781c.359-.23.713-.466,1.068-.7.592-.393,1.187-.782,1.808-1.131.908-.508,1.869-.994,2.767-1.564q.278.771.492,1.579a50.218,50.218,0,0,1-4.7,2.556c-.691.349-1.377.707-2.052,1.081.116.185.233.369.348.555q.913-.506,1.847-.979c1.6-.812,3.212-1.593,4.72-2.544.062.278.118.559.168.843-1.044.825-2.2,1.529-3.282,2.267-.447.3-.89.6-1.339.9q-.429.279-.868.548c-.144.088-.3.178-.451.271.115.19.232.378.346.568.237-.151.475-.3.715-.442.123-.073.244-.15.364-.226.641-.407,1.256-.846,1.887-1.269.916-.614,1.86-1.217,2.745-1.888.042.312.076.623.1.934a12.114,12.114,0,0,1-2.726,2.212c-.614.4-1.248.774-1.877,1.155-.228.138-.455.28-.681.421.11.186.221.371.33.558.138-.086.276-.174.415-.258.82-.5,1.655-.979,2.45-1.513a14.12,14.12,0,0,0,2.15-1.694q.024.534.026,1.068a42.656,42.656,0,0,1-4.5,3.323c.108.187.211.378.318.566,1.4-1,2.872-1.921,4.177-3.024-.015.6-.047,1.21-.09,1.818-.412.315-.837.611-1.263.9-.724.488-1.464.953-2.2,1.429.105.192.207.386.311.579,1.034-.667,2.1-1.312,3.089-2.032-.024.43-.044.88-.069,1.337l-.211.125c-.789.468-1.609.879-2.425,1.3.093.176.188.351.28.528.066.115.135.23.2.345l-.012.008c.1.194.2.388.3.581l.023-.014c.107.2.208.4.31.6-.01-.02-.019-.04-.029-.06q.63-.314,1.247-.654a6.756,6.756,0,0,1-.648,1.856h-.005c.343.676.671,1.359.953,2.061A.136.136,0,0,1,116.338,270.986ZM92.989,237.094h-.052c.085.054.166.114.249.17C93.121,237.207,93.055,237.151,92.989,237.094Zm22.159,30.779q.143.273.285.548c-.088-.186-.178-.371-.271-.556Z" transform="translate(-90.262 -235.87)" fill="#15cecb"/>
          </g>
          <g id="Group_6903" data-name="Group 6903" transform="translate(19.076)">
            <path id="Path_2975" data-name="Path 2975" d="M68.12,276.3c1.25-.064,2.5-.168,3.748-.33-.088.134-.178.266-.269.4-1.158.057-2.317.089-3.476.088C68.122,276.4,68.121,276.352,68.12,276.3Z" transform="translate(-49.987 -206.303)" fill="#15cecb"/>
            <path id="Path_2976" data-name="Path 2976" d="M66.84,274.387c-.006-.122-.012-.245-.019-.368,1.553-.014,3.106-.018,4.656-.115l-.026.043c-.882.127-1.769.217-2.641.3Q67.827,274.334,66.84,274.387Z" transform="translate(-48.752 -205.581)" fill="#15cecb"/>
            <path id="Path_2977" data-name="Path 2977" d="M70.659,246.725c-.15-1.57-.2-3.148-.249-4.727l-.056-.039.055,0q-.018-.6-.036-1.2c-.524.02-1.048.039-1.572.064q-1.042-.8-2.018-1.63c1.041.048,2.084.04,3.115-.014.135-.007.274-.021.411-.031,0-.1-.007-.209-.012-.313-.014-.292-.038-.584-.053-.876-.184.011-.371.03-.553.038a30.317,30.317,0,0,1-3.342-.021c-.34-.021-.68-.049-1.019-.085q-1.223-1.148-2.324-2.375c1.617.038,3.235.06,4.853.051.746,0,1.491-.025,2.236-.044-.024-.391-.046-.783-.072-1.175-.492.012-.984.029-1.476.032-1.167.008-2.334-.006-3.5-.02-1.023-.012-2.05-.023-3.076-.047a33.969,33.969,0,0,1-2.046-2.772,51.843,51.843,0,0,0,7.968,1.319q.705.067,1.412.12c.211.016.422.026.633.04-.025-.378-.043-.758-.069-1.136l0-.055c-.6-.04-1.208-.084-1.81-.14A47.478,47.478,0,0,1,59,230.049a33.45,33.45,0,0,1-1.581-3.035,41.2,41.2,0,0,0,4.571,1.458c2.6.706,5.191,1.431,7.792,2.125-.03-.419-.062-.837-.092-1.256q-1.61-.431-3.22-.865-2.608-.7-5.209-1.439a28.29,28.29,0,0,1-4.521-1.615q-.263-.663-.5-1.347c1.577.494,3.17.936,4.772,1.343,1.891.481,3.785.927,5.664,1.457q1.447.408,2.9.811-.048-.629-.1-1.258c-1.132-.317-2.262-.639-3.393-.954-3.434-.956-6.906-1.715-10.3-2.795-.139-.455-.274-.916-.4-1.386-.02-.075-.038-.15-.058-.226q1.4.351,2.8.7c3.716.917,7.44,1.811,11.184,2.612-.033-.405-.064-.81-.1-1.214-1.721-.382-3.437-.786-5.145-1.188-3.03-.711-6.047-1.47-9.066-2.219q-.239-1.012-.445-2.033c1.355.2,2.7.455,4.043.727,1.885.383,3.786.7,5.667,1.1,1.593.336,3.161.785,4.731,1.215-.038-.421-.074-.844-.114-1.265-1.8-.494-3.6-.985-5.446-1.307-3.045-.533-6.052-1.274-9.112-1.692q-.224-1.25-.4-2.512L54,214c.995.149,1.974.393,2.95.633,1.641.4,3.3.689,4.942,1.1,1.917.486,3.816,1.042,5.717,1.585l1.085.311q-.064-.64-.131-1.28c-2.657-.758-5.3-1.553-8-2.16-1.677-.378-3.359-.76-5.039-1.12-.581-.125-1.17-.233-1.763-.3q-.157-1.264-.271-2.538a132.42,132.42,0,0,1,14.672,2.533c-.049-.416-.094-.833-.144-1.249-.8-.175-1.6-.348-2.4-.513A122.583,122.583,0,0,0,53.4,209.034l-.018,0q-.068-.917-.118-1.838.495.045.988.1c4.526.46,9.022,1.226,13.485,2.113-.053-.414-.1-.828-.16-1.243-1.235-.243-2.47-.48-3.709-.7-3.007-.531-6.038-.985-9.079-1.307Q54,206.071,53.214,206q-.041-1.024-.06-2.051,1.258.143,2.515.294c3.831.453,7.661.9,11.514,1.055-.057-.4-.111-.8-.17-1.193q-2.1-.085-4.2-.272c-2.217-.2-4.432-.456-6.648-.719-1.007-.119-2.015-.239-3.023-.354q-.008-1.219.01-2.441c1.388-.011,2.776.009,4.163.051,3.08.094,6.157.317,9.223.626-.063-.4-.123-.8-.188-1.206-2.849-.281-5.706-.489-8.565-.589-1.536-.054-3.072-.08-4.608-.069q.018-.682.042-1.364c1.688.032,3.376.072,5.058.158a55.554,55.554,0,0,1,7.914.91c-.069-.417-.14-.836-.21-1.254a56.915,56.915,0,0,0-7.27-.82c-1.81-.1-3.626-.144-5.443-.179q.053-1.16.124-2.318c2.017.1,4.03.27,6.024.538a48.828,48.828,0,0,1,6.311,1.26c-.074-.432-.154-.862-.231-1.293a49.81,49.81,0,0,0-5.685-1.117c-2.1-.291-4.217-.469-6.341-.576q.057-.812.121-1.623c2.243.2,4.483.417,6.7.759a42.387,42.387,0,0,1,4.935,1.046c-.079-.43-.153-.862-.235-1.291a43.373,43.373,0,0,0-4.331-.9c-2.3-.36-4.636-.579-6.969-.791q.092-1.073.2-2.143c2.416.454,4.825.936,7.2,1.536q1.841.464,3.652,1.042-.131-.664-.264-1.328-1.516-.466-3.051-.856c-2.45-.62-4.933-1.114-7.423-1.581q.1-.991.211-1.977c2.532.743,5.045,1.55,7.548,2.387q1.239.415,2.474.838c-.1-.453-.2-.9-.3-1.355q-.927-.315-1.855-.626c-2.563-.858-5.136-1.685-7.73-2.442q.124-1.072.253-2.137a49.576,49.576,0,0,1,7.93,2.862c.334.161.663.335.991.508-.031-.131-.057-.264-.089-.4-.091-.382-.192-.761-.29-1.142-.105-.051-.211-.1-.317-.154a52.372,52.372,0,0,0-8.079-2.872q.111-.893.226-1.781c2.628,1.016,5.195,2.214,7.775,3.348q-.213-.749-.444-1.492c-2.376-1.057-4.749-2.142-7.174-3.069q.078-.6.157-1.2c.063-.481.118-.946.169-1.4.606.245,1.2.5,1.786.768q2.094.949,4.1,2.1-.331-.875-.7-1.736c-1.038-.553-2.09-1.081-3.162-1.557-.62-.275-1.252-.542-1.892-.792.056-.492.111-.958.172-1.4l.076.027a26.817,26.817,0,0,1,3.894,1.7c-.3-.61-.611-1.212-.938-1.807-.791-.347-1.59-.658-2.366-.938-.153-.055-.308-.109-.462-.163a4.92,4.92,0,0,1,.722-1.866,4.234,4.234,0,0,1,.4.157c-.049-.073-.093-.148-.142-.22a.2.2,0,0,1,.3-.245c.322.337.622.688.917,1.042.419.276.836.591,1.241.919.291.6.561,1.206.822,1.822-.261-.616-.531-1.225-.822-1.822.616.5,1.207,1.016,1.749,1.427a10.151,10.151,0,0,1-.537,1.262q.348.625.667,1.267a13.96,13.96,0,0,0,.846-1.786q.706.546,1.4,1.115a15.687,15.687,0,0,1-1.5,2.313c.176.413.346.828.507,1.248a19.011,19.011,0,0,0,1.913-2.8l.13.111q.5.427,1,.865c-.535.985-1.1,1.951-1.726,2.883q-.173.261-.35.516c-.087.126-.185.25-.276.376.088.265.179.529.263.8.062.2.116.395.176.592.233-.3.462-.6.679-.908a34.382,34.382,0,0,0,2.146-3.44q.541.493,1.074,1c-.274.394-.594.762-.881,1.1-.878,1.032-1.84,1.991-2.815,2.931.036.128.077.256.114.384.085.3.162.605.244.908.213-.2.429-.4.639-.6a36.879,36.879,0,0,0,2.919-3.087c.211-.258.429-.527.634-.809q.613.6,1.212,1.222c-1.39,1.5-3.292,2.531-4.881,3.779-.109.085-.213.175-.318.263.112.433.218.869.324,1.3a11.377,11.377,0,0,1,.921-.789,38.285,38.285,0,0,0,4.757-3.714q.765.817,1.5,1.661c-1.693,1.12-3.429,2.173-5.166,3.223-.566.342-1.123.7-1.676,1.067.1.429.2.857.287,1.287,1.809-1.168,3.634-2.3,5.458-3.455.629-.4,1.261-.8,1.881-1.209q.3.355.593.715c-2.511,1.741-5.194,3.256-7.717,4.987q.129.623.252,1.247c2.654-1.883,5.518-3.479,8.2-5.324q.649.822,1.268,1.665c-1.617.979-3.295,1.871-4.929,2.786-1.375.771-2.755,1.537-4.1,2.36l-.133.083c.078.414.153.829.229,1.244.451-.277.907-.545,1.345-.8,2.734-1.613,5.552-3.084,8.267-4.731q.288.408.568.821c.141.207.282.415.42.624q-.208.138-.418.271c-.982.626-2,1.193-2.994,1.734-2.284,1.239-4.672,2.359-6.893,3.731q.112.635.223,1.268c2.433-1.555,5.092-2.775,7.614-4.16.685-.376,1.373-.768,2.051-1.182q.535-.327,1.059-.673.329.521.646,1.048c-.558.413-1.13.808-1.71,1.191-.838.553-1.691,1.08-2.546,1.591-2.251,1.346-4.565,2.593-6.813,3.946.072.422.14.845.21,1.267,2.429-1.486,4.949-2.83,7.389-4.3q.878-.528,1.751-1.083c.788-.5,1.568-1.029,2.324-1.583q.523.913,1.006,1.844c-1.1.564-2.223,1.1-3.35,1.619a88.83,88.83,0,0,0-8.955,4.491c.07.425.143.849.211,1.274.773-.487,1.56-.953,2.366-1.387,2.067-1.112,4.218-2.09,6.358-3.085,1.308-.607,2.613-1.222,3.892-1.877q.811,1.654,1.49,3.355c-1.816.684-3.66,1.3-5.467,2q-.371.145-.739.3c-2.507,1.025-4.995,2.126-7.539,3.063.06.4.124.8.182,1.195q1.6-.583,3.171-1.233c1.628-.671,3.242-1.38,4.881-2.027.161-.064.323-.128.486-.191,1.638-.632,3.3-1.2,4.946-1.81l.5-.188q.564,1.535,1.006,3.1c-2.146.577-4.318,1.071-6.452,1.69l-.612.178c-2.568.748-5.139,1.531-7.644,2.479q.085.6.168,1.208,1.991-.758,4.027-1.39c1.123-.349,2.249-.678,3.377-1,2.383-.676,4.777-1.3,7.177-1.945l.268-.072q.462,1.843.741,3.722c-1.781.438-3.6.744-5.372,1.091-1.024.2-2.042.432-3.056.679-2.271.555-4.525,1.193-6.787,1.788.049.4.1.794.149,1.191,2.179-.569,4.348-1.179,6.532-1.724,1.22-.3,2.445-.588,3.679-.828,1.654-.322,3.347-.619,5.009-1.02q.135,1.177.19,2.366-.578.212-1.172.387a45.43,45.43,0,0,1-7.93,1.39c-2.056.227-4.114.442-6.14.806.047.4.089.8.135,1.206.392-.069.784-.146,1.177-.2,1.555-.231,3.119-.4,4.681-.586,1.608-.187,3.215-.381,4.811-.656a29.069,29.069,0,0,0,4.478-1.092q.019,1.6-.113,3.214c-2.087.228-4.233.2-6.256.3-1.082.056-2.159.178-3.236.309-.956.117-1.912.243-2.87.341-.821.083-1.645.14-2.469.2q.063.6.124,1.192c.9-.064,1.8-.139,2.695-.233.767-.081,1.532-.176,2.3-.269,1.279-.156,2.558-.3,3.847-.365,1.883-.087,3.834-.1,5.749-.291q-.174,1.475-.483,2.958a90.84,90.84,0,0,1-9.688.328c-1.4,0-2.8.029-4.2.088.038.394.079.788.114,1.182,1.26-.054,2.522-.081,3.786-.088,3.245-.021,6.495.023,9.709-.295-.124.5-.263,1-.412,1.5-2.36.489-4.8.7-7.155,1.01-.97.13-1.931.257-2.9.366-.614.07-1.23.133-1.851.184-.3.025-.625.049-.951.074.033.4.069.8.1,1.2q.758-.078,1.516-.137c.258-.02.516-.045.773-.071,1.367-.14,2.719-.352,4.086-.525,1.981-.252,4-.462,5.978-.834-.183.54-.381,1.071-.588,1.6a21.9,21.9,0,0,1-6.209,1.371c-1.32.15-2.649.243-3.977.349-.482.038-.964.085-1.446.129.027.391.057.781.082,1.172.294-.028.587-.057.881-.082,1.734-.144,3.475-.245,5.2-.464a25.574,25.574,0,0,0,4.855-1q-.392.885-.823,1.75a77.338,77.338,0,0,1-9.99,1.732c.022.391.035.784.055,1.176,3.08-.481,6.211-.782,9.219-1.513-.514.967-1.058,1.921-1.62,2.873-.922.175-1.851.312-2.773.431-1.569.2-3.145.356-4.716.533.014.4.023.793.034,1.19,2.215-.243,4.457-.427,6.652-.786-.388.678-.784,1.39-1.2,2.109l-.442.033c-1.658.118-3.319.119-4.98.134.008.361.02.721.025,1.081.012.24.032.482.042.721l-.027,0c0,.4.013.793.021,1.189l.048,0c.011.408.013.816.016,1.224,0-.04,0-.08,0-.12q1.276,0,2.55-.047a12.245,12.245,0,0,1-2.555,2.48l-.008-.005c.007,1.373-.015,2.746-.128,4.111A.246.246,0,0,1,70.659,246.725ZM60.316,172.892c-.028-.015-.057-.027-.084-.042.093.157.175.319.265.477C60.438,173.182,60.376,173.037,60.316,172.892Zm10.94,67.823c.007.373.014.747.019,1.12.007-.374.012-.748.012-1.121Z" transform="translate(-53.135 -168.832)" fill="#15cecb"/>
          </g>
          <g id="Group_6905" data-name="Group 6905" transform="translate(20.201 76.405)">
            <g id="Group_6904" data-name="Group 6904" transform="translate(0)">
              <path id="Path_2978" data-name="Path 2978" d="M59.763,286.42l24.319-.088a1.383,1.383,0,0,1,1.354,1.685l-.886,3.961A1.382,1.382,0,0,1,83.2,293.06l-22.518.081a1.383,1.383,0,0,1-1.353-1.071l-.915-3.956A1.383,1.383,0,0,1,59.763,286.42Z" transform="translate(-58.384 -286.332)" fill="#fff"/>
              <path id="Path_2979" data-name="Path 2979" d="M84.228,297.659l-1.908,13.582a1.87,1.87,0,0,1-1.846,1.61l-14.236.052a1.872,1.872,0,0,1-1.858-1.6l-2.007-13.568Z" transform="translate(-59.736 -290.294)" fill="#fff"/>
            </g>
          </g>
        </g>
      </g>
      <g id="Group_6916" data-name="Group 6916" transform="translate(246.203 23.424)">
        <g id="Group_6915" data-name="Group 6915" transform="translate(0)">
          <g id="Group_6910" data-name="Group 6910" transform="translate(47.427 97.981)">
            <g id="Group_6908" data-name="Group 6908" transform="translate(0.949)">
              <path id="Path_2980" data-name="Path 2980" d="M62.584,379.595l-.475,14.228-.793.048-1.358-11.111Z" transform="translate(-38.546 -232.996)" fill="url(#linear-gradient)"/>
              <path id="Path_2981" data-name="Path 2981" d="M74.118,342.418c-.114,7.125.575,16.3.867,21.1a2.662,2.662,0,0,0,.7.791c-3.693,5.58-2.555,12.3-7.255,17.9-1.951,2.49-3.81,1.183-6.327.07a13.249,13.249,0,0,1,.68-1.247c1.867-2.872.917-5.4,2.069-8.5,1.34-3.61,2.947-6.054,3.036-9.354a142.586,142.586,0,0,0-3.439-20.165c-.392-1.6-.8-3.212-1.2-4.82a41.97,41.97,0,0,0,11.13-2.145C74.233,338.023,74.154,340.185,74.118,342.418Z" transform="translate(-53.241 -221.958)" fill="#febaa6"/>
              <path id="Path_2982" data-name="Path 2982" d="M55.274,202.38c-1.408-8.332,11.382-16.029,18.18-19.153.4,1.231,14.261,10.827,7.448,32.28-4.006,19.133-9.826,37.23-11.208,52.461,6.585,6.481,8.521,17.02,7.242,23.838a49.33,49.33,0,0,0-.641,5.505,41.967,41.967,0,0,1-11.13,2.145c-2.317-9.137-4.719-18.288-5.286-26.865C54.909,262.679,56.568,210.042,55.274,202.38Z" transform="translate(-55.166 -183.227)" fill="#101517"/>
              <path id="Path_2983" data-name="Path 2983" d="M69.26,391.8c4.7-5.591,3.562-12.315,7.255-17.9.944.722,2.161.911,2.3,2.585.2,2.313-1.654,3.357-3.333,4.831-3,2.635-2.761,6.211-3.748,9.505-.7,2.345-1.675,2.883-4.057,3.888-2.172.916-3.282.6-6.287.7-2.64.091-3.462-1.633-.632-2.555,1.645-.537,1.954-.639,2.17-.988C65.45,392.978,67.309,394.285,69.26,391.8Z" transform="translate(-54.075 -231.553)" fill="#15cecb"/>
            </g>
            <g id="Group_6909" data-name="Group 6909" transform="translate(0 7.775)">
              <path id="Path_2984" data-name="Path 2984" d="M54.055,390.114l-1.337,14.172h-.795l-.682-11.173Z" transform="translate(-22.561 -243.437)" fill="#15cecb"/>
              <path id="Path_2985" data-name="Path 2985" d="M67.17,338.321c-.043.192-.078.392-.125.579a77.3,77.3,0,0,0-1.612,11.806c-.546,7.1-.415,16.3-.414,21.109a2.664,2.664,0,0,0,.647.832c-4.025,5.346-3.3,12.126-8.328,17.422-2.1,2.367-3.875.949-6.32-.314a13.412,13.412,0,0,1,.755-1.2c2.038-2.754,1.243-5.331,2.58-8.358,1.557-3.522,3.309-5.863,3.6-9.152a142.532,142.532,0,0,0-2.209-20.337c-.622-3.439-1.3-6.9-1.941-10.337A32.552,32.552,0,0,0,67.17,338.321Z" transform="translate(-35.508 -230.31)" fill="#ffc2b0"/>
              <path id="Path_2986" data-name="Path 2986" d="M49.108,198.5c7.4.143,14.739-2.156,21.714-4.862.327,1.253,13.578,11.672,5.477,32.672C71.139,245.167,64.231,262.878,61.928,278c6.007,6.678,7.389,16.908,5.907,23.654A32.55,32.55,0,0,1,54.467,303.7c-1.381-7.426-2.579-14.775-2.615-21.682-4.361-10.2-1.392-55.705-2.219-63.433-.9-8.4-7.722-3.407-11.679-11.01-1.851-3.557-1.8-9.775-1.773-11.441C40.087,198.011,44.254,198.408,49.108,198.5Z" transform="translate(-36.174 -193.641)" fill="#263238"/>
              <path id="Path_2987" data-name="Path 2987" d="M60.562,401.722c5.03-5.3,4.3-12.076,8.328-17.422.9.778,2.1,1.04,2.143,2.72.058,2.32-1.854,3.25-3.62,4.619-3.156,2.449-3.133,6.033-4.317,9.26-.843,2.3-1.847,2.777-4.285,3.636-2.223.782-3.312.4-6.318.317-2.641-.069-3.356-1.84-.476-2.59,1.675-.435,1.99-.519,2.226-.855C56.687,402.671,58.464,404.089,60.562,401.722Z" transform="translate(-38.732 -241.963)" fill="#15cecb"/>
            </g>
          </g>
          <path id="Path_2988" data-name="Path 2988" d="M124.713,135.471c2.778-4.246,3.1-9.669,2.424-14.7s-2.269-9.9-3.014-14.915a13.215,13.215,0,0,1,.025-5.207c.932-3.63,4.426-6.358,4.729-10.094.325-4.019-3.112-7.25-4.585-11-.926-2.36.9-3.721,1.945-5.607,2.541-4.582,2.546-8.759-.473-13.03a21.86,21.86,0,0,0-10.3-7.911c-5.607-1.933-16.252-1.3-20.519,3.389a17.177,17.177,0,0,0-4.026,10.858,12.185,12.185,0,0,1-.652,4.616c-2.185,4.75-9.923,3.424-13.368,7.358-1.787,2.04-1.956,4.977-2.313,7.666s-1.251,5.692-3.7,6.862c-1.648.788-3.576.523-5.4.525-8.264.013-15.841,6.338-18.249,14.243-3.925,12.888,4.555,24.559,14.5,31.791a51.5,51.5,0,0,0,44.152,7.477,42.066,42.066,0,0,0,13.182-6.738A22.591,22.591,0,0,0,124.713,135.471Z" transform="translate(-46.257 -51.982)" fill="url(#linear-gradient-2)"/>
          <path id="Path_2989" data-name="Path 2989" d="M76.127,149.228c-.671-.517-5.881-15.218-5.926-16.385,1.875-.559,13.5-18.463,17.834-21.582,1.962-1.411,7.821-.331,8.959,1.937,1.4,2.79-.591,6.034-2.317,8.762a32.181,32.181,0,0,1-2.81,3.729,2.172,2.172,0,0,0-.71,2.207c-.392.3-1.028.288-1.368.594-.54.484-.264,1.127-1.035,1.378C88.758,130.5,76.949,149.39,76.127,149.228Z" transform="translate(-32.697 -66.846)" fill="#06a4a1"/>
          <path id="Path_2990" data-name="Path 2990" d="M86.115,200.307c-1.126-.088-2.243-.225-3.349-.388a23.9,23.9,0,0,1,1.674-5.541A57.142,57.142,0,0,0,86.115,200.307Z" transform="translate(-30.728 -88.072)" fill="#fff"/>
          <path id="Path_2991" data-name="Path 2991" d="M46.612,130.382c5.075-8.352,13.342-25.062,18.9-25.062a7.025,7.025,0,0,1,5.63-2.147c6.488.5,10.927,2.479,14,7.768,2.712,4.673,1.784,9.836.294,15.03l-9.186,24.84c-.1,2.249,6.258,13.639,9.234,19.9-3.244,3.767-21.84,13.99-25.058,13.706-.553-1.761-2.927-10.839-3.3-12.691a115.294,115.294,0,0,0-2.3,11.945c-1.766-.293-2.868-7.575-4.467-8.19l2.532-32.541S41.136,139.392,46.612,130.382Z" transform="translate(-3.406 -64.951)" fill="#15cecb"/>
          <g id="Group_6911" data-name="Group 6911" transform="translate(48.589 11.264)">
            <path id="Path_2992" data-name="Path 2992" d="M73.975,87.83l1.517,11.927-12.6,10.908,2.024-6.623-1.327-9.2Z" transform="translate(-53.857 -72.332)" fill="#ffc2b0"/>
            <path id="Path_2993" data-name="Path 2993" d="M60.811,67.07a10.09,10.09,0,0,0,4.013,8.766c2.373,1.819,9.791,4.46,13.531,1.692.092-.068.056-.2.055-.293l.084-.005-.069-1.7a2.452,2.452,0,0,1,2.3-2.546l.055,0A2.455,2.455,0,0,1,83.356,75.2l.158,1.869a2.541,2.541,0,0,1-2.332,2.675A1.593,1.593,0,0,0,79.8,81.462l.087,1.035c.3,3.579-15.365,12.492-17.021,8.862a94.9,94.9,0,0,1-3.839-17.22,35.818,35.818,0,0,1,.1-6.292C59.673,67.56,60.237,67.307,60.811,67.07Z" transform="translate(-58.931 -67.07)" fill="#ffc2b0"/>
          </g>
          <g id="Group_6913" data-name="Group 6913" transform="translate(33.454 62.588)">
            <g id="Group_6912" data-name="Group 6912">
              <path id="Path_2994" data-name="Path 2994" d="M72.646,163.5,47.738,153.184l-1.4,4.212,32.566,21a2.464,2.464,0,0,0,3.436-.236l2.667-41.613-11.244-.73Z" transform="translate(-35.876 -135.818)" fill="#ffc2b0"/>
              <path id="Path_2995" data-name="Path 2995" d="M101.716,150.281c-.559-.966-1.292-2.014-2.4-2.154a2.539,2.539,0,0,0-2,.763,7.458,7.458,0,0,0-1.27,1.8c-.659,1.164,4.158,10.073,7.158,9.827.916-.075.873-1,1.269-1.831C105.722,156.078,103.172,152.8,101.716,150.281Z" transform="translate(-92.749 -138.934)" fill="#ffc2b0"/>
              <path id="Path_2996" data-name="Path 2996" d="M109.566,148.432c-.82-1.435-5.595-1.212-6.893-.32a2.577,2.577,0,0,0-.355,3.057c.847-.225.449-1.194.862-1.724.359-.459.916-.273,1.529-.226C106.366,149.346,108.3,150.6,109.566,148.432Z" transform="translate(-101.97 -138.753)" fill="#b0bec5"/>
              <path id="Path_2997" data-name="Path 2997" d="M109.23,151.286c-.819-1.436-5.595-1.213-6.893-.32a2.578,2.578,0,0,0-.355,3.057c.847-.225.448-1.2.862-1.725.359-.459.916-.273,1.529-.226C106.029,152.2,107.966,153.454,109.23,151.286Z" transform="translate(-101.382 -139.476)" fill="#b0bec5"/>
              <path id="Path_2998" data-name="Path 2998" d="M109.034,153.515c-.82-1.436-5.595-1.213-6.893-.32a2.577,2.577,0,0,0-.355,3.057c.847-.225.449-1.2.862-1.724.359-.46.916-.274,1.529-.227C105.834,154.429,107.771,155.683,109.034,153.515Z" transform="translate(-101.041 -140.041)" fill="#b0bec5"/>
              <path id="Path_2999" data-name="Path 2999" d="M108.169,155.349c-.6-1.059-4.13-.9-5.088-.236a1.9,1.9,0,0,0-.262,2.257c.624-.166.331-.882.636-1.273.265-.339.676-.2,1.129-.167C105.806,156.023,107.236,156.95,108.169,155.349Z" transform="translate(-101.014 -140.575)" fill="#b0bec5"/>
            </g>
          </g>
          <path id="Path_3000" data-name="Path 3000" d="M60.707,162.5a1.709,1.709,0,0,1-.1.788c-.274.572-1.045.652-1.679.62a19.125,19.125,0,0,1-15.5-9.686c.7-.153.913-1.029.985-1.742q1.271-12.539,1.4-25.16c.043-4.269.01-8.664,1.6-12.624a5.592,5.592,0,0,1,2.8-3.332,4.5,4.5,0,0,1,2.987.014,9.168,9.168,0,0,1,5.48,5.916,27.125,27.125,0,0,1,1.072,8.258q.206,7.908.413,15.815l.131,5.026Q60.5,154.444,60.707,162.5Z" transform="translate(24.05 -66.969)" fill="#06a4a1"/>
          <g id="Group_6914" data-name="Group 6914" transform="translate(30.702 35.018)">
            <path id="Path_3001" data-name="Path 3001" d="M96.895,103.905c.844-.734,1.881-1.49,2.976-1.262a2.546,2.546,0,0,1,1.644,1.373,7.471,7.471,0,0,1,.621,2.116c.247,1.318-3.281,5.669-6.046,4.46-.844-.369-4.13-.449-4.236-1.365A58.261,58.261,0,0,1,96.895,103.905Z" transform="translate(-84.247 -99.83)" fill="#febaa6"/>
            <path id="Path_3002" data-name="Path 3002" d="M86.947,103.52c-.024-1.657,8.569-5.413,8.421-4.488.207.83-3.321,2.34-3.827,2.693C90.176,102.678,89.143,104.749,86.947,103.52Z" transform="translate(-73.813 -98.888)" fill="#febaa6"/>
            <path id="Path_3003" data-name="Path 3003" d="M87.822,104.862c.686-1.508,5.474-1.725,6.852-.952a2.582,2.582,0,0,1,.635,3.019c-.865-.146-.557-1.151-1.018-1.642-.4-.426-.94-.189-1.548-.086C91.1,105.48,89.283,106.91,87.822,104.862Z" transform="translate(-74.645 -100.051)" fill="#febaa6"/>
            <path id="Path_3004" data-name="Path 3004" d="M89.009,108.259c.293-1.631,4.88-3.021,6.407-2.611a2.584,2.584,0,0,1,1.359,2.77c-.875.072-.824-.979-1.392-1.34-.493-.314-.957.049-1.521.3C92.339,108.05,90.93,109.884,89.009,108.259Z" transform="translate(-76.823 -100.583)" fill="#febaa6"/>
            <path id="Path_3005" data-name="Path 3005" d="M90.276,109.595c.3-1.186,3.751-1.972,4.853-1.592a1.909,1.909,0,0,1,.858,2.11c-.648.007-.556-.764-.956-1.059-.348-.257-.708-.013-1.136.141C92.74,109.614,91.607,110.891,90.276,109.595Z" transform="translate(-76.989 -101.174)" fill="#febaa6"/>
            <path id="Path_3006" data-name="Path 3006" d="M107.576,111.476l-7.236,31.475c-1.784,5.279,3.237,9.56,7.444,6.835a5.085,5.085,0,0,0,2.21-4.12c.618-17.5,1.819-32.824,1.819-32.824Z" transform="translate(-99.969 -102.079)" fill="#febaa6"/>
          </g>
          <path id="Path_3007" data-name="Path 3007" d="M72.91,102.019a17.879,17.879,0,0,0,2.728,1.426.358.358,0,0,1,.161.538,77.5,77.5,0,0,0-5.742,9.748,12.087,12.087,0,0,0-1.556,5c-1.405-1.015-2.587-2.333-4.075-3.222s-5.2,1.318-6.64,2.282c2.675-5.164,7.505-8.18,10.395-10.974a29.746,29.746,0,0,0,4.209-4.689A.376.376,0,0,1,72.91,102.019Z" transform="translate(-1.828 -64.649)" fill="#fff"/>
          <path id="Path_3008" data-name="Path 3008" d="M77.06,117.691a8.182,8.182,0,0,0,.985-.635c.9-.493,2.561.729,2.643,1.76.985-2.06,1.635-4.619,2.62-6.672l1.068-3.494L84,106c-.358.366-.717.739-1.075,1.1a2.246,2.246,0,0,0-.381.463,2.745,2.745,0,0,0-.254.806A17.917,17.917,0,0,1,77.06,117.691Z" transform="translate(-24.729 -65.673)" fill="#fff"/>
        </g>
      </g>
    </g>
  </g>
</svg>
