<svg xmlns="http://www.w3.org/2000/svg" width="22" height="18" viewBox="0 0 22 18"><g><g><path fill="#fff" d="M21.743 2.091c-.809.355-1.67.59-2.569.704A4.432 4.432 0 0 0 21.135.332 8.908 8.908 0 0 1 18.31 1.41a4.456 4.456 0 0 0-7.71 3.048c0 .353.03.693.102 1.016-3.705-.18-6.984-1.957-9.187-4.662a4.488 4.488 0 0 0-.61 2.253c0 1.544.795 2.912 1.98 3.704A4.402 4.402 0 0 1 .87 6.221v.05a4.478 4.478 0 0 0 3.57 4.379c-.362.1-.757.147-1.168.147a3.94 3.94 0 0 1-.844-.076c.578 1.765 2.217 3.063 4.165 3.105a8.956 8.956 0 0 1-5.526 1.9A8.35 8.35 0 0 1 0 15.667c1.974 1.273 4.315 2 6.838 2 8.203 0 12.687-6.795 12.687-12.684 0-.197-.007-.387-.016-.576a8.892 8.892 0 0 0 2.234-2.315z"/></g></g></svg>