<svg id="user" xmlns="http://www.w3.org/2000/svg" width="15" height="16.758" viewBox="0 0 15 16.758">
  <g id="Group_7393" data-name="Group 7393" transform="translate(3.278)">
    <g id="Group_7392" data-name="Group 7392" transform="translate(0)">
      <path id="Path_3151" data-name="Path 3151" d="M115.014,0a4.223,4.223,0,1,0,4.223,4.223A4.234,4.234,0,0,0,115.014,0Z" transform="translate(-110.791 0)" fill="#17468f"/>
    </g>
  </g>
  <g id="Group_7395" data-name="Group 7395" transform="translate(0 9.24)">
    <g id="Group_7394" data-name="Group 7394" transform="translate(0)">
      <path id="Path_3152" data-name="Path 3152" d="M39.133,250.913a3.9,3.9,0,0,0-.437-.775,5.429,5.429,0,0,0-3.743-2.287.82.82,0,0,0-.551.129,4.752,4.752,0,0,1-5.472,0,.729.729,0,0,0-.551-.129,5.389,5.389,0,0,0-3.743,2.287,4.5,4.5,0,0,0-.437.775.382.382,0,0,0,.019.35,7.351,7.351,0,0,0,.513.738,7.081,7.081,0,0,0,.874.959,11.3,11.3,0,0,0,.874.738,8.875,8.875,0,0,0,10.336,0,8.289,8.289,0,0,0,.874-.738,8.6,8.6,0,0,0,.874-.959,6.456,6.456,0,0,0,.513-.738A.308.308,0,0,0,39.133,250.913Z" transform="translate(-24.165 -247.841)" fill="#17468f"/>
    </g>
  </g>
</svg>
