<svg xmlns="http://www.w3.org/2000/svg" width="22" height="22" viewBox="0 0 22 22"><g><g><path fill="#fff" d="M12.157 11.046l8.706-8.706a.785.785 0 1 0-1.11-1.11l-8.706 8.706L2.34 1.23a.785.785 0 1 0-1.11 1.11l8.707 8.706-8.707 8.707a.785.785 0 1 0 1.11 1.11l8.707-8.707 8.706 8.707a.782.782 0 0 0 1.11 0 .785.785 0 0 0 0-1.11z"/><path fill="none" stroke="#fff" stroke-miterlimit="20" d="M12.157 11.046v0l8.706-8.706a.785.785 0 1 0-1.11-1.11l-8.706 8.706v0L2.34 1.23a.785.785 0 1 0-1.11 1.11l8.707 8.706v0L1.23 19.753a.785.785 0 1 0 1.11 1.11l8.707-8.707v0l8.706 8.707a.782.782 0 0 0 1.11 0 .785.785 0 0 0 0-1.11z"/></g></g></svg>